<svg width="1458" height="900" viewBox="0 0 1458 900" fill="none" xmlns="http://www.w3.org/2000/svg">
<g clip-path="url(#clip0_130_89)">
<path d="M90.989 151.86L108.557 129.896L101.236 124.04L83.6679 146.004L90.989 151.86Z" stroke="#222222" stroke-width="2" stroke-miterlimit="10"/>
<path d="M99.2869 166.5L124.663 134.775L112.461 125.015L87.0851 156.74L99.2869 166.5Z" stroke="#222222" stroke-width="2" stroke-miterlimit="10"/>
<path d="M103.191 161.619L108.072 165.523L117.102 186.753L168.103 195.533L148.334 147.707L125.639 143.56L120.759 139.656" stroke="#222222" stroke-width="2" stroke-miterlimit="10"/>
<path d="M129.21 164.424C127.054 167.119 127.491 171.052 130.187 173.208C132.882 175.364 136.815 174.927 138.971 172.231C141.127 169.536 140.69 165.603 137.995 163.447C135.299 161.291 131.366 161.728 129.21 164.424Z" stroke="#222222" stroke-width="2" stroke-miterlimit="10"/>
<path d="M168.103 195.533L138.819 172.109" stroke="#222222" stroke-width="2" stroke-miterlimit="10"/>
</g>
<g clip-path="url(#clip1_130_89)">
<path d="M1298.13 649.718C1294.46 647.97 1292.9 643.559 1294.64 639.888C1296.23 636.562 1300 634.965 1303.42 635.994L1313.24 615.378L1308.61 613.175C1308.05 612.907 1307.82 612.237 1308.08 611.675L1313.46 600.39C1313.73 599.828 1314.4 599.591 1314.96 599.858L1319.58 602.062L1329.4 581.446C1326.45 579.436 1325.31 575.503 1326.9 572.177C1328.64 568.506 1333.06 566.942 1336.73 568.69C1340.4 570.438 1341.96 574.849 1340.21 578.519C1338.63 581.846 1334.86 583.443 1331.44 582.414L1324.26 597.48C1336.5 585.029 1355.87 581.27 1372.06 588.981C1377.02 591.344 1381.38 594.581 1385.03 598.612C1387.05 597.486 1389.57 597.32 1391.81 598.387C1395.48 600.137 1397.04 604.546 1395.3 608.217C1393.55 611.888 1389.14 613.454 1385.47 611.704C1381.79 609.954 1380.23 605.545 1381.98 601.874C1382.31 601.169 1382.75 600.541 1383.26 600C1379.82 596.243 1375.74 593.224 1371.09 591.012C1354.05 582.897 1333.3 588.21 1322.24 603.325L1326.24 605.233C1326.8 605.501 1327.04 606.171 1326.77 606.733L1321.4 618.018C1321.13 618.579 1320.46 618.817 1319.9 618.55L1315.89 616.642C1311.13 634.755 1320.08 654.219 1337.12 662.335C1341.76 664.547 1346.69 665.815 1351.76 666.115C1351.87 665.378 1352.08 664.648 1352.41 663.943C1354.16 660.27 1358.57 658.708 1362.24 660.456C1365.92 662.204 1367.48 666.615 1365.73 670.286C1363.98 673.956 1359.57 675.521 1355.9 673.773C1353.66 672.706 1352.21 670.645 1351.81 668.369C1346.38 668.074 1341.12 666.731 1336.15 664.366C1319.96 656.654 1310.68 639.249 1312.63 621.895L1305.45 636.961C1308.41 638.972 1309.55 642.905 1307.96 646.231C1306.21 649.904 1301.8 651.466 1298.13 649.718ZM1303.51 638.433C1300.96 637.218 1297.89 638.302 1296.68 640.856C1295.46 643.409 1296.55 646.472 1299.1 647.687C1301.65 648.901 1304.72 647.814 1305.93 645.263C1307.14 642.713 1306.06 639.647 1303.51 638.433ZM1361.28 662.488C1358.73 661.273 1355.66 662.357 1354.45 664.911C1353.23 667.464 1354.32 670.525 1356.87 671.741C1359.42 672.958 1362.48 671.872 1363.7 669.318C1364.92 666.765 1363.83 663.702 1361.28 662.488ZM1310.6 611.627L1319.85 616.035L1324.26 606.781L1315.01 602.373L1310.6 611.627ZM1390.84 600.419C1388.29 599.204 1385.22 600.291 1384.01 602.842C1382.8 605.392 1383.88 608.458 1386.43 609.673C1388.98 610.887 1392.05 609.8 1393.26 607.249C1394.48 604.699 1393.39 601.633 1390.84 600.419ZM1335.76 570.721C1333.21 569.506 1330.14 570.594 1328.93 573.144C1327.71 575.695 1328.8 578.76 1331.35 579.975C1333.9 581.19 1336.97 580.102 1338.18 577.552C1339.4 575.001 1338.31 571.936 1335.76 570.721Z" fill="#222222"/>
</g>
<g clip-path="url(#clip2_130_89)">
<path opacity="0.5" fill-rule="evenodd" clip-rule="evenodd" d="M577.183 106.29L589.591 151.05C591.647 158.467 599.374 161.375 603.605 156.322L623.12 131.628L615.927 105.677L586.483 94.5548C580.254 92.4022 575.127 98.8725 577.183 106.29Z" fill="#222222"/>
<path d="M614.096 99.0703L615.927 105.677L623.121 131.628L624.953 138.235C626.752 144.725 633.781 147.195 637.701 142.714L662.055 114.876C666.089 110.265 663.761 101.869 657.93 99.9936L622.719 88.6672C617.051 86.8441 612.297 92.5799 614.096 99.0703Z" fill="#222222"/>
</g>
<path d="M78.75 575.231C67.4348 583.067 53.7163 586.657 40.0131 585.368C39.3707 585.294 38.7604 585.047 38.2478 584.653C37.7353 584.259 37.3399 583.733 37.1042 583.13L19.8485 517.339C19.6985 516.766 19.7814 516.157 20.0792 515.645C20.377 515.133 20.8654 514.76 21.4375 514.608L60.1973 504.449C60.7701 504.299 61.379 504.382 61.8908 504.68C62.4026 504.977 62.7756 505.466 62.9283 506.038L80.1594 571.809C80.2892 572.455 80.2246 573.125 79.9737 573.735C79.7229 574.344 79.297 574.864 78.75 575.231Z" stroke="#222222" stroke-width="2" stroke-linecap="round" stroke-linejoin="round"/>
<path d="M35.7854 542.233L61.2333 535.567L55.1854 512.815L29.825 519.581L35.7854 542.233Z" stroke="#222222" stroke-width="2" stroke-linecap="round" stroke-linejoin="round"/>
<path d="M70.8837 536.615C71.1962 537.998 70.1546 538.833 68.9517 539.8V539.798C57.6437 546.952 44.3962 550.426 31.0325 549.742C29.5706 549.586 28.2146 549.271 27.8473 547.889" stroke="#222222" stroke-width="2" stroke-linecap="round" stroke-linejoin="round"/>
<path d="M43.4808 567.937L41.1529 559.029" stroke="#222222" stroke-width="2" stroke-linecap="round" stroke-linejoin="round"/>
<path d="M37.8642 564.646L46.7698 562.318" stroke="#222222" stroke-width="2" stroke-linecap="round" stroke-linejoin="round"/>
<path d="M61.786 561.155C63.0466 561.155 64.0685 560.134 64.0685 558.873C64.0685 557.612 63.0466 556.59 61.786 556.59C60.5255 556.59 59.5035 557.612 59.5035 558.873C59.5035 560.134 60.5255 561.155 61.786 561.155Z" stroke="#222222" stroke-width="2" stroke-linecap="round" stroke-linejoin="round"/>
<path d="M69.0596 556.545C70.3202 556.545 71.3421 555.523 71.3421 554.263C71.3421 553.002 70.3202 551.98 69.0596 551.98C67.799 551.98 66.7771 553.002 66.7771 554.263C66.7771 555.523 67.799 556.545 69.0596 556.545Z" stroke="#222222" stroke-width="2" stroke-linecap="round" stroke-linejoin="round"/>
<path d="M53.9302 574L57.2437 573.128" stroke="#222222" stroke-width="2" stroke-linecap="round" stroke-linejoin="round"/>
<path d="M60.7796 572.21L64.0686 571.337" stroke="#222222" stroke-width="2" stroke-linecap="round" stroke-linejoin="round"/>
<path d="M1296.17 186.356C1297.66 187.214 1298.18 189.124 1297.32 190.621L1265.49 246.109C1264.63 247.606 1262.72 248.123 1261.23 247.265C1259.73 246.406 1259.21 244.496 1260.07 242.999L1291.9 187.511C1292.76 186.014 1294.67 185.497 1296.17 186.356Z" fill="#222222"/>
<path d="M1302.02 201.063C1303.46 200.119 1305.4 200.524 1306.34 201.969L1311.67 210.122C1313.93 213.577 1315.81 216.443 1316.96 218.898C1318.18 221.48 1318.84 224.083 1318.1 226.884C1317.36 229.684 1315.49 231.618 1313.16 233.259C1310.94 234.82 1307.89 236.382 1304.22 238.265L1295.55 242.708C1294.01 243.496 1292.13 242.889 1291.34 241.354C1290.55 239.818 1291.16 237.934 1292.7 237.147L1301.16 232.808C1305.09 230.793 1307.74 229.425 1309.56 228.145C1311.31 226.916 1311.85 226.07 1312.06 225.283C1312.27 224.496 1312.22 223.496 1311.31 221.562C1310.36 219.547 1308.73 217.046 1306.32 213.349L1301.11 205.389C1300.17 203.944 1300.57 202.007 1302.02 201.063Z" fill="#222222"/>
<path d="M1264.88 195.787C1266.41 194.999 1267.02 193.116 1266.23 191.58C1265.45 190.044 1263.56 189.438 1262.03 190.225L1253.36 194.669C1249.69 196.552 1246.64 198.114 1244.42 199.674C1242.08 201.315 1240.22 203.249 1239.48 206.049C1238.73 208.85 1239.4 211.453 1240.61 214.035C1241.77 216.491 1243.64 219.357 1245.9 222.812L1251.23 230.964C1252.18 232.409 1254.11 232.815 1255.56 231.871C1257 230.926 1257.41 228.99 1256.46 227.545L1251.26 219.585C1248.84 215.888 1247.22 213.386 1246.27 211.371C1245.36 209.437 1245.31 208.438 1245.52 207.65C1245.73 206.863 1246.26 206.017 1248.01 204.788C1249.83 203.508 1252.49 202.14 1256.42 200.125L1264.88 195.787Z" fill="#222222"/>
<g clip-path="url(#clip3_130_89)">
<path d="M630.194 760.545L544.804 743.105C543.027 742.742 541.774 741.066 542.049 739.274C542.343 737.358 544.181 736.095 546.058 736.478L568.762 741.115C568.762 741.115 569.891 741.353 570.019 741.341L590.782 739.302C590.988 739.281 591.186 739.211 591.358 739.097L629.689 713.768C632.401 711.977 634.163 709.136 634.558 705.864C634.83 703.614 634.389 701.317 633.302 699.328C631.734 696.458 629.075 694.483 625.928 693.809C622.98 693.177 619.901 693.831 617.386 695.494L579.213 720.718C579.041 720.832 578.899 720.986 578.799 721.167L569.244 738.623L546.689 734.016C543.538 733.373 540.367 735.294 539.63 738.424C538.865 741.677 540.949 744.909 544.2 745.573L629.583 763.011C631.864 763.477 633.448 765.645 633.069 767.943C632.67 770.358 630.342 771.944 627.966 771.458L565.094 758.617C564.407 758.477 563.737 758.92 563.597 759.607C563.456 760.294 563.899 760.964 564.586 761.105L627.324 773.918C631.073 774.684 634.847 772.259 635.549 768.498C636.231 764.844 633.85 761.292 630.194 760.545ZM625.313 696.274C627.531 696.727 629.44 698.017 630.689 699.906C631.937 701.794 632.374 704.056 631.921 706.275C631.501 708.334 630.358 710.126 628.685 711.371C629.594 708.347 629.207 704.956 627.334 702.122C625.461 699.288 622.494 697.602 619.355 697.252C621.157 696.202 623.253 695.853 625.313 696.274ZM625.216 703.522C627.792 707.42 626.717 712.686 622.822 715.264L592.231 735.478C592.391 729.325 588.586 723.603 582.85 721.357L613.472 701.123C617.371 698.546 622.64 699.622 625.216 703.522ZM580.542 723.271C586.64 724.817 590.525 730.656 589.57 736.87L581.249 737.687C581.162 734.692 579.347 731.864 576.533 730.595L580.542 723.271ZM575.309 732.831C577.367 733.666 578.743 735.719 578.719 737.936L572.162 738.58L575.309 732.831Z" fill="#222222"/>
</g>
<g clip-path="url(#clip4_130_89)">
<path d="M232.123 816.09C232.136 816.015 232.161 815.943 232.198 815.877C232.22 815.814 232.248 815.753 232.281 815.695L232.417 815.468C232.477 815.388 232.519 815.297 232.594 815.213C232.7 815.058 232.832 814.879 232.98 814.697C233.153 814.492 233.342 814.283 233.543 814.055C233.905 813.641 234.31 813.2 234.722 812.79C235.134 812.38 235.538 811.939 235.913 811.571C240.657 806.81 248.561 798.866 242.353 788.203C242.288 788.069 242.207 787.943 242.113 787.828C242.076 787.752 242.026 787.683 241.965 787.624C241.931 787.57 241.892 787.521 241.847 787.476C236.389 781.623 229.324 777.512 221.539 775.66C213.753 773.807 205.594 774.296 198.085 777.064C190.576 779.831 184.051 784.756 179.33 791.218C174.61 797.68 171.903 805.393 171.549 813.388C171.196 821.383 173.212 829.305 177.344 836.158C181.477 843.012 187.541 848.492 194.777 851.911C202.012 855.331 210.097 856.537 218.016 855.379C225.934 854.22 233.334 850.749 239.287 845.4C239.411 845.304 239.524 845.194 239.624 845.073C239.66 845.036 239.693 844.995 239.722 844.951C243.017 841.089 245.213 834.539 240.579 828.764C239.31 827.183 238.146 825.833 237.109 824.661C235.771 823.241 234.559 821.709 233.486 820.081C233.355 819.876 233.237 819.664 233.132 819.445C232.59 818.411 232.245 817.284 232.115 816.124C232.112 816.109 232.127 816.105 232.123 816.09ZM189.487 820.9C189.135 819.507 189.204 818.041 189.685 816.687C190.166 815.333 191.038 814.152 192.191 813.293C193.343 812.435 194.724 811.938 196.159 811.864C197.594 811.791 199.019 812.145 200.253 812.881C201.487 813.617 202.475 814.703 203.092 816C203.71 817.298 203.928 818.75 203.72 820.172C203.512 821.594 202.887 822.922 201.924 823.989C200.961 825.055 199.704 825.812 198.311 826.165C196.443 826.635 194.464 826.345 192.81 825.358C191.155 824.371 189.96 822.768 189.487 820.9ZM207.536 838.628C206.473 838.898 205.355 838.847 204.321 838.481C203.288 838.115 202.387 837.45 201.731 836.572C201.076 835.693 200.696 834.64 200.64 833.545C200.583 832.45 200.853 831.363 201.414 830.422C201.976 829.481 202.804 828.727 203.794 828.257C204.785 827.786 205.892 827.62 206.977 827.78C208.061 827.939 209.074 828.417 209.887 829.152C210.7 829.887 211.276 830.847 211.543 831.91C211.9 833.332 211.678 834.838 210.927 836.097C210.176 837.356 208.957 838.266 207.536 838.628ZM210.668 809.504C208.711 809.998 206.651 809.899 204.749 809.222C202.847 808.545 201.189 807.319 199.983 805.699C198.778 804.08 198.08 802.139 197.977 800.123C197.874 798.107 198.371 796.105 199.406 794.371C200.44 792.638 201.965 791.249 203.788 790.382C205.611 789.515 207.65 789.207 209.648 789.499C211.646 789.79 213.512 790.667 215.012 792.019C216.511 793.371 217.576 795.137 218.072 797.094C218.735 799.721 218.326 802.503 216.938 804.829C215.549 807.155 213.293 808.835 210.667 809.498L210.668 809.504Z" fill="#222222"/>
</g>
<g clip-path="url(#clip5_130_89)">
<path d="M1184.49 820.43L1193.28 809.448L1189.62 806.52L1180.83 817.502L1184.49 820.43Z" stroke="#222222" stroke-width="2" stroke-miterlimit="10"/>
<path d="M1188.64 827.75L1201.33 811.888L1195.23 807.008L1182.54 822.87L1188.64 827.75Z" stroke="#222222" stroke-width="2" stroke-miterlimit="10"/>
<path d="M1190.6 825.31L1193.04 827.262L1197.55 837.876L1223.05 842.267L1213.17 818.353L1201.82 816.28L1199.38 814.328" stroke="#222222" stroke-width="2" stroke-miterlimit="10"/>
<path d="M1203.6 826.712C1202.53 828.06 1202.75 830.026 1204.09 831.104C1205.44 832.182 1207.41 831.963 1208.49 830.616C1209.56 829.268 1209.35 827.301 1208 826.223C1206.65 825.145 1204.68 825.364 1203.6 826.712Z" stroke="#222222" stroke-width="2" stroke-miterlimit="10"/>
<path d="M1223.05 842.267L1208.41 830.555" stroke="#222222" stroke-width="2" stroke-miterlimit="10"/>
</g>
<g clip-path="url(#clip6_130_89)">
<path d="M222.566 315.859C220.731 314.985 219.948 312.779 220.822 310.944C221.615 309.281 223.499 308.482 225.211 308.997L230.121 298.689L227.807 297.587C227.527 297.454 227.408 297.118 227.541 296.838L230.229 291.195C230.363 290.914 230.698 290.795 230.979 290.929L233.292 292.031L238.202 281.723C236.723 280.718 236.156 278.752 236.948 277.088C237.822 275.253 240.028 274.471 241.863 275.345C243.698 276.219 244.481 278.424 243.606 280.26C242.814 281.923 240.93 282.721 239.218 282.207L235.63 289.74C241.752 283.514 251.435 281.635 259.53 285.49C262.011 286.672 264.191 288.29 266.017 290.306C267.026 289.743 268.284 289.66 269.404 290.194C271.241 291.068 272.022 293.273 271.148 295.109C270.273 296.944 268.069 297.727 266.233 296.852C264.396 295.977 263.615 293.772 264.489 291.937C264.657 291.584 264.874 291.271 265.128 291C263.411 289.122 261.368 287.612 259.046 286.506C250.527 282.448 240.149 285.105 234.618 292.662L236.621 293.617C236.902 293.75 237.021 294.086 236.887 294.366L234.2 300.009C234.066 300.29 233.731 300.409 233.45 300.275L231.447 299.321C229.063 308.377 233.541 318.11 242.06 322.167C244.382 323.273 246.844 323.908 249.382 324.058C249.433 323.689 249.539 323.324 249.707 322.972C250.582 321.135 252.787 320.354 254.622 321.228C256.458 322.102 257.24 324.308 256.366 326.143C255.492 327.978 253.286 328.761 251.451 327.886C250.331 327.353 249.603 326.323 249.405 325.184C246.69 325.037 244.059 324.366 241.576 323.183C233.481 319.327 228.839 310.624 229.815 301.948L226.227 309.481C227.705 310.486 228.273 312.452 227.481 314.115C226.606 315.952 224.401 316.733 222.566 315.859ZM225.253 310.216C223.978 309.609 222.446 310.151 221.838 311.428C221.23 312.705 221.774 314.236 223.05 314.843C224.325 315.451 225.858 314.907 226.465 313.632C227.072 312.356 226.529 310.824 225.253 310.216ZM254.139 322.244C252.863 321.636 251.331 322.179 250.723 323.455C250.115 324.732 250.658 326.263 251.935 326.871C253.211 327.479 254.742 326.936 255.35 325.659C255.958 324.383 255.414 322.851 254.139 322.244ZM228.799 296.813L233.426 299.017L235.63 294.39L231.003 292.187L228.799 296.813ZM268.92 291.209C267.645 290.602 266.112 291.146 265.505 292.421C264.898 293.696 265.441 295.229 266.717 295.836C267.992 296.444 269.525 295.9 270.132 294.625C270.739 293.349 270.196 291.817 268.92 291.209ZM241.379 276.361C240.104 275.753 238.571 276.297 237.964 277.572C237.356 278.847 237.9 280.38 239.175 280.988C240.451 281.595 241.983 281.051 242.591 279.776C243.198 278.501 242.654 276.968 241.379 276.361Z" fill="#222222"/>
</g>
<g clip-path="url(#clip7_130_89)">
<path opacity="0.5" fill-rule="evenodd" clip-rule="evenodd" d="M480.592 488.502L486.795 510.881C487.823 514.59 491.687 516.044 493.802 513.518L503.56 501.171L499.963 488.195L485.241 482.634C482.127 481.558 479.564 484.793 480.592 488.502Z" fill="#222222"/>
<path d="M499.048 484.892L499.964 488.195L503.561 501.171L504.476 504.474C505.376 507.719 508.89 508.954 510.85 506.713L523.028 492.794C525.044 490.489 523.881 486.291 520.965 485.353L503.359 479.69C500.526 478.779 498.148 481.646 499.048 484.892Z" fill="#222222"/>
</g>
<path d="M912.375 782.116C906.717 786.034 899.858 787.829 893.007 787.184C892.685 787.147 892.38 787.024 892.124 786.827C891.868 786.629 891.67 786.366 891.552 786.065L882.924 753.169C882.849 752.883 882.891 752.578 883.04 752.323C883.188 752.067 883.433 751.88 883.719 751.804L903.099 746.724C903.385 746.649 903.689 746.691 903.945 746.84C904.201 746.989 904.388 747.233 904.464 747.519L913.08 780.404C913.145 780.727 913.112 781.062 912.987 781.367C912.861 781.672 912.649 781.932 912.375 782.116Z" stroke="#222222" stroke-linecap="round" stroke-linejoin="round"/>
<path d="M890.893 765.617L903.617 762.283L900.593 750.907L887.913 754.291L890.893 765.617Z" stroke="#222222" stroke-linecap="round" stroke-linejoin="round"/>
<path d="M908.442 762.807C908.598 763.499 908.077 763.916 907.476 764.4V764.399C901.822 767.976 895.198 769.713 888.516 769.371C887.785 769.293 887.107 769.136 886.924 768.444" stroke="#222222" stroke-linecap="round" stroke-linejoin="round"/>
<path d="M894.74 778.469L893.576 774.015" stroke="#222222" stroke-linecap="round" stroke-linejoin="round"/>
<path d="M891.932 776.823L896.385 775.659" stroke="#222222" stroke-linecap="round" stroke-linejoin="round"/>
<path d="M903.893 775.078C904.523 775.078 905.034 774.567 905.034 773.936C905.034 773.306 904.523 772.795 903.893 772.795C903.263 772.795 902.752 773.306 902.752 773.936C902.752 774.567 903.263 775.078 903.893 775.078Z" stroke="#222222" stroke-linecap="round" stroke-linejoin="round"/>
<path d="M907.53 772.773C908.16 772.773 908.671 772.262 908.671 771.631C908.671 771.001 908.16 770.49 907.53 770.49C906.9 770.49 906.389 771.001 906.389 771.631C906.389 772.262 906.9 772.773 907.53 772.773Z" stroke="#222222" stroke-linecap="round" stroke-linejoin="round"/>
<path d="M899.965 781.5L901.622 781.064" stroke="#222222" stroke-linecap="round" stroke-linejoin="round"/>
<path d="M903.39 780.605L905.034 780.169" stroke="#222222" stroke-linecap="round" stroke-linejoin="round"/>
<path d="M567.892 303.178C568.64 303.607 568.899 304.562 568.469 305.311L552.553 333.055C552.124 333.803 551.169 334.062 550.42 333.632C549.672 333.203 549.413 332.248 549.843 331.499L565.759 303.756C566.188 303.007 567.143 302.748 567.892 303.178Z" fill="#222222"/>
<path d="M570.817 310.532C571.539 310.059 572.508 310.262 572.98 310.984L575.644 315.061C576.774 316.788 577.71 318.221 578.289 319.449C578.897 320.74 579.228 322.042 578.857 323.442C578.486 324.842 577.554 325.809 576.386 326.63C575.276 327.41 573.752 328.191 571.916 329.132L567.582 331.354C566.814 331.748 565.872 331.445 565.479 330.677C565.085 329.909 565.388 328.967 566.156 328.574L570.387 326.404C572.352 325.397 573.679 324.713 574.59 324.072C575.465 323.458 575.732 323.035 575.836 322.641C575.941 322.248 575.918 321.748 575.462 320.781C574.987 319.774 574.174 318.523 572.966 316.674L570.364 312.694C569.892 311.972 570.095 311.004 570.817 310.532Z" fill="#222222"/>
<path d="M552.247 307.893C553.015 307.5 553.318 306.558 552.924 305.79C552.531 305.022 551.589 304.719 550.821 305.113L546.488 307.334C544.651 308.276 543.128 309.057 542.017 309.837C540.849 310.658 539.917 311.624 539.546 313.025C539.175 314.425 539.506 315.727 540.114 317.018C540.693 318.246 541.629 319.678 542.759 321.406L545.423 325.482C545.895 326.205 546.864 326.407 547.586 325.935C548.308 325.463 548.511 324.495 548.039 323.773L545.437 319.792C544.229 317.944 543.416 316.693 542.941 315.686C542.486 314.719 542.463 314.219 542.567 313.825C542.671 313.432 542.939 313.009 543.813 312.394C544.724 311.754 546.051 311.07 548.016 310.063L552.247 307.893Z" fill="#222222"/>
<g clip-path="url(#clip8_130_89)">
<path d="M1331.1 394.273L1288.41 385.552C1287.52 385.371 1286.89 384.533 1287.03 383.637C1287.18 382.679 1288.1 382.047 1289.03 382.239L1300.39 384.558C1300.39 384.558 1300.95 384.677 1301.02 384.67L1311.4 383.651C1311.5 383.641 1311.6 383.606 1311.68 383.549L1330.85 370.884C1332.21 369.988 1333.09 368.568 1333.28 366.932C1333.42 365.807 1333.2 364.659 1332.66 363.664C1331.87 362.229 1330.54 361.242 1328.97 360.904C1327.5 360.589 1325.96 360.916 1324.7 361.747L1305.61 374.359C1305.53 374.416 1305.45 374.493 1305.41 374.584L1300.63 383.311L1289.35 381.008C1287.77 380.686 1286.19 381.647 1285.82 383.212C1285.44 384.839 1286.48 386.454 1288.11 386.786L1330.8 395.506C1331.94 395.739 1332.73 396.823 1332.54 397.971C1332.34 399.179 1331.18 399.972 1329.99 399.729L1298.55 393.309C1298.21 393.239 1297.87 393.46 1297.8 393.804C1297.73 394.147 1297.96 394.482 1298.3 394.552L1329.67 400.959C1331.54 401.342 1333.43 400.13 1333.78 398.249C1334.12 396.422 1332.93 394.646 1331.1 394.273ZM1328.66 362.137C1329.77 362.363 1330.73 363.008 1331.35 363.953C1331.97 364.897 1332.19 366.028 1331.97 367.137C1331.76 368.167 1331.18 369.063 1330.35 369.686C1330.8 368.174 1330.61 366.478 1329.67 365.061C1328.74 363.644 1327.25 362.801 1325.68 362.626C1326.58 362.101 1327.63 361.927 1328.66 362.137ZM1328.61 365.761C1329.9 367.71 1329.36 370.343 1327.42 371.632L1312.12 381.739C1312.2 378.662 1310.3 375.802 1307.43 374.679L1322.74 364.561C1324.69 363.273 1327.33 363.811 1328.61 365.761ZM1306.28 375.636C1309.33 376.408 1311.27 379.328 1310.79 382.435L1306.63 382.844C1306.59 381.346 1305.68 379.932 1304.27 379.298L1306.28 375.636ZM1303.66 380.416C1304.69 380.833 1305.38 381.859 1305.36 382.968L1302.09 383.29L1303.66 380.416Z" fill="#222222"/>
</g>
<g clip-path="url(#clip9_130_89)">
<path d="M964.061 92.5449C964.068 92.5076 964.081 92.4717 964.099 92.4387C964.11 92.4072 964.124 92.3768 964.141 92.3477L964.208 92.2338C964.239 92.1939 964.259 92.1484 964.297 92.1066C964.35 92.0288 964.416 91.9396 964.49 91.8485C964.577 91.7459 964.671 91.6415 964.771 91.5275C964.953 91.3205 965.155 91.1002 965.361 90.8951C965.567 90.6899 965.769 90.4696 965.956 90.2853C968.328 87.9051 972.28 83.9331 969.176 78.6014C969.144 78.5345 969.104 78.4716 969.057 78.4141C969.038 78.3761 969.013 78.3415 968.982 78.3119C968.966 78.2852 968.946 78.2605 968.924 78.2382C966.195 75.3116 962.662 73.2562 958.769 72.33C954.876 71.4037 950.797 71.6479 947.042 73.0318C943.288 74.4157 940.026 76.8778 937.665 80.1089C935.305 83.3401 933.951 87.1964 933.775 91.194C933.598 95.1916 934.606 99.1523 936.672 102.579C938.738 106.006 941.771 108.746 945.388 110.456C949.006 112.165 953.048 112.769 957.008 112.189C960.967 111.61 964.667 109.874 967.644 107.2C967.706 107.152 967.762 107.097 967.812 107.037C967.83 107.018 967.846 106.997 967.861 106.976C969.508 105.045 970.607 101.769 968.29 98.8819C967.655 98.0915 967.073 97.4165 966.554 96.8304C965.886 96.1207 965.28 95.3545 964.743 94.5403C964.677 94.4382 964.618 94.332 964.566 94.2225C964.295 93.7054 964.123 93.1422 964.058 92.562C964.056 92.5544 964.063 92.5525 964.061 92.5449ZM942.743 94.9501C942.567 94.2536 942.602 93.5204 942.842 92.8434C943.083 92.1664 943.519 91.5759 944.095 91.1468C944.672 90.7176 945.362 90.4689 946.08 90.4321C946.797 90.3954 947.51 90.5723 948.127 90.9404C948.744 91.3085 949.238 91.8513 949.546 92.5002C949.855 93.1491 949.964 93.8748 949.86 94.5858C949.756 95.2968 949.444 95.9609 948.962 96.4943C948.481 97.0276 947.852 97.4063 947.155 97.5823C946.221 97.8175 945.232 97.6724 944.405 97.1789C943.578 96.6854 942.98 95.8838 942.743 94.9501ZM951.768 103.814C951.237 103.949 950.677 103.923 950.161 103.74C949.644 103.557 949.193 103.225 948.866 102.786C948.538 102.347 948.348 101.82 948.32 101.273C948.292 100.725 948.426 100.182 948.707 99.711C948.988 99.2403 949.402 98.8635 949.897 98.6283C950.392 98.3932 950.946 98.3101 951.488 98.3898C952.031 98.4695 952.537 98.7083 952.943 99.076C953.35 99.4436 953.638 99.9237 953.772 100.455C953.95 101.166 953.839 101.919 953.464 102.548C953.088 103.178 952.478 103.633 951.768 103.814ZM953.334 89.2523C952.355 89.4988 951.325 89.4497 950.374 89.111C949.424 88.7724 948.594 88.1594 947.992 87.3497C947.389 86.5399 947.04 85.5696 946.988 84.5615C946.937 83.5534 947.186 82.5526 947.703 81.6857C948.22 80.8189 948.983 80.1247 949.894 79.6911C950.806 79.2574 951.825 79.1037 952.824 79.2494C953.823 79.3951 954.756 79.8336 955.506 80.5095C956.256 81.1854 956.788 82.0684 957.036 83.0469C957.367 84.3604 957.163 85.7516 956.469 86.9146C955.775 88.0777 954.647 88.9174 953.333 89.2492L953.334 89.2523Z" fill="#222222"/>
</g>
<defs>
<clipPath id="clip0_130_89">
<rect width="100" height="100" fill="white" transform="translate(200.555 157.463) rotate(128.655)"/>
</clipPath>
<clipPath id="clip1_130_89">
<rect width="100" height="100" fill="white" transform="translate(1322 556) rotate(25.4688)"/>
</clipPath>
<clipPath id="clip2_130_89">
<rect width="100" height="100" fill="white" transform="translate(562 82.713) rotate(-15.4935)"/>
</clipPath>
<clipPath id="clip3_130_89">
<rect width="100" height="100" fill="white" transform="translate(554.011 668) rotate(11.5435)"/>
</clipPath>
<clipPath id="clip4_130_89">
<rect width="100" height="100" fill="white" transform="translate(150 779.498) rotate(-14.1806)"/>
</clipPath>
<clipPath id="clip5_130_89">
<rect width="50" height="50" fill="white" transform="translate(1239.28 823.232) rotate(128.655)"/>
</clipPath>
<clipPath id="clip6_130_89">
<rect width="50" height="50" fill="white" transform="translate(234.501 269) rotate(25.4688)"/>
</clipPath>
<clipPath id="clip7_130_89">
<rect width="50" height="50" fill="white" transform="translate(473 476.713) rotate(-15.4935)"/>
</clipPath>
<clipPath id="clip8_130_89">
<rect width="50" height="50" fill="white" transform="translate(1293.01 348) rotate(11.5435)"/>
</clipPath>
<clipPath id="clip9_130_89">
<rect width="50" height="50" fill="white" transform="translate(923 74.249) rotate(-14.1806)"/>
</clipPath>
</defs>
</svg>
