<svg width="30" height="30" viewBox="0 0 30 30" fill="none" xmlns="http://www.w3.org/2000/svg">
<path d="M11.666 3.47265C11.5733 3.33355 11.4172 3.25 11.25 3.25H5C4.20435 3.25 3.44129 3.56607 2.87868 4.12868C2.31607 4.69129 2 5.45435 2 6.25V23.75C2 24.5457 2.31607 25.3087 2.87868 25.8713C3.44129 26.4339 4.20435 26.75 5 26.75H25C25.7957 26.75 26.5587 26.4339 27.1213 25.8713C27.6839 25.3087 28 24.5457 28 23.75V10C28 9.20435 27.6839 8.44129 27.1213 7.87868C26.5587 7.31607 25.7957 7 25 7H14.0176L11.666 3.47265Z" fill="#FFCD42" stroke="#FFCD42" stroke-linecap="round" stroke-linejoin="round"/>
</svg>
