<?xml version="1.0" encoding="UTF-8"?>
<svg id="_30x30_Timeline" data-name="30x30 Timeline" xmlns="http://www.w3.org/2000/svg" width="30" height="30" viewBox="0 0 30 30">
  <defs>
    <style>
      .cls-1 {
        fill: #a6a6a6;
      }

      .cls-1, .cls-2, .cls-3, .cls-4, .cls-5, .cls-6, .cls-7, .cls-8, .cls-9, .cls-10, .cls-11, .cls-12, .cls-13, .cls-14, .cls-15, .cls-16, .cls-17 {
        stroke-width: 0px;
      }

      .cls-2 {
        fill: #787878;
      }

      .cls-3 {
        fill: #bdc3c7;
      }

      .cls-4 {
        fill: #f0f0f0;
      }

      .cls-5 {
        fill: #5e5e5e;
      }

      .cls-6 {
        fill: #4a4a4a;
      }

      .cls-7 {
        fill: #525252;
      }

      .cls-8 {
        fill: #919194;
      }

      .cls-9 {
        fill: #bfbfbf;
      }

      .cls-10 {
        fill: #a3a3a5;
      }

      .cls-11 {
        fill: #ecf0f1;
      }

      .cls-12 {
        fill: #404040;
      }

      .cls-13 {
        fill: gray;
      }

      .cls-14 {
        fill: #ccc;
      }

      .cls-15 {
        fill: #8c8c8c;
      }

      .cls-16 {
        fill: #878787;
      }

      .cls-17 {
        fill: #ababab;
      }
    </style>
  </defs>
  <g id="_1-2-7-user-group-male" data-name="1-2-7-user-group-male">
    <g id="_1-2-7-user-group-male-2" data-name="1-2-7-user-group-male">
      <path class="cls-12" d="M6.7,16.3c-1.9.9-3.8,1.8-5.7,2.8-.7.4-1,1.3-.9,2.2,0,.5-.2,1.2.4,1.5.5.2,1.1,0,1.6.2h17.2c.6,0,.8-.7.7-1.2,0-.8,0-1.7-.5-2.2-.5-.5-1.2-.7-1.8-1.1-1.4-.7-2.9-1.4-4.3-2.1h-6.6Z"/>
      <path class="cls-3" d="M6.7,16.3h6.6l-1.7,6.6h-3.3l-1.7-6.6Z"/>
      <path class="cls-12" d="M8.3,18v2.5l.8.8-.8,1.7h3.3l-.8-1.7.8-.8v-2.5h-3.3Z"/>
      <rect class="cls-2" x="7.5" y="13.8" width="5" height="4.1"/>
      <path class="cls-11" d="M6.7,16.3l.8-.8,2.5,2.5,2.5-2.5.8.8-1.7,4.1-1.7-2.5-1.7,2.5-1.7-4.1Z"/>
      <path class="cls-16" d="M10,3.1c-2.5,0-4.5,2.2-4.9,5.2,0,0-.2,0-.3,0-.4.1-.5,1-.3,1.8.2.5.4.9.7,1.1.6,2.5,2.5,4.3,4.7,4.3s4.1-1.8,4.7-4.3c.3-.2.6-.6.7-1.1.3-.9.2-1.7-.3-1.8,0,0-.2,0-.3,0-.4-2.9-2.4-5.2-4.9-5.2h0Z"/>
      <path class="cls-7" d="M6.7,16.3l-1.7.8v2.5h1.7l-1.7.8,1.7,2.5h1.7l-1.7-6.6ZM13.3,16.3l-1.7,6.6h1.7l1.7-2.5-1.7-.8h1.7v-2.5l-1.7-.8Z"/>
      <path class="cls-4" d="M10,3.1c-1.7,0-3.3,1.1-4.1,2.7-.4.7-.7,1.7-.9,2.5.3,0,.5,0,.7-.2.5-.5.8-.9.9-1.6.3-.7,1-1.9,1.7-1.7.6.2.8.5,1.7.5s1.1-.3,1.7-.5c.6-.2,1.3.9,1.7,1.7.2.7.4,1.1.9,1.6.3.3.5.2.7.2-.1-.8-.4-1.7-.9-2.5-.9-1.6-2.4-2.7-4.1-2.7Z"/>
    </g>
    <g id="_1-2-7-user-group-male-3" data-name="1-2-7-user-group-male">
      <path class="cls-6" d="M16.7,16.3c-1.9.9-3.8,1.8-5.7,2.8-.7.4-1,1.3-.9,2.2,0,.5-.2,1.2.4,1.5.5.2,1.1,0,1.6.2h17.2c.6,0,.8-.7.7-1.2,0-.8,0-1.7-.5-2.2-.5-.5-1.2-.7-1.8-1.1-1.4-.7-2.9-1.4-4.3-2.1h-6.6Z"/>
      <path class="cls-3" d="M16.7,16.3h6.6l-1.7,6.6h-3.3l-1.7-6.6Z"/>
      <path class="cls-6" d="M18.4,18v2.5l.8.8-.8,1.7h3.3l-.8-1.7.8-.8v-2.5h-3.3Z"/>
      <rect class="cls-8" x="17.5" y="13.8" width="5" height="4.1"/>
      <path class="cls-11" d="M16.7,16.3l.8-.8,2.5,2.5,2.5-2.5.8.8-1.7,4.1-1.7-2.5-1.7,2.5-1.7-4.1Z"/>
      <path class="cls-10" d="M20,3.1c-2.5,0-4.5,2.2-4.9,5.2,0,0-.2,0-.3,0-.4.1-.5,1-.3,1.8.2.5.4.9.7,1.1.6,2.5,2.5,4.3,4.7,4.3s4.1-1.8,4.7-4.3c.3-.2.6-.6.7-1.1.3-.9.2-1.7-.3-1.8,0,0-.2,0-.3,0-.4-2.9-2.4-5.2-4.9-5.2h0Z"/>
      <path class="cls-5" d="M16.7,16.3l-1.7.8v2.5h1.7l-1.7.8,1.7,2.5h1.7l-1.7-6.6ZM23.3,16.3l-1.7,6.6h1.7l1.7-2.5-1.7-.8h1.7v-2.5l-1.7-.8Z"/>
      <path class="cls-15" d="M20,3.1c-1.7,0-3.3,1.1-4.1,2.7-.4.7-.7,1.7-.9,2.5.3,0,.5,0,.7-.2.5-.5.8-.9.9-1.6.3-.7,1-1.9,1.7-1.7.6.2.8.5,1.7.5s1.1-.3,1.7-.5c.6-.2,1.3.9,1.7,1.7.2.7.4,1.1.9,1.6.3.3.5.2.7.2-.1-.8-.4-1.7-.9-2.5-.9-1.6-2.4-2.7-4.1-2.7Z"/>
    </g>
    <g id="_1-2-7-user-group-male-4" data-name="1-2-7-user-group-male">
      <path class="cls-13" d="M11.4,19.8c-2,1-4.1,2-6.1,3-.8.4-1.1,1.4-1,2.3,0,.5-.2,1.2.4,1.6.5.3,1.1,0,1.7.2h18.4c.7,0,.9-.8.8-1.3,0-.9,0-1.8-.6-2.4-.5-.5-1.3-.8-1.9-1.2-1.5-.7-3.1-1.5-4.6-2.2h-7.1Z"/>
      <path class="cls-3" d="M11.4,19.8h7.1l-1.8,7.1h-3.6l-1.8-7.1Z"/>
      <path class="cls-13" d="M13.2,21.6v2.7l.9.9-.9,1.8h3.6l-.9-1.8.9-.9v-2.7h-3.6Z"/>
      <rect class="cls-17" x="12.3" y="17.2" width="5.3" height="4.4"/>
      <path class="cls-11" d="M11.4,19.8l.9-.9,2.7,2.7,2.7-2.7.9.9-1.8,4.4-1.8-2.7-1.8,2.7-1.8-4.4Z"/>
      <path class="cls-9" d="M15,5.6c-2.6,0-4.8,2.4-5.2,5.5-.1,0-.2,0-.3,0-.5.2-.6,1-.3,2,.2.5.5,1,.8,1.2.7,2.7,2.7,4.6,5.1,4.6s4.4-2,5.1-4.6c.3-.2.6-.7.8-1.2.3-.9.2-1.8-.3-2,0,0-.2,0-.3,0-.4-3.1-2.6-5.5-5.2-5.5h0Z"/>
      <path class="cls-1" d="M11.4,19.8l-1.8.9v2.7h1.8l-1.8.9,1.8,2.7h1.8l-1.8-7.1ZM18.5,19.8l-1.8,7.1h1.8l1.8-2.7-1.8-.9h1.8v-2.7l-1.8-.9Z"/>
      <path class="cls-14" d="M15,5.6c-1.8,0-3.5,1.2-4.4,2.8-.5.8-.8,1.8-.9,2.7.3,0,.5,0,.8-.3.6-.5.8-1,1-1.7.3-.8,1.1-2,1.8-1.8.6.2.9.5,1.8.5s1.2-.4,1.8-.5c.7-.3,1.4,1,1.8,1.8.2.7.4,1.2,1,1.7.3.4.5.2.8.3-.1-.9-.5-1.9-.9-2.7-.9-1.7-2.6-2.9-4.4-2.8Z"/>
    </g>
  </g>
</svg>