<?xml version="1.0" encoding="UTF-8"?>
<svg id="_30x30_Timeline" data-name="30x30 Timeline" xmlns="http://www.w3.org/2000/svg" width="30" height="30" viewBox="0 0 30 30">
  <defs>
    <style>
      .cls-1 {
        fill: #4f4b69;
      }

      .cls-1, .cls-2, .cls-3, .cls-4, .cls-5, .cls-6, .cls-7, .cls-8, .cls-9, .cls-10, .cls-11, .cls-12, .cls-13, .cls-14, .cls-15, .cls-16, .cls-17, .cls-18, .cls-19, .cls-20, .cls-21, .cls-22, .cls-23, .cls-24, .cls-25, .cls-26, .cls-27, .cls-28, .cls-29, .cls-30, .cls-31, .cls-32, .cls-33, .cls-34, .cls-35, .cls-36, .cls-37, .cls-38, .cls-39, .cls-40, .cls-41, .cls-42, .cls-43, .cls-44, .cls-45, .cls-46, .cls-47, .cls-48, .cls-49, .cls-50, .cls-51, .cls-52, .cls-53, .cls-54, .cls-55, .cls-56, .cls-57, .cls-58, .cls-59, .cls-60, .cls-61, .cls-62, .cls-63, .cls-64, .cls-65, .cls-66, .cls-67, .cls-68, .cls-69, .cls-70, .cls-71, .cls-72, .cls-73, .cls-74, .cls-75, .cls-76, .cls-77, .cls-78, .cls-79, .cls-80, .cls-81, .cls-82, .cls-83, .cls-84, .cls-85, .cls-86, .cls-87, .cls-88, .cls-89, .cls-90, .cls-91, .cls-92, .cls-93, .cls-94, .cls-95, .cls-96, .cls-97, .cls-98, .cls-99, .cls-100, .cls-101, .cls-102, .cls-103, .cls-104, .cls-105, .cls-106, .cls-107, .cls-108, .cls-109, .cls-110, .cls-111, .cls-112, .cls-113, .cls-114, .cls-115, .cls-116, .cls-117, .cls-118, .cls-119, .cls-120, .cls-121, .cls-122, .cls-123, .cls-124, .cls-125, .cls-126, .cls-127, .cls-128, .cls-129, .cls-130, .cls-131, .cls-132, .cls-133, .cls-134, .cls-135, .cls-136, .cls-137, .cls-138, .cls-139, .cls-140, .cls-141, .cls-142, .cls-143, .cls-144, .cls-145, .cls-146, .cls-147, .cls-148, .cls-149, .cls-150, .cls-151, .cls-152, .cls-153, .cls-154, .cls-155, .cls-156, .cls-157, .cls-158, .cls-159, .cls-160, .cls-161, .cls-162, .cls-163, .cls-164, .cls-165, .cls-166, .cls-167, .cls-168, .cls-169, .cls-170, .cls-171, .cls-172, .cls-173, .cls-174, .cls-175, .cls-176, .cls-177, .cls-178, .cls-179, .cls-180, .cls-181, .cls-182, .cls-183, .cls-184, .cls-185, .cls-186, .cls-187, .cls-188, .cls-189, .cls-190, .cls-191, .cls-192, .cls-193, .cls-194, .cls-195, .cls-196, .cls-197, .cls-198, .cls-199, .cls-200, .cls-201, .cls-202 {
        stroke-width: 0px;
      }

      .cls-2 {
        fill: #f9faf8;
      }

      .cls-3 {
        fill: #d87d32;
      }

      .cls-4 {
        fill: #a5cc9e;
      }

      .cls-5 {
        fill: #1e1916;
      }

      .cls-6 {
        fill: #e6e635;
      }

      .cls-7 {
        fill: #f4811e;
      }

      .cls-8 {
        fill: #17191d;
      }

      .cls-9 {
        fill: #f2f075;
      }

      .cls-10 {
        fill: #b96b40;
      }

      .cls-11 {
        fill: #f0fafc;
      }

      .cls-12 {
        fill: #b66a41;
      }

      .cls-13 {
        fill: #d36b3c;
      }

      .cls-14 {
        fill: #0f0809;
      }

      .cls-15 {
        fill: #241e14;
      }

      .cls-16 {
        fill: #e9e55c;
      }

      .cls-17 {
        fill: #d3e04c;
      }

      .cls-18 {
        fill: #d06f3c;
      }

      .cls-19 {
        fill: #150f0f;
      }

      .cls-20 {
        fill: #d87e2c;
      }

      .cls-21 {
        fill: #251614;
      }

      .cls-22 {
        fill: #c1674b;
      }

      .cls-23 {
        fill: #b67044;
      }

      .cls-24 {
        fill: #bf7043;
      }

      .cls-25 {
        fill: #a6a978;
      }

      .cls-26 {
        fill: #b56c49;
      }

      .cls-27 {
        fill: #8eb6b3;
      }

      .cls-28 {
        fill: #e6e633;
      }

      .cls-29 {
        fill: #06a050;
      }

      .cls-30 {
        fill: #06a150;
      }

      .cls-31 {
        fill: #ca6c39;
      }

      .cls-32 {
        fill: #f3f316;
      }

      .cls-33 {
        fill: #78c1d5;
      }

      .cls-34 {
        fill: #06a250;
      }

      .cls-35 {
        fill: #1c1312;
      }

      .cls-36 {
        fill: #db781f;
      }

      .cls-37 {
        fill: #c57546;
      }

      .cls-38 {
        fill: #1a1718;
      }

      .cls-39 {
        fill: #99c09c;
      }

      .cls-40 {
        fill: #ecdcd1;
      }

      .cls-41 {
        fill: #ba6b43;
      }

      .cls-42 {
        fill: #1a1314;
      }

      .cls-43 {
        fill: #9cc49a;
      }

      .cls-44 {
        fill: #a86c46;
      }

      .cls-45 {
        fill: #1b1215;
      }

      .cls-46 {
        fill: #1e1716;
      }

      .cls-47 {
        fill: #c5754b;
      }

      .cls-48 {
        fill: #f2ed20;
      }

      .cls-49 {
        fill: #c1754e;
      }

      .cls-50 {
        fill: #211917;
      }

      .cls-51 {
        fill: #f9f30a;
      }

      .cls-52 {
        fill: #c38952;
      }

      .cls-53 {
        fill: #b49568;
      }

      .cls-54 {
        fill: #cc723f;
      }

      .cls-55 {
        fill: #f1fafc;
      }

      .cls-56 {
        fill: #c87243;
      }

      .cls-57 {
        fill: #c37547;
      }

      .cls-58 {
        fill: #c5724f;
      }

      .cls-59 {
        fill: #be7650;
      }

      .cls-60 {
        fill: #faf406;
      }

      .cls-61 {
        fill: #d47340;
      }

      .cls-62 {
        fill: #73c0d7;
      }

      .cls-63 {
        fill: #1c1614;
      }

      .cls-64 {
        fill: #1c1313;
      }

      .cls-65 {
        fill: #bb6f47;
      }

      .cls-66 {
        fill: #ceab87;
      }

      .cls-67 {
        fill: #1b1514;
      }

      .cls-68 {
        fill: #0c1a1d;
      }

      .cls-69 {
        fill: #b26a47;
      }

      .cls-70 {
        fill: #9e8b8f;
      }

      .cls-71 {
        fill: #1e1a15;
      }

      .cls-72 {
        fill: #1c1414;
      }

      .cls-73 {
        fill: #1e1816;
      }

      .cls-74 {
        fill: #204857;
      }

      .cls-75 {
        fill: #f5f118;
      }

      .cls-76 {
        fill: #1d1214;
      }

      .cls-77 {
        fill: #184658;
      }

      .cls-78 {
        fill: #1b1614;
      }

      .cls-79 {
        fill: #06a151;
      }

      .cls-80 {
        fill: #74c1d7;
      }

      .cls-81 {
        fill: #c9743b;
      }

      .cls-82 {
        fill: #d4713e;
      }

      .cls-83 {
        fill: #cb7a4d;
      }

      .cls-84 {
        fill: #ba6e45;
      }

      .cls-85 {
        fill: #bc6c42;
      }

      .cls-86 {
        fill: #edec24;
      }

      .cls-87 {
        fill: #c66f43;
      }

      .cls-88 {
        fill: #04a350;
      }

      .cls-89 {
        fill: #8fb6b0;
      }

      .cls-90 {
        fill: #f5ef12;
      }

      .cls-91 {
        fill: #ad9a79;
      }

      .cls-92 {
        fill: #02a351;
      }

      .cls-93 {
        fill: #c37842;
      }

      .cls-94 {
        fill: #1d1b1e;
      }

      .cls-95 {
        fill: #efec19;
      }

      .cls-96 {
        fill: #b76d44;
      }

      .cls-97 {
        fill: #211414;
      }

      .cls-98 {
        fill: #e81f26;
      }

      .cls-99 {
        fill: #c1c2c3;
      }

      .cls-100 {
        fill: #bc6f3d;
      }

      .cls-101 {
        fill: #c57048;
      }

      .cls-102 {
        fill: #e6e930;
      }

      .cls-103 {
        fill: #c57754;
      }

      .cls-104 {
        fill: #b4693f;
      }

      .cls-105 {
        fill: #f1f9fb;
      }

      .cls-106 {
        fill: #c76f42;
      }

      .cls-107 {
        fill: #c86d3a;
      }

      .cls-108 {
        fill: #83c6d7;
      }

      .cls-109 {
        fill: #545455;
      }

      .cls-110 {
        fill: #b57049;
      }

      .cls-111 {
        fill: #1c1615;
      }

      .cls-112 {
        fill: #f2f116;
      }

      .cls-113 {
        fill: #f5ef1a;
      }

      .cls-114 {
        fill: #9abaa1;
      }

      .cls-115 {
        fill: #ca6c37;
      }

      .cls-116 {
        fill: #150c0b;
      }

      .cls-117 {
        fill: #05a151;
      }

      .cls-118 {
        fill: #c57244;
      }

      .cls-119 {
        fill: #1d1917;
      }

      .cls-120 {
        fill: #be6e45;
      }

      .cls-121 {
        fill: #f29e2c;
      }

      .cls-122 {
        fill: #9f5b39;
      }

      .cls-123 {
        fill: #b76d45;
      }

      .cls-124 {
        fill: #1b1311;
      }

      .cls-125 {
        fill: #184152;
      }

      .cls-126 {
        fill: #01a450;
      }

      .cls-127 {
        fill: #b76e43;
      }

      .cls-128 {
        fill: #b4653e;
      }

      .cls-129 {
        fill: #f6f30b;
      }

      .cls-130 {
        fill: #e8c6a4;
      }

      .cls-131 {
        fill: #bb723f;
      }

      .cls-132 {
        fill: #d48435;
      }

      .cls-133 {
        fill: #1d1310;
      }

      .cls-134 {
        fill: #c86d39;
      }

      .cls-135 {
        fill: #d36f3d;
      }

      .cls-136 {
        fill: #bc6b44;
      }

      .cls-137 {
        fill: #bb6d43;
      }

      .cls-138 {
        fill: #eaeb20;
      }

      .cls-139 {
        fill: #ecdcce;
      }

      .cls-140 {
        fill: #f6ee0f;
      }

      .cls-141 {
        fill: #0c1421;
      }

      .cls-142 {
        fill: #ee7526;
      }

      .cls-143 {
        fill: #fdfdfc;
      }

      .cls-144 {
        fill: #f2ed18;
      }

      .cls-145 {
        fill: #c37143;
      }

      .cls-146 {
        fill: #ac6b45;
      }

      .cls-147 {
        fill: #f3ec74;
      }

      .cls-148 {
        fill: #b76a46;
      }

      .cls-149 {
        fill: #e17724;
      }

      .cls-150 {
        fill: #172024;
      }

      .cls-151 {
        fill: #f9f20e;
      }

      .cls-152 {
        fill: #1e1617;
      }

      .cls-153 {
        fill: #f0f019;
      }

      .cls-154 {
        fill: #baa764;
      }

      .cls-155 {
        fill: #b5683f;
      }

      .cls-156 {
        fill: #73c0d8;
      }

      .cls-157 {
        fill: #b3663c;
      }

      .cls-158 {
        fill: #1c1617;
      }

      .cls-159 {
        fill: #bd7145;
      }

      .cls-160 {
        fill: #bb6c47;
      }

      .cls-161 {
        fill: #01a451;
      }

      .cls-162 {
        fill: #f4ec7a;
      }

      .cls-163 {
        fill: #07a153;
      }

      .cls-164 {
        fill: #f0e81e;
      }

      .cls-165 {
        fill: #1f1713;
      }

      .cls-166 {
        fill: #1b1313;
      }

      .cls-167 {
        fill: #fef401;
      }

      .cls-168 {
        fill: #c96d38;
      }

      .cls-169 {
        fill: #f5f16b;
      }

      .cls-170 {
        fill: #05a150;
      }

      .cls-171 {
        fill: #1b1716;
      }

      .cls-172 {
        fill: #c27047;
      }

      .cls-173 {
        fill: #d6e44b;
      }

      .cls-174 {
        fill: #b36641;
      }

      .cls-175 {
        fill: #eef022;
      }

      .cls-176 {
        fill: #2a1711;
      }

      .cls-177 {
        fill: #f9f20a;
      }

      .cls-178 {
        fill: #857943;
      }

      .cls-179 {
        fill: #b16c46;
      }

      .cls-180 {
        fill: #b36b41;
      }

      .cls-181 {
        fill: #c97444;
      }

      .cls-182 {
        fill: #d5da3d;
      }

      .cls-183 {
        fill: #150d0b;
      }

      .cls-184 {
        fill: #19130f;
      }

      .cls-185 {
        fill: #bf693a;
      }

      .cls-186 {
        fill: #f7f50d;
      }

      .cls-187 {
        fill: #c17241;
      }

      .cls-188 {
        fill: #7bbacc;
      }

      .cls-189 {
        fill: #d97a27;
      }

      .cls-190 {
        fill: #c6703f;
      }

      .cls-191 {
        fill: #1c1716;
      }

      .cls-192 {
        fill: #848488;
      }

      .cls-193 {
        fill: #bd6e3b;
      }

      .cls-194 {
        fill: #d77c1f;
      }

      .cls-195 {
        fill: #acc889;
      }

      .cls-196 {
        fill: #1b1613;
      }

      .cls-197 {
        fill: #191412;
      }

      .cls-198 {
        fill: #d3822f;
      }

      .cls-199 {
        fill: #b77342;
      }

      .cls-200 {
        fill: #f5ed6a;
      }

      .cls-201 {
        fill: #c3704d;
      }

      .cls-202 {
        fill: #1b1516;
      }
    </style>
  </defs>
  <g id="_1-2-4-logo-pemkab-maybrat" data-name="1-2-4-logo-pemkab-maybrat">
    <g>
      <path class="cls-73" d="M29,3.8c-.5,0-.8.1-1,.6-.2.6-.3,1.2-.4,1.8-.1,1.2-.2,2.3-.2,3.5,0,1.1-.1,2.2-.2,3.2-.1,1.4-.3,2.8-.6,4.2-.2,1.1-.5,2.2-1,3.3,0,.1,0,.2,0,.3,0,0,0,0,0,0,0-.4.1-.8.2-1.2-.1.2-.2.3-.3.5,0,0,0,0,0-.1.5-1.2.8-2.5,1-3.7.3-1.8.5-3.7.6-5.5,0-1.6.1-3.2.3-4.8,0-.6.2-1.2.5-1.7,0,0,.1-.2.2-.3H2.9c.2.3.4.7.5,1,.3,1,.3,2.1.4,3.1.1,1.5.2,3.1.3,4.6.1,1.5.3,3.1.7,4.6.2,1,.5,1.9.8,2.9-.2-.2-.2-.4-.4-.6,0,.4.2.8.2,1.2-.4-1.1-.7-2.1-1-3.3-.3-1.3-.5-2.7-.6-4-.1-1.1-.2-2.3-.3-3.4,0-1.2-.1-2.3-.3-3.5,0-.7-.2-1.4-.4-2,0,0,0-.2-.1-.3-.2-.3-.4-.4-.7-.4,0,0-.2,0-.3,0C2.6,2.5,3.5,1.2,4.4,0c7.3,0,14.5,0,21.8,0,0,0,0,0,0,0,.9,1.2,1.8,2.5,2.7,3.7h0ZM5.5,3c0,0-.1,0-.2,0-.8,0-1.6,0-2.5,0,0,0-.1,0-.2,0,0,.1-.2.2-.3.4h25.9q-.3-.4-.8-.4c-1,0-2,0-3,0,0,0,0,0,0,0,0,0-.1,0-.1,0,0,0,0,0,.1,0,.5,0,.9.1,1.3,0,.2,0,.4,0,.6,0,.3,0,.6,0,.8,0,0,0,0,0,.1,0,.1,0,.3,0,.4.1,0,0,0,0,0,0,0,0-.2,0-.2-.2,0,0,0,0-.1-.1-.5-.7-1-1.4-1.5-2.1,0,0-.1-.1-.3-.1-7,0-14,0-21,0-.1,0-.2,0-.3.1-.5.7-1,1.3-1.5,2-.1,0-.2.1-.4.1,0,0-.2,0-.2.2,0,.1.1.1.2.1.4,0,.8,0,1.1,0,.4,0,.8,0,1.1,0,.1,0,.3,0,.4,0,0,0,.2,0,.2,0,0,0-.2,0-.2,0Z"/>
      <path class="cls-167" d="M25.3,19.9c0-.1.2-.3.3-.5,0,.4-.1.8-.2,1.2,0,.1,0,.3,0,.5,0,0,0,0,0,0,.3-.2.7-.3,1-.5,0,0,.2,0,.2-.2,0,.1,0,.2,0,.2-.3.5-.7.9-1.2,1.3-.2.2-.4.4-.6.7,0,0,0,.1,0,.2,0,.3,0,.6,0,1,0,0,0,0-.1,0-.4.5-.8.9-1.3,1.3-1,.9-2.2,1.7-3.5,2.3-.9.3-1.8.5-2.7.7-.8.2-1.4.6-1.8,1.3,0,0,0,.1,0,.2,0,0,0,0,0-.1-.3-.6-.8-1.1-1.4-1.2-.2,0-.4-.1-.6-.1-.7-.1-1.4-.3-2.1-.5-1.5-.5-2.8-1.4-4-2.4-.4-.4-.9-.8-1.3-1.3,0,0,0-.1-.1,0,0-.3,0-.7.1-1,0,0,0-.1,0-.2-.2-.3-.4-.6-.7-.9-.4-.4-.7-.7-1-1.2,0,0,0,0,0-.1.4.1.8.4,1.3.6-.1-.2,0-.4-.1-.5,0-.4-.1-.7-.2-1.2.2.2.2.4.4.6.1.2.3.4.5.6.4.4.9.8,1.4,1.1.1,0,.3.1.3.3-.2,0-.3,0-.5-.1-.3-.1-.5-.3-.8-.4,0,0-.1,0-.2,0,.2.5.5,1,.9,1.4.2.3.5.5.8.7.4.3.8.5,1.2.7.5.2.9.4,1.4.6.4.2.8.3,1.2.4.5.2,1,.4,1.5.6.6.3,1.3.6,1.9.9.2,0,.3.2.5,0,.3-.2.6-.3.9-.5.5-.2,1-.5,1.6-.7.4-.1.7-.3,1.1-.4.3-.1.7-.2,1-.4.4-.1.7-.3,1.1-.4.4-.2.7-.3,1.1-.5.5-.3.9-.6,1.3-1.1.4-.4.7-.9.9-1.4,0,0-.2,0-.2,0-.2,0-.3.2-.5.3-.2.1-.5.3-.8.3,0-.2.1-.2.2-.3.3-.2.6-.4.9-.6.4-.4.8-.8,1.2-1.3ZM15,27.7v.4c0,0,.1,0,.2,0,0-.2,0-.5,0-.7,0,0,.2,0,.3,0,0,0,0,0-.1-.1,0,0,0,0,0,0,0,0,0,0,0,0-.3,0-.6,0-.9,0-.1,0-.3,0-.5,0,0,.3,0,.6,0,.9.2,0,.5,0,.7,0q0-.1-.5-.2c0,0,0-.2,0-.2q.4,0,.4-.1c-.1,0-.3,0-.4,0,0,0,0-.1,0-.2,0,0,.2,0,.2,0,0,0,0,0,0,0,0,0,0,0,0,0,.2,0,.4,0,.6,0v.3ZM18.5,27.6c.1,0,.3,0,.4-.1.1,0,.3,0,.3-.3,0-.2,0-.3-.2-.3,0-.1,0-.2,0-.3,0,0-.2,0-.3,0-.1,0-.3.1-.4.2.1.3.2.6.3.9ZM13.2,26.9c0,.3-.1.6-.2.9.2,0,.3,0,.5,0,.1,0,.3,0,.3-.1,0-.1,0-.2,0-.3.1,0,.2-.2.1-.3,0-.1-.1-.2-.2-.2-.1,0-.3,0-.4,0ZM11.8,26.5c0,.2-.1.3-.2.5-.1-.2,0-.6-.3-.8-.1.3-.3.6-.4.9.1.1.2,0,.2,0,0-.1.1-.3.2-.4q.1.7.3.7c.1-.3.2-.5.3-.8,0,0,0,0-.2,0ZM16.4,28c-.1-.3-.3-.6-.4-.8,0,0,0,0-.2,0,0,0-.1,0-.1,0,0,.3-.2.6-.3.8,0,0,.1,0,.2,0,0,0,0-.2.2-.2.1,0,.3,0,.4.1,0,.1.1,0,.2,0ZM19.4,27.1c.2,0,.3-.2.5,0,0,0,.1,0,.2,0-.2-.2-.4-.4-.7-.6,0,0,0,0-.2,0,0,0,0,0,0,.1,0,.3,0,.6,0,.9.2,0,.2-.1.1-.3ZM10.3,26.6c.1.1.4,0,.3.4,0,0,0,.1.2.1,0-.3,0-.5.1-.8,0-.1,0-.3-.2-.3-.2.2-.5.4-.7.6.1.2.2,0,.3,0ZM17.5,26.9c-.1,0-.2,0-.1.2,0,.2,0,.3.1.5,0,.2.2.2.4.2.2,0,.3-.2.3-.4,0-.2,0-.4-.1-.6-.2,0-.2,0-.2.2,0,.1,0,.3.1.4,0,.1,0,.2-.1.3-.1,0-.2,0-.2-.2,0-.2,0-.4-.1-.5ZM12.1,26.6c0,.2-.1.4-.2.6,0,.2,0,.3.3.4.2,0,.3,0,.4-.2,0-.2.1-.4.2-.6,0,0-.1,0-.2,0,0,.2-.1.3-.2.5,0,.1,0,.2-.2.2-.1,0-.1-.2-.1-.3,0-.2.1-.3.2-.5,0,0,0,0,0,0,0,0,0,0-.2,0ZM16.6,27.2c0,0,.2,0,.3,0,0,.2,0,.5.1.7,0,0,.1,0,.2,0,0-.2-.1-.5-.1-.7q.2,0,.2-.2c-.2,0-.4,0-.6.1,0,0-.1,0,0,.2ZM20.1,26.1c0-.1.3,0,.1-.3-.2.1-.4.2-.5.3-.1,0,0,.1,0,.2,0,0,.1,0,.2-.1.1.2.3.4.4.7,0,0,.1,0,.2-.1-.1-.2-.2-.4-.4-.6Z"/>
      <path class="cls-19" d="M5.9,24c0-.1,0,0,.1,0,.4.4.8.9,1.3,1.3,1.2,1.1,2.5,2,4,2.4.7.2,1.4.3,2.1.5.2,0,.4,0,.6.1.7.2,1.1.6,1.4,1.2,0,0,0,.1,0,.1,0,0,0-.1,0-.2.4-.8,1-1.2,1.8-1.3.9-.2,1.8-.3,2.7-.7,1.3-.5,2.5-1.3,3.5-2.3.5-.4.9-.8,1.3-1.3,0,0,0,0,.1,0,0,0,0,.1,0,.2-1.2,1.3-2.6,2.5-4.2,3.3-.9.4-1.8.7-2.8.8-.3,0-.5.1-.8.2-.8.2-1.3.7-1.6,1.5-.1-.2-.2-.4-.3-.6-.3-.5-.8-.8-1.4-.9-.6-.2-1.3-.2-2-.4-1.4-.4-2.6-1-3.7-1.9-.7-.6-1.4-1.2-2-1.9,0,0-.1-.1-.1-.2Z"/>
      <path class="cls-183" d="M24.8,23c0,0,0-.1,0-.2.1-.3.3-.5.6-.7.4-.4.9-.8,1.2-1.3,0,0,0,0,0,0,0,.2-.2.5-.5.8-.3.4-.8.7-1.1,1.2,0,.1-.2.2-.2.3Z"/>
      <path class="cls-116" d="M4.3,20.7c.2.5.6.8,1,1.2.3.3.5.5.7.9,0,0,0,.1,0,.2,0,0-.1-.1-.2-.2-.2-.3-.5-.6-.7-.8-.3-.3-.7-.7-.9-1.1,0,0-.1-.1,0-.1Z"/>
      <path class="cls-178" d="M25.4,21.2s0,0,0,0c0-.2,0-.3,0-.5,0,0,0,0,0,0,0,.2,0,.3,0,.5Z"/>
      <path class="cls-156" d="M25.3,19.9c-.3.5-.7.9-1.2,1.3-.3.2-.6.4-.9.6,0,0-.2.1-.2.3.2.3.4.6.6.9-.4.4-.8.8-1.3,1.1-.3.2-.7.4-1.1.5-.4.2-.7.3-1.1.4-.3.1-.7.2-1,.4-.4.1-.7.3-1.1.4-.5.2-1,.4-1.6.7-.3.1-.6.3-.9.5-.2.1-.4,0-.5,0-.6-.3-1.2-.6-1.9-.9-.5-.2-1-.4-1.5-.6-.4-.2-.8-.3-1.2-.4-.5-.2-.9-.4-1.4-.6-.4-.2-.8-.4-1.2-.7-.3-.2-.6-.4-.8-.7.2-.2.3-.4.5-.6,0,0,.1-.1.1-.2,0-.2-.2-.3-.3-.3-.5-.3-1-.7-1.4-1.1-.2-.2-.3-.4-.5-.6-.3-.9-.6-1.9-.8-2.9-.3-1.5-.5-3.1-.7-4.6-.1-1.5-.2-3.1-.3-4.6,0-1-.1-2.1-.4-3.1,0-.4-.2-.7-.5-1h24.9c0,0-.1.2-.2.3-.3.5-.4,1.1-.5,1.7-.2,1.6-.3,3.2-.3,4.8-.1,1.9-.2,3.7-.6,5.5-.2,1.3-.5,2.5-1,3.7,0,0,0,0,0,.1ZM16.7,6.8c0-.1,0-.2-.1-.2,0,0,0,.1-.1.1,0,0,0-.1,0-.1,0,.2-.1.4-.4.5,0-.1,0-.3,0-.5,0,0-.1,0-.2.1,0,0-.2.1-.3,0,0,0-.1-.2,0-.3,0-.2.1-.4.1-.6,0,0,0-.2-.1-.2,0,0-.2,0-.2,0,0,0,0,0-.1.1,0,0,.2,0,.2,0,0,.3-.1.4-.3.5,0,0,0,0,0,0,0-.2,0-.3,0-.5,0-.3,0-.5-.2-.8-.2-.2-.2-.4-.2-.6,0-.1,0-.2-.1-.3,0,0,0,0,0,.1-.1,0-.1.2-.2.4,0,0,0,.2-.1.3,0,0,0,0,0,0,0,0,0,.2,0,.3,0,.1,0,.3,0,.4-.1.1,0,.4,0,.5.2.1.4,0,.6.2,0,0,0,0,0,0,.2-.1.2,0,.2.2,0,0,0,.2,0,.2,0,0,0,0,0,0-.3,0-.4-.2-.4-.5,0,0,0,0,0,.1,0,0,0,0-.1,0,0,0-.1.1-.1.2,0,0,0,0,0,0,0,0,0-.1,0-.1,0,.1-.1.2-.1.3,0,.3,0,.4.4.4,0,.2-.2.1-.3.2,0,0,0,0-.2,0-.1,0-.2,0-.2.1,0,.1,0,.2.1.2.1,0,.2,0,.2,0,0,0,0-.1,0-.2,0,0,.2,0,.3,0,.2,0,.4,0,.6,0,.2,0,.5,0,.7,0,.2,0,.4,0,.6,0,.2,0,.4,0,.4.3,0,.1.1.2.2.1,0,0,.2-.1.1-.2,0,0-.1-.2-.3-.1-.1,0-.4,0-.4-.2.4,0,.5-.2.3-.7,0,0,0,.1,0,.1,0,0,0,0,0,0ZM16.7,5.2c0-.1-.2-.2-.2-.4,0,0,0,0,0,0-.1-.1,0-.3-.2-.4,0,0,0,0,0,0-.1,0,0,0,0,.2,0,.2,0,.5-.2.7-.1.1-.1.4-.2.5,0,0,0,0,0,0,0,.2-.1.3,0,.5,0,0,0,0,0,0h0s0,0,0,0c0,.2,0,0,.2,0,0,0,0,.1,0,0,.1,0,.3,0,.4,0,.2,0,.3-.1.3-.4,0,0,0-.1,0-.2,0-.1,0-.3,0-.4,0,0,0-.2,0-.2ZM16.4,24.3c-.2-.2-.5-.4-.7-.6.2-.2.3-.4.3-.7,0-.3.1-.7,0-1q0-.3-.3-.5c0,0,0,0,.1,0,.4-.2.7-.3,1.1-.5,1.2-.4,2.4-.8,3.5-1.3.7-.3,1.3-.6,1.8-1.2.4.6,1,.6,1.4,0,.3-.4.4-.8.4-1.3,0-.2,0-.4,0-.7-.5.5-1.2.5-1.8.6,0,0,.2-.2.2-.3.5-.6,1-1.3,1.1-2.2.1,0,.2,0,.3.1.4.2.7,0,.9-.3.1-.3.1-.5.1-.8,0-.7-.2-1.3-.5-1.9,0-.2-.1-.3-.3-.5-.2.4-.3.9-.7,1.2-.2.1-.4.3-.5.5-.3.3-.5.7-.5,1.2,0,.3,0,.5.3.6.2.1.5,0,.7-.1,0,.4-.2.8-.4,1.1-.3.6-.7,1-1.2,1.5-.2.1-.3.3-.5.4-.2.1-.4.3-.6.4.5-.8.9-1.7,1.1-2.7.2-1,.2-1.9.2-2.9,0,0,0-.1,0-.2.5-.1.6-.6.4-1-.1-.5-.4-.8-.8-1.1-.3-.3-.6-.5-1-.7,0,0,0,.2,0,.2.1.4.2.8,0,1.3,0,.3,0,.6,0,.9,0,.3.1.6.3.9,0,.1.2.2.3.2.1,0,.2-.1.3-.2v.8c0,1.2-.2,2.4-.8,3.4,0,0,0,0,0,0,0-.4,0-.8-.1-1.2-.1-.4-.3-.7-.6-1-.1.6-.4,1-.7,1.4-.3.3-.5.7-.5,1.2,0,.5.2.6.6.4,0,0,0,0,0,0-.4.5-.9.9-1.5,1.3-.9.6-1.9,1.1-2.8,1.7-.1-.1-.3-.1-.4-.1-.2,0-.4,0-.5,0-.2,0-.4,0-.5.2-.2-.2-.5-.3-.7-.5-.9-.5-1.8-1.1-2.6-1.8-.4-.4-.8-.8-1-1.3,0,0,0-.2.1-.3,0,0,0,0,0,0,.3-.2.6-.4.8-.7,0-.1.2-.3.2-.5,0,0,0-.2-.1-.2,0,0-.2,0-.3,0-.1,0-.2.2-.3.3-.2.2-.3.5-.4.7,0-.4,0-.7-.2-1.1,0-.2.2-.4.2-.6.1-.3.1-.6,0-.9,0-.1,0-.3-.2-.3-.1,0-.2.1-.2.3-.1.5-.1,1,.2,1.5,0,.3.1.6.1.8,0,.2,0,.4,0,.6,0-.1,0-.3-.1-.4,0-.4-.3-.7-.6-1-.1-.4-.2-.9-.3-1.3,0,0,0,0,.1,0,.5-.2.8-.6.9-1.1,0-.1,0-.2-.1-.3,0,0-.2,0-.3,0-.2.1-.4.3-.4.5,0,.2-.2.5-.2.7,0-.2,0-.5,0-.7.2-.5.2-1.1,0-1.6,0,0-.1-.1-.2-.1-.1,0-.1,0-.2.2,0,.3,0,.6,0,.9.2.3.3.6.3,1,0,.6.1,1.2.3,1.8-.2,0-.2.1-.2.2,0,.2,0,.3.1.5.2.3.4.5.6.7.4.7,1,1.4,1.6,1.9.7.6,1.5,1.1,2.3,1.6.1,0,.2.2.4.2-.5-.2-1-.3-1.5-.5-.2,0-.4,0-.6-.2-.7-.4-1.4-.9-1.9-1.5-1.1-1.3-1.6-2.9-1.9-4.6-.1-.8-.2-1.6-.2-2.4,0-.1.2-.2.3-.3.3-.2.5-.5.6-.9,0-.1,0-.2,0-.3-.1,0-.2,0-.3,0-.1,0-.2.2-.3.4,0,.1-.1.3-.2.4,0-.4,0-.7,0-1,0-.2-.1-.4-.3-.5-.1-.1-.2,0-.3,0,0,0,0,.1,0,.2,0,.3.1.6.4.9.2.3.4.5.3.9,0,0,0,.1,0,.2,0,.9,0,1.8.2,2.7,0,0,0,0,0,0,.2.5.3,1.1.4,1.6,0,0,0,0,0,0-.2-.3-.4-.5-.7-.6-.2,0-.3-.1-.4,0-.1.1,0,.3,0,.4,0,0,0,0,0,0,.3.3.7.4,1.1.4,0,0,0,.1,0,.2.4,1.1,1,2,1.8,2.7.4.3.7.6,1.2.9-1.1-.3-2.1-.6-2.8-1.5,0-.1,0-.3,0-.4,0-.4-.2-.8-.5-1.1,0,0-.1,0-.2,0,0,0-.1.1-.1.2,0,.3,0,.6.2.8.2.2.4.4.5.6.3.4.6.6,1.1.9h-.3c0,0-.2,0-.3,0-.3,0-.5-.2-.7-.2.3.2.7.3,1,.3.3,0,.6,0,.8.2.2.1.5.2.8.3.3.1.7.1,1,.3.6.3,1.3.5,1.9.8.2,0,.4.2.6.3-.2,0-.4,0-.5,0-.3,0-.4.1-.4.4,0,.1,0,.3,0,.4,0,.2,0,.3.2.2,0,0,.2,0,.2,0,0,.2.1.4.2.6,0,0,0,.2,0,.2-.3,0-.7.2-.9.5-.3.3-.4.8-.2,1.2.2.4.6.5,1,.4.4,0,.8-.3.9-.7.1-.3.2-.7.2-1,0,0,.2,0,.3,0,0,.1,0,.2,0,.3,0,.2,0,.3,0,.5-.3,0-.4.3-.6.5,0,0,0,.1,0,.2,0,0,.1,0,.2,0,0,0,.1,0,.2-.1,0,.2,0,.4,0,.6,0,.1,0,.3.2.3.2,0,.2-.1.2-.3,0,0,0-.2,0-.3,0,0,0,.1.2,0,.2,0,.1-.3.2-.4.1.2.2.4.3.6,0,.1.2.1.3,0,0,0,0-.2,0-.3-.2-.2-.2-.5-.5-.6,0,0,0,0,0,0,.1,0,.2.1.3,0,.2,0,.2.1.3.2,0,0,0,.1,0,.2,0,0,0,.2.2.2.1,0,.1-.1.1-.2,0,0,0-.1,0-.2,0,0,0-.1,0-.2,0,0,0,0,.1,0,.2,0,.4.1.6.1,0,0,.2,0,.2-.1,0-.1,0-.2-.1-.2-.2,0-.5-.2-.7-.1,0,0,.2-.1.1-.3,0-.1-.2-.2-.3-.1,0,0-.1,0-.2,0-.1,0-.3,0-.3.1ZM7,17.9c0,0-.2-.1-.3-.2-.1,0-.3-.1-.4-.2-.1,0-.3,0-.3,0,0,.1,0,.3,0,.3.2.2.5.4.8.4.2,0,.4,0,.7.2-.1-.2-.2-.3-.3-.5,0,0-.1-.2,0-.3.2-.1.3-.3.4-.4.2-.2.4-.5.4-.9,0,0,0-.2-.1-.2,0,0-.2,0-.2,0,0,0-.1.1-.2.2-.2.3-.3.7-.3,1.1,0,0,0,.1,0,.2-.3-.6-.4-1.2-.6-1.8.1-.1.3-.3.4-.4.1-.2.3-.4.2-.7,0,0,0-.2-.1-.2,0,0-.1,0-.2.1-.2.2-.2.4-.3.7,0,0,0-.1,0-.2,0-.3-.2-.6-.4-.8,0,0-.1-.1-.2,0,0,0-.1.1-.1.2,0,.2,0,.4.1.5.2.3.5.5.7.8.1.7.3,1.3.6,1.9ZM14.7,20s0,0,0,0c-.1-.2-.1-.4-.1-.7,0,.1,0,.2-.1.3,0,.2-.1.4,0,.6,0,.1,0,.3.2.4.3.1.5,0,.8,0,0,0,0,0,.1,0,.2-.2.1-.6-.1-.8,0-.2-.1-.3-.2-.4,0-.2,0-.4,0-.7,0,.2-.1.3-.2.5-.1.3-.3.6-.2.9ZM20.7,10c-.4-.3-.9-.5-1.3-.8-.5-.3-1-.6-1.5-.9-.4-.2-.7-.2-1.1,0-.1,0-.3.2-.4.3-.1,0-.2,0-.3,0-.2-.1-.4-.3-.6-.4-.3-.1-.5-.1-.8,0-.2.1-.4.2-.6.4-.1,0-.2-.1-.3-.2-.4-.3-.9-.3-1.3,0-.8.6-1.7,1.1-2.6,1.6,0,0,0,0,0,0,0,0-.1,0-.2,0,.8,0,1.5.2,2.3.1-.2,0-.3,0-.5,0,.7,0,1.4.2,2.1,0-.3,0-.5,0-.8-.1.1,0,.2,0,.3,0,0,0,.1,0,.2,0,.4,0,.7,0,1.1,0,.4,0,.7,0,1.1,0-.3,0-.5,0-.8-.1.1,0,.2,0,.4,0,0,0,0,0,0,0,.5,0,1.1,0,1.6.1.2,0,.5,0,.7,0-.2,0-.3,0-.5-.1.3,0,.5,0,.8,0,.2,0,.5,0,.7,0,.2,0,.5,0,.7,0,0,0,0,0,0,0-.2,0-.4,0-.5,0,.4,0,.7,0,1.1,0,.6,0,.9,0,1-.1,0,0,0,0,0,0ZM16.8,17.5c0,0,0-.2,0-.2.1,0,.2,0,.2.2,0,0,0,0,0,0,0,0,0,.1,0,.2.2,0,.3-.2.4-.3,0-.2-.3-.3-.3-.5,0,0,.2,0,.3,0,0,.1.1.3.2.4.1,0,.2-.2.3-.3,0,0,0-.1,0-.2-.1,0-.3-.2-.3-.3.3-.3.4,0,.6.2.1-.1.2-.3.3-.4,0,0,0-.2,0-.2-.1,0-.3-.1-.4-.3,0-.1.2-.1.3-.2.1.1.2.2.3.3.1-.1.1-.3.2-.4,0-.1,0-.2-.1-.2-.2,0-.3,0-.4-.2.2-.4.4,0,.7,0,0-.3,0-.6,0-.9-.5.1-.5.1-.6-.1.2-.2.4,0,.6-.2,0-.2,0-.4-.2-.6-.1,0-.2.2-.3.2-.1,0-.2,0-.3-.1.1-.2.3-.2.5-.3,0-.2-.1-.4-.3-.5q-.3.3-.6.2c0-.2.2-.2.3-.3,0,0,.1,0,0-.1-.1-.1-.2-.3-.3-.4-.2.1-.2.5-.5.3,0-.2.2-.3.3-.5,0,0-.2-.1-.2-.2-.2-.2-.3-.2-.3.1,0,0,0,.2-.1.2,0,0-.2,0-.2,0,0,0,0-.2,0-.2,0,0,0-.1.1-.2,0,0,0-.1,0-.2-.1,0-.3-.2-.4-.2,0,0,0,.2,0,.3,0,0,0,.1,0,.2,0,0-.2,0-.2,0,0,0,0-.1,0-.2,0,0,0-.2.1-.3-.2,0-.4-.1-.6,0,0,.2,0,.3,0,.4q-.3,0-.3-.5c-.2,0-.3-.1-.5,0-.1,0,0,.2,0,.4,0,0-.1.2-.2.1-.2,0,0-.3-.1-.5-.2,0-.3,0-.5.1,0,0,0,.2,0,.3,0,0,0,.1,0,.2,0,0,0,0-.2,0,0,0,0,0-.1-.2,0-.1,0-.2-.1-.3-.1.1-.3,0-.5.3,0,0,0,.1.1.2,0,.1,0,.2-.1.3-.1,0-.2,0-.2-.2,0-.2-.1-.2-.3-.1,0,0-.2.1-.3.2.3.5.3.5,0,.5,0-.1-.1-.2-.2-.3,0,0-.1.1-.2.2-.2.2-.2.2,0,.4.2.1.2.2,0,.3,0,0,0,0,0,0,0-.1-.2-.2-.3-.3-.1.1-.2.3-.3.4,0,0,0,.1,0,.2,0,0,.1,0,.2,0,0,0,.1,0,.2.2,0,0,0,.1-.1.1,0,0-.1,0-.2,0,0,0-.1-.1-.2-.1,0,.2-.2.3-.2.5.2,0,.4,0,.5.2,0,.2-.2.2-.4.1,0,0,0,0-.1,0,0,0-.1,0-.1,0,0,.2,0,.5,0,.7.2,0,.3,0,.4,0,0,0,.2.1.1.3,0,.2-.3,0-.5.2,0,.2,0,.4.2.6,0,0,.2-.1.3-.2,0,0,.1,0,.2,0,.1.1.1.2,0,.3q-.2.1-.1.3t.4,0s0-.1.2,0c0,0,.1,0,.1.1,0,0,0,.1,0,.2,0,0-.2,0-.2.2.1.1.2.3.4.4.1-.1.2-.4.4-.3.1.2,0,.3-.1.4,0,0-.1,0,0,.1.1.1.2.3.4.3,0,0,0-.1.1-.2,0,0,0-.1.1-.1,0,0,.1,0,.2,0,0,0,0,.1,0,.2,0,0-.1.2-.2.2.2,0,.3.2.5.2,0,0,0-.2,0-.3,0,0,0-.2.2-.1,0,0,.2.1,0,.3,0,0-.1.2,0,.3,0,0,.1,0,.2,0,.3,0,.3,0,.3-.2,0-.1,0-.2.1-.2.4,0,0,.4.1.5.2,0,.3,0,.5,0,0-.1,0-.2,0-.3,0-.1,0-.2.2-.2.1,0,.2,0,.2.2,0,0,0,.2,0,.3.2,0,.4,0,.5-.1,0-.2-.1-.3,0-.5.4,0,.2.3.3.5.2,0,.3-.1.5-.2,0-.1-.1-.2-.1-.3ZM7.3,13.7c0-.1-.2-.3-.3-.4,0-.2-.2-.4-.2-.6,0-.1,0-.3,0-.4,0-.4-.1-.7-.4-1,0,0-.1-.1-.2,0,0,0-.1.1-.1.2,0,.4.1.7.4,1,.2.2.3.4.3.7-.2-.1-.3-.3-.5-.4-.1,0-.3,0-.4,0,0,.1,0,.3,0,.4.2.3.5.4.8.5.2,0,.4,0,.5.1Z"/>
      <path class="cls-60" d="M3.1,2.5c.5-.7,1-1.3,1.5-2,0-.1.1-.1.3-.1,7,0,14,0,21,0,.1,0,.2,0,.3.1.5.7,1,1.4,1.5,2.1,0,0,0,0,.1.1,0,0,0,0-.1,0-8.1,0-16.2,0-24.4,0-.1,0-.3,0-.4,0,0-.1.1-.2.2-.3ZM13.1,1.1c0,.4,0,.9,0,1.3,0,0,0,.1,0,.2h.3v-1.5h.4c0-.1,0-.2,0-.3h-1c0,.1,0,.2,0,.3h.3ZM8,.8c0,0,0,0,0,.1,0,.5,0,1,0,1.6,0,0,0,0,0,.1.2,0,.4,0,.6,0,.3,0,.4-.1.5-.4,0-.2,0-.4-.2-.5.2-.2.2-.4.1-.6,0-.2-.3-.2-.5-.2-.2,0-.3,0-.5,0ZM20.7.8c0,0,0,0,0,.1,0,.5,0,1,0,1.5,0,0,0,0,0,.1.2,0,.4,0,.7,0,.2,0,.3-.1.4-.3,0-.2,0-.5-.2-.6,0,0,0,0,0,0,.1-.2.1-.4,0-.6,0-.2-.2-.2-.4-.2-.2,0-.3,0-.5,0ZM17.9,2.6c0,0,.2,0,.2,0V.8c-.1,0-.3,0-.4,0,0,.4-.1.7-.2,1.1h0c0-.4-.1-.8-.2-1.1h-.4v1.8c0,0,.1,0,.2,0v-1.2s0,0,0,0c0,.4.1.8.2,1.2h.2c0-.3.1-.6.2-.9,0,.2,0,.3,0,.5,0,.1,0,.3,0,.4ZM5.5.8s0,0,0,0c0,.5,0,1.1,0,1.6,0,0,0,0,0,0h.3c0-.3,0-.6.2-.8,0,.1,0,.2.1.3q.2.5.8.5s0,0,0,0c0-.1,0-.3.1-.4h.5c0,.1,0,.3.1.4h.3c-.2-.5-.3-1.1-.5-1.6,0-.1,0-.2-.2-.2-.1,0-.2,0-.2.2-.1.5-.3,1-.4,1.5,0,0,0,0,0,0-.1-.3-.3-.6-.4-.9,0-.1,0-.2,0-.3.1-.2.2-.4.4-.5-.2,0-.4,0-.5.2,0,.2-.2.4-.4.5,0,0,0,0,0,0v-.7h-.3ZM22.2,2.6v-.7c.1,0,.2,0,.3.1,0,.1.1.3.2.4,0,.2.2.3.4.2-.1-.3-.2-.5-.4-.7,0,0,0,0,.1,0,.2-.2.2-.4.2-.6,0-.2-.2-.3-.4-.3-.2,0-.4,0-.6,0v1.8h.3ZM16.1,2.6V.8c0,0-.1,0-.2,0v1.1c-.2-.3-.3-.6-.4-.9,0-.2-.1-.2-.3-.2v1.8c0,0,.2,0,.2,0v-1c.2.3.3.6.4.9,0,.2.2.2.3.2ZM14.2,1.1h.7c0-.1,0-.2,0-.3h-.9v1.8h.9c0,0,0-.2,0-.3h-.7v-.5h.6c0-.1,0-.2,0-.3h-.6v-.4ZM10.1.8c0,.1,0,.2,0,.3,0,.3,0,.6,0,1,0,.1,0,.2-.2.2-.2,0-.2,0-.3-.2,0-.1,0-.3,0-.4,0-.3,0-.6,0-.8,0,0-.2,0-.3,0,0,.4,0,.9,0,1.3,0,0,0,.2,0,.2,0,.2.2.3.5.3.2,0,.4-.1.4-.3,0-.1,0-.2,0-.4,0-.4,0-.7,0-1.1,0,0-.2,0-.3,0ZM19.5,2.6c-.2-.6-.3-1.1-.5-1.7,0,0,0-.1-.2-.1,0,0-.1,0-.2.1-.1.6-.3,1.1-.5,1.7.1,0,.2,0,.3,0,0-.1,0-.3.1-.4h.5c0,.1,0,.3.1.4,0,0,.2,0,.3,0ZM12.8,2.6c-.2-.6-.3-1.1-.5-1.7,0-.1,0-.1-.2-.1,0,0-.1,0-.2.1,0,.1,0,.2,0,.3-.1.5-.2.9-.4,1.4.1,0,.2,0,.3,0,0-.1,0-.2.1-.4.2,0,.3,0,.5,0,0,.1,0,.3.1.4h.3ZM24,2.2c0,.1,0,.3.1.4,0,0,.2,0,.3,0,0,0,0,0,0,0-.2-.6-.3-1.1-.5-1.7,0-.1-.1,0-.2,0,0,0-.1,0-.1.1-.2.6-.3,1.1-.5,1.7,0,0,.2,0,.3,0,0-.1,0-.2.1-.4,0,0,0,0,.1,0,.1,0,.2,0,.4,0ZM10.9,1.9c0,0,.2,0,.2,0,.3,0,.4-.1.4-.4,0-.3,0-.6-.2-.7,0,0,0,0,0,0-.2,0-.5,0-.7,0v1.8c0,0,.2,0,.3,0v-.6ZM20,1.5c0-.2-.2-.3-.2-.5,0-.2-.2-.3-.4-.2.2.6.6,1.1.4,1.8.1,0,.2,0,.3,0,0-.3,0-.6,0-.9.1-.3.3-.6.4-.8-.2,0-.3,0-.4.2,0,.2-.1.3-.2.5ZM25.3.8h-1c0,.1,0,.2,0,.3.1,0,.2,0,.4,0v1.4c0,0,.2,0,.3,0v-1.4c.1,0,.3,0,.4,0,0,0,0-.2,0-.3Z"/>
      <path class="cls-143" d="M24.5,3c1,0,2,0,3,0q.5,0,.8.4H2.4c0-.1.2-.2.3-.4,0,0,.1,0,.2,0,.8,0,1.6,0,2.5,0,0,0,.1,0,.2,0,0,0,.1,0,.2,0,5.2,0,10.5,0,15.7,0,1,0,2.1,0,3.1,0Z"/>
      <path class="cls-71" d="M24.5,3c-1,0-2.1,0-3.1,0-5.2,0-10.5,0-15.7,0,0,0-.1,0-.2,0,0-.1.1,0,.2,0,0,0-.2,0-.2,0-.1,0-.2,0-.4,0-.4,0-.8,0-1.1,0-.4,0-.8,0-1.1,0,0,0-.2,0-.2-.1,0-.1,0-.2.2-.2.1,0,.2,0,.4-.1,0,.1-.1.2-.2.3.2,0,.3,0,.4,0,8.1,0,16.2,0,24.4,0,0,0,.1,0,.1,0,0,0,.1.1.2.2,0,0,0,0,0,0-.1-.1-.3,0-.4-.1,0,0,0,0-.1,0-.3.1-.6,0-.8,0-.2,0-.4,0-.6,0-.5,0-.9-.1-1.3,0,0,0,0,0-.1,0,0,0,0,0,.1,0,0,0,0,0,0,0Z"/>
      <path class="cls-5" d="M7.8,22.1c0,.1,0,.2-.1.2-.2.2-.3.5-.5.6-.4-.4-.6-.9-.9-1.4.1,0,.2,0,.2,0,.3.1.5.3.8.4.1,0,.3.1.5.1Z"/>
      <path class="cls-119" d="M23.7,22.9c-.2-.3-.5-.5-.6-.9.3,0,.5-.1.8-.3.2,0,.3-.2.5-.3,0,0,.1,0,.2,0-.2.5-.5,1-.9,1.4Z"/>
      <path class="cls-45" d="M18.5,27.6c-.1-.3-.2-.6-.3-.9.2,0,.3-.1.4-.2.1,0,.2,0,.3,0,0,0,0,.2,0,.3.1,0,.3.1.2.3,0,.2-.2.2-.3.3-.1,0-.2,0-.4.1ZM18.6,27.4c.1,0,.3,0,.3-.2,0,0,0,0,0-.1-.1,0-.2,0-.4,0,0,0,0,.2,0,.2ZM18.4,26.8c0,0,0,.1,0,.2,0,0,.2,0,.2,0,0,0,0,0,0-.1,0,0,0,0-.1,0,0,0-.2,0-.3,0Z"/>
      <path class="cls-42" d="M13.2,26.9c.2,0,.3,0,.4,0,.1,0,.2,0,.2.2,0,.1,0,.2-.1.3,0,0,.2.2,0,.3,0,.1-.2.1-.3.1-.1,0-.3,0-.5,0,0-.3.1-.6.2-.9ZM13.3,27.5c0,0,0,.1,0,.2,0,0,.2,0,.3,0,0,0,.1,0,.1,0,0,0,0-.1,0-.1,0,0-.2,0-.3,0ZM13.3,27.3c.1,0,.2.1.3,0,0,0,0,0,0-.1,0-.1-.2,0-.3-.1,0,0,0,.1,0,.2Z"/>
      <path class="cls-64" d="M11.8,26.5c0,0,.1,0,.2,0-.1.3-.2.5-.3.8q-.2,0-.3-.7c0,.2-.1.3-.2.4,0,.1-.1.1-.2,0,.1-.3.2-.5.4-.9.3.2.2.5.3.8,0-.2.1-.3.2-.5Z"/>
      <path class="cls-197" d="M14.5,27.3c0,0-.2,0-.2,0,0,0,0,.1,0,.2.1,0,.3,0,.4,0q0,.1-.4.1c0,0,0,.2,0,.2q.5.1.5.2c-.2,0-.4,0-.7,0,0-.3,0-.6,0-.9.2,0,.3,0,.5,0,0,0,.2,0,.2,0,0,.2-.2,0-.2.1Z"/>
      <path class="cls-166" d="M16.4,28c-.1,0-.2,0-.2,0,0-.2-.2-.1-.4-.1-.1,0-.1.1-.2.2,0,0-.1,0-.2,0,0-.3.2-.6.3-.8,0,0,0,0,.1,0,0,0,.1,0,.2,0,.1.3.2.5.4.8ZM16,27.7c0-.1,0-.2-.1-.3,0,.1,0,.2,0,.3,0,0,.1,0,.2,0Z"/>
      <path class="cls-72" d="M19.4,27.1c0,.1,0,.3-.1.3,0-.3,0-.6,0-.9,0,0,0,0,0-.1,0,0,.1,0,.2,0,.2.2.4.4.7.6,0,0-.1.1-.2,0-.2-.2-.3,0-.5,0ZM19.6,26.8c0,0-.1-.2-.2-.3,0,.1,0,.3,0,.4,0,0,.1,0,.2,0Z"/>
      <path class="cls-35" d="M10.3,26.6c-.1,0-.2.2-.3,0,.2-.2.5-.4.7-.6.2,0,.2.1.2.3,0,.3,0,.5-.1.8,0,0-.2,0-.2-.1,0-.3-.2-.3-.3-.4ZM10.7,26.3c-.1,0-.2.1-.3.2,0,0,.1,0,.2.1,0-.1,0-.2,0-.3Z"/>
      <path class="cls-124" d="M17.5,26.9c0,.2.1.4.1.5,0,.1,0,.2.2.2.1,0,.2-.1.1-.3,0-.1,0-.3-.1-.4,0-.1,0-.2.2-.2,0,.2.1.4.1.6,0,.2,0,.3-.3.4-.2,0-.4,0-.4-.2,0-.2,0-.3-.1-.5,0-.1,0-.2.1-.2Z"/>
      <path class="cls-184" d="M12.1,26.6c0,0,.1,0,.2,0,0,0,0,0,0,0,0,.2-.1.3-.2.5,0,.1,0,.2.1.3.1,0,.2,0,.2-.2,0-.2.1-.3.2-.5,0,0,.1,0,.2,0,0,.2-.1.4-.2.6,0,.2-.2.2-.4.2-.2,0-.3-.2-.3-.4,0-.2.1-.4.2-.6Z"/>
      <path class="cls-76" d="M16.6,27.2c0,0,0-.2,0-.2.2,0,.4,0,.6-.1q0,.2-.2.2c0,.2,0,.5.1.7,0,0-.1,0-.2,0,0-.2,0-.5-.1-.7,0,0-.2,0-.3,0Z"/>
      <path class="cls-15" d="M15.4,27.2c0,0,.1,0,.1.1,0,.1-.2,0-.3,0,0,.2,0,.5,0,.7,0,0-.1,0-.2,0,0-.1,0-.2,0-.4,0-.1,0-.3,0-.4,0,0-.2,0-.2,0,0-.1,0-.2.1-.1.2,0,.3,0,.5,0Z"/>
      <path class="cls-133" d="M20.1,26.1c.1.2.2.4.4.6,0,0,0,0-.2.1-.1-.2-.3-.4-.4-.7,0,0-.2,0-.2.1,0,0-.1-.1,0-.2.2,0,.4-.2.5-.3.2.2,0,.2-.1.3Z"/>
      <path class="cls-16" d="M15.4,27.2c-.2,0-.3,0-.5,0-.1,0-.1,0-.1.1,0,0,.2,0,.2,0,0,.1,0,.3,0,.4,0-.1,0-.2,0-.3-.2,0-.4,0-.6,0,0,0,0,0,0,0,0,0,0,0,0,0,0,0,.3,0,.2-.1,0,0-.2,0-.2,0,.3,0,.6,0,.9,0,0,0,0,0,0,0,0,0,0,0,0,0Z"/>
      <path class="cls-98" d="M16.8,17.5c0,.1,0,.2.1.3-.2.1-.3.1-.5.2,0-.2.1-.5-.3-.5,0,.2,0,.3,0,.5-.2,0-.3.1-.5.1,0-.1,0-.2,0-.3,0-.1,0-.2-.2-.2-.1,0-.1,0-.2.2,0,.1.1.2,0,.3-.2,0-.3,0-.5,0-.1-.2.3-.4-.1-.5,0,0-.1,0-.1.2,0,.3,0,.3-.3.2,0,0-.2,0-.2,0,0-.1,0-.2,0-.3,0-.2,0-.2,0-.3-.1,0-.1,0-.2.1,0,0,0,.2,0,.3-.2,0-.3-.1-.5-.2,0,0,.1-.2.2-.2,0,0,0-.1,0-.2,0,0,0-.1-.2,0,0,0-.1,0-.1.1,0,0,0,.1-.1.2-.2,0-.3-.2-.4-.3,0,0,0-.1,0-.1.1,0,.2-.2.1-.4-.3-.1-.3.2-.4.3-.2-.1-.2-.3-.4-.4,0,0,.2-.1.2-.2,0,0,0-.1,0-.2,0,0,0-.1-.1-.1,0,0-.1,0-.2,0q-.2.2-.4,0t.1-.3c.2,0,.2-.2,0-.3,0,0,0,0-.2,0,0,0-.2.1-.3.2-.1-.2-.1-.4-.2-.6.2,0,.4,0,.5-.2,0-.1,0-.2-.1-.3-.1,0-.3,0-.4,0,0-.2,0-.5,0-.7,0,0,0-.1.1,0,0,0,0,0,.1,0,.2.1.3,0,.4-.1,0-.2-.3-.2-.5-.2,0-.2,0-.4.2-.5.1,0,.2,0,.2.1,0,0,.1,0,.2,0,0,0,.1,0,.1-.1,0,0,0-.2-.2-.2,0,0-.1,0-.2,0-.1,0,0,0,0-.2,0-.1.1-.3.3-.4,0,.1.2.2.3.3,0,0,0,0,0,0,.2-.1.2-.2,0-.3-.2-.2-.2-.1,0-.4,0,0,.1-.1.2-.2,0,.1.1.2.2.3.3,0,.3,0,0-.5,0,0,.2-.1.3-.2.2-.1.2-.1.3.1,0,0,0,.2.2.2.2,0,.2-.1.1-.3,0,0,0-.2-.1-.2.1-.2.3-.2.5-.3,0,0,.1.2.1.3,0,0,0,.1.1.2,0,0,.1,0,.2,0,0,0,0-.1,0-.2,0,0,0-.2,0-.3.1,0,.3-.1.5-.1,0,.1,0,.4.1.5.1,0,.2,0,.2-.1,0-.1-.1-.3,0-.4.1,0,.3,0,.5,0q0,.5.3.5c0-.1,0-.3,0-.4.2,0,.3.1.6,0,0,.1,0,.2-.1.3,0,0,0,.2,0,.2,0,0,.1,0,.2,0,0,0,0,0,0-.2,0,0,0-.2,0-.3.2,0,.3.1.4.2,0,0,0,.1,0,.2,0,0,0,.1-.1.2,0,0,0,.1,0,.2,0,0,.1,0,.2,0,0,0,0,0,.1-.2,0-.3.1-.3.3-.1,0,0,.2.1.2.2,0,.2-.3.3-.3.5.3.2.3-.2.5-.3.1,0,.2.2.3.4,0,0,0,.1,0,.1-.1,0-.3.2-.3.3q.2.2.6-.2c.1.1.2.3.3.5-.2.1-.4.1-.5.3,0,0,.2.2.3.1.1,0,.2-.1.3-.2.1.2.2.4.2.6-.2.1-.4,0-.6.2,0,.2,0,.2.6.1,0,.3,0,.6,0,.9-.2,0-.5-.3-.7,0,.1.1.3.2.4.2.1,0,.2,0,.1.2,0,.1,0,.3-.2.4-.1,0-.2-.2-.3-.3,0,0-.2,0-.3.2,0,.1.2.2.4.3,0,0,.1.1,0,.2,0,.1-.1.3-.3.4-.2-.1-.2-.5-.6-.2,0,.2.2.3.3.3,0,0,.1.1,0,.2-.1,0-.2.2-.3.3-.1-.1-.1-.3-.2-.4,0,0-.2,0-.3,0,0,.2.2.3.3.5-.1.1-.3.2-.4.3,0,0,0-.1,0-.2,0-.3,0-.3-.4-.2,0,0,0,.2,0,.2ZM12.4,14.4c0,1.5,1.3,2.8,2.8,2.9,1.6,0,2.9-1.2,2.9-2.9,0-1.5-1.2-2.8-2.8-2.9-1.5,0-3,1.3-2.9,2.9Z"/>
      <path class="cls-1" d="M9.9,10s0,0,0,0c.9-.4,1.8-1,2.6-1.6.5-.3.9-.3,1.3,0,.1,0,.2.1.3.2.2-.1.4-.2.6-.4.2-.1.5-.2.8,0,.2.1.4.2.6.4.1,0,.2,0,.3,0,.1,0,.3-.2.4-.3.3-.2.7-.2,1.1,0,.5.3,1,.6,1.5.9.4.3.9.5,1.3.8-.2,0-.4,0-.6,0-.4,0-.8,0-1.2,0-.7,0-1.4,0-2.2,0-.5,0-1,0-1.5,0-.1,0-.2,0-.4,0-.5,0-1.1,0-1.6,0-.1,0-.2,0-.3,0-.9-.1-1.7,0-2.6,0-.1,0-.2,0-.4,0Z"/>
      <path class="cls-126" d="M23.6,14.8c-.2.1-.4.3-.7.1-.2-.1-.3-.4-.3-.6,0-.5.2-.9.5-1.2.1-.2.3-.3.5-.5.4-.3.5-.7.7-1.2.1.1.2.3.3.5.3.6.4,1.2.5,1.9,0,.3,0,.5-.1.8-.2.4-.5.5-.9.3-.1,0-.2-.2-.3-.1,0-.1,0-.1-.2,0Z"/>
      <path class="cls-94" d="M15.7,20.9c.9-.6,1.9-1.1,2.8-1.7.5-.4,1.1-.8,1.5-1.3,0,0,.1-.1.2-.2,0,0,.1,0,.2,0-.2.3-.5.6-.8.9-.3.3-.6.5-.9.7.5-.2.9-.5,1.4-.6.4-.2.7-.5.9-.9,0-.2.2-.3.3-.5,0,0,0-.1,0-.2.5-1.1.7-2.3.8-3.4,0-.4,0-.8,0-1.2,0,0,0,0,0,.1,0,1,0,1.9-.2,2.9-.2.9-.5,1.8-1.1,2.7.2-.1.4-.3.6-.4,0,.1,0,.2-.1.3-.2.1-.4.3-.6.4,0,0-.2,0-.2.2-.5.7-1.2,1.2-1.9,1.6,0,0,0,0,0,0,.7-.2,2.3-.8,2.9-1.2.3-.2.6-.4.8-.6,0,0,0,0,.1.1-.5.5-1.2.9-1.8,1.2-1.1.5-2.3.9-3.5,1.3-.4.1-.8.3-1.1.5,0,0,0,0-.1,0-.2,0-.3,0-.4,0,0-.2,0-.4.2-.4.1,0,.1-.1.2-.2ZM16.4,21.1c1.1-.2,3.4-1.6,3.8-2.3-1.5.7-2.9,1.3-4.2,2.3.8-.2,1.5-.6,2.2-1-.5.4-1.1.8-1.8,1Z"/>
      <path class="cls-92" d="M21.4,18.1c0-.1,0-.2.1-.3.2-.1.3-.3.5-.4.1,0,.3,0,.4-.1.6-.1,1.2,0,1.8-.6,0,.3,0,.5,0,.7,0,.5-.1.9-.4,1.3-.4.6-1,.6-1.4,0,0,0,0-.1-.1-.1-.1,0-.2,0-.3,0-.3,0-.4-.1-.5-.4Z"/>
      <path class="cls-88" d="M22.3,12.6s0,0,0-.1c-.1.4,0,.8,0,1.2,0-.3,0-.5,0-.8,0,.1-.2.2-.3.2-.1,0-.2,0-.3-.2-.2-.3-.3-.6-.3-.9,0-.3,0-.6,0-.9,0-.4,0-.9,0-1.3,0,0,0-.1,0-.2.4.2.7.4,1,.7.3.3.6.7.8,1.1.1.4,0,.9-.4,1,0,0,0,0,0,.2Z"/>
      <path class="cls-161" d="M21.3,17.1c0,0,0,.1,0,.2-.1,0-.2.2-.3.3-.2.1-.4,0-.6,0,0,0-.1,0-.2,0,0,0-.1.1-.2.2,0,0,0,0,0,0-.4.2-.6,0-.6-.4,0-.5.2-.9.5-1.2.3-.4.6-.8.7-1.4.3.3.5.7.6,1,.1.4.2.8.1,1.2,0,0,0,0,0,0Z"/>
      <path class="cls-141" d="M9.9,17.4c.3.5.6.9,1,1.3.8.7,1.7,1.3,2.6,1.8.2.1.5.3.7.5,0,0,0,.2.2.2,0,0,0,0,0,.2-.6-.5-1.3-.6-2-.8,0,0,.2,0,.3.1.6.3,1.3.4,1.8.8,0,0,0,0,0,0,0,0-.1,0-.2,0-.1-.2-.4-.3-.6-.3-.6-.3-1.3-.5-1.9-.8-.3-.1-.7-.2-1-.3-.3,0-.5-.2-.8-.3-.3-.1-.5-.2-.8-.2,0,0,0,0,0,0h.3c-.4-.3-.8-.5-1.1-.9,0,0,0,0,0,0,.7.9,1.8,1.2,2.8,1.5-.4-.3-.8-.5-1.2-.9-.8-.8-1.4-1.7-1.8-2.7,0,0,0-.1,0-.2,0,0,0-.1,0-.2-.2-.5-.2-1.1-.4-1.6,0,0,0,0,0,0-.1-.9-.2-1.8-.2-2.7,0,0,0-.1,0,0,0,.8,0,1.6.2,2.4.3,1.7.7,3.3,1.9,4.6.5.6,1.2,1.1,1.9,1.5.2,0,.4.1.6.2.5.1,1,.3,1.5.5-.1,0-.2-.2-.4-.2-.8-.5-1.6-1-2.3-1.6-.6-.5-1.2-1.2-1.6-1.9.1,0,.1,0,.2,0,0,0,0,0,0,.1Z"/>
      <path class="cls-44" d="M17,24.5c.3,0,.5,0,.7.1.1,0,.1.1.1.2,0,.1,0,.1-.2.1-.2,0-.4-.1-.6-.1,0,0,0,0-.1,0,0,0,0,.1,0,.2,0,0,0,.1,0,.2,0,0,0,.2-.1.2-.1,0-.2-.1-.2-.2,0,0,0-.1,0-.2,0-.1,0-.3-.3-.2-.1,0-.2,0-.3,0,0,0,0,0,0,0,.3.1.3.4.5.6,0,0,.1.2,0,.3-.1,0-.2,0-.3,0-.1-.2-.2-.4-.3-.6,0,.2,0,.3-.2.4,0,0-.1,0-.2,0,0,0,0,.2,0,.3,0,.1,0,.3-.2.3-.2,0-.2-.1-.2-.3,0-.2,0-.4,0-.6,0,0-.1,0-.2.1,0,0-.1,0-.2,0,0,0,0-.1,0-.2.2-.1.2-.5.6-.5-.1-.2-.2-.3,0-.5.2,0,0-.1,0-.1,0,.2.2.3.3.5,0,0,0,0,0-.1.3,0,.5.2.7.3,0,0,0,0,0-.1,0,0,.2,0,.2,0,0,0,.1,0,.1-.2h0ZM16,24.6c0,.1,0,.2-.2.2-.2,0-.1,0,0,.2,0,0,.1.2.2.3,0-.2.1-.4.2-.7Z"/>
      <path class="cls-139" d="M15.3,21.6c.1,0,.3,0,.4,0q.3.1.3.5c-.1.1-.3,0-.4.2,0,.2.3,0,.3.3-.1,0-.2.2-.4,0,0,0-.1,0-.2,0-.2,0-.3.1-.5,0-.3,0-.5,0-.8,0-.1-.2-.1-.3,0-.4.2,0,.4,0,.6,0,0,0,.2,0,.2,0-.2,0-.4,0-.7,0-.2,0-.2,0-.2-.2,0-.2.2-.2.3-.2.2,0,.5,0,.7,0,0,0,.1,0,.2,0Z"/>
      <path class="cls-30" d="M7.3,13.7c-.2,0-.4,0-.5-.1-.3,0-.6-.2-.8-.5,0-.1-.1-.2,0-.4,0-.1.2,0,.4,0,.2,0,.4.2.5.4,0-.3-.2-.5-.3-.7-.3-.3-.4-.6-.4-1,0-.1,0-.2.1-.2.1,0,.2,0,.2,0,.3.3.3.7.4,1,0,.1,0,.3,0,.4,0,.2,0,.4.2.6,0,.1.2.3.3.4Z"/>
      <path class="cls-79" d="M7.9,11.8c0,0,0,0,0,0,0,0,0-.1,0-.2,0-.4,0-.6-.3-.9-.2-.2-.4-.5-.4-.9,0,0,0-.1,0-.2,0-.2.2-.2.3,0,.2.1.2.3.3.5.1.3,0,.6,0,1,0-.2.1-.3.2-.4,0-.1.2-.3.3-.4,0,0,.2-.1.3,0,.1,0,.1.2,0,.3,0,.4-.3.7-.6.9-.1,0-.2.1-.3.3Z"/>
      <path class="cls-29" d="M6.5,16.1c-.2-.3-.5-.5-.7-.8,0-.2-.1-.3-.1-.5,0-.1,0-.2.1-.2,0,0,.2,0,.2,0,.2.2.3.5.4.8,0,0,0,.1,0,.2.1-.2.1-.5.3-.7,0,0,.1-.1.2-.1.1,0,.1.1.1.2,0,.3,0,.5-.2.7-.1.2-.3.3-.4.4,0,0,0,0,0,0Z"/>
      <path class="cls-66" d="M15.1,21.6c-.2,0-.5,0-.7,0-.1,0-.3,0-.3.2,0,.2,0,.3.2.2.2,0,.4,0,.7,0,0,.1-.1,0-.2,0-.2,0-.4,0-.6,0-.2,0-.2.2,0,.4,0,0,.1,0,.2,0,.3,0,.6,0,1,0,0,0,0,.1,0,.1-.3,0-.7,0-1,0,0,0-.1,0-.1,0,0,0,0,.1.1.2.3,0,.6.2,1,.2,0,0,.1,0,0,.1-.2,0-.3,0-.5,0-.2,0-.3,0-.5,0,0,.1,0,.2,0,.3h0c0,0,0-.2,0-.2,0-.2-.2-.4-.2-.6,0,0-.1,0-.2,0-.2,0-.2,0-.2-.2,0-.1,0-.3,0-.4,0-.3.1-.4.4-.4.2,0,.4,0,.5,0,0,0,.1,0,.2,0,0,0,.1,0,.2,0,0,0,.1,0,.2,0,0,0,.1,0,.2,0,0,0,0,0,0,0Z"/>
      <path class="cls-130" d="M14.3,23.5c0,0,0-.2,0-.3.2,0,.3,0,.5,0,.2,0,.3.1.5,0,0,0,0,0,0-.1,0,0,.1,0,.2,0,.1,0,.3,0,.4,0,0,0,.1,0,0-.1,0,0,0,0-.1,0-.2,0-.3-.1-.5,0,0,0,0,0,0-.1-.3.1-.7,0-1,0,0,0-.1,0-.2,0,.3,0,.5,0,.8,0,.2,0,.3-.1.5,0,0,0,.1,0,.2,0,.1,0,.2,0,.4,0,0-.2-.3,0-.3-.3,0-.2.3,0,.4-.2,0,.3,0,.7,0,1,0,.2,0,.5-.3.7,0,0-.1,0-.2.1,0,0-.2,0-.3,0,0,0,0,0,0,0,0,0,0,0,0,0-.3,0-.5-.1-.8-.2,0,0,0,0,0,0,0,0,0,0,0,0Z"/>
      <path class="cls-14" d="M14.3,23.5s0,0,0,0c0,.1-.2,0-.3.2,0,0,0,0,0,.1-.1-.1-.3-.1-.4,0,0,.2.2.4.3.6-.2-.1-.2-.4-.4-.6-.3.1-.3.2-.2.4,0,.2.2.4.3.6-.2-.2-.3-.5-.5-.8-.2.1-.2.3-.2.5,0,0,0,0-.1,0,0,.6.3,1,1,.9-.5,0-.8-.4-.9-.8.1.2.2.4.4.6.3.3.8.3,1,0-.3,0-.6,0-.8-.3,0,0,.1,0,.2,0,.2.1.4.2.6.2.2,0,.2,0,.3-.3-.3,0-.7-.1-.8-.4.2.1.3.3.5.3.3,0,.4,0,.4-.3-.3,0-.6-.2-.7-.5,0,0,.2.2.2.2.2.1.3.3.5.2,0-.1,0-.2,0-.3-.3,0-.5-.2-.6-.4.1,0,.2.1.3.2.2.2.3.2.4,0,0,0,0,0,0,0,0,.3,0,.7-.2,1-.2.4-.5.6-.9.7-.4,0-.7,0-1-.4-.2-.4-.2-.8.2-1.2.3-.3.6-.4.9-.5,0,0,0,0,0,0Z"/>
      <path class="cls-121" d="M15.3,19.8c.3.2.3.6.1.8,0,0,0,0-.1,0-.3,0-.6,0-.8,0-.1,0-.2-.2-.2-.4,0-.2,0-.4,0-.6,0,0,0-.2.1-.3,0,.3,0,.5.1.7,0,0,0,0,0,0,.1,0,.2-.1.4,0,0,0,.1,0,.1,0,0,0,0,0,0,0Z"/>
      <path class="cls-129" d="M15,7s0,0,0,0c0-.2,0-.3,0-.5.2-.1.4-.3.3-.5,0,0-.1,0-.2,0,0,0,0,0,.1-.1,0,0,.2,0,.2,0,0,0,.1.1.1.2,0,.2,0,.4-.1.6,0,.1,0,.2,0,.3,0,0,.2,0,.3,0,0,0,0,0,.2-.1,0,.2,0,.3,0,.5-.2.1-.4.1-.5.4,0-.1-.1-.2-.2-.2,0,0-.2,0-.3-.1Z"/>
      <path class="cls-30" d="M8.9,14.3c0-.2.2-.5.2-.7,0-.2.2-.4.4-.5,0,0,.2,0,.3,0,0,0,.1.2.1.3-.1.5-.4.9-.9,1.1,0,0,0,0-.1,0,0,0,0,0,0-.1Z"/>
      <path class="cls-170" d="M8.6,18.7s0,0,0,0c-.2-.2-.4-.4-.5-.6-.2-.2-.3-.5-.2-.8,0,0,0-.2.1-.2,0,0,.2,0,.2,0,.3.3.4.7.5,1.1,0,.1,0,.3,0,.4Z"/>
      <path class="cls-79" d="M7.1,17.8c0,0,0-.1,0-.2,0-.4.1-.7.3-1.1,0,0,.1-.1.2-.2,0,0,.1-.1.2,0,0,0,.1.1.1.2,0,.4-.1.7-.4.9-.1.1-.3.3-.4.4,0,0,0,0,0,0Z"/>
      <path class="cls-79" d="M7.2,18.2c0,.1.2.3.3.5-.2-.2-.4-.2-.7-.2-.3,0-.6-.2-.8-.4,0,0-.1-.2,0-.3,0-.1.2-.1.3,0,.1,0,.3,0,.4.2,0,0,.2.1.3.2,0,0,0,.2.2.2Z"/>
      <path class="cls-34" d="M9.8,17.3c0,0,0-.1-.2,0-.2-.2-.5-.4-.6-.7,0-.1-.2-.3-.1-.5,0-.1,0-.2.2-.2,0,0,0,0,0,0,.4.2.5.6.6,1,0,.1,0,.3.1.4,0,0,0,0,0,0Z"/>
      <path class="cls-117" d="M8.8,14c0-.4-.1-.7-.3-1-.2-.3-.2-.6,0-.9,0,0,0-.2.2-.2.1,0,.2,0,.2.1.3.5.3,1,0,1.6,0,.1,0,.3,0,.4Z"/>
      <path class="cls-79" d="M8.4,16.1c0,0,0,.1,0,.2-.4,0-.8,0-1.1-.4,0,0,0,0,0,0,0-.1-.2-.3,0-.4.1-.1.3,0,.4,0,.3.2.5.3.7.6,0,0,0,0,0,0Z"/>
      <path class="cls-163" d="M9.8,15.8c-.3-.5-.3-1-.2-1.5,0-.1,0-.3.2-.3.1,0,.2.1.2.3,0,.3,0,.6,0,.9,0,.2-.1.4-.2.6,0,0,0,0,0,0Z"/>
      <path class="cls-79" d="M10,16.9c.1-.2.2-.5.4-.7,0-.1.2-.2.3-.3,0,0,.2,0,.3,0,0,0,.1.1.1.2,0,.2,0,.3-.2.5-.2.3-.5.5-.8.7,0,0,0,0,0,0,0,0,0-.2,0-.3Z"/>
      <path class="cls-11" d="M15.2,10c.5,0,1,0,1.5,0,.7,0,1.4,0,2.2,0,.4,0,.8,0,1.2,0,.2,0,.4,0,.6,0,0,0,0,0,0,0-.1.1-.4.2-1,.1-.4,0-.7,0-1.1,0,.2,0,.4,0,.5,0,0,0,0,0,0,0-.2,0-.5,0-.7,0-.2,0-.5,0-.7,0-.2,0-.5,0-.8,0,.2,0,.4,0,.5.1-.2,0-.5,0-.7,0-.5,0-1.1-.1-1.6-.1,0,0,0,0,0,0Z"/>
      <path class="cls-194" d="M15,7c0,0,.2,0,.3.1,0,0,.2.1.2.2,0-.3.3-.3.5-.4.3,0,.4-.2.4-.5,0,0,0,0,0,.1,0,.2-.1.3-.3.5,0,0-.2,0-.3,0,0,0,0,0,0,0h.3c0,0,0,.1,0,.1-.2,0-.3,0-.5,0,0,0-.1,0-.1,0,0,0,.2,0,.3,0,0,0,0,0,0,0-.2,0-.5,0-.7,0-.1-.1,0,0,0,0,0,0,.2,0,.2-.2,0,0-.1,0-.2,0-.2,0-.4,0-.7,0-.3,0-.4-.1-.4-.4.1,0,0,.2.2.2.2.1.5.1.8.1-.2,0-.3-.1-.5-.2,0-.1-.1-.3,0-.5,0,0,0,0,0-.1,0,.3.1.5.4.5Z"/>
      <path class="cls-8" d="M22.5,17.2c-.1,0-.3.1-.4.1.5-.4.9-.9,1.2-1.5.2-.4.3-.7.4-1.1,0-.1.1-.1.2,0,0,.9-.5,1.5-1.1,2.2,0,0-.2.2-.2.3Z"/>
      <path class="cls-53" d="M15.8,7.6s0,0,0,0c0,0-.2,0-.3,0,0,0,0-.2.1,0,.2,0,.3,0,.5,0,0,0,0,0,0-.1q.5-.2.5-.5c0,0,0-.1,0-.1.2.5.1.6-.3.7,0,.1.3.2.4.2.1,0,.2,0,.3.1,0,.1,0,.2-.1.2-.1,0-.2,0-.2-.1,0-.2-.2-.3-.4-.3-.2,0-.4,0-.6,0Z"/>
      <path class="cls-142" d="M15.3,19.8c0,0,0,0,0,0,0,0,0,.1-.1,0-.2,0-.3,0-.4,0,0-.3,0-.6.2-.9,0-.1.1-.3.2-.5,0,.3,0,.5,0,.7,0,.1.2.3.2.4Z"/>
      <path class="cls-55" d="M9.9,10c.1,0,.2,0,.4,0,.9,0,1.7,0,2.6,0,.2,0,.5,0,.8.1-.8.1-1.4-.1-2.1,0,.2,0,.3,0,.5,0-.8,0-1.5-.1-2.3-.1,0,0,.1,0,.2,0Z"/>
      <path class="cls-192" d="M15,21.5c0,0-.1,0-.2,0-.1-.1,0-.3-.2-.4.2,0,.2-.2.1-.3.2,0,.4,0,.5,0-.2,0,0,.2,0,.3-.1,0-.1.1-.1.3,0,.1,0,.2-.1.2Z"/>
      <path class="cls-189" d="M15.9,6.3s0,0,0,0c0-.2,0-.4,0-.5,0-.2.2-.4.3-.5.2-.2.2-.6,0-.9,0,0,0,0,0,0,.1,0,.1.3.2.4,0,.2,0,.4-.1.6,0,.1-.2.2-.2.4-.1.2-.2.4-.3.6Z"/>
      <path class="cls-17" d="M14.5,4.5s0-.1,0-.1c.1,0,.1.1.1.3,0,.2,0,.4.2.6.2.2.2.5.2.8,0-.2-.1-.3-.2-.5,0,0-.2-.2-.2-.3-.1-.2,0-.5,0-.7Z"/>
      <path class="cls-99" d="M15,21.5c.1,0,.2,0,.1-.2,0-.1,0-.2.1-.3,0-.1-.1-.2,0-.3.1,0,.3,0,.4.1,0,0,0,.2-.2.2-.1,0-.2.3-.2.4,0,0-.1,0-.2,0,0,0,0,0,0,0,0,0-.1,0-.2,0Z"/>
      <path class="cls-146" d="M16.4,24.3c0-.1.2-.2.3-.1,0,0,0,0,.2,0,.1,0,.2,0,.3.1,0,.1,0,.2-.1.3,0,0,0,0,0,0,0,0-.2,0-.3,0-.1,0-.2,0-.1.1,0,0-.2,0-.2-.1,0,0,0-.1,0-.2Z"/>
      <path class="cls-36" d="M14.5,4.5c0,.2,0,.5,0,.7,0,.1.1.2.2.3.1.1.1.3.2.5,0,.2,0,.3,0,.5,0-.1,0-.3-.1-.5,0,0,0,0,0-.1,0-.2-.2-.4-.3-.5,0,0,0-.2-.1-.3,0,0,0-.1,0-.2,0-.1,0-.3.2-.4Z"/>
      <path class="cls-182" d="M16.8,5.4c.1,0,.1.2,0,.4,0,0,0,.1,0,.2,0,.1-.1.2-.2.2-.2,0-.3,0-.5.2,0,0,0,.2-.2,0,.1-.2.3-.3.4-.4.2,0,.3,0,.3-.2.1-.1.1-.2.1-.4Z"/>
      <path class="cls-173" d="M16.3,4.5c.1.2,0,.7,0,.9-.1.2-.3.3-.3.5,0,0,0,0,0,0,0-.2,0-.4.2-.5.2-.2.2-.4.2-.7,0,0,0-.2,0-.2Z"/>
      <path class="cls-109" d="M14.7,20.8c0,.1,0,.2-.1.3.2.1,0,.3.2.4,0,0-.1,0-.2,0,0,0,0,0,0,0,0-.1,0-.1-.1-.2,0,0,0-.1,0-.2,0,0-.1-.1-.2-.2.1-.2.3-.2.5-.2Z"/>
      <path class="cls-105" d="M13.2,10c.5,0,1.1,0,1.6,0,.2,0,.5,0,.8.1-.4,0-.7,0-1.1,0-.4,0-.7,0-1.1,0,0,0-.1,0-.2,0Z"/>
      <path class="cls-132" d="M16.4,6c-.2,0-.3.2-.4.4,0,0,0,0,0,0,0-.2.3-.4.5-.6.1,0,.2-.1.3-.3,0,0,0-.2,0-.3,0,0,0,.2,0,.2,0,.1,0,.3-.1.4,0,0-.2.1-.3.2Z"/>
      <path class="cls-150" d="M16.4,24.3c0,0,0,.1,0,.2-.3-.2-.5-.4-.8-.6.1.2.2.4.4.6,0,0,0,0,0,.1-.1-.2-.2-.4-.3-.5,0,0,0,.2,0,.1,0-.1,0-.2,0-.3,0,0,.1,0,.2-.1.2.2.5.4.7.6Z"/>
      <path class="cls-32" d="M14.3,4.9c0,0,0,.1,0,.2,0,.1,0,.2,0,.4.1.2.3.3.4.5,0,0,0,0,0,.1,0,0,0,.1,0,.2,0,0,0-.2-.2-.2-.1-.2-.3-.3-.4-.4,0-.1,0-.3,0-.4,0,0,0-.2.1-.3Z"/>
      <path class="cls-4" d="M16.7,5.2c-.1,0,0,.2,0,.3,0,.2-.1.3-.3.3,0,0,0-.1.1-.2,0-.1,0-.2,0-.4,0,.3-.2.4-.4.5,0-.2.2-.3.2-.4.1-.2.2-.4.1-.6,0,0,0,0,0,0,0,.2.1.2.2.4Z"/>
      <path class="cls-175" d="M16.1,5.7c.2,0,.3-.3.4-.5,0,.1,0,.3,0,.4,0,0-.1,0-.1.2-.2.2-.4.3-.5.6,0,0,0,0,0,0,0-.2.1-.4.3-.6Z"/>
      <path class="cls-68" d="M8.8,14c0-.1,0-.3,0-.4,0,.2,0,.5,0,.7,0,0,0,0,0,.1,0,.5.1.9.3,1.3,0,0,0,0,0,0-.2-.6-.3-1.2-.3-1.8Z"/>
      <path class="cls-153" d="M14,5.9c0-.1,0-.3,0-.4,0,.1,0,.2,0,.3,0,.1.1.2.3.3.2,0,.3.2.4.4,0,0,0,0-.1,0,0-.1-.2-.1-.3-.1,0-.1-.2-.1-.3-.2,0,0,0-.1,0-.2Z"/>
      <path class="cls-91" d="M14.5,7.4c.2,0,.4.1.7,0,0,0,.1,0,.2,0,0,.2,0,.1-.2.2,0,0-.2,0,0,0-.2,0-.4,0-.6,0-.1,0-.2,0-.3,0,0,0,0,0,0,0,0-.1.3,0,.3-.2Z"/>
      <path class="cls-20" d="M14.4,6.2c.1,0,.2,0,.3.1,0,0,0,0,0,.1-.2-.1-.4,0-.6-.2-.2,0-.2-.3,0-.5,0,0,0,.1,0,.2,0,.2.2.2.3.2Z"/>
      <path class="cls-86" d="M14.6,7.1c.1,0,.3.1.5.2-.3,0-.6,0-.8-.1,0-.1,0-.3,0-.4,0,0,0,0,0,0,0,.1.1.3.3.3Z"/>
      <path class="cls-3" d="M16.1,6.4c.1,0,.3-.2.5-.2.1,0,.2-.1.2-.2,0,0,0-.1,0-.2,0,0,0,.1,0,.2,0,.2,0,.3-.3.4-.1,0-.3,0-.4,0,0,0,0,0,0,0Z"/>
      <path class="cls-74" d="M7.2,18.2c-.1,0-.1-.1-.2-.2-.3-.6-.5-1.2-.6-1.9,0,0,0,0,0,0,.1.6.3,1.2.6,1.8,0,0,0,0,0,0,0,.1,0,.2,0,.3Z"/>
      <path class="cls-149" d="M14.1,5.8c0,0,0-.2,0-.3,0,0,0-.2,0-.3,0,0,0,0,0,0,0,.1,0,.3,0,.4,0,.1,0,.2,0,.2,0,0,.1,0,.1.2,0,0,0,0,0,0-.1,0-.1-.2-.3-.2Z"/>
      <path class="cls-113" d="M16.7,6.8q0,.4-.5.5c-.1,0-.2,0-.3,0,0,0,0,0,0,0,0,0,.2,0,.3,0,.2,0,.4,0,.4-.3,0,0,0,0,0,0,0,0,0,0,0,0Z"/>
      <path class="cls-25" d="M16.7,6.8s0,0,0,0c0,.3-.3.3-.4.3.1-.1.3-.2.3-.5.1,0,0-.1.1-.1,0,0,.1.1.1.2Z"/>
      <path class="cls-52" d="M14.2,7.6s0,0,0,0c0,0,0,.1,0,.2,0,.1-.1.1-.2,0,0,0-.2-.1-.1-.2,0,0,.1-.2.2-.1,0,0,.1,0,.2,0ZM14,7.7s0,0-.1.1c0,0,0,.1.2,0,0,0,0,0,0,0,0,0,0,0-.1,0Z"/>
      <path class="cls-195" d="M14.7,6.5s0,0,0-.1c0,0,0,0,.1,0,0,0,0-.2,0-.2,0,0,0,0,0-.2.1.1,0,.3.1.5,0,0,0,0,0,0-.1.1,0,.3,0,.5-.1,0,0-.1,0-.2,0-.1,0-.3-.2-.2,0,0,0,0,0,0Z"/>
      <path class="cls-154" d="M14.6,7.1c-.2,0-.3-.2-.3-.3,0-.1,0-.2.1-.2,0,0,0,0,.1,0,0,.2,0,.3,0,.5Z"/>
      <path class="cls-125" d="M10,16.9c0,0,0,.2,0,.3,0,0,0,.2-.1.3,0,0-.1,0,0-.1,0,0,0,0,0,0,.1-.2,0-.4,0-.6,0-.3,0-.6-.1-.8,0,0,0,0,0,0,0,.4.2.7.2,1.1Z"/>
      <path class="cls-77" d="M9.3,19.6s0,0,0,0c-.4,0-.7-.1-1-.3.2,0,.5.2.7.2.1,0,.2,0,.3,0Z"/>
      <path class="cls-154" d="M14.2,6.8c0,.1,0,.3,0,.4-.1,0-.1-.2-.2-.2,0-.1,0-.2.1-.3,0,0,0,0,0,.1Z"/>
      <path class="cls-70" d="M16.8,17.5c-.1,0,0-.1,0-.2.3,0,.4,0,.4.2,0,0,0,0,0,0,0-.1,0-.2-.2-.2-.1,0,0,.1,0,.2Z"/>
      <path class="cls-63" d="M5.5.8h.3v.7s0,0,0,0c.1-.2.3-.4.4-.5.1-.2.2-.2.5-.2-.1.2-.2.4-.4.5,0,0,0,.2,0,.3.1.3.3.6.4.9,0,0,0,0,0,0,.1-.5.3-1,.4-1.5,0,0,0-.2.2-.2.1,0,.2,0,.2.2.1.5.3,1.1.5,1.6h-.3c0-.1,0-.2-.1-.4h-.5c0,.1,0,.2-.1.4,0,0,0,0,0,0q-.6,0-.8-.5c0-.1,0-.2-.1-.3-.3.2-.2.5-.2.8,0,0-.2,0-.3,0,0-.6,0-1.2,0-1.8ZM7.4,1.9c0-.2-.1-.4-.2-.7,0,.3-.1.4-.2.7h.3Z"/>
      <path class="cls-78" d="M17.8,1.7c0,.3-.1.6-.2.9h-.2c0-.4-.1-.8-.2-1.2,0,0,0,0,0,0v1.2c0,0-.1,0-.2,0V.8h.4c0,.4.1.8.2,1.1h0c0-.4.1-.7.2-1.1.1,0,.2,0,.4,0v1.8c0,0-.1,0-.2,0,0-.4,0-.8,0-1.2,0,0,0,0,0,0,0,.1,0,.2,0,.4Z"/>
      <path class="cls-158" d="M20.7.8c.2,0,.3,0,.5,0,.2,0,.3,0,.4.2,0,.2,0,.4,0,.6,0,0,0,0,0,0,.2.2.2.4.2.6,0,.2-.2.3-.4.3-.2,0-.4,0-.7,0,0-.6,0-1.2,0-1.8ZM20.9,2.3c.2,0,.4,0,.5-.1,0,0,0-.2,0-.3-.1-.2-.3,0-.5,0v.5ZM20.9,1.5c.2,0,.3,0,.5,0,0,0,0-.2,0-.3-.1-.1-.3,0-.4,0v.4Z"/>
      <path class="cls-171" d="M8,.8c.2,0,.3,0,.5,0,.2,0,.4,0,.5.2,0,.2,0,.4-.1.6.2.1.2.3.2.5,0,.3-.2.4-.5.4-.2,0-.4,0-.6,0,0-.6,0-1.2,0-1.8ZM8.3,1.8c0,.2,0,.3,0,.5.4,0,.5,0,.5-.2,0-.2-.1-.3-.5-.2ZM8.3,1.5c.2,0,.3,0,.5-.1,0,0,0-.2,0-.3-.1-.1-.3,0-.4,0v.4Z"/>
      <path class="cls-196" d="M22.2,2.6h-.3V.8c.2,0,.4,0,.6,0,.2,0,.3.1.4.3,0,.2,0,.4-.2.6,0,0,0,0-.1,0,.2.2.3.5.4.7-.2,0-.3,0-.4-.2,0-.1-.1-.3-.2-.4,0-.1-.1-.2-.3-.1v.7ZM22.2,1.6c.2,0,.4,0,.5-.1,0,0,0-.2,0-.3-.1-.2-.3,0-.5,0v.5Z"/>
      <path class="cls-152" d="M16.1,2.6c-.2,0-.3,0-.3-.2-.1-.3-.3-.6-.4-.9v1c0,0-.2,0-.2,0V.8c.2,0,.3,0,.3.2.1.3.3.6.4.9V.8c0,0,.2,0,.2,0v1.8Z"/>
      <path class="cls-67" d="M14.2,1.1v.4h.6c0,.1,0,.2,0,.3h-.6v.5h.7c0,.1,0,.2,0,.3h-.9V.8h.9c0,0,0,.2,0,.3h-.7Z"/>
      <path class="cls-202" d="M10.1.8c0,0,.2,0,.3,0,0,.4,0,.7,0,1.1,0,.1,0,.2,0,.4,0,.2-.2.3-.4.3-.2,0-.4,0-.5-.3,0,0,0-.1,0-.2,0-.4,0-.9,0-1.3,0,0,.2,0,.3,0,0,.3,0,.6,0,.8,0,.1,0,.3,0,.4,0,.1.1.2.3.2.1,0,.2-.1.2-.2,0-.3,0-.6,0-1,0,0,0-.2,0-.3Z"/>
      <path class="cls-191" d="M19.5,2.6c0,0-.2,0-.3,0,0-.1,0-.2-.1-.4h-.5c0,.1,0,.2-.1.4,0,0-.2,0-.3,0,.2-.6.3-1.1.5-1.7,0,0,0-.1.2-.1,0,0,.1,0,.2.1.2.6.3,1.1.5,1.7ZM18.7,1.9h.3c0-.2-.1-.4-.2-.6,0,.3-.1.4-.2.6Z"/>
      <path class="cls-111" d="M12.8,2.6h-.3c0-.1,0-.2-.1-.4-.2,0-.3,0-.5,0,0,.1,0,.3-.1.4,0,0-.2,0-.3,0,.1-.5.3-.9.4-1.4,0,0,0-.2,0-.3,0,0,0-.1.2-.1,0,0,.2,0,.2.1.1.5.3,1.1.5,1.7ZM12.2,1.3s0,0,0,0c0,.2,0,.4-.1.6.1,0,.2,0,.3,0,0-.2-.1-.4-.2-.6Z"/>
      <path class="cls-111" d="M24,2.2c-.1,0-.2,0-.4,0,0,0,0,0-.1,0,0,.1,0,.2-.1.4,0,0-.2,0-.3,0,.2-.6.3-1.1.5-1.7,0,0,0-.1.1-.1,0,0,.1,0,.2,0,.2.6.3,1.1.5,1.7,0,0,0,0,0,0,0,0-.2,0-.3,0,0-.1,0-.2-.1-.4ZM23.9,1.9c0-.2-.1-.4-.2-.6,0,0,0,0,0,0,0,.2,0,.4-.2.6.1,0,.2,0,.3,0Z"/>
      <path class="cls-165" d="M10.9,1.9v.6c0,0-.2,0-.3,0V.8c.2,0,.5,0,.7,0,0,0,0,0,0,0,.2.1.3.4.2.7,0,.2-.2.3-.4.4,0,0-.2,0-.2,0ZM10.9,1.6c.2,0,.3,0,.4-.1,0,0,0-.2,0-.3-.1-.1-.3,0-.4,0v.5Z"/>
      <path class="cls-46" d="M20,1.5c0-.2.2-.3.2-.5,0-.2.2-.2.4-.2-.1.3-.2.6-.4.8-.1.3,0,.6,0,.9,0,0-.1,0-.3,0,.2-.7-.2-1.2-.4-1.8.2,0,.3,0,.4.2,0,.2.1.3.2.5Z"/>
      <path class="cls-50" d="M25.3.8c0,0,0,.2,0,.3-.1,0-.2,0-.4,0v1.4c0,0-.2,0-.3,0v-1.4c-.1,0-.3,0-.4,0,0,0,0-.2,0-.3h1Z"/>
      <path class="cls-73" d="M13.1,1.1h-.3c0-.1,0-.2,0-.3h1c0,0,0,.2,0,.3h-.4v1.5c-.1,0-.2,0-.3,0,0-.4,0-.9,0-1.3,0,0,0-.1,0-.2Z"/>
      <path class="cls-9" d="M5.5.8c0,.6,0,1.2,0,1.8,0,0,0,0,0,0,0-.5,0-1.1,0-1.6,0,0,0,0,0,0Z"/>
      <path class="cls-147" d="M8,.8c0,.6,0,1.2,0,1.8,0,0,0,0,0-.1,0-.5,0-1,0-1.6,0,0,0,0,0-.1Z"/>
      <path class="cls-169" d="M20.7.8c0,.6,0,1.2,0,1.8,0,0,0,0,0-.1,0-.5,0-1,0-1.5,0,0,0-.1,0-.1Z"/>
      <path class="cls-162" d="M13.1,1.1c0,0,0,.1,0,.2,0,.4,0,.9,0,1.3,0,0,0-.1,0-.2,0-.4,0-.9,0-1.3Z"/>
      <path class="cls-200" d="M17.8,1.7c0-.1,0-.2,0-.4,0,0,0,0,0,0,0,.4,0,.8,0,1.2,0-.1,0-.2,0-.4,0-.2,0-.3,0-.5Z"/>
      <path class="cls-153" d="M18.6,27.4c0,0,0-.1,0-.2.1,0,.2-.1.4,0,0,0,0,0,0,.1,0,.2-.2.1-.3.2Z"/>
      <path class="cls-138" d="M18.4,26.8c0,0,.2,0,.3,0,0,0,.1,0,.1,0,0,0,0,0,0,.1,0,0-.2,0-.2,0,0,0,0-.1,0-.2Z"/>
      <path class="cls-164" d="M13.3,27.5c.1,0,.2,0,.3,0,0,0,.1,0,0,.1,0,0,0,.1-.1,0,0,0-.2,0-.3,0,0,0,0-.2,0-.2Z"/>
      <path class="cls-48" d="M13.3,27.3c0,0,0-.1,0-.2.1,0,.2,0,.3.1,0,0,0,0,0,.1-.1,0-.2,0-.3,0Z"/>
      <path class="cls-102" d="M16,27.7c0,0-.1,0-.2,0,0-.1,0-.2,0-.3,0,.1.1.2.1.3Z"/>
      <path class="cls-6" d="M19.6,26.8c0,0-.1,0-.2,0,0-.1,0-.2,0-.4,0,.1.2.2.2.3Z"/>
      <path class="cls-28" d="M10.7,26.3c0,.1,0,.2,0,.3,0,0-.1,0-.2-.1,0-.1.1-.2.3-.2Z"/>
      <path class="cls-7" d="M12.4,14.4c-.1-1.6,1.4-2.9,2.9-2.9,1.5,0,2.8,1.3,2.8,2.9,0,1.6-1.3,2.9-2.9,2.9-1.5,0-2.9-1.3-2.8-2.9ZM14.6,13h0c-.1,0-.2,0-.2.2-.3.3-.6.6-.8.9-.1,0-.2.1-.2.2,0,0,.3,0,.3.3,0,.3,0,.6,0,.9,0,0-.1,0-.2,0,0,0,.1,0,.2,0,0,.1,0,.3,0,.4,0-.2,0-.3,0-.5.3,0,0,.3.2.4v-.4c0,0,.1,0,.2,0,0,.1,0,.2,0,.4,0-.1,0-.3,0-.4.3,0,0,.3.2.4,0-.1,0-.2,0-.3,0,0,0-.2,0-.2.1,0,0,0,0,.2,0,0,0,.2,0,.3,0-.1,0-.2,0-.3,0-.2,0-.2.2-.1,0,.1,0,.3,0,.4.1,0,0-.2.1-.3,0,.4.3.4.6.4q-.1-.4,0-.4c0,.1,0,.3,0,.4,0-.1,0-.2,0-.3,0-.1,0-.2.2-.1,0,.1,0,.3,0,.4,0,0,0-.2,0-.3,0,0,0-.1,0-.1,0,0,0,0,0,.1,0,0,0,.2,0,.3,0-.1,0-.2,0-.3,0-.2,0-.2.2-.1,0,.1,0,.3,0,.5,0-.2,0-.3,0-.5.1,0,.2,0,.2.1,0,0,0,.2,0,.3,0-.1,0-.3,0-.4,0,0,.1,0,.2,0,0,0-.1,0-.2,0,0-.3,0-.5,0-.8,0,0,0-.2,0-.3,0,0,.1,0,.3,0-.2-.1-.3-.3-.3-.4,0-.1-.2-.2-.3-.1,0-.1,0-.3-.3-.3,0,0,0,0,0-.1,0,0,0-.1,0-.2-.2,0-.2-.2-.3-.3-.2,0-.3-.1-.3-.3-.3,0-.2-.1-.3-.3h-.2c0,0-.1,0-.2,0,0,0,0,.2-.2.2,0,0-.1,0,0,.2,0,.1-.2.2-.2.3Z"/>
      <path class="cls-62" d="M21.4,18.1c0,.3.2.4.5.4.1,0,.2,0,.3,0-.2.3-.5.4-.8.6-.6.4-2.2,1.1-2.9,1.2,0,0,0,0,0,0,.7-.4,1.4-1,1.9-1.6,0,0,.1-.1.2-.2.2-.1.4-.3.6-.4Z"/>
      <path class="cls-80" d="M16.4,21.1c.6-.3,1.2-.6,1.8-1-.7.4-1.4.8-2.2,1,1.3-.9,2.8-1.6,4.2-2.3-.4.7-2.7,2.1-3.8,2.3Z"/>
      <path class="cls-156" d="M20.3,17.7c.2,0,.4,0,.6,0,.1,0,.2-.2.3-.3,0,.2-.2.3-.3.5-.2.4-.5.7-.9.9-.5.2-1,.4-1.4.6.3-.2.6-.5.9-.7.3-.3.6-.6.8-.9Z"/>
      <path class="cls-108" d="M14.5,21.3c0,0,.1,0,.1.2-.5-.4-1.2-.6-1.8-.8-.1,0-.2,0-.3-.1.7.2,1.4.3,2,.8Z"/>
      <path class="cls-33" d="M16,24.5c-.1-.2-.2-.4-.4-.6.3.2.5.4.8.6,0,0,.2,0,.2.1,0,0,0,0,0,0h0s0,0,0,.1c-.2-.1-.4-.3-.7-.3Z"/>
      <path class="cls-156" d="M16,24.6c0,.2-.2.4-.2.7,0-.1-.1-.2-.2-.3,0,0,0-.2,0-.2.2,0,.2,0,.2-.2Z"/>
      <path class="cls-156" d="M16.7,24.6h0s0,0,0,0c0-.1,0-.2.1-.1,0,0,.2,0,.3,0,0,0,0,0-.1.2,0,0-.1,0-.2,0Z"/>
      <path class="cls-40" d="M15.2,22.7c.2,0,.3,0,.5,0,0,0,.1,0,.1,0,0,0,0,.1,0,.1-.1,0-.3.1-.4,0,0,0-.1,0-.2,0-.3,0-.6,0-1-.2,0,0-.1,0-.1-.2,0,0,0,0,.1,0,.3,0,.7,0,1,0Z"/>
      <path class="cls-115" d="M14.2,23.8s0,0,0-.1c0,0,.2,0,.3-.2,0,0,0,0,0,0,0,0,0,0,0,0,.2.2.3.4.6.4,0,.1,0,.2,0,.3-.2,0-.4,0-.5-.2,0,0-.2-.2-.2-.2,0,0,0,0,0-.1Z"/>
      <path class="cls-190" d="M14.5,23.7s0,0,0,0c.3,0,.5.1.8.2,0,0,0,0,0,0,0,.3-.2.3-.4,0,0,0-.1-.2-.3-.2Z"/>
      <path class="cls-168" d="M14.1,24.4c.1.2.4.4.8.4,0,.2,0,.3-.3.3-.2,0-.4,0-.6-.2,0,0,0,0-.2,0,0,0,0,0,0,0-.1-.2-.2-.4-.3-.6-.1-.3-.1-.3.2-.4.1.2.2.4.4.6,0,0,0,0,0,0Z"/>
      <path class="cls-134" d="M13.9,24.9s0,0,0,0c.2.2.5.3.8.3-.2.3-.7.3-1,0-.2-.2-.3-.4-.4-.6h0c0-.2,0-.4.2-.5.1.3.2.6.5.8Z"/>
      <path class="cls-107" d="M14.2,23.8s0,0,0,.1c.1.3.4.5.7.5,0,.3-.1.3-.4.3-.2,0-.4-.2-.5-.3,0,0,0,0,0,0-.1-.2-.3-.4-.3-.6.1-.1.3-.1.4,0Z"/>
      <path class="cls-56" d="M13.2,24.6c.1.5.4.7.9.8-.7,0-1.1-.3-1-.9,0,0,0,0,.1,0,0,0,0,0,0,0Z"/>
      <path class="cls-43" d="M14.8,5.9c-.1-.1-.3-.3-.4-.5,0-.1,0-.2,0-.4.1,0,0,.2.1.3.1.2.3.3.3.5Z"/>
      <path class="cls-27" d="M16.4,6c0-.1.2-.2.3-.2,0,.2,0,.2-.3.2Z"/>
      <path class="cls-198" d="M14.8,6.2c0,0,.1.1,0,.2-.1-.2-.3-.3-.4-.4,0,0,0,0,0,0,0,0,0,0,0,0,0,0,.1,0,.2,0,0,0,.1.2.2.2Z"/>
      <path class="cls-39" d="M14.6,5.9c0,0-.1,0-.2,0,0,0,0-.1-.1-.2,0,0-.1-.1,0-.2.2.1.3.3.4.4Z"/>
      <path class="cls-114" d="M14.4,6.2c-.1,0-.3,0-.3-.2.1,0,.2,0,.3.2Z"/>
      <path class="cls-89" d="M14.4,5.9s0,0,0,0c-.2,0-.2-.1-.3-.3.1,0,.1.1.3.2Z"/>
      <path class="cls-188" d="M14,7.7s0,0,.1,0c0,0,0,0,0,0,0,0,0,0-.2,0,0,0,0,0,.1-.1Z"/>
      <path class="cls-75" d="M7.4,1.9h-.3c0-.2.1-.4.2-.7,0,.2.1.4.2.7Z"/>
      <path class="cls-177" d="M20.9,2.3v-.5c.2,0,.4,0,.5,0,0,0,0,.2,0,.3-.1.2-.3,0-.5.1Z"/>
      <path class="cls-186" d="M20.9,1.5v-.4c.1,0,.3,0,.4,0,0,0,0,.2,0,.3-.1.2-.3,0-.5,0Z"/>
      <path class="cls-151" d="M8.3,1.8c.4,0,.5,0,.5.2,0,.2,0,.3-.5.2,0-.1,0-.3,0-.5Z"/>
      <path class="cls-51" d="M8.3,1.5v-.4c.1,0,.3,0,.4,0,0,0,0,.2,0,.3-.1.2-.3,0-.5.1Z"/>
      <path class="cls-140" d="M22.2,1.6v-.5c.2,0,.4,0,.5,0,0,0,0,.2,0,.3-.1.2-.3,0-.5.1Z"/>
      <path class="cls-144" d="M18.7,1.9c0-.2.1-.4.2-.6,0,.2.1.4.2.6h-.3Z"/>
      <path class="cls-112" d="M12.2,1.3c0,.2,0,.4.2.6-.1,0-.2,0-.3,0,0-.2,0-.4.1-.6,0,0,0,0,0,0Z"/>
      <path class="cls-95" d="M23.9,1.9c-.1,0-.2,0-.3,0,0-.2.1-.4.2-.6,0,0,0,0,0,0,0,.2.1.4.2.6Z"/>
      <path class="cls-90" d="M10.9,1.6v-.5c.1,0,.3,0,.4,0,0,0,0,.2,0,.3,0,.2-.3,0-.4.1Z"/>
      <path class="cls-38" d="M17,14.5c-.2,0,0,.2,0,.3,0,.2,0,.5,0,.8,0,0,.1,0,.2,0,0,0-.1,0-.2,0,0,.1,0,.2,0,.4,0,0,0-.2,0-.3,0-.1,0-.2-.2-.1,0,.1,0,.3,0,.5,0-.2,0-.3,0-.5-.1,0-.2,0-.2.1,0,0,0,.2,0,.3,0-.1,0-.2,0-.3,0,0,0-.1,0-.1,0,0,0,0,0,.1,0,0,0,.2,0,.3-.1-.1,0-.3,0-.4-.1,0-.2,0-.2.1,0,0,0,.2,0,.3,0-.2,0-.3,0-.4q-.2,0,0,.4c-.3,0-.5,0-.6-.4,0,.1,0,.3-.1.3,0-.1,0-.3,0-.4-.2,0-.1,0-.2.1,0,0,0,.2,0,.3,0,0,0-.2,0-.3,0,0,0-.2,0-.2-.1,0,0,0,0,.2,0,0,0,.2,0,.3-.2-.1,0-.4-.2-.4,0,.1,0,.3,0,.4,0-.1,0-.2,0-.4,0,0-.1,0-.2,0v.4c-.2-.1,0-.4-.2-.4,0,.1,0,.3,0,.5,0-.1,0-.3,0-.4,0,0-.1,0-.2,0,0,0,.1,0,.2,0,0-.3,0-.6,0-.9,0-.1,0-.4.3-.3,0-.2,0-.2.1-.3.1,0,.2-.1.2-.2,0,0,0,0,0,0,0,0,0,0,0,.1.1,0,.2,0,.2-.2,0-.1,0-.2,0-.2,0,0,.2-.2.2-.3,0,0,0,.1.1,0,0,0,0,0,0-.1,0,0,0-.2,0-.3,0,.1,0,.2,0,.3.1,0,.2,0,.2-.1,0-.2,0-.3,0-.5,0,.2,0,.3,0,.5,0,.1,0,.2.2.1,0-.1,0-.2,0-.3.1,0,0,.2,0,.3,0,0,0,.1,0,.1,0,0,.1,0,.1-.1,0,.2.2.3.3.4,0,.3,0,.3.1.3,0,0,0-.1,0-.1,0,0,0,.2.1.2.1,0,.2.2.3.2h0c0,0,.1.2.2.2ZM15.4,15.2c0-.3,0-.5,0-.8,0-.1,0-.2-.2-.2-.1,0-.2,0-.2.2,0,.3,0,.5,0,.8h.3ZM15.6,13.8c0,.6,0,.6.2.5,0-.5,0-.5-.2-.5ZM16,14.3c0-.4,0-.4-.2-.4,0,.4,0,.5.2.4ZM14.9,14.3v-.5c-.3,0-.1.3-.2.5,0,.1,0,.1.2,0ZM15.5,14.3c0-.2,0-.3,0-.5,0,0,0,0,0,0,0,0,0,0,0,0,0,.2,0,.4.2.5ZM14.7,13.8c-.2,0-.2.1-.2.4,0,.1,0,0,.2,0,0-.2,0-.3,0-.5ZM15.6,13.3c0,.4,0,.4.2.4,0-.1.1-.3-.2-.4ZM16.1,13.9c0,.1,0,.2,0,.4,0,0,.1,0,.2,0,0-.1,0-.3-.2-.3ZM15,14.2c.2,0,.2-.1.2-.4,0,0,0,0,0,0,0,0-.1,0-.1,0,0,.1,0,.2,0,.4ZM15.5,13.6c0-.3,0-.4-.1-.4,0,.1-.1.3.1.4ZM15.2,13.3c0,0-.2,0-.2,0,0,0,0,.2,0,.3,0,0,.1,0,.1,0,0,0,0-.2,0-.3ZM16,13.8c0-.2,0-.3-.2-.3,0,.1,0,.3.2.3ZM15,13.3c-.3,0-.2.2-.2.4.3,0,.1-.2.2-.4ZM14.2,14.3c.2,0,.2,0,.1-.4-.2,0-.1.2-.1.4ZM14.5,14.4v.2c0,0,.1,0,.2,0,0-.1,0-.2-.2-.2ZM14.7,13.4c-.2,0-.2.2-.1.4.2,0,.1-.2.1-.4ZM14,14.6c0,0,.1,0,.2,0,0,0,0-.1,0-.2q-.2,0-.1.2ZM16.6,14.7c0,0-.1,0-.2,0,0,0,0,.1,0,.1,0,0,.1,0,.2,0v-.2ZM14.1,15c0,0-.1,0-.2,0,0,0,0,.1,0,.2,0,0,.1,0,.2,0v-.2ZM16.8,14.7c0,0-.1,0-.2,0,0,0,0,.1,0,.2q.2,0,.2-.2ZM15.7,15c-.2,0-.2,0-.2.2,0,0,.1,0,.2,0,0,0,0-.1,0-.2ZM16.7,15.2c.2,0,.2,0,.2-.2,0,0-.1,0-.2,0v.2ZM16.1,14.6c.1,0,.2,0,.2,0,0,0,0-.1-.1-.1-.1,0,0,.1,0,.2ZM16.6,15.2c0,0,0-.1,0-.2,0,0-.1,0-.2,0,0,0,0,.1,0,.2,0,0,0,0,.2,0ZM16.6,14.4c0,0-.1,0-.2,0,0,0,0,.1,0,.2,0,0,.1,0,.2,0,0,0,0-.1,0-.2ZM13.7,14.9c0,0,.1,0,.2,0,0,0,0-.1,0-.2,0,0-.1,0-.2,0,0,0,0,.1,0,.2ZM14,14.7q0,.2.2.2t-.2-.2ZM15.6,14.7q0,.2.2.2c0,0,0-.1,0-.2,0,0,0,0-.2,0ZM16,14.7c0,0-.1,0-.2,0,0,0,0,.1,0,.1,0,0,.1,0,.2,0,0,0,0-.1,0-.2ZM16.1,14.9c0,0,.1,0,.2,0,0,0,0-.1,0-.1,0,0-.1,0-.2,0,0,0,0,.1,0,.2ZM13.9,15c0,0-.1,0-.2,0,0,0,0,.1,0,.2.2,0,.2,0,.2-.2ZM14.2,15.2c0,0,.1,0,.2,0,0,0,0-.1,0-.2,0,0-.1,0-.2,0v.2ZM14.2,15.3c0,0,0,.2,0,.2,0,0,.1,0,.1-.1,0-.1,0-.1-.2,0ZM15.9,15q0,.2.2.2c0,0,0-.1,0-.2,0,0,0,0-.2,0ZM14.4,14.5c0,0,0-.1,0-.1,0,0,0,0,0,.1,0,0,0,.1.1.1,0,0,0,0,0-.1ZM16.7,14.6c0,0,.1,0,.2,0,0,0,0,0,0-.1,0,0-.1,0-.2,0,0,0,0,.1,0,.2ZM16.1,15c0,.1,0,.2.1.2,0,0,0,0,0-.1,0-.1,0-.1-.2,0ZM13.7,15.5c0,0,.1,0,.2,0,0,0,0-.1,0-.1,0,0-.1,0-.2,0,0,0,0,.1,0,.2ZM13.7,14.4c0,0,0,.1,0,.2,0,0,.2,0,.2,0,0-.1,0-.1-.2-.1ZM15.7,14.4c-.1,0-.2,0-.2.1,0,.1.1,0,.2,0,0,0,0-.1,0-.2ZM16,14.4c-.1,0-.2,0-.2.1,0,0,0,.1.1.1.2,0,0-.1,0-.2ZM14.1,14.3c0,0,0-.2,0-.3-.1,0-.2,0-.2.2,0,0,0,0,.2,0ZM16,15.3c-.1,0-.2,0-.2.1,0,0,0,.1,0,.1.1,0,0-.1,0-.2ZM16.1,15.5c0,0,.2,0,.2-.1,0-.1,0,0-.2,0,0,0,0,.1,0,.2ZM16.6,14.3q0-.2-.2-.2c0,0,0,.1,0,.2,0,0,.1,0,.2,0ZM16.6,15.5q0-.2-.2-.2c0,.1,0,.2.2.2ZM15.6,15.3q0,.2.2.2c0-.1,0-.2-.2-.2ZM15.5,15.3c0,0-.2,0-.2,0,0,.1.1,0,.2.1,0,0,0-.1,0-.2ZM14,15.5c0,0,.1,0,.2,0,0,0,0,0,0-.1,0,0-.1,0-.2,0,0,0,0,.1,0,.2ZM16.7,15.3c0,0,0,.1,0,.2,0,0,.2,0,.2,0,0-.1,0-.1-.2,0ZM14.8,15.3c0,0,0,.2,0,.2,0,0,0,0,0-.1,0-.1,0-.1-.2,0ZM14.9,14.4c0,0,0,0,0,.1,0,0,0,.1.1.1,0,0,0,0,0-.1,0,0,0,0,0,0ZM14.2,14.9c.1,0,.2,0,.2-.1,0-.1,0,0-.2,0,0,0,0,.1,0,.2ZM14.9,15c0,0-.2,0-.2,0,0,.1,0,.1.2.1v-.2ZM14.7,15c-.1,0-.2,0-.2.1,0,0,0,.1.1,0,.1,0,0-.1,0-.2ZM14.7,14.7c-.1,0-.2,0-.2,0,0,0,0,.1,0,.1.1,0,0-.1,0-.2ZM14.9,14.7c-.1,0-.2,0-.2,0,0,0,0,.1,0,.1.1,0,0-.1,0-.2ZM14.7,15.3c0,0-.2,0-.2,0,0,.1,0,.1.2.1v-.2ZM15,15.3c0,0,0,.2,0,.2,0,0,0,0,0,0,0-.1,0-.1-.2,0Z"/>
      <path class="cls-145" d="M16.1,13.5c-.1-.1-.3-.2-.3-.4,0,0,0,.1-.1.1,0,0,0,0,0-.1,0,0,0-.2,0-.3,0,.1,0,.2,0,.3-.1,0-.2,0-.2-.1,0-.2,0-.3,0-.5,0,.1,0,.3,0,.5,0,.1,0,.1-.2.1,0,0,0-.2,0-.3-.1,0,0,.2,0,.3,0,0,0,0,0,.1,0,0,0,0-.1,0,0,.1-.1.2-.2.3,0,0-.1.1,0,.2,0,.1,0,.2-.2.2,0,0,0,0,0-.1,0,0,0,0,0,0,0,.1,0,.2-.2.2,0,0-.2.1-.1.3-.3,0-.2.2-.3.3,0-.2-.2-.2-.3-.3,0,0,0-.2.2-.2,0,0,0,.1,0,.2.4-.4.7-.8,1.1-1.2,0,0,0,0,0-.1,0,0,0,0,0,0,.2-.1.3-.3.5-.5,0,0,.1-.1.1-.2-.2,0-.3.2-.4.3,0,0,0-.1,0-.2,0,0,.1-.1.2-.2,0,0,.1,0,.2,0,0,.2.2.2.3.4,0,0,0,.1.1.2.2.2.4.3.5.6,0,0,0,0,0,0Z"/>
      <path class="cls-38" d="M16.1,13.5c-.1-.2-.3-.4-.5-.6,0,0,0-.1-.1-.2,0-.1-.3-.2-.3-.4,0,0,.1,0,.2,0,0,.2,0,.4.3.3,0,.2,0,.3.3.3,0,.2,0,.4.3.3,0,0,0,.1,0,.2,0,0,0,.1,0,.1.2,0,.2.2.3.3,0,0,0,0,0,0,0-.1-.2-.1-.2-.3,0,0,0-.2-.2-.2Z"/>
      <path class="cls-187" d="M16.1,13.5c.1,0,.2.1.2.2,0,.1.2.1.2.3,0,0,0,0,0,0,.1,0,.2,0,.3.1,0,.2.2.3.3.4-.1,0-.2,0-.3,0,0,0-.2-.1-.2-.2,0,0,0,0,0,0,0,0,0,.2.2.1,0-.1,0-.2,0-.3h-.2c0,0,0,.2.1.3-.1,0-.2-.2-.3-.2-.1,0,0-.2-.1-.2,0,0,0,0,0,.1-.2,0-.2,0-.1-.3,0,0,0,0,0,0Z"/>
      <path class="cls-21" d="M14.6,13s0,0,0,.1c-.4.4-.7.8-1.1,1.2-.1,0,0-.1,0-.2.3-.3.6-.6.8-.9,0,0,.1-.1.2-.2Z"/>
      <path class="cls-97" d="M14.8,12.7c.1,0,.2-.3.4-.3,0,0,0,.2-.1.2-.2.1-.3.3-.5.5,0-.2.1-.2.2-.3Z"/>
      <path class="cls-2" d="M15.4,15.2h-.3c0-.3,0-.5,0-.8,0-.1,0-.2.2-.2,0,0,.2,0,.2.2,0,.3,0,.5,0,.8Z"/>
      <path class="cls-159" d="M15.6,13.8c.2,0,.2,0,.2.5-.2,0-.2,0-.2-.5Z"/>
      <path class="cls-24" d="M16,14.3c-.2,0-.2,0-.2-.4.2,0,.2,0,.2.4Z"/>
      <path class="cls-135" d="M14.9,14.3c0,0-.2,0-.2,0,0-.1-.1-.4.2-.5v.5Z"/>
      <path class="cls-82" d="M15.5,14.3c-.2-.1-.2-.3-.2-.5,0,0,0,0,0,0,0,0,0,0,0,0,0,.2,0,.3,0,.5Z"/>
      <path class="cls-47" d="M14.7,13.8c0,.1,0,.3,0,.5,0,0-.2,0-.2,0,0-.2,0-.3.2-.4Z"/>
      <path class="cls-131" d="M15.6,13.3c.3,0,.1.2.2.4-.2,0-.2,0-.2-.4Z"/>
      <path class="cls-193" d="M16.1,13.9c.3,0,.2.2.2.3,0,0-.1,0-.2,0,0-.1,0-.2,0-.4Z"/>
      <path class="cls-181" d="M15,14.2c0-.1,0-.3,0-.4,0,0,0,0,.1,0,0,0,0,0,0,0,0,.2,0,.3-.2.4Z"/>
      <path class="cls-81" d="M15.5,13.6c-.3,0,0-.3-.1-.4.2,0,.2,0,.1.4Z"/>
      <path class="cls-37" d="M15.2,13.3c0,0,0,.2,0,.3,0,0,0,.1-.1,0,0,0,0-.2,0-.3,0-.1,0,0,.2,0Z"/>
      <path class="cls-120" d="M16,13.8c-.3,0-.2-.2-.2-.3.2,0,.2.2.2.3Z"/>
      <path class="cls-18" d="M15,13.3c0,.1,0,.3-.2.4,0-.2-.1-.3.2-.4Z"/>
      <path class="cls-61" d="M14.2,14.3c0-.1,0-.3.1-.4,0,.3,0,.4-.1.4Z"/>
      <path class="cls-122" d="M14.5,14.4c.2,0,.2,0,.2.2,0,0-.1,0-.2,0v-.2Z"/>
      <path class="cls-103" d="M14.7,13.4c0,.1,0,.3-.1.4,0-.1,0-.3.1-.4Z"/>
      <path class="cls-26" d="M14,14.6q0-.2.1-.2c0,0,0,.1,0,.2,0,0-.1,0-.2,0Z"/>
      <path class="cls-96" d="M16.6,14.7v.2c0,0-.1,0-.2,0,0,0,0-.1,0-.1,0,0,.1,0,.2,0Z"/>
      <path class="cls-65" d="M14.1,15v.2c0,0-.1,0-.2,0,0,0,0-.1,0-.2,0,0,.1,0,.2,0Z"/>
      <path class="cls-100" d="M16.8,14.7q0,.2-.2.2c0,0,0-.1,0-.2,0,0,.1,0,.2,0Z"/>
      <path class="cls-85" d="M15.7,15c0,0,0,.1,0,.2,0,0-.1,0-.2,0,0-.1,0-.3.2-.2Z"/>
      <path class="cls-137" d="M16.7,15.2v-.2c0,0,.1,0,.2,0,0,.1,0,.3-.2.2Z"/>
      <path class="cls-174" d="M16.1,14.6c0,0,0-.2,0-.2,0,0,.1,0,.1.1,0,.1,0,.1-.2,0Z"/>
      <path class="cls-127" d="M16.6,15.2c0,0-.1,0-.2,0,0,0,0-.1,0-.2,0,0,.1,0,.2,0,0,0,0,.1,0,.2Z"/>
      <path class="cls-148" d="M16.6,14.4c0,0,0,.1,0,.2,0,0-.1,0-.2,0,0,0,0-.1,0-.2,0,0,.1,0,.2,0Z"/>
      <path class="cls-22" d="M13.7,14.9c0,0,0-.1,0-.2,0,0,.1,0,.2,0,0,0,0,.1,0,.2,0,0-.1,0-.2,0Z"/>
      <path class="cls-136" d="M14,14.7q.2,0,.2.2t-.2-.2Z"/>
      <path class="cls-110" d="M15.6,14.7c0,0,.1,0,.2,0,0,0,0,.1,0,.2q-.2,0-.2-.2Z"/>
      <path class="cls-41" d="M16,14.7c0,0,0,.1,0,.2,0,0-.1,0-.2,0,0,0,0-.1,0-.1,0,0,0,0,.2,0Z"/>
      <path class="cls-104" d="M16.1,14.9c0,0,0-.1,0-.2,0,0,.1,0,.2,0,0,0,0,.1,0,.1,0,0-.1,0-.2,0Z"/>
      <path class="cls-160" d="M13.9,15c0,.1,0,.2-.2.2,0,0,0-.1,0-.2,0,0,.1,0,.2,0Z"/>
      <path class="cls-12" d="M14.2,15.2v-.2c0,0,.1,0,.2,0,0,0,0,.1,0,.2,0,0,0,0-.2,0Z"/>
      <path class="cls-185" d="M14.2,15.3c.1,0,.2,0,.2,0,0,0,0,.1-.1.1-.1,0,0-.1,0-.2Z"/>
      <path class="cls-123" d="M15.9,15c0,0,.1,0,.2,0,0,0,0,.1,0,.2q-.2,0-.2-.2Z"/>
      <path class="cls-128" d="M14.4,14.5c0,0,0,.1,0,.1,0,0-.1,0-.1-.1,0,0,0-.1,0-.1,0,0,0,0,0,.1Z"/>
      <path class="cls-10" d="M16.7,14.6c0,0,0-.1,0-.2,0,0,.1,0,.2,0,0,0,0,0,0,.1,0,0-.1,0-.2,0Z"/>
      <path class="cls-180" d="M16.1,15c0,0,.2,0,.2,0,0,0,0,.1,0,.1-.2,0-.1-.1-.1-.2Z"/>
      <path class="cls-101" d="M13.7,15.5c0,0,0-.1,0-.2,0,0,.1,0,.2,0,0,0,0,.1,0,.1,0,0,0,0-.2,0Z"/>
      <path class="cls-155" d="M13.7,14.4c.1,0,.2,0,.2.1,0,.1,0,.1-.2,0,0,0,0-.1,0-.2Z"/>
      <path class="cls-179" d="M15.7,14.4c0,0,0,.1,0,.2,0,0-.2,0-.2,0,0-.1,0-.2.2-.1Z"/>
      <path class="cls-69" d="M16,14.4c0,0,0,.2,0,.2,0,0-.1,0-.1-.1,0-.1,0-.1.2-.1Z"/>
      <path class="cls-199" d="M14.1,14.3c0,0-.1,0-.2,0,0-.2,0-.2.2-.2,0,0,0,.2,0,.3Z"/>
      <path class="cls-172" d="M16,15.3c0,0,0,.2,0,.2,0,0,0,0,0-.1,0-.1,0-.1.2-.1Z"/>
      <path class="cls-157" d="M16.1,15.5c0,0,0-.1,0-.2,0,0,.2,0,.2,0,0,.1,0,.1-.2.1Z"/>
      <path class="cls-23" d="M16.6,14.3c0,0-.1,0-.2,0,0,0,0-.1,0-.2q.2,0,.2.2Z"/>
      <path class="cls-118" d="M16.6,15.5c-.2,0-.2,0-.2-.2q.2,0,.2.2Z"/>
      <path class="cls-58" d="M15.6,15.3c.2,0,.2,0,.2.2q-.2,0-.2-.2Z"/>
      <path class="cls-84" d="M15.5,15.3c0,0,0,.1,0,.2,0,0-.2,0-.2-.1,0-.1,0,0,.2,0Z"/>
      <path class="cls-49" d="M14,15.5c0,0,0-.1,0-.2,0,0,.1,0,.2,0,0,0,0,0,0,.1,0,0-.1,0-.2,0Z"/>
      <path class="cls-57" d="M16.7,15.3c0,0,.2,0,.2,0,0,.1,0,.1-.2,0,0,0,0-.1,0-.2Z"/>
      <path class="cls-87" d="M14.8,15.3c.1,0,.2,0,.2,0,0,0,0,.1,0,.1-.1,0,0-.1,0-.2Z"/>
      <path class="cls-31" d="M14.9,14.4c0,0,0,0,0,0,0,0,0,.1,0,.1,0,0-.1,0-.1-.1,0,0,0-.1,0-.1Z"/>
      <path class="cls-13" d="M14.2,14.9c0,0,0-.1,0-.2,0,0,.1,0,.2,0,0,.1,0,.2-.2.1Z"/>
      <path class="cls-54" d="M14.9,15v.2c-.1,0-.2,0-.2-.1,0-.1,0-.1.2,0Z"/>
      <path class="cls-59" d="M14.7,15c0,0,0,.2,0,.2,0,0,0,0-.1,0,0-.1,0-.1.2-.1Z"/>
      <path class="cls-201" d="M14.7,14.7c0,0,0,.2,0,.2,0,0,0,0,0-.1,0-.1,0-.1.2,0Z"/>
      <path class="cls-106" d="M14.9,14.7c0,0,0,.2,0,.2,0,0,0,0,0-.1,0-.1,0-.1.2,0Z"/>
      <path class="cls-83" d="M14.7,15.3v.2c0,0-.2,0-.2-.1,0-.1,0-.1.2,0Z"/>
      <path class="cls-93" d="M15,15.3c0,0,.2,0,.2,0,0,0,0,0,0,0-.1,0,0-.1,0-.2Z"/>
      <path class="cls-176" d="M16.8,14.2c0,0,0-.2-.1-.3h.2c0,.1,0,.2,0,.3-.1,0,0,0-.2-.1,0,0,0,0,0,0,0,0,0,0,0,0Z"/>
    </g>
  </g>
</svg>