<?xml version="1.0" encoding="UTF-8"?>
<svg id="_30x30_Timeline" data-name="30x30 Timeline" xmlns="http://www.w3.org/2000/svg" width="30" height="30" viewBox="0 0 30 30">
  <defs>
    <style>
      .cls-1 {
        fill: #020202;
      }

      .cls-1, .cls-2, .cls-3, .cls-4, .cls-5, .cls-6, .cls-7, .cls-8, .cls-9, .cls-10, .cls-11, .cls-12, .cls-13, .cls-14, .cls-15, .cls-16, .cls-17, .cls-18, .cls-19, .cls-20, .cls-21, .cls-22, .cls-23, .cls-24, .cls-25, .cls-26, .cls-27, .cls-28, .cls-29, .cls-30, .cls-31, .cls-32, .cls-33, .cls-34, .cls-35, .cls-36, .cls-37, .cls-38, .cls-39, .cls-40, .cls-41, .cls-42, .cls-43, .cls-44, .cls-45, .cls-46, .cls-47, .cls-48, .cls-49, .cls-50, .cls-51, .cls-52, .cls-53, .cls-54, .cls-55, .cls-56, .cls-57, .cls-58, .cls-59, .cls-60, .cls-61, .cls-62, .cls-63, .cls-64, .cls-65, .cls-66, .cls-67, .cls-68, .cls-69 {
        stroke-width: 0px;
      }

      .cls-2 {
        fill: #e90016;
      }

      .cls-3 {
        fill: #fee50d;
      }

      .cls-4 {
        fill: #6697e3;
      }

      .cls-5 {
        fill: #abdebc;
      }

      .cls-6 {
        fill: #000;
      }

      .cls-7 {
        fill: #fcfcfc;
      }

      .cls-8 {
        fill: #051a1d;
      }

      .cls-9 {
        fill: #f9f9f9;
      }

      .cls-10 {
        fill: #437bdf;
      }

      .cls-11 {
        fill: #00b572;
      }

      .cls-12 {
        fill: #06161b;
      }

      .cls-13 {
        fill: #040b0d;
      }

      .cls-14 {
        fill: #fee50e;
      }

      .cls-15 {
        fill: #04151d;
      }

      .cls-16 {
        fill: #070504;
      }

      .cls-17 {
        fill: #06191d;
      }

      .cls-18 {
        fill: #d5d4d3;
      }

      .cls-19 {
        fill: #5588e3;
      }

      .cls-20 {
        fill: #00b672;
      }

      .cls-21 {
        fill: #6595e4;
      }

      .cls-22 {
        fill: #031410;
      }

      .cls-23 {
        fill: #467ce0;
      }

      .cls-24 {
        fill: #041216;
      }

      .cls-25 {
        fill: #e8cb2e;
      }

      .cls-26 {
        fill: #3974de;
      }

      .cls-27 {
        fill: #699be8;
      }

      .cls-28 {
        fill: #fde40e;
      }

      .cls-29 {
        fill: #73a5eb;
      }

      .cls-30 {
        fill: #296ddd;
      }

      .cls-31 {
        fill: #00b270;
      }

      .cls-32 {
        fill: #7baeee;
      }

      .cls-33 {
        fill: #fee60d;
      }

      .cls-34 {
        fill: #588ae3;
      }

      .cls-35 {
        fill: #fdfdfd;
      }

      .cls-36 {
        fill: #00b471;
      }

      .cls-37 {
        fill: #78abed;
      }

      .cls-38 {
        fill: #6995de;
      }

      .cls-39 {
        fill: #010101;
      }

      .cls-40 {
        fill: #041110;
      }

      .cls-41 {
        fill: #002312;
      }

      .cls-42 {
        fill: #00b16f;
      }

      .cls-43 {
        fill: #0056d7;
      }

      .cls-44 {
        fill: #5286e2;
      }

      .cls-45 {
        fill: #091d15;
      }

      .cls-46 {
        fill: #6293e6;
      }

      .cls-47 {
        fill: #0a2328;
      }

      .cls-48 {
        fill: #041614;
      }

      .cls-49 {
        fill: #051b19;
      }

      .cls-50 {
        fill: #071918;
      }

      .cls-51 {
        fill: #061719;
      }

      .cls-52 {
        fill: #040e11;
      }

      .cls-53 {
        fill: #00b673;
      }

      .cls-54 {
        fill: #131212;
      }

      .cls-55 {
        fill: #051211;
      }

      .cls-56 {
        fill: #0b0807;
      }

      .cls-57 {
        fill: #05171d;
      }

      .cls-58 {
        fill: #051c1c;
      }

      .cls-59 {
        fill: #041114;
      }

      .cls-60 {
        fill: #fbe210;
      }

      .cls-61 {
        fill: #fee50c;
      }

      .cls-62 {
        fill: #5487e2;
      }

      .cls-63 {
        fill: #021013;
      }

      .cls-64 {
        fill: #031219;
      }

      .cls-65 {
        fill: #fae010;
      }

      .cls-66 {
        fill: #6b9de9;
      }

      .cls-67 {
        fill: #fefefe;
      }

      .cls-68 {
        fill: #4a4549;
      }

      .cls-69 {
        fill: #041313;
      }
    </style>
  </defs>
  <g id="_1-2-6-gki-logo" data-name="1-2-6-gki-logo">
    <path class="cls-6" d="M15,30C6.7,30,0,23.3,0,15,0,6.7,6.7,0,15,0c8.3,0,15,6.7,15,15,0,8.3-6.7,15-15,15ZM29.8,15c0-8.2-6.6-14.7-14.7-14.8C6.8.1.2,6.8.2,15c0,8.2,6.6,14.8,14.8,14.8,8.2,0,14.8-6.6,14.8-14.8Z"/>
    <path class="cls-33" d="M29.8,15c0,8.2-6.6,14.8-14.8,14.8-8.2,0-14.8-6.6-14.8-14.8C.2,6.8,6.8.1,15.1.2c8.1,0,14.7,6.6,14.7,14.8ZM15,26.5c6.3,0,11.5-5.1,11.5-11.5,0-6.4-5.1-11.4-11.3-11.5-6.5,0-11.6,5.1-11.6,11.5,0,6.3,5.1,11.5,11.5,11.5ZM12.9,3.1c0-.2,0-.5-.1-.7.2,0,.3,0,.5,0,.1.2.3.3.4.4,0,0,0,0,0,0,.1,0,.2,0,.4,0-.2-.2-.4-.5-.7-.7,0,0,0,0,.1,0,.2-.1.3-.3.2-.6,0-.2-.2-.4-.5-.3-.3,0-.7.1-1,.2.1.6.2,1.2.3,1.8.1,0,.2,0,.3,0ZM2.5,9.1c.5.3,1,.6,1.6.8,0-.1.1-.2.2-.3-.2-.1-.4-.2-.6-.3,0-.2.2-.3.4-.3.2,0,.4,0,.6,0,0,0,0,0,0,0,0-.1.1-.2.2-.4-.3,0-.7,0-1,.2,0,0,0,0,0-.1,0-.2,0-.4-.2-.5-.2-.1-.5,0-.6.1-.1.2-.2.4-.4.6,0,0-.1.2-.2.3ZM10.3,28.3c.1-.4.3-.7.4-1.1,0,.2,0,.3.1.5,0,.2,0,.4.1.5,0,.3,0,.3.3.4,0,0,0,0,.1,0,.1-.4.3-.7.4-1.1,0-.2.1-.3.2-.5-.1,0-.2,0-.3-.1-.1.4-.3.7-.4,1.1,0,0,0-.1,0-.2,0-.4-.1-.7-.2-1.1,0,0,0,0,0,0,0,0-.2,0-.3-.1-.2.6-.4,1.1-.6,1.7.1,0,.2,0,.3.1ZM25.6,7h0c0,.1,0,.2-.1.3-.1.3-.2.6-.3.8,0,0,0,0,0,.1,0,0,.1.2.2.3.5-.4,1-.7,1.5-1.1,0,0-.1-.2-.2-.3-.3.2-.6.5-1,.7,0,0,0,0,0,0,.2-.4.3-.7.5-1.1,0,0,0,0,0-.1,0,0-.1-.2-.2-.3-.5.4-1,.7-1.4,1.1,0,0,.1.2.2.3.3-.2.6-.4.9-.7ZM22.5,3.3c-.3.5-.7,1-1,1.5,0,0,.2.1.3.2.2-.3.4-.6.7-.9,0,.2,0,.3,0,.4,0,.3,0,.6,0,.9,0,0,0,0,0,0,0,0,.2.1.3.2.3-.5.7-1,1-1.5,0,0-.2-.1-.3-.2-.2.3-.4.6-.7,1,0,0,0-.1,0-.2,0-.4,0-.8,0-1.1,0,0,0,0,0,0,0,0-.2-.1-.3-.2ZM2.5,12.8c.2,0,.3,0,.3.2,0,0,0,0,0,0,0,.3,0,.6-.4.7-.2,0-.4,0-.6,0-.1,0-.2-.2-.2-.4,0-.3,0-.4.3-.5,0-.1,0-.2,0-.3-.2,0-.4.1-.5.3,0,.2-.1.4-.1.6,0,.2,0,.4.3.6.3.2.6.3.9.2.3,0,.5-.2.7-.6,0-.2,0-.5,0-.7,0-.2-.1-.4-.4-.4-.2,0-.3,0-.5,0,0,.3,0,.5-.1.8.1,0,.2,0,.3,0,0-.1,0-.3,0-.4ZM3.5,23s0,0,0,0c.2.2.3.4.5.6.2.2.5.3.8.2.3-.1.6-.3.7-.6.1-.2.1-.4,0-.6-.2-.3-.4-.5-.6-.7-.5.4-.9.8-1.4,1.1ZM10.8,2.8s0,0,0,0c.2.2.4.4.6.6,0,0,0,0,0,0,.1,0,.3,0,.4-.1-.3-.3-.7-.6-1-.8.1-.3.3-.6.4-.9-.2,0-.3,0-.4.1,0,0,0,0,0,0,0,.2-.1.3-.2.5,0,.1-.1.3-.2.4,0-.3-.2-.5-.2-.8-.1,0-.2,0-.3.1.2.6.4,1.1.6,1.7.1,0,.2,0,.3-.1,0-.1,0-.3-.1-.4,0,0,0,0,0-.1,0-.1.1-.2.2-.3ZM5.2,7.6c-.1-.1-.3-.2-.4-.3.2-.2.4-.5.6-.7,0,0-.1-.1-.2-.2-.2.2-.4.5-.6.7-.1,0-.2-.2-.3-.3.2-.3.4-.5.6-.8,0,0-.2-.1-.2-.2-.3.3-.6.7-.8,1,.5.4.9.7,1.4,1.1.3-.4.6-.7.9-1.1,0,0-.2-.1-.2-.2-.2.3-.4.5-.6.8ZM21.5,2.7c-.4-.2-.8-.4-1.2-.5-.2.5-.5,1.1-.7,1.6.4.2.8.4,1.2.6,0,0,0-.2.1-.3-.3-.1-.6-.3-.9-.4,0-.2.1-.3.2-.5.3.1.6.2.8.4,0,0,0-.2.1-.3-.3-.1-.5-.2-.8-.4,0-.1.1-.2.2-.4.3.1.6.3.9.4,0,0,0-.2.1-.3ZM1.7,11.2c.6.2,1.1.4,1.7.6,0,0,0,0,0,0,.1-.3.2-.7.3-1,0-.3,0-.3-.2-.3,0,0,0,0,0,0-.1.3-.2.6-.3.9-.2,0-.3-.1-.5-.2,0-.3.2-.6.3-.9,0,0-.2,0-.3,0,0,0,0,0,0,.1,0,.2-.2.4-.2.7,0,0,0,0,0,0-.1,0-.2,0-.3-.1.1-.3.2-.6.3-.9,0,0-.2,0-.3,0-.1.4-.3.8-.4,1.3ZM15.7,29.2c0-.6,0-1.2,0-1.8-.1,0-.2,0-.4,0,0,.2,0,.5,0,.7-.2,0-.5,0-.7,0,0-.2,0-.5,0-.7-.1,0-.2,0-.4,0,0,.6,0,1.2,0,1.8h.3c0-.3,0-.5,0-.8.2,0,.4,0,.6,0,.1,0,.1,0,.1.1,0,.2,0,.4,0,.7h.3ZM17.2,1.8c0-.3-.1-.5-.4-.6-.2,0-.3,0-.5,0-.2,0-.4.2-.5.4,0,.2,0,.4.3.6.1,0,.2.1.3.1,0,0,.2,0,.2,0,0,0,.1,0,.1.2,0,0,0,.2-.2.2-.2,0-.5,0-.6-.3,0,0,0,0,0,0,0,0-.2,0-.3,0,0,.2,0,.4.2.5.3.2.6.2.9.1.2,0,.3-.2.3-.4,0-.2,0-.4-.3-.5,0,0-.2,0-.3-.1,0,0-.2,0-.3-.1-.1,0-.1-.2,0-.3.1,0,.2,0,.3,0,.1,0,.2,0,.2.2,0,0,0,0,0,0,0,0,.2,0,.3,0ZM24.7,25.4c0,0,.1-.2.2-.2,0,0,0,0,0-.1,0-.1-.1-.2-.2-.3.2-.2.3-.3.4-.5,0,0,0,0,.1,0,0,0,.2,0,.3.1,0,0,0,0,0,0,0,0,.1-.2.2-.2,0,0,0,0,0,0-.5-.2-1.1-.4-1.6-.6-.2,0-.2,0-.3,0,0,0,0,.1-.1.2.3.6.6,1.2.8,1.7ZM11.9,28.8c.1,0,.2,0,.3,0,0,0,0,0,0,0,0,0,.1-.2.2-.3,0,0,0,0,.1,0,.2,0,.4,0,.6.1,0,0,0,0,0,0,0,0,0,.2,0,.3,0,0,0,0,0,0,.1,0,.2,0,.3,0,0-.1,0-.2,0-.3,0-.5-.2-1-.3-1.5,0,0,0-.1-.1-.1,0,0-.2,0-.3,0-.3.5-.7,1.1-1,1.6ZM19.2,28.6c.1,0,.2,0,.4-.1,0-.1,0-.2,0-.3,0,0,0,0,0-.1.2,0,.4-.1.5-.2,0,0,0,0,.1,0,0,0,.2.2.2.3.1,0,.2,0,.4-.1,0-.1-.2-.2-.3-.3-.3-.3-.6-.7-.9-1.1,0,0-.1,0-.2,0,0,0-.1,0-.2,0,0,0,0,0,0,.1,0,.1,0,.3,0,.4,0,.5,0,.9,0,1.4ZM7.8,27.2c0,0,.2,0,.2.1,0,0,.1,0,.2,0,0,0,.1-.1.2-.2,0,0,0,0,0,0,.2,0,.3.2.5.3,0,0,0,0,0,0,0,0,0,.2,0,.3,0,0,0,0,0,.1,0,0,.2.1.3.2,0,0,0,0,0-.1,0-.5.1-1,.2-1.5,0,0,0-.2,0-.3,0,0-.2,0-.2-.1,0,0-.1,0-.2,0,0,0-.1,0-.2.1-.4.3-.8.7-1.2,1ZM7.7,5.4c0,0,.2-.1.3-.2,0,0,0,0,0-.1,0,0,0-.2,0-.3,0,0,0,0,0-.1.2-.1.3-.2.5-.3,0,0,0,0,0,0,0,0,.2.1.3.2,0,0,0,0,0,0,0,0,.2-.1.3-.2,0,0,0,0,0,0-.5-.4-1-.7-1.4-1.1,0,0-.1,0-.2,0,0,0-.1,0-.2.1,0,0,0,0,0,0,0,.2,0,.3,0,.5,0,.5.2.9.3,1.4ZM22.1,25.2c.1.2.3.4.4.6.1.2.3.3.4.5.1.1.3.2.5.2.2,0,.3-.1.5-.3.3-.2.3-.5.1-.8-.2-.2-.4-.5-.5-.7,0,0-.1-.2-.2-.3,0,0-.2.1-.3.2.2.3.4.5.6.8,0,.1.2.2.2.3,0,.2,0,.3-.2.4-.1,0-.3,0-.4-.1-.1-.2-.3-.4-.4-.6,0-.1-.2-.2-.3-.4,0,0-.2.1-.3.2ZM21.4,27c.1,0,.3-.1.4-.2.3-.2.4-.5.2-.9-.1-.2-.3-.2-.6-.2-.1,0-.2.1-.3.2-.2,0-.3.2-.5.3.1.3.3.5.4.8.1.3.3.5.4.8.1,0,.2-.1.3-.2-.1-.2-.2-.4-.3-.6ZM17.8,28.3c.1,0,.3,0,.4,0,.4,0,.5-.3.5-.6,0-.3-.2-.5-.5-.5-.3,0-.6.1-.9.1,0,.2,0,.3,0,.4,0,.4.1.8.2,1.3,0,0,0,0,0,0,.1,0,.2,0,.3,0,0-.2,0-.4-.1-.7ZM3.1,17.4c-.2,0-.3,0-.4,0-.1,0-.2,0-.3,0,0,0,0-.2-.1-.3,0-.1,0-.2-.1-.4,0,.2-.1.4-.2.6,0,0,0,0-.1,0-.1,0-.3,0-.4,0,0,0-.1,0-.2,0,.2.1.4.3.5.4,0,0,0,0,0,.1,0,.2-.1.4-.2.6.2-.1.4-.2.5-.4,0,0,.1,0,.2,0,.2.1.3.2.5.4,0-.2-.1-.4-.2-.6,0,0,0,0,0-.1.2-.1.3-.3.5-.4ZM28.8,17.2s0,0,0,0c-.2,0-.4,0-.6,0,0,0,0,0-.1,0,0-.2-.1-.4-.2-.6,0,0,0,0,0,0,0,.2-.1.3-.2.5,0,0,0,.1-.1,0-.1,0-.2,0-.3,0,0,0-.2,0-.3,0,.2.1.3.2.5.3.1,0,.1,0,0,.2,0,.2-.1.3-.2.5.2-.1.4-.3.6-.4.2.1.4.3.6.4,0-.2-.1-.4-.2-.6,0,0,0-.1,0-.1.2-.1.3-.2.5-.3ZM8.6,25.5c-.4-.3-.8-.5-1.2-.8,0,0-.1.2-.2.3.1,0,.3.2.4.3-.3.4-.5.8-.8,1.3.1,0,.2.1.3.2.3-.4.5-.8.8-1.3.2,0,.3.2.4.3,0,0,.1-.2.2-.3ZM18.6,1.9c-.1.5-.3,1-.4,1.4,0,0,.2,0,.3,0,0,0,0,0,0,0,0-.3.2-.6.2-.9,0-.1,0-.3.1-.4.2,0,.3.1.5.1,0,0,0-.2,0-.3-.5-.1-.9-.2-1.4-.4,0,.1,0,.2,0,.3.2,0,.3,0,.5.1ZM28.5,11.9c0-.1,0-.2,0-.3,0,0,0,0,0,0-.5.1-1.1.2-1.6.4,0,0,0,0,0,0,0,.2.1.5.2.7,0,.1,0,.3.1.4.1,0,.2,0,.3,0,0-.3-.1-.6-.2-.9.5-.1,1-.2,1.4-.3ZM5.8,4.7c.2.2.4.4.6.6.1.1.3.3.4.4,0,0,0,.1,0,.2,0,.1-.2.2-.3,0,0,0,0,0-.1,0,0,0-.1.2-.2.2.2.2.4.3.7.1.3-.2.5-.6.1-.9,0,0-.1-.1-.2-.2-.2-.2-.5-.5-.7-.7,0,0-.2.2-.3.2ZM26.1,8.9c-.2,0-.3.2-.3.4,0,.3,0,.5.3.6.2.1.4.1.6,0,.3-.1.6-.3.8-.4,0,0,.2,0,.3-.2,0-.1-.1-.2-.2-.3-.3.1-.5.3-.8.4-.1,0-.3.2-.4.2-.1,0-.2,0-.2,0,0,0,0-.2,0-.3,0,0,0,0,.1-.1,0,0-.1-.2-.2-.3ZM24,6.9c.4-.4.9-.8,1.3-1.2,0,0-.2-.2-.3-.3-.4.4-.9.8-1.3,1.2,0,0,.2.2.3.3ZM6.2,23.5c-.4.4-.9.8-1.3,1.2,0,0,.2.2.2.3.4-.4.9-.8,1.3-1.2,0,0-.2-.2-.2-.3ZM26.5,11.2c.6-.2,1.1-.4,1.7-.6,0-.1,0-.2-.1-.3-.2,0-.4.1-.6.2-.4.1-.7.2-1.1.4,0,0,0,0,0,0,0,0,0,.2.1.3ZM15,3v-1.8c-.1,0-.2,0-.4,0,0,.6,0,1.2,0,1.8h.3ZM28.9,13.6c-.6,0-1.2.1-1.8.2,0,.1,0,.2,0,.4.6,0,1.2,0,1.8-.2,0-.1,0-.2,0-.4Z"/>
    <path class="cls-6" d="M15,26.5c-6.3,0-11.5-5.1-11.5-11.5,0-6.3,5.1-11.5,11.6-11.5,6.2,0,11.3,5.1,11.3,11.5,0,6.3-5.1,11.5-11.5,11.5ZM12.6,4c-.1,0-.2,0-.4,0-.4.1-.9.2-1.3.4-.5.2-1,.4-1.5.7-.3.2-.7.4-1,.6-.1,0-.2.2-.3.2-.1,0-.2.2-.3.3-.4.4-.9.8-1.2,1.2-.3.3-.5.6-.7.9,0,.1-.2.2-.2.3-.3.4-.5.9-.8,1.3-.2.5-.4.9-.6,1.4,0,.1,0,.3-.1.4-.2.7-.3,1.4-.4,2.1,0,.5,0,1,0,1.5,0,.1,0,.3,0,.4,0,.1,0,.2,0,.3,0,.3,0,.5.1.8,0,.3.1.6.2.8.2.8.5,1.6.9,2.4.3.6.6,1.1,1,1.6.4.5.8,1,1.3,1.5.5.4.9.8,1.5,1.1.5.4,1.1.7,1.7.9.7.3,1.5.6,2.3.7.9.2,1.8.3,2.8.2.8,0,1.6-.1,2.3-.3.7-.2,1.4-.4,2.1-.8.6-.3,1.1-.6,1.6-1,.1,0,.3-.2.4-.3,0,0-.2-.1-.3-.2-.2-.1-.3-.3-.4-.5-.1-.1-.2-.3-.4-.3,0,0,0,0,0,0,.1,0,.2,0,.3.2,0,.1.2.2.3.3.1.2.3.4.5.6,0,0,0,0,0,0,0,0,0,0,0,0,0-.2,0-.3,0-.5,0-.7,0-1.4,0-2.1,0,0,0,0,0,0-.3-.1-.2-.6,0-.7,0,0,0,0,0-.1,0-.3,0-.6,0-.9,0-1.3,0-2.6,0-3.8,0,0,0-.1-.1,0,0,0-.2,0-.3,0,0,0,0,0,0-.1-.2,0-.3-.1-.5-.2,0,0,0,0,0,0,0,0-.2-.1-.3-.2,0,0-.1,0-.2,0-.3,0-.4-.1-.6-.3.1,0,.2,0,.3.1.1,0,.4,0,.5,0,0,0,0,0,0,0,0,0,.1,0,.2.1,0,0,0-.1,0,0,.1,0,.3,0,.4.1,0,0,0,0,0,.1,0,0,0,0,0,0,0,0,.1,0,.2,0,0,0,.1,0,.2,0,.8.2,1.5.5,2.2.8.4.2.8.4,1.2.6.2,0,.3.1.5.2,0-.4.1-.8.2-1.2,0-.1,0-.2,0-.3,0-.2,0-.5,0-.7,0-.6,0-1.2-.2-1.8,0-.4-.2-.8-.3-1.2,0-.1,0-.3-.1-.4-.3-1-.8-1.9-1.3-2.8,0-.1-.2-.2-.2-.3-.3-.4-.6-.7-.9-1.1-.3-.3-.6-.6-1-.9-.2-.2-.5-.4-.7-.6-.1,0-.2-.2-.3-.2-.2-.1-.3-.2-.5-.3-.6-.4-1.2-.7-1.9-.9-.3-.1-.6-.2-.9-.3-.1,0-.2,0-.4,0-.2,0-.5-.1-.7-.1-.5,0-1-.1-1.6-.1-.7,0-1.4,0-2.1.1-.2,0-.4,0-.6.1ZM22.1,15.5s0,0,0,.1c0,1.3,0,2.7,0,4,0,.2,0,.4,0,.6,0,0,0,0,0,0-.2.1-.2.3-.2.5,0,0,0,.2.1.2,0,0,0,0,0,.1,0,.8,0,1.6,0,2.4,0,0,0,.1,0,.2,2.1-1.8,3.5-4,4-6.7-.4-.1-.7-.3-1.1-.5-.6-.3-1.2-.6-1.8-.8-.3-.1-.7-.2-1.1-.3Z"/>
    <path class="cls-2" d="M12.9,3.1c-.1,0-.2,0-.3,0-.1-.6-.2-1.2-.3-1.8.4,0,.7-.1,1-.2.3,0,.4.2.5.3,0,.3,0,.4-.2.6,0,0,0,0-.1,0,.3.1.5.4.7.7-.1,0-.3,0-.4,0,0,0,0,0,0,0-.1-.1-.3-.3-.4-.4-.1-.1-.3-.1-.5,0,0,.2,0,.5.1.7ZM12.7,2.1c0,0,.1,0,.2,0,.1,0,.3,0,.4,0,.1,0,.2-.1.1-.3,0,0-.1-.2-.2-.2-.2,0-.4,0-.5,0,0,.2,0,.3,0,.4Z"/>
    <path class="cls-2" d="M2.5,9.1c0-.1.1-.2.2-.3.1-.2.2-.4.4-.6.1-.2.4-.2.6-.1.2.1.3.3.2.5,0,0,0,0,0,.1.3-.2.6-.1,1-.2,0,.1-.1.2-.2.4,0,0,0,0,0,0-.2,0-.4,0-.6,0-.2,0-.3.1-.4.3.2.1.4.2.6.3,0,.1-.1.2-.2.3-.5-.3-1-.6-1.6-.8ZM3.4,9.1c0-.2.2-.3.2-.5,0-.1,0-.2,0-.3-.1,0-.2,0-.3,0,0,.2-.2.3-.3.5.1,0,.3.1.4.2Z"/>
    <path class="cls-2" d="M10.3,28.3c-.1,0-.2,0-.3-.1.2-.6.4-1.1.6-1.7.1,0,.2,0,.3.1,0,0,0,0,0,0,0,.4.1.7.2,1.1,0,0,0,.1,0,.2.1-.4.3-.7.4-1.1.1,0,.2,0,.3.1,0,.2-.1.3-.2.5-.1.4-.3.7-.4,1.1,0,0,0,0-.1,0-.3,0-.3,0-.3-.4,0-.2,0-.4-.1-.5,0-.2,0-.3-.1-.5-.1.4-.3.7-.4,1.1Z"/>
    <path class="cls-2" d="M25.6,7c-.3.2-.6.4-.9.7,0,0-.1-.2-.2-.3.5-.3,1-.7,1.4-1.1,0,0,.1.2.2.3,0,0,0,0,0,.1-.2.4-.3.7-.5,1.1,0,0,0,0,0,0,.3-.2.6-.5,1-.7,0,0,.1.2.2.3-.5.4-1,.7-1.5,1.1,0,0-.1-.2-.2-.3,0,0,0,0,0-.1.1-.3.2-.6.3-.8,0-.1,0-.2.1-.3h0Z"/>
    <path class="cls-2" d="M22.5,3.3c0,0,.2.1.3.2,0,0,0,0,0,0,0,.4,0,.8,0,1.1,0,0,0,0,0,.2.2-.3.4-.6.7-1,0,0,.2.1.3.2-.3.5-.7,1-1,1.5,0,0-.2-.1-.3-.2,0,0,0,0,0,0,0-.3,0-.6,0-.9,0-.1,0-.3,0-.4-.2.3-.4.6-.7.9-.1,0-.2-.1-.3-.2.3-.5.7-1,1-1.5Z"/>
    <path class="cls-2" d="M2.5,12.8c0,.1,0,.2,0,.4,0,0-.2,0-.3,0,0-.3,0-.5.1-.8.2,0,.3,0,.5,0,.3,0,.3.2.4.4,0,.2,0,.5,0,.7-.1.3-.3.5-.7.6-.3,0-.6,0-.9-.2-.2-.1-.3-.3-.3-.6,0-.2,0-.4.1-.6.1-.2.3-.3.5-.3,0,.1,0,.2,0,.3-.3.1-.3.2-.3.5,0,.2,0,.3.2.4.2.1.4.1.6,0,.3,0,.5-.3.4-.7,0,0,0,0,0,0,0-.2,0-.2-.3-.2Z"/>
    <path class="cls-2" d="M3.5,23c.5-.4.9-.8,1.4-1.1.2.2.4.5.6.7.1.2.1.4,0,.6-.2.3-.4.5-.7.6-.3,0-.6,0-.8-.2-.2-.2-.3-.4-.5-.6,0,0,0,0,0,0ZM3.9,23.1c0,.1.2.2.3.3,0,.1.2.1.3,0,.2,0,.4-.2.6-.5,0-.1,0-.2,0-.4,0-.1-.2-.2-.3-.4-.2.1-.3.2-.5.4-.2.1-.3.3-.5.4Z"/>
    <path class="cls-2" d="M10.8,2.8c0,.1-.1.2-.2.3,0,0,0,0,0,.1,0,.1,0,.3.1.4-.1,0-.2,0-.3.1-.2-.6-.4-1.1-.6-1.7.1,0,.2,0,.3-.1,0,.2.2.5.2.8,0-.2.1-.3.2-.4,0-.2.1-.3.2-.5,0,0,0,0,0,0,.1,0,.3,0,.4-.1-.1.3-.3.6-.4.9.3.3.7.5,1,.8-.1,0-.3,0-.4.1,0,0,0,0,0,0-.2-.2-.4-.4-.6-.6,0,0,0,0,0,0Z"/>
    <path class="cls-2" d="M5.2,7.6c.2-.3.4-.5.6-.8,0,0,.2.1.2.2-.3.4-.6.7-.9,1.1-.5-.4-.9-.8-1.4-1.1.3-.3.6-.7.8-1,0,0,.2.1.2.2-.2.3-.4.5-.6.8.1,0,.2.2.3.3.2-.2.4-.5.6-.7,0,0,.1.1.2.2-.2.2-.4.5-.6.7.1.1.3.2.4.3Z"/>
    <path class="cls-2" d="M21.5,2.7c0,0,0,.2-.1.3-.3-.1-.6-.3-.9-.4,0,.1-.1.2-.2.4.3.1.5.2.8.4,0,0,0,.2-.1.3-.3-.1-.5-.2-.8-.4,0,.1-.1.3-.2.5.3.1.6.3.9.4,0,0,0,.2-.1.3-.4-.2-.8-.4-1.2-.6.2-.5.5-1.1.7-1.6.4.2.8.4,1.2.5Z"/>
    <path class="cls-2" d="M1.7,11.2c.1-.4.3-.8.4-1.3,0,0,.2,0,.3,0-.1.3-.2.6-.3.9.1,0,.2,0,.3.1,0,0,0,0,0,0,0-.2.2-.4.2-.7,0,0,0,0,0-.1,0,0,.2,0,.3,0,0,.3-.2.6-.3.9.2,0,.3.1.5.2.1-.3.2-.6.3-.9,0,0,0,0,0,0,.3,0,.3,0,.2.3-.1.3-.2.7-.3,1,0,0,0,0,0,0-.6-.2-1.1-.4-1.7-.6Z"/>
    <path class="cls-2" d="M15.7,29.2h-.3c0-.2,0-.4,0-.7,0,0,0-.1-.1-.1-.2,0-.4,0-.6,0,0,.2,0,.5,0,.8h-.3c0-.6,0-1.2,0-1.8.1,0,.2,0,.4,0,0,.2,0,.5,0,.7.2,0,.5,0,.7,0,0-.2,0-.5,0-.7.1,0,.2,0,.4,0,0,.6,0,1.2,0,1.8Z"/>
    <path class="cls-2" d="M17.2,1.8c-.1,0-.2,0-.3,0,0,0,0,0,0,0,0-.1,0-.2-.2-.2-.1,0-.2,0-.3,0-.1,0-.1.2,0,.3,0,0,.2,0,.3.1.1,0,.2,0,.3.1.2.1.3.3.3.5,0,.2-.1.4-.3.4-.3,0-.6,0-.9-.1-.2-.1-.2-.3-.2-.5.1,0,.2,0,.3,0,0,0,0,0,0,0,0,.3.3.4.6.3,0,0,.1,0,.2-.2,0,0,0-.1-.1-.2,0,0-.1,0-.2,0-.1,0-.2,0-.3-.1-.2-.1-.3-.3-.3-.6,0-.2.3-.4.5-.4.2,0,.3,0,.5,0,.3,0,.4.3.4.6Z"/>
    <path class="cls-2" d="M24.7,25.4c-.3-.6-.6-1.2-.8-1.7,0,0,0-.1.1-.2.1-.1.1-.1.3,0,.5.2,1.1.4,1.6.6,0,0,0,0,0,0,0,0-.1.2-.2.2,0,0,0,0,0,0,0,0-.2,0-.3-.1,0,0,0,0-.1,0-.1.2-.3.3-.4.5,0,.1.1.2.2.3,0,0,0,0,0,.1,0,0-.1.1-.2.2ZM24.3,23.8c.1.2.2.4.3.6.1-.1.2-.2.3-.4-.2,0-.4-.2-.7-.3Z"/>
    <path class="cls-2" d="M11.9,28.8c.3-.5.7-1.1,1-1.6,0,0,.2,0,.3,0,.1,0,.1,0,.1.1,0,.5.2,1,.3,1.5,0,0,0,.2,0,.3-.1,0-.2,0-.3,0,0,0,0,0,0,0,0,0,0-.2,0-.3,0,0,0,0,0,0-.2,0-.4,0-.6-.1,0,0,0,0-.1,0,0,0-.1.2-.2.3,0,0,0,0,0,0,0,0-.2,0-.3,0ZM13.1,28.4c0-.2,0-.5-.1-.7-.1.2-.2.4-.4.6.2,0,.3,0,.5,0Z"/>
    <path class="cls-2" d="M19.2,28.6c0-.5,0-.9,0-1.4,0-.1,0-.3,0-.4,0,0,0,0,0-.1,0,0,.1,0,.2,0,0,0,.1,0,.2,0,.3.4.6.7.9,1.1,0,.1.2.2.3.3-.1,0-.2,0-.4.1,0,0-.2-.2-.2-.3,0,0,0,0-.1,0-.2,0-.4.1-.5.2,0,0,0,0,0,.1,0,.1,0,.2,0,.3-.1,0-.2,0-.4.1ZM19.6,27.1s0,0,0,0v.7c.2,0,.3-.1.5-.2-.2-.2-.3-.4-.4-.5Z"/>
    <path class="cls-2" d="M7.8,27.2c.4-.3.8-.7,1.2-1,0,0,.1,0,.2-.1,0,0,.1,0,.2,0,0,0,.2,0,.2.1,0,0,0,.2,0,.3,0,.5-.1,1-.2,1.5,0,0,0,0,0,.1-.1,0-.2-.1-.3-.2,0,0,0,0,0-.1,0,0,0-.2,0-.3,0,0,0,0,0,0-.2,0-.4-.2-.5-.3,0,0,0,0,0,0,0,0-.1.1-.2.2,0,0,0,0-.2,0,0,0-.2,0-.2-.1ZM9.2,27.1c0-.2,0-.5.1-.7-.2.2-.4.3-.5.5.1,0,.3.2.4.2Z"/>
    <path class="cls-2" d="M7.7,5.4c0-.5-.2-.9-.3-1.4,0-.2,0-.3,0-.5,0,0,0,0,0,0,0,0,.1,0,.2-.1,0,0,.1,0,.2,0,.5.4,1,.7,1.4,1.1,0,0,0,0,0,0-.1,0-.2.1-.3.2,0,0,0,0,0,0,0,0-.2-.1-.3-.2,0,0,0,0,0,0-.2.1-.3.2-.5.3,0,0,0,0,0,.1,0,0,0,.2,0,.3,0,0,0,0,0,.1,0,0-.2.1-.3.2ZM7.7,3.7s0,0,0,0c0,.2,0,.4.1.7.1,0,.3-.2.4-.3-.2-.1-.4-.3-.5-.4Z"/>
    <path class="cls-2" d="M22.1,25.2c0,0,.2-.1.3-.2,0,.1.2.2.3.4.1.2.3.4.4.6.1.1.3.2.4.1.2,0,.3-.2.2-.4,0-.1-.1-.2-.2-.3-.2-.3-.4-.5-.6-.8,0,0,.2-.1.3-.2,0,0,.2.2.2.3.2.2.4.5.5.7.2.3.1.6-.1.8-.1.1-.3.2-.5.3-.2,0-.3,0-.5-.2-.2-.1-.3-.3-.4-.5-.1-.2-.3-.4-.4-.6Z"/>
    <path class="cls-2" d="M21.4,27c.1.2.2.4.3.6-.1,0-.2.1-.3.2-.1-.3-.3-.5-.4-.8-.1-.3-.3-.5-.4-.8.2,0,.3-.2.5-.3.1,0,.2-.1.3-.2.2,0,.4,0,.6.2.2.3.2.7-.2.9-.1,0-.3.1-.4.2ZM21.3,26.7c.1,0,.3-.1.4-.2,0,0,.1-.2,0-.3,0-.1-.2-.2-.3-.1-.1,0-.3.1-.4.2,0,.2.2.3.2.5Z"/>
    <path class="cls-2" d="M17.8,28.3c0,.2,0,.4.1.7-.1,0-.2,0-.3,0,0,0,0,0,0,0,0-.4-.1-.8-.2-1.3,0-.1,0-.3,0-.4.3,0,.6-.1.9-.1.3,0,.5.2.5.5,0,.3-.1.5-.5.6-.1,0-.2,0-.4,0ZM17.7,27.5c0,.2,0,.3,0,.5,0,0,0,0,0,0,.1,0,.3,0,.4,0,.1,0,.2-.2.1-.3,0-.1-.1-.2-.2-.2-.1,0-.3,0-.4,0Z"/>
    <path class="cls-2" d="M3.1,17.4c-.2.1-.4.3-.5.4,0,0,0,0,0,.1,0,.2.1.4.2.6-.2-.1-.4-.2-.5-.4,0,0-.1,0-.2,0-.2.1-.3.2-.5.4,0-.2.1-.4.2-.6,0,0,0-.1,0-.1-.2-.1-.3-.2-.5-.4,0,0,.2,0,.2,0,.1,0,.3,0,.4,0,0,0,0,0,.1,0,0-.2.1-.4.2-.6,0,.1,0,.3.1.4,0,.1,0,.2.1.3,0,0,.2,0,.3,0,.1,0,.3,0,.4,0Z"/>
    <path class="cls-2" d="M28.8,17.2c-.2.1-.3.2-.5.3,0,0,0,0,0,.1,0,.2.1.4.2.6-.2-.1-.4-.3-.6-.4-.2.1-.4.3-.6.4,0-.2.1-.4.2-.5,0-.1,0-.1,0-.2-.1-.1-.3-.2-.5-.3.1,0,.2,0,.3,0,.1,0,.2,0,.3,0,0,0,.1,0,.1,0,0-.2.1-.3.2-.5,0,0,0,0,0,0,0,.2.1.4.2.6,0,0,0,0,.1,0,.2,0,.4,0,.6,0,0,0,0,0,0,0Z"/>
    <path class="cls-2" d="M8.6,25.5c0,0-.1.2-.2.3-.1,0-.3-.2-.4-.3-.3.4-.5.8-.8,1.3,0,0-.2-.1-.3-.2.3-.4.5-.8.8-1.3-.2,0-.3-.2-.4-.3,0,0,.1-.2.2-.3.4.3.8.5,1.2.8Z"/>
    <path class="cls-2" d="M18.6,1.9c-.2,0-.3,0-.5-.1,0,0,0-.2,0-.3.5.1.9.2,1.4.4,0,0,0,.2,0,.3-.2,0-.3,0-.5-.1,0,.1,0,.3-.1.4,0,.3-.2.6-.2.9,0,0,0,0,0,0,0,0-.2,0-.3,0,.1-.5.3-1,.4-1.4Z"/>
    <path class="cls-2" d="M28.5,11.9c-.5.1-1,.2-1.4.3,0,.3.1.6.2.9,0,0-.2,0-.3,0,0-.1,0-.3-.1-.4,0-.2-.1-.5-.2-.7,0,0,0,0,0,0,.5-.1,1.1-.2,1.6-.4,0,0,0,0,0,0,0,0,0,.2,0,.3Z"/>
    <path class="cls-2" d="M5.8,4.7c0,0,.2-.2.3-.2.2.2.5.5.7.7,0,0,.1.1.2.2.3.3.2.7-.1.9-.2.2-.5,0-.7-.1,0,0,.1-.2.2-.2,0,0,0,0,.1,0,.1.1.3,0,.3,0,0,0,0-.1,0-.2,0-.2-.2-.3-.4-.4-.2-.2-.4-.4-.6-.6Z"/>
    <path class="cls-2" d="M26.1,8.9c0,0,.1.2.2.3,0,0,0,0-.1.1,0,0,0,.2,0,.3,0,0,.1.1.2,0,.1,0,.3-.1.4-.2.3-.1.5-.3.8-.4,0,.1.1.2.2.3,0,0-.2.1-.3.2-.3.1-.5.3-.8.4-.2,0-.4.1-.6,0-.2-.2-.3-.4-.3-.6,0-.2.2-.3.3-.4Z"/>
    <path class="cls-2" d="M24,6.9c0,0-.2-.2-.3-.3.4-.4.9-.8,1.3-1.2,0,0,.2.2.3.3-.4.4-.9.8-1.3,1.2Z"/>
    <path class="cls-2" d="M6.2,23.5c0,0,.2.2.2.3-.4.4-.9.8-1.3,1.2,0,0-.2-.2-.2-.3.4-.4.9-.8,1.3-1.2Z"/>
    <path class="cls-2" d="M26.5,11.2c0,0,0-.2-.1-.3,0,0,0,0,0,0,.4-.1.7-.3,1.1-.4.2,0,.4-.1.6-.2,0,.1,0,.2.1.3-.6.2-1.1.4-1.7.6Z"/>
    <path class="cls-2" d="M15,3h-.3c0-.6,0-1.2,0-1.8.1,0,.2,0,.4,0v1.8Z"/>
    <path class="cls-2" d="M28.9,13.6c0,.1,0,.2,0,.4-.6,0-1.2.1-1.8.2,0-.1,0-.2,0-.4.6,0,1.2-.1,1.8-.2Z"/>
    <path class="cls-43" d="M20.8,22.8s0,0,0,0c.2,0,.3.2.4.3.2.1.3.3.4.5,0,0,.2.1.3.2-.1.1-.3.2-.4.3-.5.4-1,.7-1.6,1-.7.3-1.4.6-2.1.8-.8.2-1.6.3-2.3.3-.9,0-1.9,0-2.8-.2-.8-.2-1.5-.4-2.3-.7-.6-.3-1.1-.6-1.7-.9-.5-.3-1-.7-1.5-1.1-.5-.5-.9-.9-1.3-1.5-.4-.5-.7-1-1-1.6-.4-.8-.7-1.5-.9-2.4,0-.3-.1-.5-.2-.8,0,0,0,0,0,0,.6.2,1.2.4,1.7.6.3,0,.6.2.9.3.4.1.7.2,1.1.3.4,0,.8.2,1.2.2.4,0,.7.1,1.1.2.3,0,.7.1,1,.1.4,0,.8,0,1.2,0,.3,0,.6,0,.9,0,.6,0,1.2,0,1.8,0,.3,0,.6,0,.9,0,.3,0,.7,0,1,0,0,0,.2,0,.3,0,0,0,.1,0,.2,0,.2,0,.3.2.5.2,0,0,.1,0,.2,0,0,0,0,0,0,0,0,0,0,.1.1.1.1,0,.2.2.2.3,0,0,0,.1.1.1,0,.1,0,.1.1.1,0,0,0,.1,0,.2,0,0,0,.1,0,.2,0,.2,0,.3.2.4,0,0,0,0,.1.1,0,0,0,0,0,0,0,0,0,0,0,.1,0,0,0,0-.1,0,0,0,0,0,0,0,0,0,0,0,0,0,0,0-.1,0-.1,0,0,0,0,0,0,.1,0,0,.1.1.2.2,0,0-.1,0-.1,0,0,0,0,0,0,.1,0,0,0,0,.1,0,.1,0,.2.1.2.2,0,0,0,0,0,0,0,0-.2,0-.3,0-.5,0-.9.2-1.1.7,0,.1,0,.2-.2.3,0,0-.1.2-.2.3,0,0,0,.1,0,0,0,0,.2,0,.3,0,.1,0,.2,0,.3,0,0,0,.1,0,.2,0,0,0,0,0,0,0,.1,0,.2,0,.4,0,0,0,0,0,0,0,0,0,.2,0,.3,0,0,0,.1,0,.1,0h0c0,0,0,0,0-.1,0,0,0,0-.1-.1.1.1.2,0,.3,0,0,0,.1,0,.2,0,0,.1.2.1.3,0,.1-.1.4,0,.5,0,0,0,0,.1.2.1h0Z"/>
    <path class="cls-20" d="M20.1,14.9c.2.1.4.3.6.3,0,0,.2,0,.2,0,0,0,.2.1.3.2,0,0,0,0,0,0,.2,0,.3.1.5.2,0,0,0,0,0,.1,0,0,.2,0,.3,0,0,0,.1,0,.1,0,0,1.3,0,2.6,0,3.8,0,.3,0,.6,0,.9,0,0,0,0,0,.1-.2.1-.3.6,0,.7,0,0,0,0,0,0,0,.7,0,1.4,0,2.1,0,.2,0,.3,0,.5,0,0,0,0,0,0,0,0,0,0,0,0-.2-.2-.4-.3-.5-.6,0-.1-.2-.2-.3-.3,0,0-.2-.1-.3-.2,0,0,0,0,0,0,0,0-.1-.1-.2-.2-.2-.1-.4-.1-.6,0,0,0,0,0-.1,0,0,0-.2,0-.2-.1-.1,0-.2,0-.3.1,0,0-.2,0-.2,0,0,0,0-.1,0-.1,0,0,0,0,0-.1,0,0,0,0,0,0,0,0,0,0,0,0,0,0,0-.2,0-.3,0,0,0-.1,0-.1,0,0-.1,0-.2-.1,0,0,0-.1-.2-.2,0,0-.1,0-.2-.1,0,0,.2,0,.3,0,0,0-.1,0-.2-.1,0,0,0,0-.1-.1,0,0,0,0,0,0,0,0,0,0,0,0,0,0,0,0,0,0,0,0,0,0,0,0,0,0,0,0,0,0,0,0,.1,0,.1,0,0,0-.1-.1,0-.2,0,0-.1-.1-.2-.2,0,0,0,0,0,0,0,0-.1,0-.1-.2,0-.2,0-.4-.2-.5,0,0,0,0,0,0,0,0,0,0,0,0,0,0,0,0-.1,0,0,0,0,0,0,0-.1,0-.2,0-.1-.2,0-.1,0-.2-.2-.3,0,0-.1,0-.1,0,0-.1-.1-.1-.2-.1,0,0,0,0,0,0-.1,0-.3-.2-.4-.2-.2,0-.4-.2-.6-.2-.1,0-.2-.1-.3,0,0,0,0,0-.1,0,0,0-.1-.1-.2-.1-.2,0-.3,0-.4-.2,0,0,0,0-.1,0-.2,0-.4,0-.5,0,0,0,0,0-.1,0-.2,0-.4,0-.6-.2,0,0,0,0,0,0,0,0,0,0-.1,0,0,0,0-.1-.2-.1,0,0,0,0,0,0,0,0,0,0,0,0,0,0,0,0,0,0,0,0,0,0,0,0,0,0,0,0,0,0,0,0-.1,0-.2,0,0,0,0,0,0,0,0,0,0,0,0,0,0,0,0,0,0,.1,0,0-.2-.1-.3-.2,0,0,.1-.1,0-.2,0,.1-.2,0-.2.1,0,0,0,0,0,0,0,0,0,0,0-.1,0,0,0,0,0,0,0,0-.1-.2-.2-.2q0,.1,0,.2s0-.1-.2,0c0,0,0-.1,0-.2,0,0,0,0,0,0,0,0,0-.1,0-.2,0,0,0,0,0-.1,0-.1,0-.3.1-.4,0,0,0,0,0,0,0,0-.2.2-.2.3,0,0,0,.1,0,.2,0,0-.1.2-.3.1,0,0,.1,0,.1.2,0,0-.2.1-.2.2,0,0,0,0,0,0,.1,0,0,.2,0,.2,0,.1-.2.2-.3.2,0,0-.1,0-.2,0,0,0,0,0-.1,0,0,0-.1-.1-.1-.2,0,0,0,0,0,0,0,0,0,0,0,0,0,0,0-.1,0-.2,0,0,.1,0,.2,0,0,0,0,0,0,0,0,0,0-.1,0-.1-.1,0-.1,0,0-.2,0,0,0,0,0,0,0,0,0,0,0,0,0,0-.2,0-.2,0,0-.2-.1-.2-.2-.3,0,0-.2-.1-.3,0,0,0-.2,0-.3,0,0,0,0-.1,0-.2.2-.1.4-.3.6,0,.1,0,.2,0,.3,0,0,0,.1,0,.2,0h0s0,0,0,0c0,0,.2-.2.2-.2,0-.1.2-.1.3-.1.1,0,.2,0,.3,0,0,0,0,0,0-.1,0,0,.2,0,.2.2,0,0,0,0,.1,0,0,0,0,0,0,0,0,0,.1,0,.2,0,0,0,0-.1,0-.1-.2-.1-.4-.1-.7,0,0,0,0,0,0,0-.1,0-.3,0-.4,0,0,0-.1,0-.2,0,0,0-.1,0-.2,0,0,0-.1,0-.2,0,0,0,0,0-.1,0,0,0,0,0-.1,0,0,0-.2,0-.2,0,0,0-.1-.1-.2,0,0,0,0,0,0,0,0-.1-.2-.3-.2-.4,0,0,0,0,.2-.1-.1,0-.3,0-.2-.2,0,0-.1,0-.2,0,0,0-.1,0-.2,0,0,0-.2,0-.2,0,0,0,0,0,0,0,0,0,0-.1-.1,0,0,0,0,0,0,0,0,0,0,0,0,.1,0,0,0,0-.1,0,0,0,0,0,0,0,0,0-.1,0-.2,0,0,0,0,0,0,0,0,0,0,0,0,0,0,0,0,0,.1-.1,0,0,0,0,0,0,0,0,.1,0,.1-.1,0,0,0-.2,0-.2,0,0,0,0,0,0,0,0,0-.1,0-.1,0,0,.2,0,.2,0,.2,0,.3,0,.5-.1,0,0,0-.1.2-.1.1,0,.2-.2.4-.3,0,0,0,0,.1,0,.2,0,.4,0,.6,0,0,0,.1,0,.2,0,0,0,0,0,0,0,.1,0,.2,0,.3.1.1.1.2.2.4.2.1,0,.2,0,.3,0,0,0,.2,0,.3,0,0,0,.1.1.2.1,0,0,0,0,0,0,0,0,0,0,0,0,0,0,0,0,0,0,0,.1.1.2.2.3,0,0,0,.1,0,.2,0,0,0,0,0,0,0,.1,0,.2-.1.2,0,0,0,0,0,.1,0,.1,0,.2,0,.4-.1.1,0,.3,0,.4,0,.1.1.2.2.3,0,0,0,0,0,0,0,.1,0,.2.1.3,0,0,0,0,0,0,0,0,0,0,0,0,0,0,0,0,0,0,0,0,0-.1,0-.2,0,0,0-.1.2-.1,0,0,.1,0,0,.1,0,.1,0,.3,0,.4,0,0,0,0,0,0,0,0,0,0,0,0,0,0,0,0,0,0,0,.1,0,.3,0,.5,0,0,0,0,0,0,0,0,0,.1,0,.1v.5h1.4c0-.5,0-.9,0-1.3,0,0,0,0,0-.1.2,0,.2-.3.2-.4,0,0,.2-.2.2-.2,0,0,.2,0,.2,0,.1,0,.2,0,.3,0,0,0,0,0,.1,0,0,0,0,0,0,0,0,0,.1,0,.2,0,0,0,0-.1,0-.2-.1,0-.1-.2,0-.2.1,0,.2-.1.4-.2.1,0,.3-.2.4-.2,0,0,.1,0,.2,0,.1.2.4.2.5.3,0,0,.2,0,.3,0,.1,0,.3,0,.3.2,0,0,0,0,.1,0,0,0,.1,0,.2,0,.2.1.4.2.6.3h0Z"/>
    <path class="cls-26" d="M17,18.6c0,0-.2,0-.3,0-.3,0-.6,0-1,0-.3,0-.6,0-.9,0-.6,0-1.2,0-1.8,0-.3,0-.6,0-.9,0-.4,0-.8,0-1.2,0-.3,0-.7,0-1-.1-.4,0-.7-.1-1.1-.2-.4,0-.8-.1-1.2-.2-.4,0-.7-.2-1.1-.3-.3,0-.6-.2-.9-.3-.6-.2-1.2-.4-1.7-.6,0,0,0,0,0,0,0-.3,0-.5-.1-.8,0-.1,0-.2,0-.3,0,0,0,0,0,0,1-.6,1.9-1.2,2.9-1.8.4-.3.9-.5,1.3-.8.2,0,.4,0,.6,0,0,0,.2,0,.3,0,0,0,0,0,0,0,0,0,0,0,0,.1,0,0,0,.2.1.2,0,0,.1.2.3.2,0,.1,0,.2.1.1,0,0,.2,0,.2,0,0,0,0,0,.1,0,0,0,0,0,0-.2,0,0,0,0,0,0,0,0,0,.1.1,0,0,0,.1,0,.2,0,.1,0,.2.1.3.1,0,.1,0,.1.2.1-.1,0,0,.1,0,.2,0,.1.1.2.2.4,0,0,0,0,0,0,0,0,.1,0,.2,0,0,0,.2.1.3,0,0,0,0,0,.1,0,0,0,0,0,0,0,0,0,.1,0,.2,0,0,0,0,0,.1,0,0,0,.1,0,.2,0,.1,0,.3,0,.4,0,0,0,.2,0,.3,0,.1,0,.2,0,.3,0,0,0,0,0,0,0,0,0,0,0,0,0,0,0,0,0,0,0,0,0-.1,0-.1,0,0,0,0,0,0,0-.2-.2-.3-.2-.3,0-.1,0-.3,0-.4,0,0,0-.1,0-.2,0,0,.1-.2.2-.3.4,0,0,0,0,0,0,0,0-.1,0-.2,0,0,0,0,0,0,0-.1,0-.3,0-.4,0,0,0-.1,0-.1,0,0,0-.1,0-.2.1,0,0-.1.2,0,.3,0,0,.2,0,.3,0,0,0,0,0,.1,0,.2,0,.3.2.4.3,0,0,0,0,0,0,0,0,0,.1,0,.2,0,0,.1,0,.2,0,0,0,0,0,0,0,0,0,0,0,0,0,0,0,0,.1,0,.1,0,0,0,0,0,.2,0,0,0,0,0,0-.1,0-.2,0,0,.2,0,0,0,.1,0,.2,0,.1,0,.2.2.3,0,0,.1.1.2,0,0,0,.1,0,.2,0,0,0,.2,0,.2,0,0,0,0-.1.1-.2.1,0,0-.1,0-.2,0,0,0,0,0,0,0,0,.2-.1.2-.2.2.3.2.3.3.2,0,0,0,.1,0,.2,0,0,.1,0,.1,0,0,0,.2,0,.2,0,0,0,0,0,0,0,0,0,0,0,0,0,0,0,.2.1.2.2,0,0,0,0,0,0,0,0,0,0,0,0,0,0,0,.1,0,.2,0,0,.1,0,.2,0,0,0,0,0,0,0,0,0,0,0,0,0,0,0,.1.1.2.1,0,0,.1,0,.2.1.2.1.3.2.6.2,0,0,.1,0,.2,0,.2,0,.3,0,.5,0,0,0,0,0,.1,0,0,0,.2.1.3.2.1,0,.3,0,.4,0,0,0,0,0,.1.1,0,0,.1,0,.2,0,0,0,0,0,.1,0,.1,0,.2,0,.3,0ZM7.7,14.5c0,0,0,0-.1,0,0,0,0,0,0,0,0,0,0,0,0,.1.1,0,.2.1.4.1,0,0,0,0,.1,0,0,0,.1,0,.2,0,0,0,.1,0,.2,0,0,0,.1,0,0-.2,0,0,.1-.1,0-.2,0,0,0,0,0,0,0,0,0,0-.1,0,0,0-.1,0-.2,0-.1,0-.2,0-.3.1h0Z"/>
    <path class="cls-5" d="M22.1,15.5c.4,0,.7.2,1.1.3.6.2,1.2.5,1.8.8.4.2.7.3,1.1.5-.5,2.7-1.9,4.9-4,6.7,0,0,0-.2,0-.2,0-.8,0-1.6,0-2.4,0,0,0-.1,0-.1,0,0-.1-.1-.1-.2,0-.2,0-.4.2-.5,0,0,0,0,0,0,0-.2,0-.4,0-.6,0-1.3,0-2.7,0-4,0,0,0,0,0-.1Z"/>
    <path class="cls-10" d="M3.7,15.5c0-.5,0-1,0-1.5,0-.7.2-1.4.4-2.1,0,0,0,0,.1,0,.8-.2,1.7-.5,2.5-.7.4-.1.7-.2,1.1-.3-.2.2-.3.4-.3.7,0,.5,0,.9,0,1.4,0,0,0,0,0,.1,0,0,0,0,0,0-.9.5-1.7,1.1-2.6,1.6-.4.3-.8.5-1.3.8Z"/>
    <path class="cls-46" d="M4.3,11.5c.2-.5.4-1,.6-1.4.2-.5.5-.9.8-1.3,0,0,0,0,0,0,1.7,0,3.4,0,5.2,0,0,.1,0,.2,0,.3q0,.1.1.1c.4,0,.8,0,1.1,0,0,0,0,0,0,0-.5.1-1,.3-1.5.4-.2,0-.3.1-.5.2,0,0,0,0,0,0-.2,0-.4.1-.6.2,0,0-.1,0-.2,0-1.3.4-2.6.8-4,1.2-.3,0-.7.2-1,.3Z"/>
    <path class="cls-23" d="M25.8,11.9c.1.4.2.8.3,1.2.1.6.2,1.2.2,1.8,0,.2,0,.5,0,.7,0,0,0,0,0,0-.6-.4-1.3-.8-1.9-1.2-.6-.4-1.2-.8-1.8-1.2,0,0,0,0,0-.1,0-.1,0-.2,0-.3,0-.5,0-.9,0-1.4,0,0,0-.1,0-.2,0,0-.1-.2-.2-.2,0,0,0,0,0,0,.6.2,1.3.4,1.9.6.5.1,1,.3,1.5.4Z"/>
    <path class="cls-62" d="M24.4,8.7c.6.9,1,1.8,1.3,2.8-.2,0-.5-.1-.7-.2-1.7-.5-3.4-1-5.1-1.5-.7-.2-1.3-.4-2-.6,0,0,0,0,.1,0,.4,0,.8,0,1.1,0,0,0,0,0,.1,0v-.4c1.7,0,3.3,0,5,0,0,0,0,0,0,0Z"/>
    <path class="cls-37" d="M8.5,5.8c.3-.2.6-.4,1-.6.5-.3,1-.5,1.5-.7.4-.2.8-.3,1.3-.4.1.2.3.4.4.7.5.8.9,1.5,1.4,2.3.1.2.2.4.4.6,0,0,0,.1,0,.2h-.6c-.1,0-.3-.1-.4-.2-1.1-.4-2.1-.8-3.2-1.2-.6-.2-1.1-.4-1.7-.7Z"/>
    <path class="cls-27" d="M21.6,5.8c.3.2.5.4.7.6.3.3.7.6,1,.9.3.3.6.7.9,1.1,0,0-.1,0-.2,0-1.5,0-3.1,0-4.6,0,0-.2,0-.4,0-.5h-2.3c.3-.1.5-.2.8-.4,1-.4,1.9-.8,2.9-1.3.3-.1.5-.2.8-.4Z"/>
    <path class="cls-66" d="M5.9,8.4c.2-.3.5-.6.7-.9.4-.4.8-.8,1.2-1.2.1,0,.2-.2.3-.3.2,0,.4.2.6.2,1.1.4,2.1.8,3.2,1.2.3.1.6.2.9.3-.6,0-1.3,0-1.9,0,0,0,0,0,0,0,0,.2,0,.3,0,.5-1.3,0-2.5,0-3.8,0-.4,0-.8,0-1.2,0Z"/>
    <path class="cls-29" d="M18,4.1c.3,0,.6.2.9.3.7.2,1.3.5,1.9.9.2,0,.3.2.5.3-.3.1-.5.2-.8.4-1.1.5-2.2,1-3.4,1.5-.3.1-.6.2-.9.4-.1,0-.2,0-.4,0v-.2s0,0,0,0c.3-.4.5-.9.8-1.3.4-.7.8-1.4,1.3-2.1Z"/>
    <path class="cls-30" d="M20.1,14.9h0c0,0,0,0-.1,0,0,0-.2,0-.2,0,0,0,.2,0,.2,0,.4,0,.8-.2,1.2-.3.5-.2.9-.3,1.4-.5,0,0,.2,0,.2-.1,0,0,0,0,0,0,0,0,0,0,0,0,0,0,.1,0,.2,0,.3.2.7.4,1,.6.8.5,1.6,1,2.4,1.5,0,.4,0,.8-.2,1.2-.2,0-.3-.1-.5-.2-.4-.2-.8-.4-1.2-.6-.7-.3-1.4-.7-2.2-.8,0,0-.1,0-.2,0,0,0-.1,0-.2,0,0,0,0,0,0,0,0,0,0,0,0-.1-.1,0-.3,0-.4-.1,0,0,0,0,0,0,0,0-.1,0-.2-.1,0,0,0,0,0,0-.1,0-.4,0-.5,0,0,0-.2-.1-.3-.1Z"/>
    <path class="cls-32" d="M12.6,4c.2,0,.4,0,.6-.1.7-.1,1.4-.1,2.1-.1.5,0,1,0,1.6.1.2,0,.5,0,.7.1-.4.6-.7,1.2-1.1,1.8-.2.4-.5.8-.7,1.2,0-.6,0-1.3,0-1.9h-1.4v1.9s0,0,0,0c-.4-.6-.7-1.2-1.1-1.8-.2-.4-.4-.7-.6-1.1Z"/>
    <path class="cls-33" d="M17.9,9.2c.7.2,1.3.4,2,.6,1.7.5,3.4,1,5.1,1.5.2,0,.5.1.7.2,0,.1,0,.3.1.4-.5-.1-1-.3-1.5-.4-.6-.2-1.3-.4-1.9-.6,0,0,0,0,0,0-.1,0-.2-.2-.4-.3-.4-.2-.9-.4-1.4-.5-.9-.3-1.9-.4-2.9-.6-.3-.1-.7-.2-1-.3,0,0,.1,0,.2,0,.4,0,.7,0,1.1,0Z"/>
    <path class="cls-33" d="M12.8,7.8c-.3-.1-.6-.2-.9-.3-1.1-.4-2.1-.8-3.2-1.2-.2,0-.4-.2-.6-.2.1,0,.2-.2.3-.2.6.2,1.1.4,1.7.7,1.1.4,2.1.8,3.2,1.2.1,0,.3,0,.4.2-.3,0-.6,0-1,0Z"/>
    <path class="cls-33" d="M16.2,7.8c.3-.1.6-.3.9-.4,1.1-.5,2.2-1,3.4-1.5.3-.1.5-.2.8-.4.1,0,.2.1.3.2-.3.1-.5.2-.8.4-1,.4-1.9.8-2.9,1.3-.3.1-.5.2-.8.4-.3,0-.6,0-.9,0Z"/>
    <path class="cls-33" d="M5.9,8.4c.4,0,.8,0,1.2,0,1.3,0,2.5,0,3.8,0,0,.1,0,.2,0,.4-1.7,0-3.4,0-5.2,0,0,0,0,0,0,0,0-.1.2-.2.2-.3Z"/>
    <path class="cls-33" d="M19.3,8.4c1.5,0,3.1,0,4.6,0,0,0,.1,0,.2,0,0,.1.2.2.2.3,0,0,0,0,0,0-1.7,0-3.3,0-5,0,0-.1,0-.2,0-.4Z"/>
    <path class="cls-33" d="M3.7,15.5c.4-.3.8-.5,1.3-.8.9-.5,1.7-1.1,2.6-1.6,0,0,0,0,0,0,.1,0,.2.2.3.2-.4.3-.9.5-1.3.8-1,.6-1.9,1.2-2.9,1.8,0,0,0,0,0,0,0-.1,0-.3,0-.4Z"/>
    <path class="cls-33" d="M4.3,11.5c.3,0,.7-.2,1-.3,1.3-.4,2.6-.8,4-1.2,0,0,0,0,.2,0-.2,0-.3.1-.5.2-.4.2-.8.3-1.1.7-.4.1-.7.2-1.1.3-.8.2-1.7.5-2.5.7,0,0,0,0-.1,0,0-.1,0-.3.1-.4Z"/>
    <path class="cls-33" d="M15.8,7c.2-.4.5-.8.7-1.2.4-.6.7-1.2,1.1-1.8.1,0,.2,0,.4,0-.4.7-.8,1.4-1.3,2.1-.3.4-.5.9-.8,1.3,0,0,0,0,0,0,0-.2,0-.4,0-.7Z"/>
    <path class="cls-33" d="M26.2,15.9c-.8-.5-1.6-1-2.4-1.5-.3-.2-.7-.4-1-.6,0,0-.1,0-.2,0,0,0,0,0,0,0-.1,0-.3-.2-.4-.3,0,0,.2,0,.3-.2.6.4,1.2.8,1.8,1.2.6.4,1.3.8,1.9,1.2,0,0,0,0,0,0,0,.1,0,.2,0,.3Z"/>
    <path class="cls-33" d="M12.6,4c.2.4.4.7.6,1.1.4.6.7,1.2,1.1,1.8,0,0,0,0,0,0,0,.2,0,.5,0,.7-.1-.2-.3-.4-.4-.6-.5-.8-.9-1.5-1.4-2.3-.1-.2-.3-.4-.4-.7.1,0,.2,0,.4,0Z"/>
    <path class="cls-33" d="M12.7,2.1c0-.1,0-.3,0-.4.2,0,.4,0,.5,0,.1,0,.2,0,.2.2,0,.1,0,.2-.1.3-.1,0-.3,0-.4,0,0,0-.1,0-.2,0Z"/>
    <path class="cls-33" d="M3.4,9.1c-.1,0-.3-.1-.4-.2,0-.2.2-.3.3-.5,0-.1.2-.1.3,0,.1,0,.2.2,0,.3,0,.2-.2.3-.2.5Z"/>
    <path class="cls-33" d="M3.9,23.1c.2-.1.3-.3.5-.4.2-.1.3-.2.5-.4.1.1.2.2.3.4,0,.1,0,.2,0,.4-.1.2-.3.4-.6.5-.1,0-.2,0-.3,0,0-.1-.2-.2-.3-.3Z"/>
    <path class="cls-3" d="M24.3,23.8c.2,0,.4.2.7.3-.1.1-.2.2-.3.4-.1-.2-.2-.4-.3-.6Z"/>
    <path class="cls-61" d="M13.1,28.4c-.2,0-.3,0-.5,0,.1-.2.2-.4.4-.6,0,.2,0,.5.1.7Z"/>
    <path class="cls-3" d="M19.6,27.1c.1.2.3.3.4.5-.2,0-.3.1-.5.2v-.7s0,0,0,0Z"/>
    <path class="cls-3" d="M9.2,27.1c-.1,0-.3-.2-.4-.2.2-.2.4-.3.5-.5,0,.2,0,.5-.1.7Z"/>
    <path class="cls-3" d="M7.7,3.7c.2.1.4.3.5.4-.1,0-.3.2-.4.3,0-.2,0-.5-.1-.7,0,0,0,0,0,0Z"/>
    <path class="cls-33" d="M21.3,26.7c0-.2-.2-.3-.2-.5.1,0,.3-.1.4-.2.1,0,.2,0,.3.1,0,.1,0,.2,0,.3-.1,0-.3.2-.4.2Z"/>
    <path class="cls-33" d="M17.7,27.5c.1,0,.3,0,.4,0,.1,0,.2,0,.2.2,0,.1,0,.3-.1.3-.1,0-.3,0-.4,0,0,0,0,0,0,0,0-.1,0-.3,0-.5Z"/>
    <path class="cls-53" d="M18.6,23s0,0,0,0c0,0-.1,0-.2,0-.2,0-.4,0-.6,0,0,0,0,0-.1,0,0,0,0-.2,0-.2,0-.1.2-.2.2-.4.1-.3.3-.6.6-.7.2,0,.5-.2.7,0,0,.1.1.2.3.2,0,0,0,0,0,0,0,.1,0,.3-.2.4,0,0,0,0,0,0,0,0,0,0,0,.1,0,.1-.1.2-.2.2,0,0,0,0,0,0,0,.1-.2.2-.3.2,0,0-.1,0-.2,0Z"/>
    <path class="cls-63" d="M18.6,23c0,0,.1,0,.2,0,.1,0,.2-.1.3-.2,0,0,0,0,0,0,.1,0,.2-.1.2-.2,0,0,0,0,0-.1,0,0,0,0,0,0,.2,0,.1-.3.2-.4,0,0,0,0,0,0-.1,0-.2,0-.3-.2,0,0,0,0,0,0,0,0,0,0,0,0,0-.1,0-.2-.2-.2,0,0,0,0-.1,0,0,0,0,0,0-.1,0,0,0,0,.1,0,0,0-.1-.1-.2-.2,0,0-.1,0,0-.1,0,0,0,0,.1,0,0,0,0,0,0,0,0,0,0,0,0,0,0,0,0,0,.1,0,0,0,0,0,0-.1,0,0,0,0,0,0,0,0,0,0-.1-.1,0,0,0,0,0,0,0,0,.1.1.2.2-.1,0,0,.1,0,.2,0,0,0,0-.1,0,0,0,0,0,0,0,0,0,0,0,0,0,0,0,0,0,0,0,0,0,0,0,0,0,0,0,0,0,0,0,0,0,0,0,.1.1,0,0,.1,0,.2.1,0,0-.2,0-.3,0,0,0,.1.1.2.1.1,0,.1,0,.2.2,0,0,0,.1.2.1,0,0,0,0,0,.1,0,0,0,.2,0,.3,0,0,0,0,0,0,0,0,0,0,0,0,0,0,0,.1,0,.1,0,0,0,0,0,.1,0,0,.2,0,.2,0,0,0,.2-.1.3-.1,0,0,.1,0,.2.1,0,0,0,0,.1,0,.2-.1.4-.1.6,0,0,0,.1,0,.2.2,0,0-.1,0-.2-.1-.1-.1-.4-.1-.5,0,0,0-.2,0-.3,0,0,0-.1,0-.2,0,0,0-.2.2-.3,0,0,0,0,.1.1.1,0,0,0,0,0,.1,0,0,0,0,0-.1,0,0,0,0,0,0,0,0,0-.1-.2,0,0,0,0,.1-.1.1,0,0,0,0,0,0,.1,0,.3,0,.4,0,0,0,0,0-.1,0,0,0-.2,0-.3,0,0,0,0,0,0,0-.1,0-.2.1-.4,0Z"/>
    <path class="cls-64" d="M19.3,21.7s0,0,0,0c-.2-.1-.5,0-.7,0-.3.1-.5.4-.6.7,0,.1-.2.2-.2.4,0,0,0,.1,0,.2,0,0,0,0,.1,0,.2,0,.4,0,.6,0,0,0,.1,0,.2,0,0,0-.1,0-.2,0-.1,0-.2,0-.3,0,0,0-.2,0-.3,0,0,0-.1,0,0,0,0-.1.1-.2.2-.3,0,0,.1-.2.2-.3.2-.5.6-.7,1.1-.7,0,0,.2,0,.3,0Z"/>
    <path class="cls-8" d="M17,18.6c0-.1-.2,0-.3,0,0,0,0,0-.1,0,0,0-.1,0-.2,0,0,0,0,0-.1-.1,0,0,0,0,0,0,0,0,0,0,.1,0,.1,0,.2.1.3,0,.2,0,.4.1.6.2.2,0,.3.1.4.2,0,0,0,0,0,0-.2,0-.3-.2-.5-.2,0,0-.1,0-.2,0Z"/>
    <path class="cls-15" d="M18.9,20.4s0,0,0,0c-.1-.1-.2-.3-.2-.4,0,0,0-.2,0-.2,0,0,0,0,0-.2,0,0,0,0,0,0,0,0,0,0,0,0,0,0,0,0,0,0,.1.1.1.3.2.5,0,0,.1,0,.1.2,0,0,0,0,0,0Z"/>
    <path class="cls-57" d="M18.5,19.6s0,0,0,0c0,0-.2,0-.1-.1-.1,0-.1,0-.1-.1,0-.1,0-.2-.2-.3,0,0,0,0,0,0,.1,0,.2.1.2.3,0,.1,0,.1.1.2,0,0,0,0,0,0,0,0,0,0,.1,0Z"/>
    <path class="cls-59" d="M18.1,19.1s0,0,0,0c0,0-.1,0-.1-.1,0,0,0,0,0,0,0,0-.1,0-.2,0,0,0,0,0,0,0,0,0,0,0,0,0,0,0,.2,0,.2.1,0,0,0,0,.1,0Z"/>
    <path class="cls-68" d="M14.4,7.6c0-.2,0-.5,0-.7,0-.6,0-1.2,0-1.9h1.4c0,.6,0,1.3,0,1.9,0,.2,0,.4,0,.7,0,0,0,.1,0,.2.1,0,.2,0,.4,0,.3,0,.6,0,.9,0,.7,0,1.5,0,2.3,0,0,.2,0,.4,0,.5,0,.1,0,.2,0,.4,0,.1,0,.3,0,.4,0,0,0,0-.1,0-.4,0-.8,0-1.1,0,0,0,0,0-.1,0-.4,0-.7,0-1.1,0,0,0-.1,0-.2,0-.1,0-.2,0-.3,0-.2,0-.3,0-.5,0,0,0,0,0,0,.1,0,0,.2,0,.2,0,.2,0,.4,0,.6,0h1.1c1,.2,1.9.4,2.9.7.5.1.9.3,1.4.5.1,0,.3.2.4.3,0,0,.1.1.2.2,0,0,0,.1,0,.2,0,.5,0,.9,0,1.4,0,.1,0,.2,0,.3,0,0,0,0,0,.1,0,0-.2.1-.3.2-.2,0-.5.1-.7.1-.3,0-.5,0-.7-.2,0,0,0,0,0-.2,0-.2,0-.4,0-.6,0,0,0,0,0,0,0,0-.2,0-.2,0-.5-.2-1-.4-1.5-.5-.5-.1-.9-.2-1.4-.3-.4,0-.8,0-1.1-.1-.1,0-.3,0-.4,0,0,0-.1,0-.2,0,0,0,0,0,0,.1,0,.5,0,.9,0,1.4,0,.2,0,.4,0,.6,0,0,0,.1.1.1,0,0,.1,0,.2,0,0,0,0,0,0,0,0,0,0,0,0,0,0,0-.2,0-.3,0v.5c0,0,.1,0,.2,0,0,0,0,0,0,0,0,0,0,0-.2,0v.2s0,0,0,0c0,0,0,0,0,0,0,.2,0,.3,0,.5,0,.1,0,.2,0,.3,0,0,.2-.3.2-.4,0-.1.2-.3.3-.2.1,0,.2,0,.3,0,0,0,0,0,0,0,0,0-.2,0-.2,0,0,0-.2,0-.2.2,0,.1,0,.3-.2.4,0,0,0,0,0,.1,0,.4,0,.8,0,1.2h0c-.5.1-.9.1-1.4.1,0-.2,0-.3,0-.5,0,0,0,0,0,0,0,0,0,0,0-.1,0-1.6,0-3.3,0-4.9,0,0,0,0,0-.1,0,0-.2,0-.3,0-.1,0-.3,0-.4,0-.2,0-.5,0-.7,0-.8,0-1.5.2-2.3.4-.2,0-.5.1-.7.2-.2,0-.4.1-.5.2q-.2,0-.2.2c0,.2,0,.4,0,.5,0,.1,0,.2-.1.2,0,0-.2,0-.2.1,0,0-.1,0-.2,0,0,0-.2,0-.3,0-.2,0-.4,0-.6,0-.1,0-.2-.1-.3-.2,0,0,0,0,0-.1,0-.5,0-.9,0-1.4,0-.3,0-.5.3-.7.3-.3.7-.5,1.1-.7.2,0,.3-.1.5-.2.2,0,.4-.1.6-.2,0,0,0,0,0,0,0,0,0,0,0,0,.9-.2,1.8-.3,2.7-.4.2,0,.5,0,.7,0,.2,0,.4,0,.6,0,0,0,.2,0,.2-.1-.2,0-.4,0-.6,0,0,0-.2,0-.3,0,0,0-.2,0-.3,0-.3,0-.7,0-1,0-.4,0-.8,0-1.1,0q-.1,0-.1-.1c0-.1,0-.2,0-.3,0-.1,0-.2,0-.4,0-.2,0-.3,0-.5,0,0,0,0,0,0,.6,0,1.3,0,1.9,0,.3,0,.6,0,1,0,.2,0,.4,0,.6,0,0,0,0-.1,0-.2ZM11,7.9s0,0,0,.1c0,.3,0,.5,0,.8,0,0,0,.2,0,.3,0,0,0,0,.1,0,1.1,0,2.2,0,3.3,0,0,0,0,0,.1,0,0,0,0,0,0,0,0,2.5,0,5,0,7.5,0,0,0,0,0,0,0,0,0,0,0,0,.3,0,.7,0,1,0,0,0,0,0,0,0v-7.7h3.5s0,0,0,0c0-.4,0-.7,0-1.1,0,0,0,0,0,0,0,0,0,0,0,0-1.1,0-2.3,0-3.4,0,0,0,0,0,0-.1,0-.8,0-1.7,0-2.5h0c0-.1,0-.1,0-.1-.4,0-.7,0-1.1,0,0,0,0,0,0,0,0,0,0,0,0,.1,0,.8,0,1.7,0,2.5,0,0,0,0,0,.1,0,0,0,0-.1,0-1.1,0-2.1,0-3.2,0,0,0,0,0-.1,0ZM21.7,11.8c.3,0,.5,0,.7-.3.1-.1.2-.3,0-.4,0,0-.1-.2-.2-.2-.3-.2-.6-.3-.9-.5-.9-.3-1.9-.5-2.8-.7-.7-.1-1.5-.2-2.2-.2-.2,0-.3,0-.5,0v1.7c1.7,0,3.3.4,4.9,1,0-.2,0-.3,0-.5,0,0,0,0,0,0,0-.2,0-.3.1-.4.3-.2.6-.2.9-.2v.9ZM14.4,9.4s0,0,0,0c-.6,0-1.3,0-1.9.1-.6,0-1.2.1-1.7.3-.8.2-1.6.4-2.3.8-.2.1-.4.3-.5.5,0,.1-.1.3,0,.4.1.2.5.4.8.3v-.9c.1,0,.2,0,.3,0,.2,0,.4,0,.5.2.1,0,.2.2.1.3,0,.2,0,.4,0,.6,1.6-.7,3.3-.9,5-1v-1.7ZM20.8,11.7c0,.4,0,.8,0,1.2,0,0,0,.1,0,.2.3.2.6.2.9.2.2,0,.4,0,.5-.2,0,0,0,0,0-.1,0-.4,0-.8,0-1.2,0,0,0,0,0,0-.5.4-1.1.4-1.6,0ZM7.7,11.7s0,0,0,0c0,.4,0,.8,0,1.2,0,0,0,0,0,.1.2.1.4.2.6.2.3,0,.5,0,.8-.1,0,0,.2-.1.2-.2,0-.4,0-.7,0-1.1,0,0,0,0,0,0-.5.3-1,.4-1.6,0ZM21.5,11.1c-.2,0-.3,0-.5,0-.1,0-.2,0-.3.1,0,0,0,.2,0,.2.2.2.5.3.8.3,0-.3,0-.5,0-.7ZM8.6,11.8c.3,0,.5-.1.6-.3.1-.1,0-.3,0-.4-.2-.1-.4-.1-.6-.2v.8ZM16.1,13.6c0,0-.2,0-.3,0v.2c.1,0,.2,0,.3,0Z"/>
    <path class="cls-69" d="M8.8,13.3c0,0,.1,0,.2,0,0,0,0,0,0,0,0,.1.2,0,.3.1,0,0,0,0,0,0,0,0,0,0,0,.1,0,0,0,0,0,.1,0,0,0,0,0,0,0,0,0,0,0,0,0,0,0,.1-.1.1,0,0,0,0,0,0,0,0,0,0,0,0,0,0,.1,0,.2,0,0,0,0,0,0,0,0,0,0,0,.1,0,0,0,0,0,0-.1,0,0,0,0,0,0,0,0,.1,0,.1,0,0,0,0,0,0,0,0,0,.1,0,.2,0,0,0,.1,0,.2,0,0,0,.1,0,.2,0,0,.2,0,.2.2.2,0,0-.1.1-.2.1,0,.2.1.3.2.4,0,0,0,0,0,0,0,0,.1,0,.2,0,0,0,.2,0,.2,0,0,0,0,0,.1,0,0,0,0,0,.1,0,0,0,.1,0,.2,0,0,0,.1,0,.2,0,0,0,.1,0,.2,0,.1,0,.2,0,.4,0,0,0,0,0,0,0,0,0,0,0,0,0-.1,0-.3,0-.4,0,0,0-.1,0-.2,0,0,0,0,0-.1,0,0,0-.1,0-.2,0,0,0,0,0,0,0,0,0,0,0-.1,0-.1,0-.2,0-.3,0,0,0,0,0-.2,0,0,0,0,0,0,0,0-.1-.2-.2-.2-.4,0,0,0-.1,0-.2-.1,0-.2,0-.2-.1-.1,0-.2,0-.3-.1,0,0-.1,0-.2,0,0,0-.1,0-.1,0,0,0,0,0,0,0,0,0,0,.1,0,.2,0,0,0,0-.1,0,0,0-.1,0-.2,0-.1,0-.2,0-.1-.1-.1,0-.2,0-.3-.2,0,0,0-.2-.1-.2,0,0,0,0,0-.1,0,0,0,0,0,0ZM8.7,13.4c0,0,0,0,0,.1,0,.1,0,.2.2.3,0,0,.2,0,.2,0,0-.1,0-.3.2-.4,0,0,0,0,0,0,0,0,0,0,0,0,0,0-.2,0-.3-.1,0,0,0,0,0,0,0,0-.2,0-.3.1Z"/>
    <path class="cls-24" d="M14,17.6c0,0-.1-.1-.2-.1,0,0,0,0,0,0,0,0,0,0,0,0,0,0-.1,0-.2,0,0,0,0,0,0-.2,0,0,0,0,0,0,0,0,0,0,0,0,0,0-.2-.1-.2-.2,0,0,0,0,0,0,0,0,0,0,0,0,0,0-.2,0-.2,0,0,0-.1,0-.1,0,0,0,0-.1,0-.2-.1,0-.1,0-.3-.2,0,0-.2.1-.2.2,0,0,0,0,0,0,0,0,0,.1,0,.2,0,0,0,.1-.1.2,0,0-.1,0-.2,0,0,0-.1,0-.2,0,0,0-.1,0-.2,0,0,0-.1-.2-.2-.3,0,0,0,0,0,0,0,0,0,0,0,0,0,.1,0,.2.1.2,0,0,0,0,.1,0,0,0,.1,0,.2,0,.1,0,.3,0,.3-.2,0,0,.1-.1,0-.2,0,0,0,0,0,0,0,0,.2-.1.2-.2,0,0,0,0-.1-.2.2,0,.2,0,.3-.1,0,0,0,0,0,0,0,0,0,.1,0,.2,0,0,0,0,0,0,0,0,0,.1,0,.2,0,0,.1,0,.2,0q0,0,0-.2c0,0,.1.2.2.2,0,0,0,0,0,0,0,0,0,0,0,.1,0,0,0,0,0,0,0,0,.2,0,.2-.1.1,0,0,.1,0,.2,0,0,.2.1.3.2,0,0,0,0,0-.1,0,0,0,0,0,0,0,0,0,0,0,0,0,.1,0,.1.2,0,0,0,0,0,0,0,0,0,0,0,0,0,0,0,0,0,0,0,0,0,0,0,0,0,0,0,0,0,0,0,0,0,.1,0,.2.1,0,0,0,0,0,0Z"/>
    <path class="cls-17" d="M14.3,16.3s0,0,0,0c0,0-.1,0,0-.1,0,0,0,0,0,0-.1-.1,0-.3,0-.5,0,0,0,0,0,0,0,0,0,0,0,0,0,0,0,0,0,0,0-.1,0-.3,0-.4,0,0,0-.1,0-.1,0,0-.2,0-.2.1,0,0,0,.1,0,.2,0,0,0,0,0,0,0,0,0,0,0,0,0,0,0,0,0,0,0-.1,0-.2-.1-.3,0,0,0,0,0,0,0,0-.2-.2-.2-.3,0-.1-.1-.2,0-.4,0,0,0,0,0,0,0,.1,0,.2,0,.3,0,0,0,.2.2.3,0,0,0,0,0,.1,0,.1,0,.2.2.4,0,0,0,0,0,0,0,0,0-.2,0-.2,0,0,0-.1,0-.2,0,0,.1,0,.2,0,0,0,0,0,0,.1,0,0,0,.2,0,.2,0,0,0,.2,0,.3,0,0,0,0,0,0,0,0,0,0,0,0,0,0,0,0,0,0,0,.1,0,.2,0,.3.1,0,0,0,.1.1Z"/>
    <path class="cls-22" d="M12.2,15s0,0,0,0c.2,0,.5,0,.7,0,0,0,0,0,0,.1,0,0-.1,0-.2,0,0,0,0,0,0,0,0,0-.1,0-.1,0,0,0-.1-.1-.2-.2,0,0,0,0,0,.1,0-.1-.2,0-.3,0-.1,0-.2,0-.3.1,0,0-.1.2-.2.2,0,0,0,0,0,0,0-.1.2-.2.3-.4,0,0,.1,0,.2,0,.1,0,.3,0,.4,0,0-.1,0,0,.3,0,0,0,0,0,0,0,0,0,0,0,.1,0,0,0,0,0,0,0,0,0,0,0,0,0,0,0,0,0,0,0-.1,0-.2,0-.3,0,0,0-.2,0-.3,0Z"/>
    <path class="cls-58" d="M14,17.6s0,0,0,0c0,0,0,0,.1,0,0,0,0,0,0,0,.2.2.4.3.6.2,0,0,0,0,.1,0,.2,0,.4,0,.5,0,0,0,.1,0,.1,0,.1.1.3.2.4.2,0,0,.2,0,.2.1,0,0,0,0,0,0-.1-.1-.2,0-.4,0-.1,0-.2,0-.3-.2,0,0,0,0-.1,0-.2,0-.3,0-.5,0,0,0-.1,0-.2,0-.2,0-.4,0-.6-.2,0,0-.2,0-.2-.1Z"/>
    <path class="cls-6" d="M19.8,14.7c0,0,.1,0,.2,0,0,0,.1,0,.1,0-.2,0-.4-.2-.6-.3,0,0-.1,0-.2,0,0,0-.1,0-.1,0,0-.1-.2-.2-.3-.2,0,0-.2,0-.3,0-.2,0-.4-.1-.5-.3,0,0-.1,0-.2,0-.1,0-.3.1-.4.2,0,0,0,0,0,0,0,0,0,0,0,0,.1,0,.2-.1.4-.2,0,0,.1,0,.2,0,.1,0,.2.2.4.2,0,0,0,0,0,0,.1,0,.2.1.4.1.1,0,.3,0,.3.2,0,0,0,0,.1,0,0,0,.2,0,.2,0,0,0,.1,0,.2,0Z"/>
    <path class="cls-40" d="M11.5,17.1s0,0,0,0c0,0,0-.1,0-.2,0-.1,0-.2,0-.2,0,0,0,0,0,0,0-.1,0-.1,0-.2,0,0,0,0,0-.1,0,0,0,0,0,0,0,0,0,0,0,0,0,0-.1,0-.2,0,0,0-.1,0,0-.2,0,0,0,0,0,0-.1-.1-.2-.3-.4-.3,0,0,0,0-.1,0,0,0-.2,0-.3,0,0,0,0,0,0,0,0,0,.2,0,.3,0,.1,0,.2,0,.3,0,0,0,.2.2.2.3,0,.1.1.1.2,0,0,0,0,0,0,0,0,0,0,0,0,0,0,0,0,.1,0,.2,0,0,0,0,0,.1,0,0,0,0,0,0,0,0-.1,0-.2,0,0,0,0,.1,0,.2,0,0,0,0,0,0Z"/>
    <path class="cls-51" d="M9.3,13.7s0,0,0,0c0,0,0,0,.1-.1,0,0,0-.2,0-.2,0,0,0,0,0-.1,0,0,0-.1,0-.1,0,0,.2,0,.3,0,.2,0,.4,0,.6-.2.1-.1.2-.2.4-.3,0,0,0,0,0,0-.1,0-.2.2-.4.3,0,0,0,.1-.2.1-.1,0-.3.1-.5.1,0,0-.2,0-.2,0,0,0,0,0,0,.1,0,0,0,0,0,0,0,0,0,.2,0,.2,0,0,0,.1-.1.1Z"/>
    <path class="cls-50" d="M17.5,14.2s0,0,0,0c-.1,0-.2.1-.4.2-.1,0-.1.1,0,.2,0,0,0,0,0,.2,0,0-.1,0-.2,0,0,0,0,0,0,0,0,0,0,0-.1,0,0,0-.2.1-.3,0,0,0,0,0,0,0,0,0,0,0,.1,0,0,0,0,0,0,0,0,0,.2-.1.3,0,0,0,0,0,.1,0,0,0,0,0,0,0,0,0,0,0-.1-.1,0,0,0-.1,0-.2,0,0,.1,0,.2,0,0,0,.2-.1.3-.1Z"/>
    <path class="cls-45" d="M13.4,13.9c0,0,0-.1,0-.2,0,0-.1-.2-.2-.3,0,0,0,0,0,0,0,0,0,0,0,0,0,0,0,0,0,0,0,0-.1,0-.2-.1,0,0-.2,0-.3,0-.1,0-.2,0-.3,0,0,0,0,0,0,0,.1,0,.3,0,.4,0,0,0,.2,0,.2.1,0,0,0,0,0,0,0,0,0,0,0,0,0,0-.1,0-.2,0,0,0,0,0,0,0,0,.1.1.2.2.3,0,0,.1.1,0,.2,0,0,0,0,0,0Z"/>
    <path class="cls-12" d="M10.5,15.9s0,0,0,0c0,0,0-.2,0-.3,0,0,.1,0,.2-.1,0,0,0,0,.1,0,.1,0,.3,0,.4,0,0,0,0,0,0,0,0,.1.1.1.2,0,0,0-.1,0-.2,0,0,0-.2-.1-.3,0-.2-.2-.4,0-.6,0,0,0,0,.1,0,.2Z"/>
    <path class="cls-47" d="M10.8,12.6s0,0,0,0c0,0,.2,0,.3,0,.2,0,.4,0,.6.1,0,0,0,0,0,0-.2-.1-.4-.1-.6,0,0,0,0,0-.1,0Z"/>
    <path class="cls-13" d="M11.5,12.7s0,0,0,0c0,0,0,0,.1,0,0,0,0,0,.1,0,0,0,.2,0,.3.1.1.1.3.2.5.2,0,0,0,0,0,0-.2,0-.3,0-.4-.2,0,0-.2-.1-.3-.1,0,0,0,0,0,0,0,0-.1,0-.2,0Z"/>
    <path class="cls-52" d="M13.2,14.7s0,0,0,0c0-.1,0-.2,0-.4,0,0,0,0,0-.1,0,0,.1-.1.1-.2,0,0,0,0,0,0,0,0,0,0,0,0,0,0,0,0,0,.1,0,0,0,.1,0,.2,0,0,0,0,0,.1,0,.1,0,.2,0,.3,0,0,0,0,0,0Z"/>
    <path class="cls-41" d="M12.7,16.4s0,0,0,0c0,0,0-.1,0-.2,0-.1,0-.2.2-.3,0,0,0,0,0,0-.1,0-.1.2-.1.4,0,0,0,0,0,.1Z"/>
    <path class="cls-55" d="M7.7,14.5c0,0,.2-.1.3-.1,0,0,.1,0,.2,0,0,0,.1,0,.1,0,0,0,0,0,0,0,0,0,0,.1,0,.2,0,0,0,.1,0,.2,0,0-.1,0-.2,0,0,0-.1,0-.2,0,0,0,0,0-.1,0-.1,0-.3,0-.4-.1,0,0,0,0,0-.1,0,0,0,0,0,0,0,0,0,0,.1,0,0,0,0,0-.1,0,0,0,0,0,0,0,0,0,0,0,0,0,.1,0,.2.1.4,0,0,0,0,0,.1,0,0,0,0,0,.1,0,0,0,.1,0,.2,0,0,0,0,0,0,0,0,0,0-.1,0-.1,0,0,0,0,0,0,0,0,0-.1-.1-.2,0,0,0,0-.1,0,0,0,0,0,0,0-.1,0-.2,0-.3,0,0,0,0,0,0,0Z"/>
    <path class="cls-14" d="M12.2,9.2c.3,0,.7,0,1,0,0,0,.2,0,.3,0-.2,0-.4.1-.6.2-.9,0-1.8.2-2.7.4,0,0,0,0,0,0,.2,0,.3-.1.5-.2.5-.1,1-.3,1.5-.4,0,0,0,0,0,0Z"/>
    <path class="cls-19" d="M19.8,14.7c0,0-.1,0-.2,0,0,0-.1,0-.2,0,0,0-.1,0-.1,0,0-.2-.2-.2-.3-.2-.1,0-.3,0-.4-.1,0,0,0,0,0,0-.2,0-.3-.1-.4-.2,0,0-.1,0-.2,0-.1,0-.2.1-.4.2-.4-.9-.8-1.9-1.2-2.8.4,0,.8,0,1.1.1.5,0,1,.2,1.4.3.5.1,1,.3,1.5.5,0,0,.2.1.3.2,0,.2,0,.4,0,.6,0,0,0,.1,0,.2.2.2.4.2.7.2.2,0,.5,0,.7-.1.1,0,.3.2.4.3,0,0,0,0,0,0,0,0,0,0,0,0,0,0,0,0,0,0,0,0-.1,0-.2.1-.5.2-.9.3-1.4.5-.4.1-.8.3-1.2.3,0,0-.2,0-.2,0Z"/>
    <path class="cls-21" d="M16.3,9.2c.1,0,.2,0,.3,0,.3.1.7.2,1,.3-.4,0-.7,0-1.1-.1,0,0-.2-.1-.3-.2Z"/>
    <path class="cls-36" d="M19.4,22.9c-.1,0-.3,0-.4,0,0,0,0,0,0,0,0,0,.1,0,.1-.1,0,0,.1,0,.2,0,0,0,0,0,0,0,0,0,0,0,0,.1,0,0,0,0,0,0Z"/>
    <path class="cls-35" d="M14.5,9.1s0,0-.1,0c-1.1,0-2.2,0-3.3,0,0,0,0,0-.1,0,0,0,0-.2,0-.3,0-.3,0-.5,0-.8,0,0,0,0,0-.1h3.5s0,0,0,0c0-.9,0-1.8,0-2.7,0,0,0,0,0,0,.4,0,.7,0,1.1,0,0,0,0,0,0,0h0c0,.9,0,1.8,0,2.6,0,0,0,0,0,.1,0,0,0,0,0,0,.5,0,1,0,1.5,0,.6,0,1.3,0,1.9,0,0,0,0,0,0,0,0,.4,0,.7,0,1.1,0,0,0,0,0,0h-3.5v7.7s0,0,0,0c-.3,0-.7,0-1,0,0,0,0,0,0,0,0,0,0,0,0,0,0-2.5,0-5,0-7.6,0,0,0,0,0,0Z"/>
    <path class="cls-67" d="M21.7,11.8v-.9c-.3,0-.6,0-.9.2-.2,0-.2.2-.1.4,0,0,0,0,0,0,0,.2,0,.3,0,.5-1.6-.7-3.2-.9-4.9-1v-1.7c.2,0,.3,0,.5,0,.7,0,1.5.1,2.2.2,1,.2,1.9.4,2.8.7.3.1.6.3.9.5,0,0,.2.1.2.2,0,.2,0,.3,0,.4-.2.2-.4.3-.7.3ZM19.7,10.8c-.1,0-.2,0-.2.2,0,.1,0,.2.2.2.1,0,.2,0,.3,0,0,0,0-.1,0-.2,0,0,0-.1,0-.2.1,0,.2-.2.1-.3,0-.1-.2-.2-.3,0-.1,0-.1.2,0,.3ZM17.3,10.6c0,.2.1.3.3.3.1,0,.3-.2.2-.3,0,0,0-.1-.1-.2,0,0-.2,0-.3,0,0,0,0,0,0-.1,0,0,0-.1.2,0,0,0,.1,0,.2,0,0,0,0,0,0,0,0,0-.2,0-.3,0,0,0,0,0,0,0,0,.1,0,.3-.1.4,0,0,0,0,.1,0,0,0,.1,0,.2,0,0,0,0,.1,0,.2,0,0,0,.2-.1.2,0,0-.2,0-.2,0,0,0,0,0,0,0h0ZM18.7,10.5s0,0,0,.1c0,0,0,0,0,0,0,0,0,0,0-.1,0,0,0,0-.1,0ZM18.6,11s0,0,0,0c0,0,0,0,0,0,0,0,0,0,0,0,0,0,0,0,0,.1Z"/>
    <path class="cls-67" d="M14.4,9.4v1.7c-1.7,0-3.4.3-5,1,0-.2,0-.4,0-.6,0-.1,0-.3-.1-.3-.1-.1-.3-.1-.5-.2,0,0-.2,0-.3,0v.9c-.3,0-.6,0-.8-.3,0-.2,0-.3,0-.4.1-.2.3-.3.5-.5.7-.4,1.5-.6,2.3-.8.6-.1,1.1-.2,1.7-.3.6,0,1.3-.1,1.9-.1,0,0,0,0,0,0ZM9.7,10.7c.2,0,.3,0,.5-.1,0,0,0,0,0,0-.2,0-.4,0-.6.1,0,.3.1.5.2.8.2,0,.4,0,.6-.1,0,0,0,0,0,0-.2,0-.3,0-.5.1,0,0,0-.2,0-.3.1,0,.3,0,.4-.1,0,0,0,0,0,0-.1,0-.3,0-.4.1,0,0,0-.2,0-.2ZM11.2,10.7c.2,0,.3,0,.5,0,0,0,0,0,0,0-.1,0-.3,0-.4,0,0,0,0-.2,0-.3.2,0,.3,0,.5,0,0,0,0,0,0,0-.2,0-.4,0-.6.1,0,.3.1.5.1.8.2,0,.4,0,.6-.1,0,0,0,0,0,0-.2,0-.3,0-.5,0,0,0,0-.2,0-.3ZM14,10.1c0-.2-.1-.2-.4-.2-.1,0-.2,0-.2.2,0,.1,0,.2.2.2,0,0,.2,0,.3,0,.1,0,.1.1,0,.2,0,.1-.3,0-.4,0,0,0,0,0,0,0,0,0,0,0,0,.1,0,0,0,0,0,0,.1,0,.2.1.4,0,.1,0,.2-.1.2-.2,0-.1,0-.2-.2-.2,0,0-.2,0-.3,0,0,0,0-.1,0-.2,0,0,.3,0,.3,0,0,0,0,0,.1,0ZM12.4,10.3c0,0,0-.1-.2-.2-.1,0-.2,0-.3,0,0,0-.1.1-.1.2,0,0,0,.1.2.1,0,0,.2,0,.3,0,0,0,.1,0,.1.1,0,0,0,.1-.1.1-.1,0-.3,0-.4-.1,0,0,0,0,0,0,0,.2.2.2.4.2.1,0,.2-.2.2-.3,0-.1-.1-.2-.2-.2,0,0-.1,0-.2,0,0,0,0,0-.1,0,0,0,0,0,0-.1,0,0,.3,0,.3,0,0,0,0,0,.1,0ZM12.5,10.1c0,.2,0,.4,0,.5,0,.2.1.2.3.2.2,0,.3-.1.3-.3,0-.2,0-.4,0-.6,0,0,0,0-.1,0,0,.2,0,.3,0,.5,0,.2,0,.3-.3.3-.1,0-.2,0-.2-.2,0-.1,0-.3,0-.4,0,0,0,0,0,0,0,0,0,0,0,0ZM10.4,10.5c.1,0,.3,0,.4,0,0,0,0,0,0,0-.2,0-.3,0-.5.1,0,.3.1.5.2.8,0,0,0,0,0,0,0-.1,0-.2,0-.3.1,0,.2,0,.4,0,0,0,0,0,0,0-.1,0-.2,0-.3,0,0,0,0-.2,0-.2Z"/>
    <path class="cls-34" d="M12.5,13c-.2,0-.3,0-.5-.2,0,0-.2-.1-.3-.1,0,0,0,0-.1,0,0,0,0,0-.1,0-.2-.1-.4-.1-.6-.1,0,0-.2,0-.3,0-.2,0-.3.2-.4.3-.2.2-.4.2-.6.2,0,0-.2,0-.3,0,0,0-.1,0,0,.1,0,0,0,0,0,.1,0,0,0,.2,0,.2,0,0,0,0-.1.1,0,0,0-.1,0-.1,0,0,0,0,0-.1,0,0,0,0,0,0,0,0-.2,0-.3-.1,0,0,0,0,0,0,0,0,.2,0,.2-.1,0,0,.1-.1.1-.2,0-.2,0-.3,0-.5.2-.1.5-.3.7-.4.2,0,.4-.2.7-.2.7-.2,1.5-.3,2.3-.4.2,0,.5,0,.7,0,0,.2-.2.4-.3.6-.2.4-.3.8-.5,1.2-.1,0-.3,0-.4,0Z"/>
    <path class="cls-34" d="M13.2,14.7s0,0,0,0c0-.1,0-.2,0-.3,0,0,0,0,0-.1,0,0,0-.1,0-.2,0,0,0,0,0-.1,0-.1,0-.2,0-.2,0,0-.1-.2-.2-.3,0,0,0,0,0,0,0,0,.1,0,.2,0,0,0,0,0,0,0,0-.1.1-.2.2-.4.2-.5.5-1,.7-1.6,0,0,.2,0,.3,0,0,0,0,0,0,.1,0,1.6,0,3.3,0,4.9,0,0,0,.1,0,.1,0,0,0-.2-.1-.1-.1-.1,0-.2,0-.3,0,0,0,0,0,0,0,0,0,0,0,0,0,0,0,0,0,0,0,0,0-.2,0-.3,0,0,0-.2,0-.2,0,0,0-.1,0-.1,0,0-.1,0-.2,0,0,0-.1.1,0,.2,0,0,0,.2,0,.2,0,0,0,0,0,0,0-.1-.1-.2-.2-.4,0,0,0,0,0-.1,0,0-.2-.2-.2-.3,0-.1-.1-.2,0-.3ZM14.2,13.6s0,0,0,0c0,0,0-.1,0-.2,0,0,0-.1-.2,0,0,0-.1,0-.1.1,0,0,.1.2.2.2Z"/>
    <path class="cls-44" d="M17.2,14.3c0,0-.1,0-.2,0,0,0,0,.1,0,.2,0,0,0,0,.1.1,0,0,0,0,0,0,0,0,0,0-.1,0-.1,0-.2,0-.3,0,0,0,0,0,0,0,0,0,0,0-.1,0,0,0-.2,0-.3,0-.1,0-.3,0-.3.2,0,.1-.1.3-.2.4,0-.1,0-.2,0-.3,0-.2,0-.3,0-.5,0,0,0,0,0,0,.1,0,.3,0,.4,0,0,0,0,0,.1,0,.1,0,.2,0,.4,0,0,0,0,0,0,0,0,0,0,0,0,0-.2,0-.3,0-.5,0,0,0-.2,0-.2,0,0,0-.1,0-.2,0v-.5c0,0,.2,0,.3,0,0,0,0,0,0,0,0,0,0,0,0,0,0,0,0,0-.2,0,0,0-.1,0-.1-.1,0-.2,0-.4,0-.6,0-.5,0-.9,0-1.4,0,0,0,0,0-.1,0,0,.1,0,.2,0,0,0,0,0,0,0,.2.4.3.7.5,1.1.3.6.5,1.2.8,1.8Z"/>
    <path class="cls-67" d="M20.8,11.7c.6.3,1.1.3,1.6,0,0,0,0,0,0,0,0,.4,0,.8,0,1.2,0,0,0,.1,0,.1-.2.1-.3.2-.5.2-.3,0-.6,0-.9-.2,0,0-.1,0,0-.2,0-.4,0-.8,0-1.2Z"/>
    <path class="cls-67" d="M7.7,11.7c.5.4,1,.3,1.6,0,0,0,0,0,0,0,0,.4,0,.7,0,1.1,0,.1,0,.2-.2.2-.2.1-.5.2-.8.1-.2,0-.4,0-.6-.2,0,0,0,0,0-.1,0-.4,0-.8,0-1.2,0,0,0,0,0,0Z"/>
    <path class="cls-33" d="M17.2,14.3c-.3-.6-.5-1.2-.8-1.8-.2-.4-.3-.7-.5-1.1,0,0,0,0,0,0,.1,0,.3,0,.4,0,.4.9.8,1.9,1.2,2.8,0,0,0,0,0,0-.1,0-.2,0-.3.1Z"/>
    <path class="cls-33" d="M14.1,11.2c-.2.5-.5,1-.7,1.6,0,.1-.1.2-.2.4,0,0,0,0,0,0,0,0-.1-.1-.2-.1.2-.4.3-.8.5-1.2,0-.2.2-.4.3-.6.1,0,.3,0,.4,0Z"/>
    <path class="cls-18" d="M21.5,11.1c0,.2,0,.5,0,.7-.3,0-.6,0-.8-.3,0,0,0-.2,0-.2,0,0,.2-.1.3-.1.2,0,.3,0,.5,0Z"/>
    <path class="cls-18" d="M8.6,11.8v-.8c.2,0,.4,0,.6.2.1,0,.2.2,0,.4-.2.2-.4.3-.6.3Z"/>
    <path class="cls-11" d="M15.8,14.5v-.2c0,0,.1,0,.2,0,0,0,0,0,.1,0,0,0,.1,0,.2,0,.1,0,.2,0,.4,0,0,0,0,0,.1,0,0,0,0,0,0,0-.2,0-.4,0-.5.1,0,0,0,0,0,0-.1,0-.2,0-.4,0Z"/>
    <path class="cls-6" d="M14.5,9.1s0,0,0,0c0,2.5,0,5,0,7.6,0,0,0,0,0,0,0,0,0,0,0,0,0-2.5,0-5,0-7.5,0,0,0,0,0,0Z"/>
    <path class="cls-16" d="M14.5,5.2c0,.9,0,1.8,0,2.7,0,0,0,0,0,0h-3.5s0,0,.1,0c1.1,0,2.1,0,3.2,0,0,0,0,0,.1,0,0,0,0,0,0-.1,0-.8,0-1.7,0-2.5,0,0,0,0,0-.1Z"/>
    <path class="cls-65" d="M13.7,9.2c.2,0,.4,0,.6,0,0,0-.1.1-.2.1-.2,0-.4,0-.6,0,0,0,.1,0,.2-.2Z"/>
    <path class="cls-28" d="M16.3,9.2c0,0,.2.1.3.2-.2,0-.4,0-.6,0,0,0-.2-.1-.2-.2.2,0,.3,0,.5,0Z"/>
    <path class="cls-4" d="M13.7,9.2c0,0-.2,0-.2.2-.2,0-.5,0-.7,0,.2,0,.4-.1.6-.2,0,0,.2,0,.3,0Z"/>
    <path class="cls-60" d="M10.1,11.9c-.2.2-.5.3-.7.4q0-.2.2-.2c.2,0,.3-.2.5-.2Z"/>
    <path class="cls-56" d="M19.2,7.9c-.6,0-1.3,0-1.9,0-.5,0-1,0-1.5,0,0,0,0,0,0,0,1.1,0,2.3,0,3.4,0,0,0,0,0,0,0Z"/>
    <path class="cls-48" d="M15.8,14.5c.1,0,.2,0,.4,0,0,0,0,0,0,0,.2,0,.3,0,.5-.1,0,0,0,0,0,0,0,0,0,0-.1,0-.1,0-.2,0-.4,0,0,0-.1,0-.2,0,0,0-.1,0-.1,0,0,0,0,0,0,0,0,0,.1,0,.2,0,.2,0,.4,0,.5,0,0,0,0,0,0,0,0,0,0,0,0,0-.1,0-.2,0-.4,0,0,0,0,0-.1,0-.1,0-.3,0-.4,0,0,0,0,0,0,0Z"/>
    <path class="cls-31" d="M16.1,13.6c0,0-.2.1-.3,0v-.2c0,0,.2,0,.3,0Z"/>
    <path class="cls-38" d="M15.8,9.2c0,0,.2.1.2.2,0,0-.2,0-.2,0,0,0,0,0,0-.1Z"/>
    <path class="cls-25" d="M20.7,12.3c-.1,0-.2-.1-.3-.2,0,0,.2,0,.2,0,0,0,0,0,0,0Z"/>
    <path class="cls-20" d="M8.7,13.4c0,0,.2,0,.3-.1,0,0,0,0,0,0,0,.1.2,0,.3.1,0,0,0,0,0,0,0,0,0,0,0,0-.1,0-.1.3-.2.4,0,0-.1,0-.2,0,0,0-.2-.2-.2-.3,0,0,0,0,0-.1Z"/>
    <path class="cls-20" d="M7.7,14.5s0,0,0,0c.1,0,.2,0,.3,0,0,0,0,0,0,0,0,0,0,0,.1,0,0,0,.1.1.1.2,0,0,0,0,0,0,0,0,0,0,0,.1,0,0,0,0,0,0,0,0-.1,0-.2,0,0,0,0,0-.1,0,0,0,0,0-.1,0-.1,0-.2,0-.4,0,0,0,0,0,0,0,0,0,0,0,0,0,0,0,0,0,.1,0,0,0,0,0,0,0Z"/>
    <path class="cls-39" d="M19.7,10.8c-.1-.1,0-.2,0-.3,0,0,.3,0,.3,0,0,.1,0,.2-.1.3,0,0,0,0,0,.2,0,0,0,.1,0,.2,0,0-.2.1-.3,0-.1,0-.2-.1-.2-.2,0-.1,0-.2.2-.2ZM19.9,11.1c0-.1,0-.2-.2-.2,0,0-.2,0-.2.2s0,.2.2.2c0,0,.2,0,.2-.2ZM20,10.7c0,0,0-.1-.1-.1,0,0-.1,0-.1.1,0,0,0,.1.1.1,0,0,.1,0,.1-.1Z"/>
    <path class="cls-39" d="M17.3,10.6h0s0,0,0,0c0,0,.1.1.2,0,0,0,.1-.1.1-.2,0,0,0-.1,0-.2,0,0-.1,0-.2,0,0,0,0,0-.1,0,0-.1,0-.3.1-.4,0,0,0,0,0,0,0,0,.2,0,.3,0,0,0,0,0,0,0,0,0-.1,0-.2,0,0,0-.1,0-.2,0,0,0,0,0,0,.1.1,0,.2,0,.3,0,0,0,.1.1.1.2,0,.2-.1.3-.2.3-.2,0-.3,0-.3-.3Z"/>
    <path class="cls-1" d="M18.7,10.5s0,0,.1,0c0,0,0,0,0,.1,0,0,0,0,0,0,0,0,0,0,0-.1Z"/>
    <path class="cls-54" d="M18.6,11s0,0,0-.1c0,0,0,0,0,0,0,0,0,0,0,0,0,0,0,0,0,0Z"/>
    <path class="cls-39" d="M9.7,10.7c0,0,0,.2,0,.2.1,0,.3,0,.4-.1,0,0,0,0,0,0-.1,0-.3,0-.4.1,0,0,0,.2,0,.3.2,0,.3,0,.5-.1,0,0,0,0,0,0-.2,0-.4,0-.6.1,0-.3-.1-.5-.2-.8.2,0,.4,0,.6-.1,0,0,0,0,0,0-.2,0-.3,0-.5.1Z"/>
    <path class="cls-39" d="M11.2,10.7c0,0,0,.2,0,.3.2,0,.3,0,.5,0,0,0,0,0,0,0-.2,0-.4,0-.6.1,0-.3,0-.5-.1-.8.2,0,.4,0,.6-.1,0,0,0,0,0,0-.2,0-.3,0-.5,0,0,0,0,.2,0,.3.2,0,.3,0,.4,0,0,0,0,0,0,0-.2,0-.3,0-.5,0Z"/>
    <path class="cls-39" d="M14,10.1s0,0-.1,0c0-.1-.3-.1-.3,0,0,0,0,.1,0,.2,0,0,.2,0,.3,0,.1,0,.2,0,.2.2,0,.1,0,.2-.2.2-.1,0-.3,0-.4,0,0,0,0,0,0,0,0,0,0,0,0-.1,0,0,0,0,0,0,0,.1.3.1.4,0,0,0,0-.2,0-.2,0,0-.2,0-.3,0-.1,0-.2-.1-.2-.2,0-.1,0-.2.2-.2.2,0,.3,0,.4.2Z"/>
    <path class="cls-39" d="M12.4,10.3s0,0-.1,0c0,0-.2-.1-.3,0,0,0,0,0,0,.1,0,0,0,0,.1,0,0,0,.1,0,.2,0,.1,0,.2,0,.2.2,0,.1,0,.2-.2.3-.2,0-.4,0-.4-.2,0,0,0,0,0,0,0,.2.2.2.4.1,0,0,.1,0,.1-.1,0,0,0-.1-.1-.1,0,0-.2,0-.3,0,0,0-.2,0-.2-.1,0,0,0-.2.1-.2,0,0,.2,0,.3,0,0,0,.1,0,.2.2Z"/>
    <path class="cls-39" d="M12.5,10.1s0,0,0,0c0,0,0,0,0,0,0,.1,0,.3,0,.4,0,.2,0,.2.2.2.2,0,.3,0,.3-.3,0-.2,0-.3,0-.5,0,0,0,0,.1,0,0,.2,0,.4,0,.6,0,.2,0,.3-.3.3-.2,0-.3,0-.3-.2,0-.2,0-.4,0-.5Z"/>
    <path class="cls-39" d="M10.4,10.5c0,0,0,.2,0,.2.1,0,.2,0,.3,0,0,0,0,0,0,0-.1,0-.2,0-.4,0,0,.1,0,.2,0,.3,0,0,0,0,0,0,0-.3-.1-.5-.2-.8.2,0,.3,0,.5-.1,0,0,0,0,0,0-.1,0-.3,0-.4,0Z"/>
    <path class="cls-49" d="M14.2,13.6c0,0-.2-.1-.2-.2,0,0,0-.1.1-.1,0,0,.1,0,.2,0,0,0,0,.1,0,.2,0,0,0,0,0,0ZM14.2,13.5c0,0,0,0,0-.1,0,0,0,0,0-.1,0,0-.1,0-.1,0,0,0,0,.1,0,.2,0,0,0,0,.1,0,0,0,0,0,0-.2,0,0,0,0,0,0Z"/>
    <path class="cls-7" d="M19.9,11.1c0,0,0,.2-.2.2,0,0-.2,0-.2-.2s0-.2.2-.2c.1,0,.2,0,.2.2Z"/>
    <path class="cls-9" d="M20,10.7c0,0,0,.1-.1.1,0,0-.1,0-.1-.1,0,0,0-.1.1-.1,0,0,.1,0,.1.1Z"/>
    <path class="cls-42" d="M14.2,13.5s0,0,0,0c0,0,0,.1,0,.2,0,0,0,0-.1,0,0,0-.1-.1,0-.2,0,0,0,0,.1,0,0,0,0,0,0,.1,0,0,0,0,0,.1Z"/>
  </g>
</svg>