<?xml version="1.0" encoding="UTF-8"?>
<svg id="_30x30_Timeline" data-name="30x30 Timeline" xmlns="http://www.w3.org/2000/svg" width="30" height="30" viewBox="0 0 30 30">
  <defs>
    <style>
      .cls-1 {
        fill: #bdc3c7;
      }

      .cls-1, .cls-2, .cls-3, .cls-4, .cls-5, .cls-6, .cls-7 {
        stroke-width: 0px;
      }

      .cls-2 {
        fill: #5e5e5e;
      }

      .cls-3 {
        fill: #4a4a4a;
      }

      .cls-4 {
        fill: #919194;
      }

      .cls-5 {
        fill: #a3a3a5;
      }

      .cls-6 {
        fill: #ecf0f1;
      }

      .cls-7 {
        fill: #ccc;
      }
    </style>
  </defs>
  <path class="cls-3" d="M10,20c-2.8,1.4-5.7,2.7-8.5,4.2-1.1.6-1.5,2-1.4,3.2,0,.7-.2,1.7.5,2.2.7.4,1.6.1,2.4.2h25.8c1-.1,1.2-1.1,1.1-1.9,0-1.2,0-2.5-.8-3.4-.7-.7-1.8-1.1-2.7-1.6-2.1-1-4.3-2.1-6.4-3.1h-9.9Z"/>
  <path class="cls-1" d="M10,20h9.9l-2.5,9.9h-5l-2.5-9.9Z"/>
  <path class="cls-3" d="M12.5,22.5v3.7l1.2,1.2-1.2,2.5h5l-1.2-2.5,1.2-1.2v-3.7h-5Z"/>
  <rect class="cls-4" x="11.3" y="16.2" width="7.5" height="6.2"/>
  <path class="cls-6" d="M10,20l1.2-1.2,3.7,3.7,3.7-3.7,1.2,1.2-2.5,6.2-2.5-3.7-2.5,3.7-2.5-6.2Z"/>
  <path class="cls-5" d="M15,0c-3.7,0-6.7,3.3-7.3,7.7-.1,0-.3,0-.4,0-.7.2-.8,1.5-.4,2.8.2.8.7,1.4,1.1,1.7,1,3.8,3.7,6.5,7.1,6.5s6.1-2.7,7.1-6.5c.4-.3.8-.9,1.1-1.7.4-1.3.3-2.5-.4-2.8-.1,0-.3,0-.4,0C21.7,3.4,18.7,0,15,0h0Z"/>
  <path class="cls-2" d="M10,20l-2.5,1.2v3.7h2.5l-2.5,1.2,2.5,3.7h2.5l-2.5-9.9ZM20,20l-2.5,9.9h2.5l2.5-3.7-2.5-1.2h2.5v-3.7l-2.5-1.2Z"/>
  <path class="cls-7" d="M15,0c-2.5-.1-4.9,1.6-6.2,4-.7,1.1-1.1,2.5-1.3,3.7.4-.1.7.1,1.1-.4.8-.7,1.1-1.4,1.4-2.4.5-1.1,1.5-2.9,2.5-2.5.9.2,1.2.7,2.5.7s1.6-.5,2.5-.7c.9-.4,2,1.4,2.5,2.5.3,1,.6,1.6,1.4,2.4.4.5.7.2,1.1.4-.2-1.2-.6-2.6-1.3-3.7C19.9,1.7,17.5,0,15,0Z"/>
</svg>