<?xml version="1.0" encoding="UTF-8"?>
<svg id="_30x30" data-name="30x30" xmlns="http://www.w3.org/2000/svg" width="30" height="30" xmlns:xlink="http://www.w3.org/1999/xlink" viewBox="0 0 30 30">
  <defs>
    <style>
      .cls-1 {
        fill: none;
      }

      .cls-1, .cls-2 {
        stroke-width: 0px;
      }

      .cls-2 {
        fill: #eee;
        fill-rule: evenodd;
      }

      .cls-3 {
        clip-path: url(#clippath);
      }
    </style>
    <clipPath id="clippath">
      <rect class="cls-1" y=".3" width="30" height="30"/>
    </clipPath>
  </defs>
  <g id="_1-3-2-22-github" data-name="1-3-2-22-github">
    <g class="cls-3">
      <path class="cls-2" d="M15,.3C6.7.3,0,7,0,15.3s4.3,12.2,10.3,14.2c.8.1,1-.3,1-.7s0-1.5,0-2.8c-3.8.7-4.7-.9-5-1.8-.2-.4-.9-1.8-1.5-2.1-.5-.3-1.3-1,0-1,1.2,0,2,1.1,2.3,1.5,1.3,2.3,3.5,1.6,4.4,1.2.1-1,.5-1.6,1-2-3.3-.4-6.8-1.7-6.8-7.4s.6-3,1.5-4c-.1-.4-.7-1.9.2-4,0,0,1.3-.4,4.1,1.5,1.2-.3,2.5-.5,3.8-.5s2.5.2,3.8.5c2.9-2,4.1-1.5,4.1-1.5.8,2.1.3,3.6.1,4,1,1.1,1.5,2.4,1.5,4,0,5.8-3.5,7-6.8,7.4.5.5,1,1.4,1,2.8,0,2,0,3.6,0,4.1s.3.9,1,.7c5.9-2,10.2-7.6,10.2-14.2S23.3.3,15,.3Z"/>
    </g>
  </g>
</svg>