<?xml version="1.0" encoding="UTF-8"?>
<svg id="_30x30_Timeline" data-name="30x30 Timeline" xmlns="http://www.w3.org/2000/svg" width="30" height="30" viewBox="0 0 30 30">
  <defs>
    <style>
      .cls-1 {
        fill: #fecc42;
        stroke-width: 0px;
      }
    </style>
  </defs>
  <g id="_1-3-2-4-communication" data-name="1-3-2-4-communication">
    <path class="cls-1" d="M27.2,30c-1.9-.8-3.9-1.7-5.8-2.5-.1,0-.3,0-.4,0-2,.2-4-.1-5.8-1-2-1-3.6-2.4-4.5-4.5-1.3-3-.8-5.8,1.3-8.3,1.6-2,3.8-3.1,6.4-3.4,3-.4,5.8.2,8.2,2,1.8,1.4,3,3.2,3.4,5.5,0,.1,0,.3,0,.4v1.3s0,0,0,.1c-.2,1.8-.9,3.4-2.1,4.7-.1.1-.1.2,0,.4.3,1.2.6,2.5.9,3.7,0,.2,0,.4,0,.6,0,.6-.4.9-1,1.1h-.5ZM16.2,20c.7,0,1.3-.5,1.3-1.2,0-.7-.5-1.3-1.2-1.3-.7,0-1.3.5-1.3,1.2,0,.7.5,1.2,1.2,1.3ZM20,20c.7,0,1.3-.5,1.3-1.2,0-.7-.5-1.2-1.2-1.3-.7,0-1.3.5-1.3,1.2,0,.7.5,1.2,1.2,1.2ZM23.7,20c.7,0,1.3-.5,1.3-1.2,0-.7-.5-1.3-1.2-1.3-.7,0-1.3.5-1.3,1.2,0,.7.5,1.2,1.2,1.2Z"/>
    <path class="cls-1" d="M10.8,0c.6.1,1.2.1,1.8.3,3.1.8,5.5,2.5,6.9,5.5.4.9.6,1.9.6,2.9-.3,0-.6,0-.8,0-4,.3-7.2,2.1-9.2,5.6-.5.9-.9,1.8-1,2.8,0,.3-.2.3-.4.4-1.8.8-3.6,1.6-5.5,2.3-.8.4-1.7-.1-1.8-1,0-.2,0-.3,0-.5.3-1.2.6-2.5.9-3.7,0-.2,0-.3,0-.4C1,12.9.2,11.3,0,9.5c0,0,0,0,0-.1C0,9,0,8.5,0,8.1c0,0,0-.1,0-.2,0-.9.3-1.7.7-2.5C2.2,2.5,4.6.9,7.7.2,8.2.1,8.7,0,9.2,0h1.6ZM6.3,7.5c-.7,0-1.3.6-1.3,1.3,0,.7.6,1.2,1.2,1.2.7,0,1.3-.6,1.3-1.2,0-.7-.5-1.3-1.2-1.3ZM11.2,8.8c0-.7-.6-1.3-1.3-1.3-.7,0-1.2.6-1.3,1.2,0,.7.6,1.3,1.2,1.3.7,0,1.3-.6,1.3-1.2ZM13.8,7.5c-.7,0-1.3.6-1.3,1.3,0,.7.6,1.2,1.2,1.2.7,0,1.3-.6,1.3-1.2,0-.7-.6-1.2-1.2-1.3Z"/>
  </g>
</svg>