<?xml version="1.0" encoding="UTF-8"?>
<svg id="_30x30" data-name="30x30" xmlns="http://www.w3.org/2000/svg" width="30" height="30" viewBox="0 0 30 30">
  <defs>
    <style>
      .cls-1 {
        fill: #fff;
        stroke-width: 0px;
      }
    </style>
  </defs>
  <path class="cls-1" d="M29.8,6.3h-.5c-.6,0-1.2.3-1.6.8l-5.2,6.8-5.2-6.8c-.4-.5-1-.8-1.6-.8h-.5l6.6,8.6-6.7,8.8h.5c.6,0,1.2-.3,1.6-.8l5.4-7,5.4,7c.4.5,1,.8,1.6.8h.5l-6.7-8.8,6.6-8.6ZM12.8,20.2c-1.5,2.3-4.5,3.5-7.4,2.5-2.5-.9-4.1-3.4-4.1-6.1v-.7h13.8v-2.5c0-3.9-2.9-7.3-6.8-7.7C3.8,5.3,0,8.8,0,13.2v3.3c0,3.2,1.9,6.2,5,7.3,4,1.4,8.1-.7,9.5-4.4h-.4c-.5,0-1,.3-1.3.7ZM1.2,13.2c0-3.5,2.8-6.3,6.3-6.3s6.3,2.8,6.3,6.3v1.5H1.2v-1.5Z"/>
</svg>