<?xml version="1.0" encoding="UTF-8"?>
<svg id="_30x30" data-name="30x30" xmlns="http://www.w3.org/2000/svg" width="30" height="30" xmlns:xlink="http://www.w3.org/1999/xlink" viewBox="0 0 30 30">
  <defs>
    <style>
      .cls-1 {
        fill: #00005b;
      }

      .cls-1, .cls-2, .cls-3 {
        stroke-width: 0px;
      }

      .cls-2 {
        fill: none;
      }

      .cls-3 {
        fill: #99f;
      }

      .cls-4 {
        clip-path: url(#clippath);
      }
    </style>
    <clipPath id="clippath">
      <rect class="cls-2" y=".4" width="30" height="29.3"/>
    </clipPath>
  </defs>
  <g id="_1-3-2-30-adobe-audition" data-name="1-3-2-30-adobe-audition">
    <g class="cls-4">
      <g>
        <path class="cls-1" d="M5.3.4h19.4c2.9,0,5.3,2.4,5.3,5.3v18.6c0,2.9-2.4,5.3-5.3,5.3H5.3c-2.9,0-5.3-2.4-5.3-5.3V5.7C0,2.7,2.4.4,5.3.4Z"/>
        <path class="cls-3" d="M11.8,17.9h-4.6l-.9,2.9c0,.1-.1.2-.2.2h-2.4c-.1,0-.2,0-.1-.2l4-11.6c0-.1,0-.3.1-.4,0-.3.1-.5.1-.8,0,0,0-.1.1-.1h3.2c0,0,.2,0,.2.1l4.5,12.8c0,.1,0,.2-.1.2h-2.6c0,0-.2,0-.2-.1l-1.1-3ZM7.9,15.4h3.2c0-.3-.2-.6-.3-.9-.1-.3-.2-.7-.3-1.1-.1-.4-.2-.8-.4-1.1-.1-.4-.2-.7-.3-1.1-.1-.4-.2-.7-.3-1h0c-.1.5-.2,1.1-.4,1.6-.2.6-.4,1.2-.6,1.8-.2.6-.4,1.2-.5,1.7Z"/>
        <path class="cls-3" d="M25.4,11.2v7.7c0,.3,0,.6,0,.9,0,.3,0,.5,0,.7,0,.2,0,.3,0,.4,0,.1,0,.2-.1.2h-2.1c-.1,0-.2,0-.2-.1,0-.1,0-.2,0-.3,0,0,0-.2,0-.3-.4.4-.9.6-1.4.8-.4.1-.9.2-1.4.2s-.9,0-1.4-.2c-.4-.1-.8-.4-1.1-.7-.3-.4-.6-.8-.7-1.2-.2-.6-.3-1.2-.2-1.8v-6.2c0,0,0-.2.1-.2h2.4c0,0,.2,0,.2.1h0v5.9c0,.5.1,1,.4,1.3.2.3.7.5,1.3.5s.6,0,.9-.2c.3-.1.5-.2.8-.4v-7.1c0,0,0-.1.2-.1h2.4c0,0,.1,0,.1.1,0,0,0,0,0,0Z"/>
      </g>
    </g>
  </g>
</svg>