<?xml version="1.0" encoding="UTF-8"?>
<svg id="_30x30" data-name="30x30" xmlns="http://www.w3.org/2000/svg" width="30" height="30" xmlns:xlink="http://www.w3.org/1999/xlink" viewBox="0 0 30 30">
  <defs>
    <style>
      .cls-1 {
        fill: none;
      }

      .cls-1, .cls-2, .cls-3, .cls-4 {
        stroke-width: 0px;
      }

      .cls-5 {
        clip-path: url(#clippath);
      }

      .cls-2 {
        fill: #1c3a4e;
        fill-rule: evenodd;
      }

      .cls-3 {
        fill: #55e5c5;
      }

      .cls-4 {
        fill: #fff;
      }
    </style>
    <clipPath id="clippath">
      <rect class="cls-1" width="30" height="30"/>
    </clipPath>
  </defs>
  <g id="_1-3-2-27-filmora" data-name="1-3-2-27-filmora">
    <g class="cls-5">
      <g>
        <path class="cls-2" d="M6.9,0h16.3c1.8,0,3.6.7,4.8,2,1.3,1.3,2,3,2,4.8v16.3c0,1.8-.7,3.6-2,4.8-1.3,1.3-3,2-4.8,2H6.9c-1.8,0-3.6-.7-4.8-2C.7,26.7,0,25,0,23.1V6.9c0-1.8.7-3.6,2-4.8C3.3.7,5,0,6.9,0Z"/>
        <path class="cls-4" d="M11.2,13.5l-4.1-4.1,5-5,5,5-5.8,5.8h0c.2-.3.2-.6.2-.9,0-.3-.2-.6-.4-.8Z"/>
        <path class="cls-3" d="M22.8,15l-10.7,10.7-5-5,10.7-10.7,5,5Z"/>
      </g>
    </g>
  </g>
</svg>