<?xml version="1.0" encoding="UTF-8"?>
<svg id="_30x30" data-name="30x30" xmlns="http://www.w3.org/2000/svg" width="30" height="30" xmlns:xlink="http://www.w3.org/1999/xlink" viewBox="0 0 30 30">
  <defs>
    <style>
      .cls-1 {
        fill: url(#linear-gradient);
      }

      .cls-1, .cls-2 {
        stroke-width: 0px;
      }

      .cls-2 {
        fill: #fff;
      }
    </style>
    <linearGradient id="linear-gradient" x1="-943.4" y1="555.7" x2="-943.4" y2="555.7" gradientTransform="translate(502017.6 336921.1) scale(532.1 -606.3)" gradientUnits="userSpaceOnUse">
      <stop offset="0" stop-color="#41873f"/>
      <stop offset=".3" stop-color="#418b3d"/>
      <stop offset=".6" stop-color="#419637"/>
      <stop offset=".9" stop-color="#3fa92d"/>
      <stop offset="1" stop-color="#3fae2a"/>
    </linearGradient>
  </defs>
  <path id="a" class="cls-1" d="M15.7.3c-.4-.2-1-.2-1.4,0L2.7,7.1c-.4.2-.7.7-.7,1.2v13.5c0,.5.3,1,.7,1.2l11.6,6.7c.4.2,1,.2,1.4,0l11.6-6.7c.4-.2.7-.7.7-1.2v-13.5c0-.5-.3-1-.7-1.2L15.7.3Z"/>
  <path class="cls-2" d="M15.1,27.4c-.3,0-.7,0-1-.3l-3.1-1.8c-.5-.3-.2-.3,0-.4.6-.2.7-.3,1.4-.6,0,0,.2,0,.2,0l2.3,1.4c0,0,.2,0,.3,0l9.2-5.3c0,0,.1-.1.1-.3v-10.6c0-.1,0-.2-.1-.3l-9.2-5.3c0,0-.2,0-.3,0l-9.2,5.3c0,0-.1.2-.1.3v10.6c0,0,0,.2.1.3l2.5,1.4c1.4.7,2.2-.1,2.2-.9v-10.4c0-.1.1-.3.3-.3h1.2c.1,0,.3.1.3.3v10.4c0,1.8-1,2.9-2.7,2.9s-.9,0-2.1-.6l-2.4-1.4c-.6-.3-1-1-1-1.7v-10.6c0-.7.4-1.3,1-1.7L14.2,2.7c.6-.3,1.4-.3,1.9,0l9.2,5.3c.6.3,1,1,1,1.7v10.6c0,.7-.4,1.3-1,1.7l-9.2,5.3c-.3.1-.6.2-1,.2h0ZM18,20.2c-4,0-4.8-1.8-4.8-3.4s.1-.3.3-.3h1.2c.1,0,.3,0,.3.2.2,1.2.7,1.8,3.1,1.8s2.8-.4,2.8-1.5-.2-1-3.2-1.3c-2.5-.3-4.1-.8-4.1-2.8s1.6-3,4.2-3,4.4,1,4.6,3.2c0,0,0,.1,0,.2,0,0-.1,0-.2,0h-1.2c-.1,0-.2,0-.3-.2-.3-1.3-1-1.7-2.9-1.7s-2.4.7-2.4,1.3.3.9,3.1,1.2c2.8.4,4.2.9,4.2,2.9,0,2-1.7,3.2-4.6,3.2Z"/>
</svg>