<?xml version="1.0" encoding="UTF-8"?>
<svg id="_30x30" data-name="30x30" xmlns="http://www.w3.org/2000/svg" width="30" height="30" xmlns:xlink="http://www.w3.org/1999/xlink" viewBox="0 0 30 30">
  <defs>
    <style>
      .cls-1 {
        fill: #00ddb3;
      }

      .cls-1, .cls-2, .cls-3 {
        stroke-width: 0px;
      }

      .cls-2 {
        fill: none;
      }

      .cls-4 {
        clip-path: url(#clippath);
      }

      .cls-3 {
        fill: #fff;
      }

      .cls-5 {
        mask: url(#mask);
      }
    </style>
    <clipPath id="clippath">
      <rect class="cls-2" width="30" height="30"/>
    </clipPath>
    <mask id="mask" x="0" y="0" width="30" height="30" maskUnits="userSpaceOnUse">
      <g id="mask0_43_2007" data-name="mask0 43 2007">
        <path class="cls-3" d="M0,0h30v30H0V0Z"/>
      </g>
    </mask>
  </defs>
  <g id="_1-3-2-20-lottiefiles" data-name="1-3-2-20-lottiefiles">
    <g class="cls-4">
      <g class="cls-5">
        <g>
          <path class="cls-1" d="M22.4,0H7.6C3.4,0,0,3.4,0,7.6v14.8c0,4.2,3.4,7.6,7.6,7.6h14.8c4.2,0,7.6-3.4,7.6-7.6V7.6c0-4.2-3.4-7.6-7.6-7.6Z"/>
          <path class="cls-3" d="M22.8,6.7c-5.2,0-7.1,3.7-8.6,6.6l-1,1.9c-1.6,3.1-2.8,5.1-6,5.1-.2,0-.4,0-.6.1-.2,0-.3.2-.5.3-.2.2-.3.5-.4.8,0,.3,0,.6,0,.9,0,.2.2.3.3.5.1.1.3.2.5.3.2,0,.4.1.6.1,5.2,0,7.1-3.7,8.6-6.6l1-1.9c1.6-3.1,2.8-5.1,6-5.1.3,0,.6,0,.8-.2.2-.2.4-.4.5-.7.1-.3.1-.6,0-.9,0-.3-.2-.6-.4-.8-.1-.1-.3-.2-.5-.3s-.4-.1-.6-.1h0Z"/>
        </g>
      </g>
    </g>
  </g>
</svg>