<?xml version="1.0" encoding="UTF-8"?>
<svg id="_30x30" data-name="30x30" xmlns="http://www.w3.org/2000/svg" width="30" height="30" xmlns:xlink="http://www.w3.org/1999/xlink" viewBox="0 0 30 30">
  <defs>
    <style>
      .cls-1 {
        fill: #00005b;
      }

      .cls-1, .cls-2, .cls-3 {
        stroke-width: 0px;
      }

      .cls-2 {
        fill: none;
      }

      .cls-3 {
        fill: #99f;
      }

      .cls-4 {
        clip-path: url(#clippath);
      }
    </style>
    <clipPath id="clippath">
      <rect class="cls-2" y=".4" width="30" height="29.2"/>
    </clipPath>
  </defs>
  <g id="_1-3-2-21-adobe-after-effects" data-name="1-3-2-21-adobe-after-effects">
    <g class="cls-4">
      <g>
        <path class="cls-1" d="M5.3.4h19.4c2.9,0,5.3,2.4,5.3,5.3v18.6c0,2.9-2.4,5.3-5.3,5.3H5.3c-2.9,0-5.3-2.4-5.3-5.3V5.7C0,2.8,2.4.4,5.3.4Z"/>
        <path class="cls-3" d="M12.1,17.9h-4.7l-1,2.9c0,.1-.1.2-.2.2h-2.4c-.1,0-.2,0-.1-.2l4-11.5c0-.1,0-.2.1-.4,0-.3,0-.5,0-.8,0,0,0-.1.1-.1h3.2c0,0,.1,0,.2,0l4.6,12.8c0,.1,0,.2-.1.2h-2.6c0,0-.2,0-.2-.1l-1-3h0ZM8.1,15.4h3.2c0-.3-.2-.6-.3-.9-.1-.3-.2-.7-.3-1.1-.1-.4-.2-.8-.4-1.2-.1-.4-.2-.8-.3-1.1-.1-.4-.2-.7-.3-1h0c-.1.5-.2,1.1-.4,1.6-.2.6-.4,1.2-.6,1.8-.2.6-.4,1.2-.6,1.8Z"/>
        <path class="cls-3" d="M23.4,16.8h-4c0,.4.2.8.4,1.1.2.3.5.6.9.8.5.2,1.1.3,1.6.3.4,0,.9,0,1.3-.1.4,0,.8-.1,1.1-.3,0,0,.1,0,.1.1v1.9s0,0,0,.1c0,0,0,0,0,0-.4.2-.8.3-1.2.4-.6.1-1.2.2-1.8.1-1,0-1.8-.1-2.4-.4-.6-.3-1.1-.7-1.6-1.2-.4-.5-.7-1-.9-1.6-.2-.6-.3-1.2-.3-1.8s.1-1.3.3-2c.2-.6.5-1.2.9-1.7.4-.5.9-.9,1.5-1.2.6-.3,1.3-.4,2.1-.4.7,0,1.3.1,1.9.4.5.2,1,.6,1.3,1,.3.4.6.9.8,1.4.2.5.2,1,.2,1.5s0,.6,0,.8c0,.2,0,.4,0,.5,0,0,0,.2-.2.2s-.2,0-.4,0c-.2,0-.4,0-.7,0s-.6,0-.9,0ZM19.4,14.9h2.6c.3,0,.6,0,.7,0,0,0,.2,0,.3-.1h0c0-.3,0-.4,0-.6-.2-.7-.9-1.2-1.6-1.2-.7,0-1.3.3-1.7.9-.1.3-.2.6-.3.9Z"/>
      </g>
    </g>
  </g>
</svg>