<?xml version="1.0" encoding="UTF-8"?>
<svg id="_30x30_Skills" data-name="30x30 Skills" xmlns="http://www.w3.org/2000/svg" width="30" height="30.5" viewBox="0 0 30 30.5">
  <defs>
    <style>
      .cls-1 {
        fill: #ffcd42;
        stroke-width: 0px;
      }
    </style>
  </defs>
  <g id="_1-3-2-25-seo-light" data-name="1-3-2-25-seo-light">
    <path class="cls-1" d="M8.9,19C4,18.9,0,15,0,10.1,0,5.3,4,1.3,8.9,1.3c4.9,0,8.8,4,8.8,8.8,0,4.8-4,8.8-8.8,8.8ZM8.9,18.3c.4,0,.9,0,1.3-.1.9-.2,1.8-.5,2.6-.9.2,0,.3-.2.2-.4,0-.2-.1-.2-.3-.3-.1,0-.3,0-.4.1-1.4.7-2.9,1-4.5.8-4.1-.5-7-4.3-6.4-8.4C2.2,3.9,8,1.1,12.6,3.7c1.1.6,2,1.5,2.6,2.6.2.3.4.4.6.2.2-.2.1-.4,0-.6-1.7-2.8-4.9-4.3-8.2-3.9C3.4,2.7.3,6.6.8,11c.4,4.1,3.9,7.3,8.2,7.3ZM16,10.2c0-.7-.2-1.2-.6-1.7-.8-1.1-2.3-1.1-3.2,0-.8,1-.8,2.5,0,3.4.9,1.1,2.4,1.1,3.2,0,.4-.5.6-1.1.6-1.7ZM4.8,7.6c-.5,0-1,.1-1.4.5-.6.6-.5,1.4.2,1.8.3.2.7.4,1.1.5.3.1.6.2.9.4.3.2.3.4.2.7-.3.4-.7.5-1.2.4-.4,0-.8-.2-.9-.7,0-.2-.2-.3-.4-.3-.2,0-.3.2-.3.4,0,.3.2.6.4.9.7.7,2,.7,2.7,0,.6-.6.5-1.4-.1-1.9-.3-.2-.6-.3-.9-.4-.4-.1-.8-.3-1.1-.5-.3-.2-.3-.5,0-.7.6-.6,1.7-.4,2,.4,0,.2.2.3.4.3.2,0,.3-.1.3-.3,0-.4-.2-.7-.5-1-.4-.3-.8-.4-1.3-.4ZM8.2,8.3c.9,0,1.7,0,2.5,0,.3,0,.4,0,.4-.4,0-.2-.2-.3-.4-.3-1,0-1.9,0-2.9,0-.3,0-.4.1-.4.4,0,1.4,0,2.8,0,4.3,0,.2.1.4.4.4,1,0,2,0,3,0,.2,0,.4-.2.4-.4,0-.2-.2-.3-.4-.3-.8,0-1.7,0-2.5,0v-1.5c.4,0,.7,0,1.1,0,.2,0,.4,0,.4-.3,0-.3-.2-.4-.4-.4-.4,0-.7,0-1.1,0v-1.5Z"/>
    <path class="cls-1" d="M20.3,10.7c-.2,2.4-.9,4.5-2.4,6.5h5.5c-.1.4,0,.8,0,1.2h-.3c-2.1,0-4.2,0-6.3,0-.3,0-.6,0-.8-.4-.1-.3,0-.6.2-.8,3.8-4,3.8-10.2,0-14.2-.1-.1-.3-.3-.3-.5,0-.4.2-.7.6-.7,2.2,0,4.5,0,6.7,0,0,0,0,0,0,0,0,.4,0,.8,0,1.2h-5.4c1.2,2,1.6,1.8,2.4,6.5h6.2c0,.4-.1.8,0,1.2h-6.2Z"/>
    <path class="cls-1" d="M20.4,27.5c0,.7-.4,1.2-1,1.4-.6.2-1.3,0-1.6-.7-.7-1.2-1.3-2.3-2-3.5-.4-.7-.8-1.4-1.2-2.2-.4-.8-.2-1.6.5-2,.7-.4,1.6-.2,2,.6,1.1,1.9,2.1,3.7,3.2,5.6.1.2.2.5.2.8Z"/>
    <path class="cls-1" d="M26.8,17.8c0,.8-.7,1.4-1.4,1.4-.8,0-1.4-.7-1.4-1.4,0-.8.6-1.4,1.4-1.4.8,0,1.4.6,1.4,1.4Z"/>
    <path class="cls-1" d="M29.9,10.1c0,.8-.6,1.4-1.4,1.4-.8,0-1.4-.7-1.4-1.4,0-.8.6-1.4,1.4-1.4.8,0,1.4.6,1.4,1.4Z"/>
    <path class="cls-1" d="M25.4,1c.8,0,1.4.6,1.4,1.4,0,.8-.7,1.4-1.4,1.4-.8,0-1.4-.6-1.4-1.4,0-.8.6-1.4,1.4-1.4Z"/>
    <path class="cls-1" d="M15.1,19.8c-.4.1-.7.3-1,.7-.3-.6-.7-1.2-1-1.7.4-.2.7-.4,1.1-.6.3.6.6,1.1,1,1.7Z"/>
    <path class="cls-1" d="M15.3,10.2c0,.5-.2,1-.6,1.4-.5.5-1.2.5-1.7,0-.8-.7-.8-2,0-2.8.6-.6,1.4-.6,1.9,0,.3.3.5.9.5,1.5Z"/>
  </g>
</svg>