<?xml version="1.0" encoding="UTF-8"?>
<svg id="_30x30" data-name="30x30" xmlns="http://www.w3.org/2000/svg" width="30" height="30" xmlns:xlink="http://www.w3.org/1999/xlink" viewBox="0 0 30 30">
  <defs>
    <style>
      .cls-1 {
        fill: #00005b;
      }

      .cls-1, .cls-2, .cls-3 {
        stroke-width: 0px;
      }

      .cls-2 {
        fill: none;
      }

      .cls-3 {
        fill: #99f;
      }

      .cls-4 {
        clip-path: url(#clippath);
      }
    </style>
    <clipPath id="clippath">
      <rect class="cls-2" y=".4" width="30" height="29.2"/>
    </clipPath>
  </defs>
  <g id="_1-3-2-26-adobe-premiere-pro" data-name="1-3-2-26-adobe-premiere-pro">
    <g class="cls-4">
      <g>
        <path class="cls-1" d="M5.3.4h19.4c2.9,0,5.3,2.4,5.3,5.3v18.6c0,2.9-2.4,5.3-5.3,5.3H5.3c-2.9,0-5.3-2.4-5.3-5.3V5.7C0,2.8,2.4.4,5.3.4Z"/>
        <path class="cls-3" d="M7.1,20.9v-12.9c0,0,0-.1.1-.1.2,0,.4,0,.7,0,.3,0,.6,0,.9,0,.3,0,.7,0,1.1,0,.4,0,.8,0,1.1,0,1,0,1.9.1,2.6.4.6.2,1.2.6,1.7,1,.4.4.7.9.9,1.4.2.5.3,1.1.3,1.6,0,1.1-.2,2-.8,2.7-.5.7-1.2,1.2-2,1.5-.9.3-1.8.4-2.8.4s-.5,0-.6,0c-.1,0-.3,0-.5,0v4c0,0,0,.2-.1.2h-2.4c0,0-.2,0-.2-.2h0ZM9.9,10.3v4.2c.2,0,.3,0,.5,0h.7c.5,0,1,0,1.4-.2.4-.1.8-.3,1-.7.3-.3.4-.7.4-1.3,0-.4,0-.8-.3-1.1-.2-.3-.5-.6-.9-.7-.5-.2-1-.3-1.5-.2-.3,0-.6,0-.8,0-.2,0-.4,0-.5,0Z"/>
        <path class="cls-3" d="M18.4,11h2.2c.1,0,.2,0,.3.2,0,.1,0,.2,0,.3,0,.1,0,.3,0,.4,0,.1,0,.3,0,.4.4-.4.8-.8,1.3-1.1.6-.3,1.2-.5,1.9-.5,0,0,.2,0,.2.1h0v2.5c0,0,0,.1-.2.1-.5,0-.9,0-1.4.1-.4,0-.7.2-1.1.3-.2.1-.5.3-.6.5v6.4c0,.1,0,.2-.2.2h-2.5c-.1,0-.2,0-.2-.1h0v-7c0-.3,0-.6,0-.9,0-.3,0-.7,0-1,0-.3,0-.6,0-.9,0,0,0-.1,0-.1,0,0,0,0,0,0Z"/>
      </g>
    </g>
  </g>
</svg>