<?xml version="1.0" encoding="UTF-8"?>
<svg id="_30x30" data-name="30x30" xmlns="http://www.w3.org/2000/svg" width="30" height="30" xmlns:xlink="http://www.w3.org/1999/xlink" viewBox="0 0 30 30">
  <defs>
    <style>
      .cls-1 {
        fill: #31a8ff;
      }

      .cls-1, .cls-2, .cls-3 {
        stroke-width: 0px;
      }

      .cls-2 {
        fill: #001e36;
      }

      .cls-3 {
        fill: none;
      }

      .cls-4 {
        clip-path: url(#clippath);
      }
    </style>
    <clipPath id="clippath">
      <rect class="cls-3" width="30" height="30"/>
    </clipPath>
  </defs>
  <g id="_1-3-2-15-adobe-photoshop" data-name="1-3-2-15-adobe-photoshop">
    <g class="cls-4">
      <g>
        <path class="cls-2" d="M0,10.9c0-3.8,0-5.7.7-7.2.7-1.3,1.7-2.3,3-3,1.5-.7,3.4-.7,7.2-.7h8.3c3.8,0,5.7,0,7.2.7,1.3.7,2.3,1.7,3,3,.7,1.5.7,3.4.7,7.2v8.3c0,3.8,0,5.7-.7,7.2-.7,1.3-1.7,2.3-3,3-1.5.7-3.4.7-7.2.7h-8.3c-3.8,0-5.7,0-7.2-.7-1.3-.7-2.3-1.7-3-3-.7-1.5-.7-3.4-.7-7.2v-8.3Z"/>
        <path class="cls-1" d="M7.5,21.1v-11.5c0,0,0-.1.1-.1,1.1,0,2.3,0,3.4,0,1.8,0,3.8.6,4.5,2.5.2.5.3,1,.3,1.5,0,1-.2,1.8-.7,2.4-1.2,1.8-3.3,1.7-5.2,1.7v3.6c0,.1,0,.2-.2.2h-2.1c0,0-.1,0-.1-.1ZM9.9,11.6v3.8c.8,0,1.5,0,2.3-.2.8-.2,1.2-.9,1.2-1.8,0-.7-.4-1.4-1-1.6-.7-.3-1.7-.3-2.5-.2Z"/>
        <path class="cls-1" d="M22.6,14.6c-.3-.2-.7-.3-1-.4-.5-.1-2.3-.5-2.3.5,0,.5.9.8,1.3,1,1.3.5,2.8,1.3,2.8,2.9,0,2-1.9,2.9-3.6,2.9-.9,0-1.8-.1-2.6-.5,0,0-.1-.1-.1-.2v-2c0,0,0-.1.1,0,.8.5,1.7.7,2.6.7.4,0,1.2,0,1.2-.6,0-.6-1-.8-1.3-1-.6-.2-1.1-.5-1.6-.8-.7-.5-1.1-1.2-1.1-2.1,0-1.9,1.8-2.8,3.5-2.8.8,0,1.6,0,2.3.4.1,0,.1.1.1.2v1.8c0,.1-.1.2-.2.1Z"/>
      </g>
    </g>
  </g>
</svg>