<?xml version="1.0" encoding="UTF-8"?>
<svg id="_30x30" data-name="30x30" xmlns="http://www.w3.org/2000/svg" width="30" height="30" viewBox="0 0 30 30">
  <defs>
    <style>
      .cls-1 {
        fill: #a259ff;
      }

      .cls-1, .cls-2, .cls-3, .cls-4, .cls-5 {
        stroke-width: 0px;
      }

      .cls-2 {
        fill: #1abcfe;
      }

      .cls-3 {
        fill: #f24e1e;
      }

      .cls-4 {
        fill: #0acf83;
      }

      .cls-5 {
        fill: #ff7262;
      }
    </style>
  </defs>
  <g id="_1-3-1-1-figma" data-name="1-3-1-1-figma">
    <path class="cls-4" d="M10,29.9c2.7,0,5-2.2,5-5v-5h-5c-2.7,0-5,2.2-5,5s2.2,5,5,5Z"/>
    <path class="cls-1" d="M5.1,15c0-2.7,2.2-5,5-5h5v9.9h-5c-2.7,0-5-2.2-5-5Z"/>
    <path class="cls-3" d="M5.1,5.1C5.1,2.3,7.3.1,10,.1h5v9.9h-5c-2.7,0-5-2.2-5-5Z"/>
    <path class="cls-5" d="M15,.1h5c2.7,0,5,2.2,5,5s-2.2,5-5,5h-5V.1Z"/>
    <path class="cls-2" d="M24.9,15c0,2.7-2.2,5-5,5s-5-2.2-5-5,2.2-5,5-5,5,2.2,5,5Z"/>
  </g>
</svg>