<?xml version="1.0" encoding="UTF-8"?>
<svg id="_30x30_Timeline" data-name="30x30 Timeline" xmlns="http://www.w3.org/2000/svg" width="30" height="30" viewBox="0 0 30 30">
  <defs>
    <style>
      .cls-1 {
        fill: #ffcd42;
        stroke-width: 0px;
      }
    </style>
  </defs>
  <g id="_1-3-2-1-problem-solving" data-name="1-3-2-1-problem-solving">
    <path class="cls-1" d="M14.8,5.1c0,.4,0,.8,0,1.1,0,.5,0,1,0,1.5,0,.5,0,.5.5.4.6-.2,1.2.2,1.3.7.1.6-.2,1.2-.8,1.3-.2,0-.4,0-.6,0-.3,0-.4,0-.4.3,0,.9,0,1.9,0,2.8,0,.2.1.3.3.3.7,0,1.4,0,2.1,0,.1,0,.2,0,.3,0,.2,1.3.7,1.8,1.6,1.8.9,0,1.4-.5,1.6-1.9h2.4c0,.6,0,1.2-.2,1.7-.3,1.2-.9,2.3-1.7,3.3-1.1,1.4-1.7,3-1.8,4.7,0,.4-.1.5-.5.5-2.6,0-5.3,0-7.9,0-.4,0-.5,0-.5-.5-.1-1.6-.6-3-1.5-4.3-.3-.4-.6-.8-.9-1.3-3.1-4.8-.3-11.4,5.4-12.4.4,0,.8-.1,1.3-.1Z"/>
    <path class="cls-1" d="M28.1,9.4c-.9-.2-1.7-.4-2.6-.6-.4,0-.5,0-.5.4,0,.6-.3,1-.8,1.1-.6,0-1.1-.2-1.2-.8,0-.3,0-.6.1-.8.2-.3.1-.5-.2-.5-.8-.2-1.6-.4-2.5-.6.2-.8.3-1.5.5-2.3.6.2,1.1.2,1.5-.2.3-.2.5-.6.6-.9.2-.9-.3-1.6-1.5-1.9.2-.8.4-1.6.5-2.4,3.8.8,6.9,4.9,6,9.4Z"/>
    <path class="cls-1" d="M11.4,24.2h7.1c0,.2,0,.3,0,.5,0,.8,0,1.5,0,2.3,0,.3-.1.4-.4.4-2.1,0-4.3,0-6.4,0-.2,0-.4,0-.4-.3,0-.9,0-1.9,0-2.9Z"/>
    <path class="cls-1" d="M12.9,27.9h4.1c0,.7-.3,1.3-.8,1.7-.7.5-1.5.6-2.3.2-.7-.4-1-1-1-1.8Z"/>
  </g>
</svg>