<?xml version="1.0" encoding="UTF-8"?>
<svg id="_30x30" data-name="30x30" xmlns="http://www.w3.org/2000/svg" width="30" height="30" viewBox="0 0 30 30">
  <defs>
    <style>
      .cls-1 {
        fill: #300;
      }

      .cls-1, .cls-2 {
        stroke-width: 0px;
      }

      .cls-2 {
        fill: #ff9a00;
      }
    </style>
  </defs>
  <g id="_1-3-1-2-adobe-illustrator" data-name="1-3-1-2-adobe-illustrator">
    <path class="cls-1" d="M.2,10.9C.2,7.1.2,5.3.9,3.8c.6-1.3,1.7-2.3,2.9-2.9C5.3.2,7.1.2,10.9.2h8.2c3.8,0,5.6,0,7.1.7,1.3.6,2.3,1.7,2.9,2.9.7,1.4.7,3.3.7,7.1v8.2c0,3.8,0,5.6-.7,7.1-.6,1.3-1.7,2.3-2.9,2.9-1.4.7-3.3.7-7.1.7h-8.2c-3.8,0-5.6,0-7.1-.7-1.3-.6-2.3-1.7-2.9-2.9-.7-1.4-.7-3.3-.7-7.1v-8.2Z"/>
    <path class="cls-2" d="M14.5,18.8h-4.6l-.9,3c0,.1-.1.2-.2.2h-2.3c-.1,0-.2,0-.1-.2l4-11.8c0-.1,0-.3.1-.4,0-.3,0-.5,0-.8,0,0,0-.2.1-.1h3.2c0,0,.1,0,.2.1l4.5,13.1c0,.1,0,.2-.1.2h-2.6c0,0-.2,0-.2-.1l-1-3ZM10.7,16.2h3.1c-.5-1.8-1.1-3.5-1.6-5.3-.5,1.8-1.1,3.6-1.6,5.3Z"/>
    <path class="cls-2" d="M21.2,10.8c-.2,0-.4,0-.6-.1-.2,0-.4-.2-.5-.3-.1-.2-.3-.3-.3-.5,0-.2-.1-.4,0-.6,0-.2,0-.4.1-.6,0-.2.2-.4.3-.5.1-.1.3-.3.5-.3.2,0,.4-.1.6-.1.5,0,.9.1,1.1.4.1.2.2.3.3.5,0,.2.1.4,0,.6,0,.2,0,.4,0,.6,0,.2-.2.4-.3.5-.2.2-.3.3-.5.3-.2,0-.4.1-.6.1ZM19.8,21.8v-9.8c0-.1,0-.2.2-.2h2.4c.1,0,.2,0,.2.2v9.8c0,.1,0,.2-.2.2h-2.4c-.1,0-.2,0-.2-.2Z"/>
  </g>
</svg>