<?xml version="1.0" encoding="UTF-8"?>
<svg id="_30x30_Timeline" data-name="30x30 Timeline" xmlns="http://www.w3.org/2000/svg" width="30" height="30" viewBox="0 0 30 30">
  <defs>
    <style>
      .cls-1 {
        fill: #fecc42;
        stroke-width: 0px;
      }
    </style>
  </defs>
  <path class="cls-1" d="M30,22.8c-.1.2-.2.4-.4.6-.2.2-.5.3-.8.3-2.5,0-5.1,0-7.6,0-.7,0-1.2-.5-1.2-1.2,0-2.5,0-5,0-7.5,0-.7.5-1.2,1.3-1.2,2.5,0,5,0,7.4,0,.7,0,1,.4,1.3,1v8.1ZM22.5,21.2h4.9v-5h-4.9v5Z"/>
  <path class="cls-1" d="M0,17c.1-.6.2-1.2.5-1.7.9-1.6,2.2-2.6,4-2.8,2.7-.3,5,1.6,5.4,4.2.4,2.7-1.5,5.3-4.3,5.7-2.8.4-5.2-1.5-5.6-4.3,0,0,0,0,0-.1,0-.4,0-.7,0-1.1ZM2.5,17.5c0,1.4,1.1,2.5,2.5,2.5,1.4,0,2.5-1.1,2.5-2.5,0-1.4-1.1-2.5-2.5-2.5-1.4,0-2.5,1.1-2.5,2.5Z"/>
  <path class="cls-1" d="M16.1,0c.5.2.8.5,1,1,1.2,2,2.3,3.9,3.5,5.8.5.8.1,1.6-.7,1.9-.1,0-.3,0-.4,0-2.5,0-4.9,0-7.4,0-.9,0-1.7-1-1.1-2,1.2-2,2.5-4.1,3.7-6.1.2-.3.5-.5.9-.7h.5ZM15.8,3.7c-.5.9-1,1.7-1.5,2.6h3.1c-.5-.9-1-1.7-1.5-2.6Z"/>
  <path class="cls-1" d="M9.4,27.6c.1.5.2,1.1.4,1.6,0,.2,0,.3-.2.3-.6.1-1.3.3-1.9.4-.2,0-.3,0-.3-.2-.3-1.5-.7-2.9-1-4.4-.2-.7.2-1.3.9-1.5,1.4-.4,2.9-.8,4.3-1.2,0,.3.2.6.3,1,.1.4.2.8.3,1.1,0,.2,0,.3-.2.4-.4,0-.8.2-1.2.3,2.1,1,6.1,1.5,9.9-.6.4.7.8,1.4,1.3,2.2-4.1,2.2-8.2,2.4-12.5.7Z"/>
  <path class="cls-1" d="M5.6,5h-1.8v-2.4c0,0,.2,0,.3,0,1.5,0,3,0,4.6,0,.9,0,1.4.6,1.4,1.4,0,1.5,0,3,0,4.5,0,0,0,.2,0,.3h-2.5v-2.1c-1.6,1.4-2.6,3.1-3.3,5-.8-.3-1.6-.5-2.4-.7.7-2.3,1.9-4.2,3.7-5.9Z"/>
  <path class="cls-1" d="M27.1,8.5c.2-.5.3-.9.5-1.4.8.3,1.6.5,2.4.8,0,.2-.1.4-.2.6-.3,1-.7,2-1,3-.2.7-.6,1-1.3,1-1.2,0-2.4,0-3.7,0v-2.5h1.3c-1-2.1-2.5-3.6-4.5-4.8.4-.7.8-1.4,1.2-2.2,2.2,1.3,4,3.1,5.2,5.4Z"/>
</svg>