<?xml version="1.0" encoding="UTF-8"?>
<svg id="_30x30_Timeline" data-name="30x30 Timeline" xmlns="http://www.w3.org/2000/svg" width="30" height="30" xmlns:xlink="http://www.w3.org/1999/xlink" viewBox="0 0 30 30">
  <defs>
    <style>
      .cls-1 {
        fill: #38bdf8;
        fill-rule: evenodd;
      }

      .cls-1, .cls-2, .cls-3 {
        stroke-width: 0px;
      }

      .cls-2 {
        fill: none;
      }

      .cls-4 {
        clip-path: url(#clippath);
      }

      .cls-3 {
        fill: #fff;
      }

      .cls-5 {
        mask: url(#mask);
      }
    </style>
    <clipPath id="clippath">
      <rect class="cls-2" y="5.8" width="30" height="18.3"/>
    </clipPath>
    <mask id="mask" x="0" y="5.8" width="30" height="18" maskUnits="userSpaceOnUse">
      <g id="mask0_43_1082" data-name="mask0 43 1082">
        <path class="cls-3" d="M0,5.8h30v18H0V5.8Z"/>
      </g>
    </mask>
  </defs>
  <g class="cls-4">
    <g class="cls-5">
      <path class="cls-1" d="M15,5.8c-4,0-6.5,2-7.5,6,1.5-2,3.2-2.8,5.2-2.2,1.1.3,2,1.1,2.9,2,1.5,1.5,3.2,3.2,6.9,3.2s6.5-2,7.5-6c-1.5,2-3.2,2.8-5.2,2.3-1.1-.3-2-1.1-2.9-2-1.5-1.5-3.2-3.2-6.9-3.2ZM7.5,14.8c-4,0-6.5,2-7.5,6,1.5-2,3.2-2.8,5.2-2.2,1.1.3,2,1.1,2.9,2,1.5,1.5,3.2,3.2,6.9,3.2s6.5-2,7.5-6c-1.5,2-3.2,2.8-5.2,2.2-1.1-.3-2-1.1-2.9-2-1.5-1.5-3.2-3.2-6.9-3.2Z"/>
    </g>
  </g>
</svg>