<?xml version="1.0" encoding="UTF-8"?>
<svg id="_30x30" data-name="30x30" xmlns="http://www.w3.org/2000/svg" width="30" height="30" viewBox="0 0 30 30">
  <defs>
    <style>
      .cls-1 {
        fill: #390091;
      }

      .cls-1, .cls-2, .cls-3, .cls-4 {
        stroke-width: 0px;
      }

      .cls-2 {
        fill: #a179dc;
      }

      .cls-3 {
        fill: #280068;
      }

      .cls-4 {
        fill: #fff;
      }
    </style>
  </defs>
  <g id="_1-3-2-12-c-sharp" data-name="1-3-2-12-c-sharp">
    <g>
      <path class="cls-2" d="M28.2,8.9c0-.5-.1-.9-.3-1.3-.2-.4-.5-.7-1-.9-3.5-2-7-4-10.5-6.1-.9-.5-1.9-.5-2.8,0-1.4.8-8.4,4.8-10.5,6-.9.5-1.3,1.3-1.3,2.2,0,4.1,0,8.1,0,12.2,0,.5.1.9.3,1.3.2.4.5.7,1,1,2.1,1.2,9.1,5.2,10.5,6,.9.6,1.9.6,2.8,0,3.5-2,7-4,10.5-6.1.4-.3.8-.6,1-1,.2-.4.3-.8.3-1.3,0,0,0-8.1,0-12.2Z"/>
      <path class="cls-3" d="M15,14.9l-12.9,7.4c.2.4.5.7,1,1,2.1,1.2,9.1,5.2,10.5,6,.9.6,1.9.6,2.8,0,3.5-2,7-4,10.5-6.1.4-.3.8-.6,1-1l-12.8-7.4Z"/>
      <path class="cls-1" d="M28.2,8.9c0-.5-.1-.9-.3-1.3l-12.8,7.4,12.8,7.4c.2-.4.3-.8.3-1.3,0,0,0-8.1,0-12.2Z"/>
      <path class="cls-4" d="M22.6,12.1v1.4h1.4v-1.4h.7v1.4h1.4v.7h-1.4v1.4h1.4v.7h-1.4v1.4h-.7v-1.4h-1.4v1.4h-.7v-1.4h-1.4v-.7h1.4v-1.4h-1.4v-.7h1.4v-1.4h.7ZM24,14.2h-1.4v1.4h1.4v-1.4Z"/>
      <path class="cls-4" d="M15,5.2c3.6,0,6.8,2,8.5,4.9h0s-4.3,2.4-4.3,2.4c-.8-1.4-2.4-2.4-4.2-2.4h0c-2.7,0-4.9,2.2-4.9,4.9s.2,1.7.6,2.4c.8,1.5,2.4,2.5,4.2,2.5s3.4-1,4.3-2.5h0s4.3,2.5,4.3,2.5c-1.7,2.9-4.8,4.9-8.4,4.9h-.1c-3.6,0-6.8-2-8.5-4.9-.8-1.4-1.3-3.1-1.3-4.9,0-5.4,4.4-9.8,9.8-9.8Z"/>
    </g>
  </g>
</svg>
