<?xml version="1.0" encoding="UTF-8"?>
<svg id="_30x30" data-name="30x30" xmlns="http://www.w3.org/2000/svg" width="30" height="30" viewBox="0 0 30 30">
  <defs>
    <style>
      .cls-1 {
        fill: #ddf5ff;
      }

      .cls-1, .cls-2 {
        stroke-width: 0px;
      }

      .cls-2 {
        fill: #3cfffc;
      }
    </style>
  </defs>
  <g id="_1-3-2-19-svgator" data-name="1-3-2-19-svgator">
    <path class="cls-1" d="M9.4,18c1,0,2,.7,2.4,1.7.4.9.2,2-.4,2.8h0c0,0,0,0,0,0-.2.2-.1.5,0,.6.7.6,1.5,1.1,2.4,1.4h.2c0,0,0,0,0,0,.2,0,.5,0,.6-.3h0s0-.1,0-.1c.3-.6.8-1.1,1.4-1.4.7-.3,1.4-.3,2.1,0,.7.3,1.3.9,1.6,1.7,0,0,0,0,0,.1-6.6,3.4-9,2.3-14-3.5-.7-.9-1.3-1.9-1.7-2.9,1.8.6,3.7.5,5.5-.2ZM29.1,7.9c2,2.4-1.7,10.8-6.4,14.6-.8-.9-.9-2.1-.3-3.1.6-1,1.7-1.5,2.8-1.3h0s0,0,0,0c.1,0,.2,0,.3,0,.1,0,.2-.2.2-.3.1-.9.1-1.7,0-2.6v-.2s0,0,0,0c0-.2-.3-.4-.6-.3-1.1.2-2.3-.3-2.9-1.4-.5-1-.4-2.2.3-3.1h0c0,0,0,0,0,0,.2-.2.1-.5,0-.6-.7-.6-1.5-1.1-2.4-1.4h-.2c0,0,0,0,0,0-.2,0-.5,0-.6.3-.1.4-.4.7-.7,1-.6.6-1.5.9-2.4.7-.9-.2-1.6-.7-2-1.5-.1-.9-.4-1.7-.8-2.5,1.9-.4,13.2-.8,15.2,1.8ZM17,13.8c1.4,0,2.6,1.1,2.6,2.6s-1.1,2.6-2.6,2.6-2.6-1.1-2.6-2.6,1.1-2.6,2.6-2.6Z"/>
    <path class="cls-2" d="M6.8,3.5c.5,0,.8.4.9.9h0v1.2c0,.3.1.6.4.8h0s.5.3.5.3c.3.2.6.2.9,0h0s1-.6,1-.6h0c.2-.1.4-.2.7-.1.2,0,.4.2.5.4h0s.5.9.5.9h0c.1.2.1.5,0,.7s-.2.4-.4.5h0s-1,.6-1,.6c-.3.2-.4.4-.4.7h0v.5c0,.3.1.6.4.8h0s1,.6,1,.6h0c.2.1.4.3.4.6,0,.2,0,.5,0,.7h0s-.5.9-.5.9h0c-.1.2-.3.4-.5.4-.2,0-.5,0-.7,0h0s-1-.6-1-.6c-.3-.2-.6-.2-.9,0h0s-.5.3-.5.3c-.3.2-.4.4-.4.7h0v1.1h0c0,.5-.4.9-.8.9h0s-.9,0-.9,0c-.5,0-.9-.4-.9-.9h0v-1.1c0-.3-.1-.6-.4-.8h0s-.5-.3-.5-.3c-.3-.2-.6-.2-.9,0h0s-1,.6-1,.6h0c-.2.1-.4.2-.7.1-.2,0-.4-.2-.5-.4h0s-.5-.9-.5-.9h0c-.1-.2-.1-.5,0-.7,0-.2.2-.4.4-.5h0s1-.6,1-.6c.3-.1.4-.4.4-.7h0v-.6c0-.3-.1-.6-.4-.7h0s-1-.6-1-.6h0c-.2-.2-.3-.3-.4-.6,0-.2,0-.5,0-.7h0s.4-.9.4-.9h0c.1-.2.3-.4.5-.4.2,0,.5,0,.7,0h0s1,.7,1,.7c.3.2.6.2.9,0h0s.5-.3.5-.3c.3-.2.4-.4.4-.7h0v-1.3c0-.5.4-.9.9-.9h0s.9,0,.9,0ZM5,8.7c-.5.6-.7,1.4-.4,2.1.3.7,1,1.2,1.7,1.2h0s0,0,0,0h0c1,0,1.8-.8,1.9-1.8h0c0,0,0-.1,0-.1,0-.7-.5-1.4-1.2-1.7-.7-.3-1.5-.1-2.1.4Z"/>
  </g>
</svg>