<?xml version="1.0" encoding="UTF-8"?>
<svg id="_30x30_Timeline" data-name="30x30 Timeline" xmlns="http://www.w3.org/2000/svg" width="30" height="30" viewBox="0 0 30 30">
  <defs>
    <style>
      .cls-1 {
        fill: #fecc43;
      }

      .cls-1, .cls-2 {
        stroke-width: 0px;
      }

      .cls-2 {
        fill: #fecc42;
      }
    </style>
  </defs>
  <g id="_1-3-2-3-time-management" data-name="1-3-2-3-time-management">
    <path class="cls-2" d="M19.4,20.1h-8.6c-.1-.2,0-.4-.1-.6-.2-.7-.5-1.3-1.1-1.7-1.7-1.3-2.8-3.1-3.2-5.2-.6-3.1.1-5.8,2.3-8.1,1.4-1.4,3.1-2.3,5.1-2.6,2.2-.3,4.3.2,6.2,1.5,2.2,1.5,3.6,3.5,3.9,6.1.4,3.2-.7,5.9-3.1,8.1-.8.7-1.2,1.5-1.3,2.5ZM15,17.3c3.6,0,6.6-2.9,6.6-6.5,0-3.9-2.7-6.6-6.6-6.6-3.7,0-6.5,2.7-6.6,6.6,0,3.6,2.9,6.5,6.5,6.5Z"/>
    <path class="cls-2" d="M19.4,23.5c0,1.2-1,2.3-2.2,2.3-1.4,0-2.8,0-4.2,0-1.2,0-2.3-1.1-2.2-2.3h8.6Z"/>
    <path class="cls-2" d="M19.4,22.5h-8.6v-1.4h8.6v1.4Z"/>
    <path class="cls-1" d="M12.9,26.7h4.2c-.2.7-1.1,1.3-1.9,1.4-1,0-1.9-.5-2.3-1.4Z"/>
    <path class="cls-2" d="M15.5,16.4c0-.2,0-.4,0-.5,0-.6-.1-.8-.5-.9-.4,0-.5.2-.5.9,0,.2,0,.3,0,.5-2.4,0-4.9-2.2-5.1-5.1.3,0,.5,0,.8,0,.4,0,.6-.2.6-.5,0-.3-.2-.4-.6-.4-.3,0-.5,0-.8,0,0-2.4,2.1-4.9,5.1-5.1,0,.3,0,.5,0,.8,0,.4.2.6.5.6.3,0,.5-.2.5-.6,0-.3,0-.5,0-.8,2.7.1,5,2.5,5.1,5.1-.3,0-.6,0-.8,0-.3,0-.5.2-.5.5,0,.3.2.5.5.5.3,0,.6,0,.8,0-.1,2.5-2.3,4.9-5.1,5.1ZM15.5,10.3c0-.8,0-1.5,0-2.2,0-.4-.2-.6-.5-.6-.3,0-.5.2-.5.6,0,.9,0,1.8,0,2.6,0,.4.2.6.6.6.6,0,1.1,0,1.7,0,.3,0,.6-.2.6-.5,0-.3-.2-.5-.6-.5-.4,0-.9,0-1.3,0Z"/>
  </g>
</svg>