<?xml version="1.0" encoding="UTF-8"?>
<svg id="_30x30" data-name="30x30" xmlns="http://www.w3.org/2000/svg" width="1072.2" height="543" viewBox="0 0 30 30">
  <defs>
    <style>
      .cls-1 {
        fill: #fff;
        stroke-width: 0px;
      }
    </style>
  </defs>
  <g id="_1-3-2-13-mysql" data-name="1-3-2-13-mysql">
    <g>
      <path class="cls-1" d="M27.6,23c-1.6,0-2.9.1-4,.6-.3.1-.8.1-.8.5.2.2.2.4.3.7.2.4.7,1,1.1,1.2.4.3.9.7,1.3.9.8.5,1.7.8,2.5,1.3.4.3.9.7,1.3,1,.2.2.4.4.7.5h0c-.1-.2-.2-.5-.3-.7-.2-.2-.4-.4-.6-.6-.6-.8-1.3-1.5-2.1-2.1-.7-.4-2.1-1.1-2.3-1.8,0,0,0,0,0,0,.4,0,1-.2,1.4-.3.7-.2,1.3-.1,2-.3.3,0,.7-.2,1-.3v-.2c-.4-.4-.6-.9-1-1.2-1-.9-2.2-1.8-3.4-2.5-.6-.4-1.4-.7-2.1-1-.2-.1-.7-.2-.8-.4-.4-.4-.6-1-.8-1.6-.6-1.1-1.2-2.4-1.7-3.5-.4-.8-.6-1.6-1-2.3-2.1-3.5-4.4-5.6-7.9-7.6-.8-.4-1.7-.6-2.6-.8-.5,0-1,0-1.5,0-.3-.1-.7-.5-.9-.7C4,.8,1-.8.1,1.3c-.6,1.3.8,2.6,1.3,3.3.3.5.8,1,1,1.5.1.3.2.7.3,1.1.3.9.6,1.9,1.1,2.7.2.4.5.9.8,1.3.2.2.4.3.5.7-.3.4-.3,1-.5,1.5-.7,2.3-.4,5.2.6,6.9.3.5,1.1,1.6,2.1,1.2.9-.4.7-1.5,1-2.5,0-.2,0-.4.1-.6,0,0,0,0,0,0,.3.6.6,1.1.8,1.7.6,1,1.7,2,2.7,2.7.5.4.9,1,1.5,1.2h0c0,0,0,0,0,0-.1-.2-.3-.3-.5-.4-.4-.4-.8-.8-1.1-1.2-.9-1.1-1.6-2.4-2.3-3.7-.3-.6-.6-1.3-.9-2-.1-.2-.1-.6-.3-.7-.3.4-.8.8-1,1.4-.4.9-.4,2-.6,3.1,0,0,0,0,0,0-.7-.2-.9-.8-1.1-1.4-.6-1.4-.7-3.8-.2-5.4.1-.4.8-1.8.5-2.2-.1-.4-.5-.6-.8-.9-.3-.4-.6-.9-.7-1.3-.5-1.1-.7-2.4-1.3-3.5-.2-.5-.7-1.1-1-1.6-.4-.6-.8-.9-1.1-1.6-.1-.2-.2-.6,0-.8,0-.2.1-.2.3-.3.3-.2,1,0,1.3.2.8.3,1.4.6,2,1,.3.2.6.6,1,.7h.4c.7.1,1.4,0,2,.2,1.1.3,2.1.9,2.9,1.4,2.7,1.7,4.9,4.1,6.4,7,.2.5.3.9.6,1.4.4,1,1,2,1.4,3,.4,1,.8,1.9,1.4,2.7.3.4,1.5.7,2.1.9.4.2,1,.3,1.4.6.7.4,1.4.9,2,1.4.3.2,1.3.8,1.4,1.2Z"/>
      <path class="cls-1" d="M6.8,5.3c-.3,0-.6,0-.8.1h0s0,0,0,0c.2.3.4.6.7.8.2.3.3.7.5,1,0,0,0,0,0,0,.3-.2.4-.5.4-1-.1-.1-.1-.3-.2-.4-.1-.2-.4-.3-.6-.5Z"/>
    </g>
  </g>
</svg>
