<svg width="400" height="150" viewBox="0 0 400 150" fill="none" xmlns="http://www.w3.org/2000/svg">
<mask id="path-1-inside-1_50_3437" fill="white">
<path d="M0 5.00013C0 2.2387 2.23858 0.00012207 5 0.00012207H395C397.761 0.00012207 400 2.2387 400 5.00012V147C400 148.657 398.657 150 397 150H3C1.34314 150 0 148.657 0 147V5.00013Z"/>
</mask>
<path d="M0 5.00013C0 2.2387 2.23858 0.00012207 5 0.00012207H395C397.761 0.00012207 400 2.2387 400 5.00012V147C400 148.657 398.657 150 397 150H3C1.34314 150 0 148.657 0 147V5.00013Z" fill="#333333"/>
<path d="M0 0.00012207H400H0ZM400 147C400 150.314 397.314 153 394 153H6C2.68629 153 0 150.314 0 147C0 147 1.34315 147 3 147H397C398.657 147 400 147 400 147ZM0 150V0.00012207V150ZM400 0.00012207V150V0.00012207Z" fill="#FFCD42" mask="url(#path-1-inside-1_50_3437)"/>
<g clip-path="url(#clip0_50_3437)">
<path d="M25 61.1905C25 48.5227 25 42.1888 27.4653 37.3503C29.6339 33.0943 33.0942 29.634 37.3502 27.4654C42.1887 25.0001 48.5226 25.0001 61.1904 25.0001H88.8096C101.477 25.0001 107.811 25.0001 112.65 27.4654C116.906 29.634 120.366 33.0943 122.535 37.3503C125 42.1888 125 48.5227 125 61.1905V88.8098C125 101.478 125 107.812 122.535 112.65C120.366 116.906 116.906 120.366 112.65 122.535C107.811 125 101.477 125 88.8096 125H61.1904C48.5226 125 42.1887 125 37.3502 122.535C33.0942 120.366 29.6339 116.906 27.4653 112.65C25 107.812 25 101.478 25 88.8098V61.1905Z" fill="#330000"/>
<path d="M73.6519 86.2386H60.0928L57.3341 95.0283C57.2575 95.3549 56.9569 95.5861 56.6297 95.5699H49.762C49.3703 95.5699 49.2334 95.3492 49.3511 94.9077L61.0906 60.2308C61.2081 59.8695 61.3256 59.4583 61.4428 58.9967C61.5966 58.1933 61.675 57.377 61.6778 56.5586C61.6441 56.3167 61.8566 56.1031 62.0884 56.137H71.4216C71.695 56.137 71.8513 56.2373 71.8909 56.438L85.2156 94.968C85.3328 95.3695 85.2156 95.5702 84.8634 95.5699H77.2325C76.965 95.6005 76.7094 95.417 76.6456 95.1486L73.6519 86.2386ZM62.2059 78.653H71.4803C69.9566 73.4461 68.2369 68.3077 66.8431 63.0605C65.3394 68.3167 63.6988 73.5517 62.2059 78.653Z" fill="#FF9A00"/>
<path d="M93.1391 62.5183C92.5403 62.5429 91.9434 62.4376 91.3869 62.2095C90.8306 61.9814 90.3275 61.6351 89.9106 61.1939C89.495 60.7333 89.1719 60.1933 88.9603 59.6042C88.7488 59.0154 88.6528 58.3895 88.6778 57.7623C88.6566 57.1414 88.7631 56.5229 88.9906 55.9472C89.2184 55.3714 89.5619 54.8514 89.9988 54.421C90.4313 53.9951 90.9419 53.6614 91.5013 53.4393C92.0603 53.2171 92.6569 53.1108 93.2563 53.1267C94.6653 53.1267 95.7706 53.5581 96.5728 54.421C96.9778 54.8694 97.2925 55.3954 97.4991 55.9687C97.7053 56.542 97.7997 57.1517 97.7759 57.7623C97.8006 58.3917 97.7016 59.0201 97.4847 59.6095C97.2681 60.1989 96.9378 60.7376 96.5141 61.1939C96.0713 61.6417 95.5425 61.9904 94.9619 62.2186C94.3809 62.4464 93.7603 62.5486 93.1391 62.5183ZM89.0888 94.9676V66.1908C89.0888 65.8295 89.2447 65.6489 89.5584 65.6489H96.7784C97.0909 65.6489 97.2475 65.8295 97.2478 66.1908V94.9676C97.2478 95.3695 97.0913 95.5701 96.7784 95.5698H89.6172C89.265 95.5698 89.0888 95.3692 89.0888 94.9676Z" fill="#FF9A00"/>
</g>
<path d="M149.975 40.0001L157.9 22.5001H160.375L168.325 40.0001H165.7L158.625 23.9001H159.625L152.55 40.0001H149.975ZM153.35 35.6251L154.025 33.6251H163.875L164.6 35.6251H153.35ZM175.938 40.1501C174.655 40.1501 173.505 39.8668 172.488 39.3001C171.488 38.7335 170.697 37.9418 170.113 36.9251C169.53 35.9085 169.238 34.7251 169.238 33.3751C169.238 32.0251 169.53 30.8501 170.113 29.8501C170.697 28.8335 171.488 28.0418 172.488 27.4751C173.505 26.9085 174.655 26.6251 175.938 26.6251C177.055 26.6251 178.063 26.8751 178.963 27.3751C179.863 27.8751 180.58 28.6251 181.113 29.6251C181.663 30.6251 181.938 31.8751 181.938 33.3751C181.938 34.8751 181.672 36.1251 181.138 37.1251C180.622 38.1251 179.913 38.8835 179.013 39.4001C178.113 39.9001 177.088 40.1501 175.938 40.1501ZM176.138 38.0501C176.972 38.0501 177.722 37.8585 178.388 37.4751C179.072 37.0918 179.605 36.5501 179.988 35.8501C180.388 35.1335 180.588 34.3085 180.588 33.3751C180.588 32.4251 180.388 31.6085 179.988 30.9251C179.605 30.2251 179.072 29.6835 178.388 29.3001C177.722 28.9168 176.972 28.7251 176.138 28.7251C175.288 28.7251 174.53 28.9168 173.863 29.3001C173.197 29.6835 172.663 30.2251 172.263 30.9251C171.863 31.6085 171.663 32.4251 171.663 33.3751C171.663 34.3085 171.863 35.1335 172.263 35.8501C172.663 36.5501 173.197 37.0918 173.863 37.4751C174.53 37.8585 175.288 38.0501 176.138 38.0501ZM180.663 40.0001V36.4251L180.813 33.3501L180.563 30.2751V21.4501H182.963V40.0001H180.663ZM193.179 40.1501C191.846 40.1501 190.663 39.8585 189.629 39.2751C188.596 38.6918 187.779 37.8918 187.179 36.8751C186.579 35.8418 186.279 34.6751 186.279 33.3751C186.279 32.0585 186.579 30.8918 187.179 29.8751C187.779 28.8585 188.596 28.0668 189.629 27.5001C190.663 26.9168 191.846 26.6251 193.179 26.6251C194.496 26.6251 195.671 26.9168 196.704 27.5001C197.754 28.0668 198.571 28.8585 199.154 29.8751C199.754 30.8751 200.054 32.0418 200.054 33.3751C200.054 34.6918 199.754 35.8585 199.154 36.8751C198.571 37.8918 197.754 38.6918 196.704 39.2751C195.671 39.8585 194.496 40.1501 193.179 40.1501ZM193.179 38.0501C194.029 38.0501 194.788 37.8585 195.454 37.4751C196.138 37.0918 196.671 36.5501 197.054 35.8501C197.438 35.1335 197.629 34.3085 197.629 33.3751C197.629 32.4251 197.438 31.6085 197.054 30.9251C196.671 30.2251 196.138 29.6835 195.454 29.3001C194.788 28.9168 194.029 28.7251 193.179 28.7251C192.329 28.7251 191.571 28.9168 190.904 29.3001C190.238 29.6835 189.704 30.2251 189.304 30.9251C188.904 31.6085 188.704 32.4251 188.704 33.3751C188.704 34.3085 188.904 35.1335 189.304 35.8501C189.704 36.5501 190.238 37.0918 190.904 37.4751C191.571 37.8585 192.329 38.0501 193.179 38.0501ZM210.399 40.1501C209.265 40.1501 208.24 39.9001 207.324 39.4001C206.424 38.8835 205.707 38.1251 205.174 37.1251C204.657 36.1251 204.399 34.8751 204.399 33.3751C204.399 31.8751 204.665 30.6251 205.199 29.6251C205.749 28.6251 206.474 27.8751 207.374 27.3751C208.29 26.8751 209.299 26.6251 210.399 26.6251C211.699 26.6251 212.849 26.9085 213.849 27.4751C214.849 28.0418 215.64 28.8335 216.224 29.8501C216.807 30.8501 217.099 32.0251 217.099 33.3751C217.099 34.7251 216.807 35.9085 216.224 36.9251C215.64 37.9418 214.849 38.7335 213.849 39.3001C212.849 39.8668 211.699 40.1501 210.399 40.1501ZM203.374 40.0001V21.4501H205.774V30.2751L205.524 33.3501L205.674 36.4251V40.0001H203.374ZM210.199 38.0501C211.049 38.0501 211.807 37.8585 212.474 37.4751C213.157 37.0918 213.69 36.5501 214.074 35.8501C214.474 35.1335 214.674 34.3085 214.674 33.3751C214.674 32.4251 214.474 31.6085 214.074 30.9251C213.69 30.2251 213.157 29.6835 212.474 29.3001C211.807 28.9168 211.049 28.7251 210.199 28.7251C209.365 28.7251 208.607 28.9168 207.924 29.3001C207.257 29.6835 206.724 30.2251 206.324 30.9251C205.94 31.6085 205.749 32.4251 205.749 33.3751C205.749 34.3085 205.94 35.1335 206.324 35.8501C206.724 36.5501 207.257 37.0918 207.924 37.4751C208.607 37.8585 209.365 38.0501 210.199 38.0501ZM226.315 40.1501C224.898 40.1501 223.648 39.8585 222.565 39.2751C221.498 38.6918 220.665 37.8918 220.065 36.8751C219.481 35.8585 219.19 34.6918 219.19 33.3751C219.19 32.0585 219.473 30.8918 220.04 29.8751C220.623 28.8585 221.415 28.0668 222.415 27.5001C223.431 26.9168 224.573 26.6251 225.84 26.6251C227.123 26.6251 228.256 26.9085 229.24 27.4751C230.223 28.0418 230.99 28.8418 231.54 29.8751C232.106 30.8918 232.39 32.0835 232.39 33.4501C232.39 33.5501 232.381 33.6668 232.365 33.8001C232.365 33.9335 232.356 34.0585 232.34 34.1751H221.065V32.4501H231.09L230.115 33.0501C230.131 32.2001 229.956 31.4418 229.59 30.7751C229.223 30.1085 228.715 29.5918 228.065 29.2251C227.431 28.8418 226.69 28.6501 225.84 28.6501C225.006 28.6501 224.265 28.8418 223.615 29.2251C222.965 29.5918 222.456 30.1168 222.09 30.8001C221.723 31.4668 221.54 32.2335 221.54 33.1001V33.5001C221.54 34.3835 221.74 35.1751 222.14 35.8751C222.556 36.5585 223.131 37.0918 223.865 37.4751C224.598 37.8585 225.44 38.0501 226.39 38.0501C227.173 38.0501 227.881 37.9168 228.515 37.6501C229.165 37.3835 229.731 36.9835 230.215 36.4501L231.54 38.0001C230.94 38.7001 230.19 39.2335 229.29 39.6001C228.406 39.9668 227.415 40.1501 226.315 40.1501ZM242.786 40.0001V22.5001H245.286V40.0001H242.786ZM250.175 40.0001V21.4501H252.575V40.0001H250.175ZM257.158 40.0001V21.4501H259.558V40.0001H257.158ZM269.715 40.1501C268.582 40.1501 267.582 39.9418 266.715 39.5251C265.865 39.1085 265.199 38.4751 264.715 37.6251C264.249 36.7585 264.015 35.6751 264.015 34.3751V26.7501H266.415V34.1001C266.415 35.4001 266.724 36.3751 267.34 37.0251C267.974 37.6751 268.857 38.0001 269.99 38.0001C270.824 38.0001 271.549 37.8335 272.165 37.5001C272.782 37.1501 273.257 36.6501 273.59 36.0001C273.924 35.3335 274.09 34.5335 274.09 33.6001V26.7501H276.49V40.0001H274.215V36.4251L274.59 37.3751C274.157 38.2585 273.507 38.9418 272.64 39.4251C271.774 39.9085 270.799 40.1501 269.715 40.1501ZM284.859 40.1501C283.759 40.1501 282.709 40.0001 281.709 39.7001C280.726 39.4001 279.951 39.0335 279.384 38.6001L280.384 36.7001C280.951 37.0835 281.651 37.4085 282.484 37.6751C283.318 37.9418 284.168 38.0751 285.034 38.0751C286.151 38.0751 286.951 37.9168 287.434 37.6001C287.934 37.2835 288.184 36.8418 288.184 36.2751C288.184 35.8585 288.034 35.5335 287.734 35.3001C287.434 35.0668 287.034 34.8918 286.534 34.7751C286.051 34.6585 285.509 34.5585 284.909 34.4751C284.309 34.3751 283.709 34.2585 283.109 34.1251C282.509 33.9751 281.959 33.7751 281.459 33.5251C280.959 33.2585 280.559 32.9001 280.259 32.4501C279.959 31.9835 279.809 31.3668 279.809 30.6001C279.809 29.8001 280.034 29.1001 280.484 28.5001C280.934 27.9001 281.568 27.4418 282.384 27.1251C283.218 26.7918 284.201 26.6251 285.334 26.6251C286.201 26.6251 287.076 26.7335 287.959 26.9501C288.859 27.1501 289.593 27.4418 290.159 27.8251L289.134 29.7251C288.534 29.3251 287.909 29.0501 287.259 28.9001C286.609 28.7501 285.959 28.6751 285.309 28.6751C284.259 28.6751 283.476 28.8501 282.959 29.2001C282.443 29.5335 282.184 29.9668 282.184 30.5001C282.184 30.9501 282.334 31.3001 282.634 31.5501C282.951 31.7835 283.351 31.9668 283.834 32.1001C284.334 32.2335 284.884 32.3501 285.484 32.4501C286.084 32.5335 286.684 32.6501 287.284 32.8001C287.884 32.9335 288.426 33.1251 288.909 33.3751C289.409 33.6251 289.809 33.9751 290.109 34.4251C290.426 34.8751 290.584 35.4751 290.584 36.2251C290.584 37.0251 290.351 37.7168 289.884 38.3001C289.418 38.8835 288.759 39.3418 287.909 39.6751C287.059 39.9918 286.043 40.1501 284.859 40.1501ZM298.134 40.1501C296.8 40.1501 295.767 39.7918 295.034 39.0751C294.3 38.3585 293.934 37.3335 293.934 36.0001V23.8501H296.334V35.9001C296.334 36.6168 296.509 37.1668 296.859 37.5501C297.225 37.9335 297.742 38.1251 298.409 38.1251C299.159 38.1251 299.784 37.9168 300.284 37.5001L301.034 39.2251C300.667 39.5418 300.225 39.7751 299.709 39.9251C299.209 40.0751 298.684 40.1501 298.134 40.1501ZM291.684 28.7251V26.7501H300.134V28.7251H291.684ZM303.935 40.0001V26.7501H306.235V30.3501L306.01 29.4501C306.377 28.5335 306.993 27.8335 307.86 27.3501C308.727 26.8668 309.793 26.6251 311.06 26.6251V28.9501C310.96 28.9335 310.86 28.9251 310.76 28.9251C310.677 28.9251 310.593 28.9251 310.51 28.9251C309.227 28.9251 308.21 29.3085 307.46 30.0751C306.71 30.8418 306.335 31.9501 306.335 33.4001V40.0001H303.935ZM321.34 40.0001V37.2001L321.215 36.6751V31.9001C321.215 30.8835 320.915 30.1001 320.315 29.5501C319.732 28.9835 318.848 28.7001 317.665 28.7001C316.882 28.7001 316.115 28.8335 315.365 29.1001C314.615 29.3501 313.982 29.6918 313.465 30.1251L312.465 28.3251C313.148 27.7751 313.965 27.3585 314.915 27.0751C315.882 26.7751 316.89 26.6251 317.94 26.6251C319.757 26.6251 321.157 27.0668 322.14 27.9501C323.123 28.8335 323.615 30.1835 323.615 32.0001V40.0001H321.34ZM316.99 40.1501C316.007 40.1501 315.14 39.9835 314.39 39.6501C313.657 39.3168 313.09 38.8585 312.69 38.2751C312.29 37.6751 312.09 37.0001 312.09 36.2501C312.09 35.5335 312.257 34.8835 312.59 34.3001C312.94 33.7168 313.498 33.2501 314.265 32.9001C315.048 32.5501 316.098 32.3751 317.415 32.3751H321.615V34.1001H317.515C316.315 34.1001 315.507 34.3001 315.09 34.7001C314.673 35.1001 314.465 35.5835 314.465 36.1501C314.465 36.8001 314.723 37.3251 315.24 37.7251C315.757 38.1085 316.473 38.3001 317.39 38.3001C318.29 38.3001 319.073 38.1001 319.74 37.7001C320.423 37.3001 320.915 36.7168 321.215 35.9501L321.69 37.6001C321.373 38.3835 320.815 39.0085 320.015 39.4751C319.215 39.9251 318.207 40.1501 316.99 40.1501ZM332.606 40.1501C331.273 40.1501 330.24 39.7918 329.506 39.0751C328.773 38.3585 328.406 37.3335 328.406 36.0001V23.8501H330.806V35.9001C330.806 36.6168 330.981 37.1668 331.331 37.5501C331.698 37.9335 332.215 38.1251 332.881 38.1251C333.631 38.1251 334.256 37.9168 334.756 37.5001L335.506 39.2251C335.14 39.5418 334.698 39.7751 334.181 39.9251C333.681 40.0751 333.156 40.1501 332.606 40.1501ZM326.156 28.7251V26.7501H334.606V28.7251H326.156ZM343.643 40.1501C342.31 40.1501 341.127 39.8585 340.093 39.2751C339.06 38.6918 338.243 37.8918 337.643 36.8751C337.043 35.8418 336.743 34.6751 336.743 33.3751C336.743 32.0585 337.043 30.8918 337.643 29.8751C338.243 28.8585 339.06 28.0668 340.093 27.5001C341.127 26.9168 342.31 26.6251 343.643 26.6251C344.96 26.6251 346.135 26.9168 347.168 27.5001C348.218 28.0668 349.035 28.8585 349.618 29.8751C350.218 30.8751 350.518 32.0418 350.518 33.3751C350.518 34.6918 350.218 35.8585 349.618 36.8751C349.035 37.8918 348.218 38.6918 347.168 39.2751C346.135 39.8585 344.96 40.1501 343.643 40.1501ZM343.643 38.0501C344.493 38.0501 345.252 37.8585 345.918 37.4751C346.602 37.0918 347.135 36.5501 347.518 35.8501C347.902 35.1335 348.093 34.3085 348.093 33.3751C348.093 32.4251 347.902 31.6085 347.518 30.9251C347.135 30.2251 346.602 29.6835 345.918 29.3001C345.252 28.9168 344.493 28.7251 343.643 28.7251C342.793 28.7251 342.035 28.9168 341.368 29.3001C340.702 29.6835 340.168 30.2251 339.768 30.9251C339.368 31.6085 339.168 32.4251 339.168 33.3751C339.168 34.3085 339.368 35.1335 339.768 35.8501C340.168 36.5501 340.702 37.0918 341.368 37.4751C342.035 37.8585 342.793 38.0501 343.643 38.0501ZM353.838 40.0001V26.7501H356.138V30.3501L355.913 29.4501C356.279 28.5335 356.896 27.8335 357.763 27.3501C358.629 26.8668 359.696 26.6251 360.963 26.6251V28.9501C360.863 28.9335 360.763 28.9251 360.663 28.9251C360.579 28.9251 360.496 28.9251 360.413 28.9251C359.129 28.9251 358.113 29.3085 357.363 30.0751C356.613 30.8418 356.238 31.9501 356.238 33.4001V40.0001H353.838Z" fill="white"/>
<path d="M156.27 70.0901C155.48 70.0901 154.75 69.9601 154.08 69.7001C153.41 69.4301 152.83 69.0551 152.34 68.5751C151.85 68.0951 151.465 67.5301 151.185 66.8801C150.915 66.2301 150.78 65.5201 150.78 64.7501C150.78 63.9801 150.915 63.2701 151.185 62.6201C151.465 61.9701 151.85 61.4051 152.34 60.9251C152.84 60.4451 153.425 60.0751 154.095 59.8151C154.765 59.5451 155.495 59.4101 156.285 59.4101C157.045 59.4101 157.76 59.5401 158.43 59.8001C159.1 60.0501 159.665 60.4301 160.125 60.9401L159.42 61.6451C158.99 61.2051 158.515 60.8901 157.995 60.7001C157.475 60.5001 156.915 60.4001 156.315 60.4001C155.685 60.4001 155.1 60.5101 154.56 60.7301C154.02 60.9401 153.55 61.2451 153.15 61.6451C152.75 62.0351 152.435 62.4951 152.205 63.0251C151.985 63.5451 151.875 64.1201 151.875 64.7501C151.875 65.3801 151.985 65.9601 152.205 66.4901C152.435 67.0101 152.75 67.4701 153.15 67.8701C153.55 68.2601 154.02 68.5651 154.56 68.7851C155.1 68.9951 155.685 69.1001 156.315 69.1001C156.915 69.1001 157.475 69.0001 157.995 68.8001C158.515 68.6001 158.99 68.2801 159.42 67.8401L160.125 68.5451C159.665 69.0551 159.1 69.4401 158.43 69.7001C157.76 69.9601 157.04 70.0901 156.27 70.0901ZM162.12 70.0001V62.1251H163.14V64.2701L163.035 63.8951C163.255 63.2951 163.625 62.8401 164.145 62.5301C164.665 62.2101 165.31 62.0501 166.08 62.0501V63.0851C166.04 63.0851 166 63.0851 165.96 63.0851C165.92 63.0751 165.88 63.0701 165.84 63.0701C165.01 63.0701 164.36 63.3251 163.89 63.8351C163.42 64.3351 163.185 65.0501 163.185 65.9801V70.0001H162.12ZM171.295 70.0751C170.475 70.0751 169.755 69.9051 169.135 69.5651C168.515 69.2151 168.03 68.7401 167.68 68.1401C167.33 67.5301 167.155 66.8351 167.155 66.0551C167.155 65.2751 167.32 64.5851 167.65 63.9851C167.99 63.3851 168.45 62.9151 169.03 62.5751C169.62 62.2251 170.28 62.0501 171.01 62.0501C171.75 62.0501 172.405 62.2201 172.975 62.5601C173.555 62.8901 174.01 63.3601 174.34 63.9701C174.67 64.5701 174.835 65.2651 174.835 66.0551C174.835 66.1051 174.83 66.1601 174.82 66.2201C174.82 66.2701 174.82 66.3251 174.82 66.3851H167.965V65.5901H174.25L173.83 65.9051C173.83 65.3351 173.705 64.8301 173.455 64.3901C173.215 63.9401 172.885 63.5901 172.465 63.3401C172.045 63.0901 171.56 62.9651 171.01 62.9651C170.47 62.9651 169.985 63.0901 169.555 63.3401C169.125 63.5901 168.79 63.9401 168.55 64.3901C168.31 64.8401 168.19 65.3551 168.19 65.9351V66.1001C168.19 66.7001 168.32 67.2301 168.58 67.6901C168.85 68.1401 169.22 68.4951 169.69 68.7551C170.17 69.0051 170.715 69.1301 171.325 69.1301C171.805 69.1301 172.25 69.0451 172.66 68.8751C173.08 68.7051 173.44 68.4451 173.74 68.0951L174.34 68.7851C173.99 69.2051 173.55 69.5251 173.02 69.7451C172.5 69.9651 171.925 70.0751 171.295 70.0751ZM181.718 70.0001V68.2601L181.673 67.9751V65.0651C181.673 64.3951 181.483 63.8801 181.103 63.5201C180.733 63.1601 180.178 62.9801 179.438 62.9801C178.928 62.9801 178.443 63.0651 177.983 63.2351C177.523 63.4051 177.133 63.6301 176.813 63.9101L176.333 63.1151C176.733 62.7751 177.213 62.5151 177.773 62.3351C178.333 62.1451 178.923 62.0501 179.543 62.0501C180.563 62.0501 181.348 62.3051 181.898 62.8151C182.458 63.3151 182.738 64.0801 182.738 65.1101V70.0001H181.718ZM179.003 70.0751C178.413 70.0751 177.898 69.9801 177.458 69.7901C177.028 69.5901 176.698 69.3201 176.468 68.9801C176.238 68.6301 176.123 68.2301 176.123 67.7801C176.123 67.3701 176.218 67.0001 176.408 66.6701C176.608 66.3301 176.928 66.0601 177.368 65.8601C177.818 65.6501 178.418 65.5451 179.168 65.5451H181.883V66.3401H179.198C178.438 66.3401 177.908 66.4751 177.608 66.7451C177.318 67.0151 177.173 67.3501 177.173 67.7501C177.173 68.2001 177.348 68.5601 177.698 68.8301C178.048 69.1001 178.538 69.2351 179.168 69.2351C179.768 69.2351 180.283 69.1001 180.713 68.8301C181.153 68.5501 181.473 68.1501 181.673 67.6301L181.913 68.3651C181.713 68.8851 181.363 69.3001 180.863 69.6101C180.373 69.9201 179.753 70.0751 179.003 70.0751ZM188.121 70.0751C187.381 70.0751 186.811 69.8751 186.411 69.4751C186.011 69.0751 185.811 68.5101 185.811 67.7801V60.3851H186.876V67.7201C186.876 68.1801 186.991 68.5351 187.221 68.7851C187.461 69.0351 187.801 69.1601 188.241 69.1601C188.711 69.1601 189.101 69.0251 189.411 68.7551L189.786 69.5201C189.576 69.7101 189.321 69.8501 189.021 69.9401C188.731 70.0301 188.431 70.0751 188.121 70.0751ZM184.401 63.0101V62.1251H189.276V63.0101H184.401ZM191.724 70.0001V62.1251H192.789V70.0001H191.724ZM192.264 60.3851C192.044 60.3851 191.859 60.3101 191.709 60.1601C191.559 60.0101 191.484 59.8301 191.484 59.6201C191.484 59.4101 191.559 59.2351 191.709 59.0951C191.859 58.9451 192.044 58.8701 192.264 58.8701C192.484 58.8701 192.669 58.9401 192.819 59.0801C192.969 59.2201 193.044 59.3951 193.044 59.6051C193.044 59.8251 192.969 60.0101 192.819 60.1601C192.679 60.3101 192.494 60.3851 192.264 60.3851ZM195.753 70.0001V62.1251H196.773V64.2851L196.608 63.8801C196.858 63.3101 197.258 62.8651 197.808 62.5451C198.358 62.2151 199.013 62.0501 199.773 62.0501C200.413 62.0501 200.973 62.1751 201.453 62.4251C201.943 62.6651 202.323 63.0351 202.593 63.5351C202.873 64.0351 203.013 64.6651 203.013 65.4251V70.0001H201.948V65.5301C201.948 64.7001 201.738 64.0751 201.318 63.6551C200.908 63.2251 200.328 63.0101 199.578 63.0101C199.018 63.0101 198.528 63.1251 198.108 63.3551C197.698 63.5751 197.378 63.9001 197.148 64.3301C196.928 64.7501 196.818 65.2601 196.818 65.8601V70.0001H195.753ZM209.249 72.9851C208.529 72.9851 207.839 72.8801 207.179 72.6701C206.519 72.4601 205.984 72.1601 205.574 71.7701L206.114 70.9601C206.484 71.2901 206.939 71.5501 207.479 71.7401C208.029 71.9401 208.609 72.0401 209.219 72.0401C210.219 72.0401 210.954 71.8051 211.424 71.3351C211.894 70.8751 212.129 70.1551 212.129 69.1751V67.2101L212.279 65.8601L212.174 64.5101V62.1251H213.194V69.0401C213.194 70.4001 212.859 71.3951 212.189 72.0251C211.529 72.6651 210.549 72.9851 209.249 72.9851ZM209.054 69.7001C208.304 69.7001 207.629 69.5401 207.029 69.2201C206.429 68.8901 205.954 68.4351 205.604 67.8551C205.264 67.2751 205.094 66.6101 205.094 65.8601C205.094 65.1101 205.264 64.4501 205.604 63.8801C205.954 63.3001 206.429 62.8501 207.029 62.5301C207.629 62.2101 208.304 62.0501 209.054 62.0501C209.754 62.0501 210.384 62.1951 210.944 62.4851C211.504 62.7751 211.949 63.2051 212.279 63.7751C212.609 64.3451 212.774 65.0401 212.774 65.8601C212.774 66.6801 212.609 67.3751 212.279 67.9451C211.949 68.5151 211.504 68.9501 210.944 69.2501C210.384 69.5501 209.754 69.7001 209.054 69.7001ZM209.159 68.7551C209.739 68.7551 210.254 68.6351 210.704 68.3951C211.154 68.1451 211.509 67.8051 211.769 67.3751C212.029 66.9351 212.159 66.4301 212.159 65.8601C212.159 65.2901 212.029 64.7901 211.769 64.3601C211.509 63.9301 211.154 63.5951 210.704 63.3551C210.254 63.1051 209.739 62.9801 209.159 62.9801C208.589 62.9801 208.074 63.1051 207.614 63.3551C207.164 63.5951 206.809 63.9301 206.549 64.3601C206.299 64.7901 206.174 65.2901 206.174 65.8601C206.174 66.4301 206.299 66.9351 206.549 67.3751C206.809 67.8051 207.164 68.1451 207.614 68.3951C208.074 68.6351 208.589 68.7551 209.159 68.7551ZM222.109 70.0001L218.614 62.1251H219.724L222.934 69.4301H222.409L225.664 62.1251H226.714L223.204 70.0001H222.109ZM231.339 70.0751C230.519 70.0751 229.799 69.9051 229.179 69.5651C228.559 69.2151 228.074 68.7401 227.724 68.1401C227.374 67.5301 227.199 66.8351 227.199 66.0551C227.199 65.2751 227.364 64.5851 227.694 63.9851C228.034 63.3851 228.494 62.9151 229.074 62.5751C229.664 62.2251 230.324 62.0501 231.054 62.0501C231.794 62.0501 232.449 62.2201 233.019 62.5601C233.599 62.8901 234.054 63.3601 234.384 63.9701C234.714 64.5701 234.879 65.2651 234.879 66.0551C234.879 66.1051 234.874 66.1601 234.864 66.2201C234.864 66.2701 234.864 66.3251 234.864 66.3851H228.009V65.5901H234.294L233.874 65.9051C233.874 65.3351 233.749 64.8301 233.499 64.3901C233.259 63.9401 232.929 63.5901 232.509 63.3401C232.089 63.0901 231.604 62.9651 231.054 62.9651C230.514 62.9651 230.029 63.0901 229.599 63.3401C229.169 63.5901 228.834 63.9401 228.594 64.3901C228.354 64.8401 228.234 65.3551 228.234 65.9351V66.1001C228.234 66.7001 228.364 67.2301 228.624 67.6901C228.894 68.1401 229.264 68.4951 229.734 68.7551C230.214 69.0051 230.759 69.1301 231.369 69.1301C231.849 69.1301 232.294 69.0451 232.704 68.8751C233.124 68.7051 233.484 68.4451 233.784 68.0951L234.384 68.7851C234.034 69.2051 233.594 69.5251 233.064 69.7451C232.544 69.9651 231.969 70.0751 231.339 70.0751ZM240.317 70.0751C239.537 70.0751 238.837 69.9051 238.217 69.5651C237.607 69.2151 237.127 68.7401 236.777 68.1401C236.427 67.5301 236.252 66.8351 236.252 66.0551C236.252 65.2651 236.427 64.5701 236.777 63.9701C237.127 63.3701 237.607 62.9001 238.217 62.5601C238.837 62.2201 239.537 62.0501 240.317 62.0501C240.987 62.0501 241.592 62.1801 242.132 62.4401C242.672 62.7001 243.097 63.0901 243.407 63.6101L242.612 64.1501C242.342 63.7501 242.007 63.4551 241.607 63.2651C241.207 63.0751 240.772 62.9801 240.302 62.9801C239.742 62.9801 239.237 63.1101 238.787 63.3701C238.337 63.6201 237.982 63.9751 237.722 64.4351C237.462 64.8951 237.332 65.4351 237.332 66.0551C237.332 66.6751 237.462 67.2151 237.722 67.6751C237.982 68.1351 238.337 68.4951 238.787 68.7551C239.237 69.0051 239.742 69.1301 240.302 69.1301C240.772 69.1301 241.207 69.0351 241.607 68.8451C242.007 68.6551 242.342 68.3651 242.612 67.9751L243.407 68.5151C243.097 69.0251 242.672 69.4151 242.132 69.6851C241.592 69.9451 240.987 70.0751 240.317 70.0751ZM248.077 70.0751C247.337 70.0751 246.767 69.8751 246.367 69.4751C245.967 69.0751 245.767 68.5101 245.767 67.7801V60.3851H246.832V67.7201C246.832 68.1801 246.947 68.5351 247.177 68.7851C247.417 69.0351 247.757 69.1601 248.197 69.1601C248.667 69.1601 249.057 69.0251 249.367 68.7551L249.742 69.5201C249.532 69.7101 249.277 69.8501 248.977 69.9401C248.687 70.0301 248.387 70.0751 248.077 70.0751ZM244.357 63.0101V62.1251H249.232V63.0101H244.357ZM254.612 70.0751C253.852 70.0751 253.167 69.9051 252.557 69.5651C251.957 69.2151 251.482 68.7401 251.132 68.1401C250.782 67.5301 250.607 66.8351 250.607 66.0551C250.607 65.2651 250.782 64.5701 251.132 63.9701C251.482 63.3701 251.957 62.9001 252.557 62.5601C253.157 62.2201 253.842 62.0501 254.612 62.0501C255.392 62.0501 256.082 62.2201 256.682 62.5601C257.292 62.9001 257.767 63.3701 258.107 63.9701C258.457 64.5701 258.632 65.2651 258.632 66.0551C258.632 66.8351 258.457 67.5301 258.107 68.1401C257.767 68.7401 257.292 69.2151 256.682 69.5651C256.072 69.9051 255.382 70.0751 254.612 70.0751ZM254.612 69.1301C255.182 69.1301 255.687 69.0051 256.127 68.7551C256.567 68.4951 256.912 68.1351 257.162 67.6751C257.422 67.2051 257.552 66.6651 257.552 66.0551C257.552 65.4351 257.422 64.8951 257.162 64.4351C256.912 63.9751 256.567 63.6201 256.127 63.3701C255.687 63.1101 255.187 62.9801 254.627 62.9801C254.067 62.9801 253.567 63.1101 253.127 63.3701C252.687 63.6201 252.337 63.9751 252.077 64.4351C251.817 64.8951 251.687 65.4351 251.687 66.0551C251.687 66.6651 251.817 67.2051 252.077 67.6751C252.337 68.1351 252.687 68.4951 253.127 68.7551C253.567 69.0051 254.062 69.1301 254.612 69.1301ZM260.806 70.0001V62.1251H261.826V64.2701L261.721 63.8951C261.941 63.2951 262.311 62.8401 262.831 62.5301C263.351 62.2101 263.996 62.0501 264.766 62.0501V63.0851C264.726 63.0851 264.686 63.0851 264.646 63.0851C264.606 63.0751 264.566 63.0701 264.526 63.0701C263.696 63.0701 263.046 63.3251 262.576 63.8351C262.106 64.3351 261.871 65.0501 261.871 65.9801V70.0001H260.806ZM274.113 72.9851C273.393 72.9851 272.703 72.8801 272.043 72.6701C271.383 72.4601 270.848 72.1601 270.438 71.7701L270.978 70.9601C271.348 71.2901 271.803 71.5501 272.343 71.7401C272.893 71.9401 273.473 72.0401 274.083 72.0401C275.083 72.0401 275.818 71.8051 276.288 71.3351C276.758 70.8751 276.993 70.1551 276.993 69.1751V67.2101L277.143 65.8601L277.038 64.5101V62.1251H278.058V69.0401C278.058 70.4001 277.723 71.3951 277.053 72.0251C276.393 72.6651 275.413 72.9851 274.113 72.9851ZM273.918 69.7001C273.168 69.7001 272.493 69.5401 271.893 69.2201C271.293 68.8901 270.818 68.4351 270.468 67.8551C270.128 67.2751 269.958 66.6101 269.958 65.8601C269.958 65.1101 270.128 64.4501 270.468 63.8801C270.818 63.3001 271.293 62.8501 271.893 62.5301C272.493 62.2101 273.168 62.0501 273.918 62.0501C274.618 62.0501 275.248 62.1951 275.808 62.4851C276.368 62.7751 276.813 63.2051 277.143 63.7751C277.473 64.3451 277.638 65.0401 277.638 65.8601C277.638 66.6801 277.473 67.3751 277.143 67.9451C276.813 68.5151 276.368 68.9501 275.808 69.2501C275.248 69.5501 274.618 69.7001 273.918 69.7001ZM274.023 68.7551C274.603 68.7551 275.118 68.6351 275.568 68.3951C276.018 68.1451 276.373 67.8051 276.633 67.3751C276.893 66.9351 277.023 66.4301 277.023 65.8601C277.023 65.2901 276.893 64.7901 276.633 64.3601C276.373 63.9301 276.018 63.5951 275.568 63.3551C275.118 63.1051 274.603 62.9801 274.023 62.9801C273.453 62.9801 272.938 63.1051 272.478 63.3551C272.028 63.5951 271.673 63.9301 271.413 64.3601C271.163 64.7901 271.038 65.2901 271.038 65.8601C271.038 66.4301 271.163 66.9351 271.413 67.3751C271.673 67.8051 272.028 68.1451 272.478 68.3951C272.938 68.6351 273.453 68.7551 274.023 68.7551ZM281.021 70.0001V62.1251H282.041V64.2701L281.936 63.8951C282.156 63.2951 282.526 62.8401 283.046 62.5301C283.566 62.2101 284.211 62.0501 284.981 62.0501V63.0851C284.941 63.0851 284.901 63.0851 284.861 63.0851C284.821 63.0751 284.781 63.0701 284.741 63.0701C283.911 63.0701 283.261 63.3251 282.791 63.8351C282.321 64.3351 282.086 65.0501 282.086 65.9801V70.0001H281.021ZM291.361 70.0001V68.2601L291.316 67.9751V65.0651C291.316 64.3951 291.126 63.8801 290.746 63.5201C290.376 63.1601 289.821 62.9801 289.081 62.9801C288.571 62.9801 288.086 63.0651 287.626 63.2351C287.166 63.4051 286.776 63.6301 286.456 63.9101L285.976 63.1151C286.376 62.7751 286.856 62.5151 287.416 62.3351C287.976 62.1451 288.566 62.0501 289.186 62.0501C290.206 62.0501 290.991 62.3051 291.541 62.8151C292.101 63.3151 292.381 64.0801 292.381 65.1101V70.0001H291.361ZM288.646 70.0751C288.056 70.0751 287.541 69.9801 287.101 69.7901C286.671 69.5901 286.341 69.3201 286.111 68.9801C285.881 68.6301 285.766 68.2301 285.766 67.7801C285.766 67.3701 285.861 67.0001 286.051 66.6701C286.251 66.3301 286.571 66.0601 287.011 65.8601C287.461 65.6501 288.061 65.5451 288.811 65.5451H291.526V66.3401H288.841C288.081 66.3401 287.551 66.4751 287.251 66.7451C286.961 67.0151 286.816 67.3501 286.816 67.7501C286.816 68.2001 286.991 68.5601 287.341 68.8301C287.691 69.1001 288.181 69.2351 288.811 69.2351C289.411 69.2351 289.926 69.1001 290.356 68.8301C290.796 68.5501 291.116 68.1501 291.316 67.6301L291.556 68.3651C291.356 68.8851 291.006 69.3001 290.506 69.6101C290.016 69.9201 289.396 70.0751 288.646 70.0751ZM299.339 70.0751C298.659 70.0751 298.044 69.9201 297.494 69.6101C296.944 69.2901 296.504 68.8351 296.174 68.2451C295.854 67.6451 295.694 66.9151 295.694 66.0551C295.694 65.1951 295.854 64.4701 296.174 63.8801C296.494 63.2801 296.929 62.8251 297.479 62.5151C298.029 62.2051 298.649 62.0501 299.339 62.0501C300.089 62.0501 300.759 62.2201 301.349 62.5601C301.949 62.8901 302.419 63.3601 302.759 63.9701C303.099 64.5701 303.269 65.2651 303.269 66.0551C303.269 66.8551 303.099 67.5551 302.759 68.1551C302.419 68.7551 301.949 69.2251 301.349 69.5651C300.759 69.9051 300.089 70.0751 299.339 70.0751ZM295.274 72.9101V62.1251H296.294V64.4951L296.189 66.0701L296.339 67.6601V72.9101H295.274ZM299.264 69.1301C299.824 69.1301 300.324 69.0051 300.764 68.7551C301.204 68.4951 301.554 68.1351 301.814 67.6751C302.074 67.2051 302.204 66.6651 302.204 66.0551C302.204 65.4451 302.074 64.9101 301.814 64.4501C301.554 63.9901 301.204 63.6301 300.764 63.3701C300.324 63.1101 299.824 62.9801 299.264 62.9801C298.704 62.9801 298.199 63.1101 297.749 63.3701C297.309 63.6301 296.959 63.9901 296.699 64.4501C296.449 64.9101 296.324 65.4451 296.324 66.0551C296.324 66.6651 296.449 67.2051 296.699 67.6751C296.959 68.1351 297.309 68.4951 297.749 68.7551C298.199 69.0051 298.704 69.1301 299.264 69.1301ZM305.44 70.0001V58.8701H306.505V64.2851L306.295 63.8801C306.545 63.3101 306.945 62.8651 307.495 62.5451C308.045 62.2151 308.7 62.0501 309.46 62.0501C310.1 62.0501 310.66 62.1751 311.14 62.4251C311.63 62.6651 312.01 63.0351 312.28 63.5351C312.56 64.0351 312.7 64.6651 312.7 65.4251V70.0001H311.635V65.5301C311.635 64.7001 311.425 64.0751 311.005 63.6551C310.595 63.2251 310.015 63.0101 309.265 63.0101C308.705 63.0101 308.215 63.1251 307.795 63.3551C307.385 63.5751 307.065 63.9001 306.835 64.3301C306.615 64.7501 306.505 65.2601 306.505 65.8601V70.0001H305.44ZM315.577 70.0001V62.1251H316.642V70.0001H315.577ZM316.117 60.3851C315.897 60.3851 315.712 60.3101 315.562 60.1601C315.412 60.0101 315.337 59.8301 315.337 59.6201C315.337 59.4101 315.412 59.2351 315.562 59.0951C315.712 58.9451 315.897 58.8701 316.117 58.8701C316.337 58.8701 316.522 58.9401 316.672 59.0801C316.822 59.2201 316.897 59.3951 316.897 59.6051C316.897 59.8251 316.822 60.0101 316.672 60.1601C316.532 60.3101 316.347 60.3851 316.117 60.3851ZM322.875 70.0751C322.095 70.0751 321.395 69.9051 320.775 69.5651C320.165 69.2151 319.685 68.7401 319.335 68.1401C318.985 67.5301 318.81 66.8351 318.81 66.0551C318.81 65.2651 318.985 64.5701 319.335 63.9701C319.685 63.3701 320.165 62.9001 320.775 62.5601C321.395 62.2201 322.095 62.0501 322.875 62.0501C323.545 62.0501 324.15 62.1801 324.69 62.4401C325.23 62.7001 325.655 63.0901 325.965 63.6101L325.17 64.1501C324.9 63.7501 324.565 63.4551 324.165 63.2651C323.765 63.0751 323.33 62.9801 322.86 62.9801C322.3 62.9801 321.795 63.1101 321.345 63.3701C320.895 63.6201 320.54 63.9751 320.28 64.4351C320.02 64.8951 319.89 65.4351 319.89 66.0551C319.89 66.6751 320.02 67.2151 320.28 67.6751C320.54 68.1351 320.895 68.4951 321.345 68.7551C321.795 69.0051 322.3 69.1301 322.86 69.1301C323.33 69.1301 323.765 69.0351 324.165 68.8451C324.565 68.6551 324.9 68.3651 325.17 67.9751L325.965 68.5151C325.655 69.0251 325.23 69.4151 324.69 69.6851C324.15 69.9451 323.545 70.0751 322.875 70.0751ZM328.455 70.0751C328.235 70.0751 328.045 69.9951 327.885 69.8351C327.735 69.6751 327.66 69.4801 327.66 69.2501C327.66 69.0101 327.735 68.8151 327.885 68.6651C328.045 68.5151 328.235 68.4401 328.455 68.4401C328.675 68.4401 328.86 68.5151 329.01 68.6651C329.17 68.8151 329.25 69.0101 329.25 69.2501C329.25 69.4801 329.17 69.6751 329.01 69.8351C328.86 69.9951 328.675 70.0751 328.455 70.0751ZM335.68 70.0001V59.5001H336.79V70.0001H335.68ZM339.336 62.5301L339.996 59.7701L340.116 60.4001C339.886 60.4001 339.691 60.3301 339.531 60.1901C339.381 60.0401 339.306 59.8451 339.306 59.6051C339.306 59.3651 339.381 59.1701 339.531 59.0201C339.691 58.8701 339.881 58.7951 340.101 58.7951C340.331 58.7951 340.516 58.8751 340.656 59.0351C340.806 59.1851 340.881 59.3751 340.881 59.6051C340.881 59.6851 340.876 59.7651 340.866 59.8451C340.856 59.9251 340.836 60.0151 340.806 60.1151C340.786 60.2051 340.751 60.3201 340.701 60.4601L340.056 62.5301H339.336ZM343.16 70.0001V62.1251H344.18V64.2551L344.015 63.8801C344.255 63.3101 344.64 62.8651 345.17 62.5451C345.71 62.2151 346.345 62.0501 347.075 62.0501C347.845 62.0501 348.5 62.2451 349.04 62.6351C349.58 63.0151 349.93 63.5901 350.09 64.3601L349.67 64.1951C349.9 63.5551 350.305 63.0401 350.885 62.6501C351.475 62.2501 352.18 62.0501 353 62.0501C353.64 62.0501 354.195 62.1751 354.665 62.4251C355.145 62.6651 355.515 63.0351 355.775 63.5351C356.045 64.0351 356.18 64.6651 356.18 65.4251V70.0001H355.115V65.5301C355.115 64.7001 354.915 64.0751 354.515 63.6551C354.125 63.2251 353.57 63.0101 352.85 63.0101C352.31 63.0101 351.84 63.1251 351.44 63.3551C351.05 63.5751 350.745 63.9001 350.525 64.3301C350.315 64.7501 350.21 65.2601 350.21 65.8601V70.0001H349.145V65.5301C349.145 64.7001 348.945 64.0751 348.545 63.6551C348.145 63.2251 347.585 63.0101 346.865 63.0101C346.335 63.0101 345.87 63.1251 345.47 63.3551C345.07 63.5751 344.76 63.9001 344.54 64.3301C344.33 64.7501 344.225 65.2601 344.225 65.8601V70.0001H343.16ZM155.55 88.0751C154.87 88.0751 154.255 87.9201 153.705 87.6101C153.155 87.2901 152.715 86.8351 152.385 86.2451C152.065 85.6451 151.905 84.9151 151.905 84.0551C151.905 83.1951 152.065 82.4701 152.385 81.8801C152.705 81.2801 153.14 80.8251 153.69 80.5151C154.24 80.2051 154.86 80.0501 155.55 80.0501C156.3 80.0501 156.97 80.2201 157.56 80.5601C158.16 80.8901 158.63 81.3601 158.97 81.9701C159.31 82.5701 159.48 83.2651 159.48 84.0551C159.48 84.8551 159.31 85.5551 158.97 86.1551C158.63 86.7551 158.16 87.2251 157.56 87.5651C156.97 87.9051 156.3 88.0751 155.55 88.0751ZM151.485 90.9101V80.1251H152.505V82.4951L152.4 84.0701L152.55 85.6601V90.9101H151.485ZM155.475 87.1301C156.035 87.1301 156.535 87.0051 156.975 86.7551C157.415 86.4951 157.765 86.1351 158.025 85.6751C158.285 85.2051 158.415 84.6651 158.415 84.0551C158.415 83.4451 158.285 82.9101 158.025 82.4501C157.765 81.9901 157.415 81.6301 156.975 81.3701C156.535 81.1101 156.035 80.9801 155.475 80.9801C154.915 80.9801 154.41 81.1101 153.96 81.3701C153.52 81.6301 153.17 81.9901 152.91 82.4501C152.66 82.9101 152.535 83.4451 152.535 84.0551C152.535 84.6651 152.66 85.2051 152.91 85.6751C153.17 86.1351 153.52 86.4951 153.96 86.7551C154.41 87.0051 154.915 87.1301 155.475 87.1301ZM161.651 88.0001V80.1251H162.671V82.2701L162.566 81.8951C162.786 81.2951 163.156 80.8401 163.676 80.5301C164.196 80.2101 164.841 80.0501 165.611 80.0501V81.0851C165.571 81.0851 165.531 81.0851 165.491 81.0851C165.451 81.0751 165.411 81.0701 165.371 81.0701C164.541 81.0701 163.891 81.3251 163.421 81.8351C162.951 82.3351 162.716 83.0501 162.716 83.9801V88.0001H161.651ZM170.826 88.0751C170.006 88.0751 169.286 87.9051 168.666 87.5651C168.046 87.2151 167.561 86.7401 167.211 86.1401C166.861 85.5301 166.686 84.8351 166.686 84.0551C166.686 83.2751 166.851 82.5851 167.181 81.9851C167.521 81.3851 167.981 80.9151 168.561 80.5751C169.151 80.2251 169.811 80.0501 170.541 80.0501C171.281 80.0501 171.936 80.2201 172.506 80.5601C173.086 80.8901 173.541 81.3601 173.871 81.9701C174.201 82.5701 174.366 83.2651 174.366 84.0551C174.366 84.1051 174.361 84.1601 174.351 84.2201C174.351 84.2701 174.351 84.3251 174.351 84.3851H167.496V83.5901H173.781L173.361 83.9051C173.361 83.3351 173.236 82.8301 172.986 82.3901C172.746 81.9401 172.416 81.5901 171.996 81.3401C171.576 81.0901 171.091 80.9651 170.541 80.9651C170.001 80.9651 169.516 81.0901 169.086 81.3401C168.656 81.5901 168.321 81.9401 168.081 82.3901C167.841 82.8401 167.721 83.3551 167.721 83.9351V84.1001C167.721 84.7001 167.851 85.2301 168.111 85.6901C168.381 86.1401 168.751 86.4951 169.221 86.7551C169.701 87.0051 170.246 87.1301 170.856 87.1301C171.336 87.1301 171.781 87.0451 172.191 86.8751C172.611 86.7051 172.971 86.4451 173.271 86.0951L173.871 86.7851C173.521 87.2051 173.081 87.5251 172.551 87.7451C172.031 87.9651 171.456 88.0751 170.826 88.0751ZM179.024 88.0751C178.284 88.0751 177.714 87.8751 177.314 87.4751C176.914 87.0751 176.714 86.5101 176.714 85.7801V78.3851H177.779V85.7201C177.779 86.1801 177.894 86.5351 178.124 86.7851C178.364 87.0351 178.704 87.1601 179.144 87.1601C179.614 87.1601 180.004 87.0251 180.314 86.7551L180.689 87.5201C180.479 87.7101 180.224 87.8501 179.924 87.9401C179.634 88.0301 179.334 88.0751 179.024 88.0751ZM175.304 81.0101V80.1251H180.179V81.0101H175.304ZM184.913 88.0751C184.173 88.0751 183.603 87.8751 183.203 87.4751C182.803 87.0751 182.603 86.5101 182.603 85.7801V78.3851H183.668V85.7201C183.668 86.1801 183.783 86.5351 184.013 86.7851C184.253 87.0351 184.593 87.1601 185.033 87.1601C185.503 87.1601 185.893 87.0251 186.203 86.7551L186.578 87.5201C186.368 87.7101 186.113 87.8501 185.813 87.9401C185.523 88.0301 185.223 88.0751 184.913 88.0751ZM181.193 81.0101V80.1251H186.068V81.0101H181.193ZM188.034 90.9851C187.664 90.9851 187.309 90.9251 186.969 90.8051C186.639 90.6851 186.354 90.5051 186.114 90.2651L186.609 89.4701C186.809 89.6601 187.024 89.8051 187.254 89.9051C187.494 90.0151 187.759 90.0701 188.049 90.0701C188.399 90.0701 188.699 89.9701 188.949 89.7701C189.209 89.5801 189.454 89.2401 189.684 88.7501L190.194 87.5951L190.314 87.4301L193.554 80.1251H194.604L190.659 88.9451C190.439 89.4551 190.194 89.8601 189.924 90.1601C189.664 90.4601 189.379 90.6701 189.069 90.7901C188.759 90.9201 188.414 90.9851 188.034 90.9851ZM190.134 88.2251L186.504 80.1251H187.614L190.824 87.3551L190.134 88.2251ZM203.39 90.9851C202.67 90.9851 201.98 90.8801 201.32 90.6701C200.66 90.4601 200.125 90.1601 199.715 89.7701L200.255 88.9601C200.625 89.2901 201.08 89.5501 201.62 89.7401C202.17 89.9401 202.75 90.0401 203.36 90.0401C204.36 90.0401 205.095 89.8051 205.565 89.3351C206.035 88.8751 206.27 88.1551 206.27 87.1751V85.2101L206.42 83.8601L206.315 82.5101V80.1251H207.335V87.0401C207.335 88.4001 207 89.3951 206.33 90.0251C205.67 90.6651 204.69 90.9851 203.39 90.9851ZM203.195 87.7001C202.445 87.7001 201.77 87.5401 201.17 87.2201C200.57 86.8901 200.095 86.4351 199.745 85.8551C199.405 85.2751 199.235 84.6101 199.235 83.8601C199.235 83.1101 199.405 82.4501 199.745 81.8801C200.095 81.3001 200.57 80.8501 201.17 80.5301C201.77 80.2101 202.445 80.0501 203.195 80.0501C203.895 80.0501 204.525 80.1951 205.085 80.4851C205.645 80.7751 206.09 81.2051 206.42 81.7751C206.75 82.3451 206.915 83.0401 206.915 83.8601C206.915 84.6801 206.75 85.3751 206.42 85.9451C206.09 86.5151 205.645 86.9501 205.085 87.2501C204.525 87.5501 203.895 87.7001 203.195 87.7001ZM203.3 86.7551C203.88 86.7551 204.395 86.6351 204.845 86.3951C205.295 86.1451 205.65 85.8051 205.91 85.3751C206.17 84.9351 206.3 84.4301 206.3 83.8601C206.3 83.2901 206.17 82.7901 205.91 82.3601C205.65 81.9301 205.295 81.5951 204.845 81.3551C204.395 81.1051 203.88 80.9801 203.3 80.9801C202.73 80.9801 202.215 81.1051 201.755 81.3551C201.305 81.5951 200.95 81.9301 200.69 82.3601C200.44 82.7901 200.315 83.2901 200.315 83.8601C200.315 84.4301 200.44 84.9351 200.69 85.3751C200.95 85.8051 201.305 86.1451 201.755 86.3951C202.215 86.6351 202.73 86.7551 203.3 86.7551ZM213.508 88.0751C212.748 88.0751 212.063 87.9051 211.453 87.5651C210.853 87.2151 210.378 86.7401 210.028 86.1401C209.678 85.5301 209.503 84.8351 209.503 84.0551C209.503 83.2651 209.678 82.5701 210.028 81.9701C210.378 81.3701 210.853 80.9001 211.453 80.5601C212.053 80.2201 212.738 80.0501 213.508 80.0501C214.288 80.0501 214.978 80.2201 215.578 80.5601C216.188 80.9001 216.663 81.3701 217.003 81.9701C217.353 82.5701 217.528 83.2651 217.528 84.0551C217.528 84.8351 217.353 85.5301 217.003 86.1401C216.663 86.7401 216.188 87.2151 215.578 87.5651C214.968 87.9051 214.278 88.0751 213.508 88.0751ZM213.508 87.1301C214.078 87.1301 214.583 87.0051 215.023 86.7551C215.463 86.4951 215.808 86.1351 216.058 85.6751C216.318 85.2051 216.448 84.6651 216.448 84.0551C216.448 83.4351 216.318 82.8951 216.058 82.4351C215.808 81.9751 215.463 81.6201 215.023 81.3701C214.583 81.1101 214.083 80.9801 213.523 80.9801C212.963 80.9801 212.463 81.1101 212.023 81.3701C211.583 81.6201 211.233 81.9751 210.973 82.4351C210.713 82.8951 210.583 83.4351 210.583 84.0551C210.583 84.6651 210.713 85.2051 210.973 85.6751C211.233 86.1351 211.583 86.4951 212.023 86.7551C212.463 87.0051 212.958 87.1301 213.508 87.1301ZM222.913 88.0751C222.153 88.0751 221.468 87.9051 220.858 87.5651C220.258 87.2151 219.783 86.7401 219.433 86.1401C219.083 85.5301 218.908 84.8351 218.908 84.0551C218.908 83.2651 219.083 82.5701 219.433 81.9701C219.783 81.3701 220.258 80.9001 220.858 80.5601C221.458 80.2201 222.143 80.0501 222.913 80.0501C223.693 80.0501 224.383 80.2201 224.983 80.5601C225.593 80.9001 226.068 81.3701 226.408 81.9701C226.758 82.5701 226.933 83.2651 226.933 84.0551C226.933 84.8351 226.758 85.5301 226.408 86.1401C226.068 86.7401 225.593 87.2151 224.983 87.5651C224.373 87.9051 223.683 88.0751 222.913 88.0751ZM222.913 87.1301C223.483 87.1301 223.988 87.0051 224.428 86.7551C224.868 86.4951 225.213 86.1351 225.463 85.6751C225.723 85.2051 225.853 84.6651 225.853 84.0551C225.853 83.4351 225.723 82.8951 225.463 82.4351C225.213 81.9751 224.868 81.6201 224.428 81.3701C223.988 81.1101 223.488 80.9801 222.928 80.9801C222.368 80.9801 221.868 81.1101 221.428 81.3701C220.988 81.6201 220.638 81.9751 220.378 82.4351C220.118 82.8951 219.988 83.4351 219.988 84.0551C219.988 84.6651 220.118 85.2051 220.378 85.6751C220.638 86.1351 220.988 86.4951 221.428 86.7551C221.868 87.0051 222.363 87.1301 222.913 87.1301ZM232.242 88.0751C231.492 88.0751 230.817 87.9051 230.217 87.5651C229.627 87.2251 229.162 86.7551 228.822 86.1551C228.482 85.5451 228.312 84.8451 228.312 84.0551C228.312 83.2551 228.482 82.5551 228.822 81.9551C229.162 81.3551 229.627 80.8901 230.217 80.5601C230.817 80.2201 231.492 80.0501 232.242 80.0501C232.932 80.0501 233.547 80.2051 234.087 80.5151C234.637 80.8251 235.072 81.2801 235.392 81.8801C235.722 82.4701 235.887 83.1951 235.887 84.0551C235.887 84.9051 235.727 85.6301 235.407 86.2301C235.087 86.8301 234.652 87.2901 234.102 87.6101C233.562 87.9201 232.942 88.0751 232.242 88.0751ZM232.317 87.1301C232.877 87.1301 233.377 87.0051 233.817 86.7551C234.267 86.4951 234.617 86.1351 234.867 85.6751C235.127 85.2051 235.257 84.6651 235.257 84.0551C235.257 83.4351 235.127 82.8951 234.867 82.4351C234.617 81.9751 234.267 81.6201 233.817 81.3701C233.377 81.1101 232.877 80.9801 232.317 80.9801C231.767 80.9801 231.272 81.1101 230.832 81.3701C230.392 81.6201 230.042 81.9751 229.782 82.4351C229.522 82.8951 229.392 83.4351 229.392 84.0551C229.392 84.6651 229.522 85.2051 229.782 85.6751C230.042 86.1351 230.392 86.4951 230.832 86.7551C231.272 87.0051 231.767 87.1301 232.317 87.1301ZM235.287 88.0001V85.6301L235.392 84.0401L235.242 82.4501V76.8701H236.307V88.0001H235.287ZM248.134 88.0001V86.2601L248.089 85.9751V83.0651C248.089 82.3951 247.899 81.8801 247.519 81.5201C247.149 81.1601 246.594 80.9801 245.854 80.9801C245.344 80.9801 244.859 81.0651 244.399 81.2351C243.939 81.4051 243.549 81.6301 243.229 81.9101L242.749 81.1151C243.149 80.7751 243.629 80.5151 244.189 80.3351C244.749 80.1451 245.339 80.0501 245.959 80.0501C246.979 80.0501 247.764 80.3051 248.314 80.8151C248.874 81.3151 249.154 82.0801 249.154 83.1101V88.0001H248.134ZM245.419 88.0751C244.829 88.0751 244.314 87.9801 243.874 87.7901C243.444 87.5901 243.114 87.3201 242.884 86.9801C242.654 86.6301 242.539 86.2301 242.539 85.7801C242.539 85.3701 242.634 85.0001 242.824 84.6701C243.024 84.3301 243.344 84.0601 243.784 83.8601C244.234 83.6501 244.834 83.5451 245.584 83.5451H248.299V84.3401H245.614C244.854 84.3401 244.324 84.4751 244.024 84.7451C243.734 85.0151 243.589 85.3501 243.589 85.7501C243.589 86.2001 243.764 86.5601 244.114 86.8301C244.464 87.1001 244.954 87.2351 245.584 87.2351C246.184 87.2351 246.699 87.1001 247.129 86.8301C247.569 86.5501 247.889 86.1501 248.089 85.6301L248.329 86.3651C248.129 86.8851 247.779 87.3001 247.279 87.6101C246.789 87.9201 246.169 88.0751 245.419 88.0751ZM254.537 88.0751C253.797 88.0751 253.227 87.8751 252.827 87.4751C252.427 87.0751 252.227 86.5101 252.227 85.7801V78.3851H253.292V85.7201C253.292 86.1801 253.407 86.5351 253.637 86.7851C253.877 87.0351 254.217 87.1601 254.657 87.1601C255.127 87.1601 255.517 87.0251 255.827 86.7551L256.202 87.5201C255.992 87.7101 255.737 87.8501 255.437 87.9401C255.147 88.0301 254.847 88.0751 254.537 88.0751ZM250.817 81.0101V80.1251H255.692V81.0101H250.817ZM265.321 88.0751C264.651 88.0751 264.066 87.9501 263.566 87.7001C263.066 87.4501 262.676 87.0751 262.396 86.5751C262.126 86.0751 261.991 85.4501 261.991 84.7001V80.1251H263.056V84.5801C263.056 85.4201 263.261 86.0551 263.671 86.4851C264.091 86.9051 264.676 87.1151 265.426 87.1151C265.976 87.1151 266.451 87.0051 266.851 86.7851C267.261 86.5551 267.571 86.2251 267.781 85.7951C268.001 85.3651 268.111 84.8501 268.111 84.2501V80.1251H269.176V88.0001H268.156V85.8401L268.321 86.2301C268.071 86.8101 267.681 87.2651 267.151 87.5951C266.631 87.9151 266.021 88.0751 265.321 88.0751ZM274.259 88.0751C273.609 88.0751 272.994 87.9851 272.414 87.8051C271.834 87.6151 271.379 87.3801 271.049 87.1001L271.529 86.2601C271.849 86.5001 272.259 86.7101 272.759 86.8901C273.259 87.0601 273.784 87.1451 274.334 87.1451C275.084 87.1451 275.624 87.0301 275.954 86.8001C276.284 86.5601 276.449 86.2451 276.449 85.8551C276.449 85.5651 276.354 85.3401 276.164 85.1801C275.984 85.0101 275.744 84.8851 275.444 84.8051C275.144 84.7151 274.809 84.6401 274.439 84.5801C274.069 84.5201 273.699 84.4501 273.329 84.3701C272.969 84.2901 272.639 84.1751 272.339 84.0251C272.039 83.8651 271.794 83.6501 271.604 83.3801C271.424 83.1101 271.334 82.7501 271.334 82.3001C271.334 81.8701 271.454 81.4851 271.694 81.1451C271.934 80.8051 272.284 80.5401 272.744 80.3501C273.214 80.1501 273.784 80.0501 274.454 80.0501C274.964 80.0501 275.474 80.1201 275.984 80.2601C276.494 80.3901 276.914 80.5651 277.244 80.7851L276.779 81.6401C276.429 81.4001 276.054 81.2301 275.654 81.1301C275.254 81.0201 274.854 80.9651 274.454 80.9651C273.744 80.9651 273.219 81.0901 272.879 81.3401C272.549 81.5801 272.384 81.8901 272.384 82.2701C272.384 82.5701 272.474 82.8051 272.654 82.9751C272.844 83.1451 273.089 83.2801 273.389 83.3801C273.699 83.4701 274.034 83.5451 274.394 83.6051C274.764 83.6651 275.129 83.7401 275.489 83.8301C275.859 83.9101 276.194 84.0251 276.494 84.1751C276.804 84.3151 277.049 84.5201 277.229 84.7901C277.419 85.0501 277.514 85.3951 277.514 85.8251C277.514 86.2851 277.384 86.6851 277.124 87.0251C276.874 87.3551 276.504 87.6151 276.014 87.8051C275.534 87.9851 274.949 88.0751 274.259 88.0751ZM279.468 88.0001V80.1251H280.533V88.0001H279.468ZM280.008 78.3851C279.788 78.3851 279.603 78.3101 279.453 78.1601C279.303 78.0101 279.228 77.8301 279.228 77.6201C279.228 77.4101 279.303 77.2351 279.453 77.0951C279.603 76.9451 279.788 76.8701 280.008 76.8701C280.228 76.8701 280.413 76.9401 280.563 77.0801C280.713 77.2201 280.788 77.3951 280.788 77.6051C280.788 77.8251 280.713 78.0101 280.563 78.1601C280.423 78.3101 280.238 78.3851 280.008 78.3851ZM283.497 88.0001V80.1251H284.517V82.2851L284.352 81.8801C284.602 81.3101 285.002 80.8651 285.552 80.5451C286.102 80.2151 286.757 80.0501 287.517 80.0501C288.157 80.0501 288.717 80.1751 289.197 80.4251C289.687 80.6651 290.067 81.0351 290.337 81.5351C290.617 82.0351 290.757 82.6651 290.757 83.4251V88.0001H289.692V83.5301C289.692 82.7001 289.482 82.0751 289.062 81.6551C288.652 81.2251 288.072 81.0101 287.322 81.0101C286.762 81.0101 286.272 81.1251 285.852 81.3551C285.442 81.5751 285.122 81.9001 284.892 82.3301C284.672 82.7501 284.562 83.2601 284.562 83.8601V88.0001H283.497ZM296.993 90.9851C296.273 90.9851 295.583 90.8801 294.923 90.6701C294.263 90.4601 293.728 90.1601 293.318 89.7701L293.858 88.9601C294.228 89.2901 294.683 89.5501 295.223 89.7401C295.773 89.9401 296.353 90.0401 296.963 90.0401C297.963 90.0401 298.698 89.8051 299.168 89.3351C299.638 88.8751 299.873 88.1551 299.873 87.1751V85.2101L300.023 83.8601L299.918 82.5101V80.1251H300.938V87.0401C300.938 88.4001 300.603 89.3951 299.933 90.0251C299.273 90.6651 298.293 90.9851 296.993 90.9851ZM296.798 87.7001C296.048 87.7001 295.373 87.5401 294.773 87.2201C294.173 86.8901 293.698 86.4351 293.348 85.8551C293.008 85.2751 292.838 84.6101 292.838 83.8601C292.838 83.1101 293.008 82.4501 293.348 81.8801C293.698 81.3001 294.173 80.8501 294.773 80.5301C295.373 80.2101 296.048 80.0501 296.798 80.0501C297.498 80.0501 298.128 80.1951 298.688 80.4851C299.248 80.7751 299.693 81.2051 300.023 81.7751C300.353 82.3451 300.518 83.0401 300.518 83.8601C300.518 84.6801 300.353 85.3751 300.023 85.9451C299.693 86.5151 299.248 86.9501 298.688 87.2501C298.128 87.5501 297.498 87.7001 296.798 87.7001ZM296.903 86.7551C297.483 86.7551 297.998 86.6351 298.448 86.3951C298.898 86.1451 299.253 85.8051 299.513 85.3751C299.773 84.9351 299.903 84.4301 299.903 83.8601C299.903 83.2901 299.773 82.7901 299.513 82.3601C299.253 81.9301 298.898 81.5951 298.448 81.3551C297.998 81.1051 297.483 80.9801 296.903 80.9801C296.333 80.9801 295.818 81.1051 295.358 81.3551C294.908 81.5951 294.553 81.9301 294.293 82.3601C294.043 82.7901 293.918 83.2901 293.918 83.8601C293.918 84.4301 294.043 84.9351 294.293 85.3751C294.553 85.8051 294.908 86.1451 295.358 86.3951C295.818 86.6351 296.333 86.7551 296.903 86.7551ZM310.318 88.0751C309.578 88.0751 309.008 87.8751 308.608 87.4751C308.208 87.0751 308.008 86.5101 308.008 85.7801V78.3851H309.073V85.7201C309.073 86.1801 309.188 86.5351 309.418 86.7851C309.658 87.0351 309.998 87.1601 310.438 87.1601C310.908 87.1601 311.298 87.0251 311.608 86.7551L311.983 87.5201C311.773 87.7101 311.518 87.8501 311.218 87.9401C310.928 88.0301 310.628 88.0751 310.318 88.0751ZM306.598 81.0101V80.1251H311.473V81.0101H306.598ZM313.922 88.0001V76.8701H314.987V82.2851L314.777 81.8801C315.027 81.3101 315.427 80.8651 315.977 80.5451C316.527 80.2151 317.182 80.0501 317.942 80.0501C318.582 80.0501 319.142 80.1751 319.622 80.4251C320.112 80.6651 320.492 81.0351 320.762 81.5351C321.042 82.0351 321.182 82.6651 321.182 83.4251V88.0001H320.117V83.5301C320.117 82.7001 319.907 82.0751 319.487 81.6551C319.077 81.2251 318.497 81.0101 317.747 81.0101C317.187 81.0101 316.697 81.1251 316.277 81.3551C315.867 81.5751 315.547 81.9001 315.317 82.3301C315.097 82.7501 314.987 83.2601 314.987 83.8601V88.0001H313.922ZM324.058 88.0001V80.1251H325.123V88.0001H324.058ZM324.598 78.3851C324.378 78.3851 324.193 78.3101 324.043 78.1601C323.893 78.0101 323.818 77.8301 323.818 77.6201C323.818 77.4101 323.893 77.2351 324.043 77.0951C324.193 76.9451 324.378 76.8701 324.598 76.8701C324.818 76.8701 325.003 76.9401 325.153 77.0801C325.303 77.2201 325.378 77.3951 325.378 77.6051C325.378 77.8251 325.303 78.0101 325.153 78.1601C325.013 78.3101 324.828 78.3851 324.598 78.3851ZM330.202 88.0751C329.552 88.0751 328.937 87.9851 328.357 87.8051C327.777 87.6151 327.322 87.3801 326.992 87.1001L327.472 86.2601C327.792 86.5001 328.202 86.7101 328.702 86.8901C329.202 87.0601 329.727 87.1451 330.277 87.1451C331.027 87.1451 331.567 87.0301 331.897 86.8001C332.227 86.5601 332.392 86.2451 332.392 85.8551C332.392 85.5651 332.297 85.3401 332.107 85.1801C331.927 85.0101 331.687 84.8851 331.387 84.8051C331.087 84.7151 330.752 84.6401 330.382 84.5801C330.012 84.5201 329.642 84.4501 329.272 84.3701C328.912 84.2901 328.582 84.1751 328.282 84.0251C327.982 83.8651 327.737 83.6501 327.547 83.3801C327.367 83.1101 327.277 82.7501 327.277 82.3001C327.277 81.8701 327.397 81.4851 327.637 81.1451C327.877 80.8051 328.227 80.5401 328.687 80.3501C329.157 80.1501 329.727 80.0501 330.397 80.0501C330.907 80.0501 331.417 80.1201 331.927 80.2601C332.437 80.3901 332.857 80.5651 333.187 80.7851L332.722 81.6401C332.372 81.4001 331.997 81.2301 331.597 81.1301C331.197 81.0201 330.797 80.9651 330.397 80.9651C329.687 80.9651 329.162 81.0901 328.822 81.3401C328.492 81.5801 328.327 81.8901 328.327 82.2701C328.327 82.5701 328.417 82.8051 328.597 82.9751C328.787 83.1451 329.032 83.2801 329.332 83.3801C329.642 83.4701 329.977 83.5451 330.337 83.6051C330.707 83.6651 331.072 83.7401 331.432 83.8301C331.802 83.9101 332.137 84.0251 332.437 84.1751C332.747 84.3151 332.992 84.5201 333.172 84.7901C333.362 85.0501 333.457 85.3951 333.457 85.8251C333.457 86.2851 333.327 86.6851 333.067 87.0251C332.817 87.3551 332.447 87.6151 331.957 87.8051C331.477 87.9851 330.892 88.0751 330.202 88.0751ZM335.516 88.0751C335.296 88.0751 335.106 87.9951 334.946 87.8351C334.796 87.6751 334.721 87.4801 334.721 87.2501C334.721 87.0101 334.796 86.8151 334.946 86.6651C335.106 86.5151 335.296 86.4401 335.516 86.4401C335.736 86.4401 335.921 86.5151 336.071 86.6651C336.231 86.8151 336.311 87.0101 336.311 87.2501C336.311 87.4801 336.231 87.6751 336.071 87.8351C335.921 87.9951 335.736 88.0751 335.516 88.0751ZM342.62 81.6851C342.4 81.6851 342.21 81.6051 342.05 81.4451C341.9 81.2851 341.825 81.0901 341.825 80.8601C341.825 80.6201 341.9 80.4251 342.05 80.2751C342.21 80.1251 342.4 80.0501 342.62 80.0501C342.84 80.0501 343.025 80.1251 343.175 80.2751C343.335 80.4251 343.415 80.6201 343.415 80.8601C343.415 81.0901 343.335 81.2851 343.175 81.4451C343.025 81.6051 342.84 81.6851 342.62 81.6851ZM341.87 90.1901L342.53 87.4151L342.65 88.0601C342.42 88.0601 342.225 87.9851 342.065 87.8351C341.915 87.6851 341.84 87.4901 341.84 87.2501C341.84 87.0101 341.915 86.8151 342.065 86.6651C342.225 86.5151 342.415 86.4401 342.635 86.4401C342.865 86.4401 343.05 86.5201 343.19 86.6801C343.34 86.8401 343.415 87.0301 343.415 87.2501C343.415 87.3301 343.41 87.4101 343.4 87.4901C343.39 87.5701 343.37 87.6601 343.34 87.7601C343.31 87.8601 343.27 87.9801 343.22 88.1201L342.59 90.1901H341.87ZM344.809 90.9101C345.409 89.8801 345.844 88.7901 346.114 87.6401C346.394 86.4801 346.534 85.2301 346.534 83.8901C346.534 82.5501 346.394 81.3051 346.114 80.1551C345.844 78.9951 345.409 77.9001 344.809 76.8701H345.829C346.399 77.7601 346.834 78.8101 347.134 80.0201C347.434 81.2201 347.584 82.5101 347.584 83.8901C347.584 85.2701 347.434 86.5601 347.134 87.7601C346.834 88.9501 346.399 90.0001 345.829 90.9101H344.809Z" fill="white" fill-opacity="0.75"/>
<defs>
<clipPath id="clip0_50_3437">
<rect width="100" height="100" fill="white" transform="translate(25 25.0001)"/>
</clipPath>
</defs>
</svg>
