<svg width="400" height="150" viewBox="0 0 400 150" fill="none" xmlns="http://www.w3.org/2000/svg">
<mask id="path-1-inside-1_50_3456" fill="white">
<path d="M0 5.00013C0 2.2387 2.23858 0.00012207 5 0.00012207H395C397.761 0.00012207 400 2.2387 400 5.00012V147C400 148.657 398.657 150 397 150H3C1.34314 150 0 148.657 0 147V5.00013Z"/>
</mask>
<path d="M0 5.00013C0 2.2387 2.23858 0.00012207 5 0.00012207H395C397.761 0.00012207 400 2.2387 400 5.00012V147C400 148.657 398.657 150 397 150H3C1.34314 150 0 148.657 0 147V5.00013Z" fill="#333333"/>
<path d="M0 0.00012207H400H0ZM400 147C400 150.314 397.314 153 394 153H6C2.68629 153 0 150.314 0 147C0 147 1.34315 147 3 147H397C398.657 147 400 147 400 147ZM0 150V0.00012207V150ZM400 0.00012207V150V0.00012207Z" fill="#FFCD42" mask="url(#path-1-inside-1_50_3456)"/>
<g clip-path="url(#clip0_50_3456)">
<path d="M39.1667 114.286L32 25.0001H118L110.833 114.286L75 125L39.1667 114.286Z" fill="#E44D26"/>
<path d="M111 32.0001H75V120L103.8 111.021L111 32.0001Z" fill="#F16529"/>
<path d="M51.6129 76.7779L48 43.0001H104L102.194 53.6668H58.8387L60.6452 66.1112H100.387L96.7742 99.889L75.0968 107L53.4194 99.889L51.6129 82.1112H62.4516L64.2581 91.0001L75.0968 94.5557L85.9355 91.0001L87.7419 76.7779H51.6129Z" fill="white"/>
</g>
<path d="M165.175 40.0001V22.5001H167.675V40.0001H165.175ZM152.625 40.0001V22.5001H155.125V40.0001H152.625ZM154.875 32.2001V30.0251H165.4V32.2001H154.875ZM176.388 40.0001V24.6751H170.388V22.5001H184.863V24.6751H178.863V40.0001H176.388ZM187.586 40.0001V22.5001H189.636L197.486 35.7251H196.386L204.136 22.5001H206.186L206.211 40.0001H203.811L203.786 26.2751H204.361L197.461 37.8751H196.311L189.361 26.2751H189.986V40.0001H187.586ZM211.463 40.0001V22.5001H213.963V37.8251H223.438V40.0001H211.463Z" fill="white"/>
<path d="M151.71 70.0001V59.5001H158.91V60.4601H152.82V70.0001H151.71ZM152.7 65.5451V64.5851H158.25V65.5451H152.7ZM160.977 70.0001V62.1251H162.042V70.0001H160.977ZM161.517 60.3851C161.297 60.3851 161.112 60.3101 160.962 60.1601C160.812 60.0101 160.737 59.8301 160.737 59.6201C160.737 59.4101 160.812 59.2351 160.962 59.0951C161.112 58.9451 161.297 58.8701 161.517 58.8701C161.737 58.8701 161.922 58.9401 162.072 59.0801C162.222 59.2201 162.297 59.3951 162.297 59.6051C162.297 59.8251 162.222 60.0101 162.072 60.1601C161.932 60.3101 161.747 60.3851 161.517 60.3851ZM165.006 70.0001V62.1251H166.026V64.2701L165.921 63.8951C166.141 63.2951 166.511 62.8401 167.031 62.5301C167.551 62.2101 168.196 62.0501 168.966 62.0501V63.0851C168.926 63.0851 168.886 63.0851 168.846 63.0851C168.806 63.0751 168.766 63.0701 168.726 63.0701C167.896 63.0701 167.246 63.3251 166.776 63.8351C166.306 64.3351 166.071 65.0501 166.071 65.9801V70.0001H165.006ZM173.112 70.0751C172.462 70.0751 171.847 69.9851 171.267 69.8051C170.687 69.6151 170.232 69.3801 169.902 69.1001L170.382 68.2601C170.702 68.5001 171.112 68.7101 171.612 68.8901C172.112 69.0601 172.637 69.1451 173.187 69.1451C173.937 69.1451 174.477 69.0301 174.807 68.8001C175.137 68.5601 175.302 68.2451 175.302 67.8551C175.302 67.5651 175.207 67.3401 175.017 67.1801C174.837 67.0101 174.597 66.8851 174.297 66.8051C173.997 66.7151 173.662 66.6401 173.292 66.5801C172.922 66.5201 172.552 66.4501 172.182 66.3701C171.822 66.2901 171.492 66.1751 171.192 66.0251C170.892 65.8651 170.647 65.6501 170.457 65.3801C170.277 65.1101 170.187 64.7501 170.187 64.3001C170.187 63.8701 170.307 63.4851 170.547 63.1451C170.787 62.8051 171.137 62.5401 171.597 62.3501C172.067 62.1501 172.637 62.0501 173.307 62.0501C173.817 62.0501 174.327 62.1201 174.837 62.2601C175.347 62.3901 175.767 62.5651 176.097 62.7851L175.632 63.6401C175.282 63.4001 174.907 63.2301 174.507 63.1301C174.107 63.0201 173.707 62.9651 173.307 62.9651C172.597 62.9651 172.072 63.0901 171.732 63.3401C171.402 63.5801 171.237 63.8901 171.237 64.2701C171.237 64.5701 171.327 64.8051 171.507 64.9751C171.697 65.1451 171.942 65.2801 172.242 65.3801C172.552 65.4701 172.887 65.5451 173.247 65.6051C173.617 65.6651 173.982 65.7401 174.342 65.8301C174.712 65.9101 175.047 66.0251 175.347 66.1751C175.657 66.3151 175.902 66.5201 176.082 66.7901C176.272 67.0501 176.367 67.3951 176.367 67.8251C176.367 68.2851 176.237 68.6851 175.977 69.0251C175.727 69.3551 175.357 69.6151 174.867 69.8051C174.387 69.9851 173.802 70.0751 173.112 70.0751ZM180.811 70.0751C180.071 70.0751 179.501 69.8751 179.101 69.4751C178.701 69.0751 178.501 68.5101 178.501 67.7801V60.3851H179.566V67.7201C179.566 68.1801 179.681 68.5351 179.911 68.7851C180.151 69.0351 180.491 69.1601 180.931 69.1601C181.401 69.1601 181.791 69.0251 182.101 68.7551L182.476 69.5201C182.266 69.7101 182.011 69.8501 181.711 69.9401C181.421 70.0301 181.121 70.0751 180.811 70.0751ZM177.091 63.0101V62.1251H181.966V63.0101H177.091ZM188.34 70.0001V62.1251H189.36V64.2551L189.195 63.8801C189.435 63.3101 189.82 62.8651 190.35 62.5451C190.89 62.2151 191.525 62.0501 192.255 62.0501C193.025 62.0501 193.68 62.2451 194.22 62.6351C194.76 63.0151 195.11 63.5901 195.27 64.3601L194.85 64.1951C195.08 63.5551 195.485 63.0401 196.065 62.6501C196.655 62.2501 197.36 62.0501 198.18 62.0501C198.82 62.0501 199.375 62.1751 199.845 62.4251C200.325 62.6651 200.695 63.0351 200.955 63.5351C201.225 64.0351 201.36 64.6651 201.36 65.4251V70.0001H200.295V65.5301C200.295 64.7001 200.095 64.0751 199.695 63.6551C199.305 63.2251 198.75 63.0101 198.03 63.0101C197.49 63.0101 197.02 63.1251 196.62 63.3551C196.23 63.5751 195.925 63.9001 195.705 64.3301C195.495 64.7501 195.39 65.2601 195.39 65.8601V70.0001H194.325V65.5301C194.325 64.7001 194.125 64.0751 193.725 63.6551C193.325 63.2251 192.765 63.0101 192.045 63.0101C191.515 63.0101 191.05 63.1251 190.65 63.3551C190.25 63.5751 189.94 63.9001 189.72 64.3301C189.51 64.7501 189.405 65.2601 189.405 65.8601V70.0001H188.34ZM207.594 70.0751C206.774 70.0751 206.054 69.9051 205.434 69.5651C204.814 69.2151 204.329 68.7401 203.979 68.1401C203.629 67.5301 203.454 66.8351 203.454 66.0551C203.454 65.2751 203.619 64.5851 203.949 63.9851C204.289 63.3851 204.749 62.9151 205.329 62.5751C205.919 62.2251 206.579 62.0501 207.309 62.0501C208.049 62.0501 208.704 62.2201 209.274 62.5601C209.854 62.8901 210.309 63.3601 210.639 63.9701C210.969 64.5701 211.134 65.2651 211.134 66.0551C211.134 66.1051 211.129 66.1601 211.119 66.2201C211.119 66.2701 211.119 66.3251 211.119 66.3851H204.264V65.5901H210.549L210.129 65.9051C210.129 65.3351 210.004 64.8301 209.754 64.3901C209.514 63.9401 209.184 63.5901 208.764 63.3401C208.344 63.0901 207.859 62.9651 207.309 62.9651C206.769 62.9651 206.284 63.0901 205.854 63.3401C205.424 63.5901 205.089 63.9401 204.849 64.3901C204.609 64.8401 204.489 65.3551 204.489 65.9351V66.1001C204.489 66.7001 204.619 67.2301 204.879 67.6901C205.149 68.1401 205.519 68.4951 205.989 68.7551C206.469 69.0051 207.014 69.1301 207.624 69.1301C208.104 69.1301 208.549 69.0451 208.959 68.8751C209.379 68.7051 209.739 68.4451 210.039 68.0951L210.639 68.7851C210.289 69.2051 209.849 69.5251 209.319 69.7451C208.799 69.9651 208.224 70.0751 207.594 70.0751ZM215.791 70.0751C215.051 70.0751 214.481 69.8751 214.081 69.4751C213.681 69.0751 213.481 68.5101 213.481 67.7801V60.3851H214.546V67.7201C214.546 68.1801 214.661 68.5351 214.891 68.7851C215.131 69.0351 215.471 69.1601 215.911 69.1601C216.381 69.1601 216.771 69.0251 217.081 68.7551L217.456 69.5201C217.246 69.7101 216.991 69.8501 216.691 69.9401C216.401 70.0301 216.101 70.0751 215.791 70.0751ZM212.071 63.0101V62.1251H216.946V63.0101H212.071ZM223.321 70.0001V62.1251H224.386V70.0001H223.321ZM223.861 60.3851C223.641 60.3851 223.456 60.3101 223.306 60.1601C223.156 60.0101 223.081 59.8301 223.081 59.6201C223.081 59.4101 223.156 59.2351 223.306 59.0951C223.456 58.9451 223.641 58.8701 223.861 58.8701C224.081 58.8701 224.266 58.9401 224.416 59.0801C224.566 59.2201 224.641 59.3951 224.641 59.6051C224.641 59.8251 224.566 60.0101 224.416 60.1601C224.276 60.3101 224.091 60.3851 223.861 60.3851ZM227.349 70.0001V62.1251H228.369V64.2851L228.204 63.8801C228.454 63.3101 228.854 62.8651 229.404 62.5451C229.954 62.2151 230.609 62.0501 231.369 62.0501C232.009 62.0501 232.569 62.1751 233.049 62.4251C233.539 62.6651 233.919 63.0351 234.189 63.5351C234.469 64.0351 234.609 64.6651 234.609 65.4251V70.0001H233.544V65.5301C233.544 64.7001 233.334 64.0751 232.914 63.6551C232.504 63.2251 231.924 63.0101 231.174 63.0101C230.614 63.0101 230.124 63.1251 229.704 63.3551C229.294 63.5751 228.974 63.9001 228.744 64.3301C228.524 64.7501 228.414 65.2601 228.414 65.8601V70.0001H227.349ZM240.512 70.0001V69.2351L244.877 64.9601C245.277 64.5701 245.577 64.2301 245.777 63.9401C245.977 63.6401 246.112 63.3601 246.182 63.1001C246.252 62.8401 246.287 62.5951 246.287 62.3651C246.287 61.7551 246.077 61.2751 245.657 60.9251C245.247 60.5751 244.637 60.4001 243.827 60.4001C243.207 60.4001 242.657 60.4951 242.177 60.6851C241.707 60.8751 241.302 61.1701 240.962 61.5701L240.197 60.9101C240.607 60.4301 241.132 60.0601 241.772 59.8001C242.412 59.5401 243.127 59.4101 243.917 59.4101C244.627 59.4101 245.242 59.5251 245.762 59.7551C246.282 59.9751 246.682 60.3001 246.962 60.7301C247.252 61.1601 247.397 61.6651 247.397 62.2451C247.397 62.5851 247.347 62.9201 247.247 63.2501C247.157 63.5801 246.987 63.9301 246.737 64.3001C246.497 64.6601 246.142 65.0701 245.672 65.5301L241.667 69.4601L241.367 69.0401H247.877V70.0001H240.512ZM253.388 70.0901C252.578 70.0901 251.858 69.8801 251.228 69.4601C250.598 69.0301 250.103 68.4201 249.743 67.6301C249.383 66.8301 249.203 65.8701 249.203 64.7501C249.203 63.6301 249.383 62.6751 249.743 61.8851C250.103 61.0851 250.598 60.4751 251.228 60.0551C251.858 59.6251 252.578 59.4101 253.388 59.4101C254.198 59.4101 254.918 59.6251 255.548 60.0551C256.178 60.4751 256.673 61.0851 257.033 61.8851C257.403 62.6751 257.588 63.6301 257.588 64.7501C257.588 65.8701 257.403 66.8301 257.033 67.6301C256.673 68.4201 256.178 69.0301 255.548 69.4601C254.918 69.8801 254.198 70.0901 253.388 70.0901ZM253.388 69.1001C254.008 69.1001 254.548 68.9351 255.008 68.6051C255.468 68.2651 255.828 67.7751 256.088 67.1351C256.348 66.4851 256.478 65.6901 256.478 64.7501C256.478 63.8101 256.348 63.0201 256.088 62.3801C255.828 61.7301 255.468 61.2401 255.008 60.9101C254.548 60.5701 254.008 60.4001 253.388 60.4001C252.788 60.4001 252.253 60.5701 251.783 60.9101C251.313 61.2401 250.948 61.7301 250.688 62.3801C250.428 63.0201 250.298 63.8101 250.298 64.7501C250.298 65.6901 250.428 66.4851 250.688 67.1351C250.948 67.7751 251.313 68.2651 251.783 68.6051C252.253 68.9351 252.788 69.1001 253.388 69.1001ZM263.319 70.0901C262.509 70.0901 261.789 69.8801 261.159 69.4601C260.529 69.0301 260.034 68.4201 259.674 67.6301C259.314 66.8301 259.134 65.8701 259.134 64.7501C259.134 63.6301 259.314 62.6751 259.674 61.8851C260.034 61.0851 260.529 60.4751 261.159 60.0551C261.789 59.6251 262.509 59.4101 263.319 59.4101C264.129 59.4101 264.849 59.6251 265.479 60.0551C266.109 60.4751 266.604 61.0851 266.964 61.8851C267.334 62.6751 267.519 63.6301 267.519 64.7501C267.519 65.8701 267.334 66.8301 266.964 67.6301C266.604 68.4201 266.109 69.0301 265.479 69.4601C264.849 69.8801 264.129 70.0901 263.319 70.0901ZM263.319 69.1001C263.939 69.1001 264.479 68.9351 264.939 68.6051C265.399 68.2651 265.759 67.7751 266.019 67.1351C266.279 66.4851 266.409 65.6901 266.409 64.7501C266.409 63.8101 266.279 63.0201 266.019 62.3801C265.759 61.7301 265.399 61.2401 264.939 60.9101C264.479 60.5701 263.939 60.4001 263.319 60.4001C262.719 60.4001 262.184 60.5701 261.714 60.9101C261.244 61.2401 260.879 61.7301 260.619 62.3801C260.359 63.0201 260.229 63.8101 260.229 64.7501C260.229 65.6901 260.359 66.4851 260.619 67.1351C260.879 67.7751 261.244 68.2651 261.714 68.6051C262.184 68.9351 262.719 69.1001 263.319 69.1001ZM273.056 70.0901C272.216 70.0901 271.491 69.9701 270.881 69.7301C270.281 69.4901 269.816 69.1451 269.486 68.6951C269.166 68.2351 269.006 67.6951 269.006 67.0751C269.006 66.4751 269.161 65.9651 269.471 65.5451C269.791 65.1151 270.251 64.7851 270.851 64.5551C271.461 64.3251 272.196 64.2101 273.056 64.2101C273.906 64.2101 274.636 64.3251 275.246 64.5551C275.856 64.7851 276.321 65.1151 276.641 65.5451C276.971 65.9651 277.136 66.4751 277.136 67.0751C277.136 67.6951 276.971 68.2351 276.641 68.6951C276.311 69.1451 275.841 69.4901 275.231 69.7301C274.621 69.9701 273.896 70.0901 273.056 70.0901ZM273.056 69.1751C273.986 69.1751 274.711 68.9851 275.231 68.6051C275.761 68.2251 276.026 67.7101 276.026 67.0601C276.026 66.4101 275.761 65.9001 275.231 65.5301C274.711 65.1501 273.986 64.9601 273.056 64.9601C272.126 64.9601 271.401 65.1501 270.881 65.5301C270.361 65.9001 270.101 66.4101 270.101 67.0601C270.101 67.7101 270.361 68.2251 270.881 68.6051C271.401 68.9851 272.126 69.1751 273.056 69.1751ZM273.056 64.1051C273.876 64.1051 274.516 63.9351 274.976 63.5951C275.436 63.2551 275.666 62.8001 275.666 62.2301C275.666 61.6301 275.426 61.1651 274.946 60.8351C274.476 60.4951 273.846 60.3251 273.056 60.3251C272.266 60.3251 271.636 60.4951 271.166 60.8351C270.696 61.1651 270.461 61.6251 270.461 62.2151C270.461 62.7951 270.686 63.2551 271.136 63.5951C271.596 63.9351 272.236 64.1051 273.056 64.1051ZM273.056 64.8251C272.276 64.8251 271.611 64.7201 271.061 64.5101C270.521 64.3001 270.106 64.0001 269.816 63.6101C269.526 63.2101 269.381 62.7351 269.381 62.1851C269.381 61.6051 269.531 61.1101 269.831 60.7001C270.141 60.2801 270.571 59.9601 271.121 59.7401C271.671 59.5201 272.316 59.4101 273.056 59.4101C273.796 59.4101 274.441 59.5201 274.991 59.7401C275.551 59.9601 275.986 60.2801 276.296 60.7001C276.606 61.1101 276.761 61.6051 276.761 62.1851C276.761 62.7351 276.616 63.2101 276.326 63.6101C276.036 64.0001 275.611 64.3001 275.051 64.5101C274.501 64.7201 273.836 64.8251 273.056 64.8251ZM278.838 72.1901L279.498 69.4151L279.618 70.0601C279.388 70.0601 279.193 69.9851 279.033 69.8351C278.883 69.6851 278.808 69.4901 278.808 69.2501C278.808 69.0101 278.883 68.8151 279.033 68.6651C279.193 68.5151 279.383 68.4401 279.603 68.4401C279.833 68.4401 280.018 68.5201 280.158 68.6801C280.308 68.8401 280.383 69.0301 280.383 69.2501C280.383 69.3301 280.378 69.4101 280.368 69.4901C280.358 69.5701 280.338 69.6601 280.308 69.7601C280.278 69.8601 280.238 69.9801 280.188 70.1201L279.558 72.1901H278.838ZM289.078 70.0751C288.338 70.0751 287.768 69.8751 287.368 69.4751C286.968 69.0751 286.768 68.5101 286.768 67.7801V60.3851H287.833V67.7201C287.833 68.1801 287.948 68.5351 288.178 68.7851C288.418 69.0351 288.758 69.1601 289.198 69.1601C289.668 69.1601 290.058 69.0251 290.368 68.7551L290.743 69.5201C290.533 69.7101 290.278 69.8501 289.978 69.9401C289.688 70.0301 289.388 70.0751 289.078 70.0751ZM285.358 63.0101V62.1251H290.233V63.0101H285.358ZM292.681 70.0001V58.8701H293.746V64.2851L293.536 63.8801C293.786 63.3101 294.186 62.8651 294.736 62.5451C295.286 62.2151 295.941 62.0501 296.701 62.0501C297.341 62.0501 297.901 62.1751 298.381 62.4251C298.871 62.6651 299.251 63.0351 299.521 63.5351C299.801 64.0351 299.941 64.6651 299.941 65.4251V70.0001H298.876V65.5301C298.876 64.7001 298.666 64.0751 298.246 63.6551C297.836 63.2251 297.256 63.0101 296.506 63.0101C295.946 63.0101 295.456 63.1251 295.036 63.3551C294.626 63.5751 294.306 63.9001 294.076 64.3301C293.856 64.7501 293.746 65.2601 293.746 65.8601V70.0001H292.681ZM307.753 70.0001V68.2601L307.708 67.9751V65.0651C307.708 64.3951 307.518 63.8801 307.138 63.5201C306.768 63.1601 306.213 62.9801 305.473 62.9801C304.963 62.9801 304.478 63.0651 304.018 63.2351C303.558 63.4051 303.168 63.6301 302.848 63.9101L302.368 63.1151C302.768 62.7751 303.248 62.5151 303.808 62.3351C304.368 62.1451 304.958 62.0501 305.578 62.0501C306.598 62.0501 307.383 62.3051 307.933 62.8151C308.493 63.3151 308.773 64.0801 308.773 65.1101V70.0001H307.753ZM305.038 70.0751C304.448 70.0751 303.933 69.9801 303.493 69.7901C303.063 69.5901 302.733 69.3201 302.503 68.9801C302.273 68.6301 302.158 68.2301 302.158 67.7801C302.158 67.3701 302.253 67.0001 302.443 66.6701C302.643 66.3301 302.963 66.0601 303.403 65.8601C303.853 65.6501 304.453 65.5451 305.203 65.5451H307.918V66.3401H305.233C304.473 66.3401 303.943 66.4751 303.643 66.7451C303.353 67.0151 303.208 67.3501 303.208 67.7501C303.208 68.2001 303.383 68.5601 303.733 68.8301C304.083 69.1001 304.573 69.2351 305.203 69.2351C305.803 69.2351 306.318 69.1001 306.748 68.8301C307.188 68.5501 307.508 68.1501 307.708 67.6301L307.948 68.3651C307.748 68.8851 307.398 69.3001 306.898 69.6101C306.408 69.9201 305.788 70.0751 305.038 70.0751ZM314.156 70.0751C313.416 70.0751 312.846 69.8751 312.446 69.4751C312.046 69.0751 311.846 68.5101 311.846 67.7801V60.3851H312.911V67.7201C312.911 68.1801 313.026 68.5351 313.256 68.7851C313.496 69.0351 313.836 69.1601 314.276 69.1601C314.746 69.1601 315.136 69.0251 315.446 68.7551L315.821 69.5201C315.611 69.7101 315.356 69.8501 315.056 69.9401C314.766 70.0301 314.466 70.0751 314.156 70.0751ZM310.436 63.0101V62.1251H315.311V63.0101H310.436ZM321.685 70.0001V62.1251H322.705V64.2551L322.54 63.8801C322.78 63.3101 323.165 62.8651 323.695 62.5451C324.235 62.2151 324.87 62.0501 325.6 62.0501C326.37 62.0501 327.025 62.2451 327.565 62.6351C328.105 63.0151 328.455 63.5901 328.615 64.3601L328.195 64.1951C328.425 63.5551 328.83 63.0401 329.41 62.6501C330 62.2501 330.705 62.0501 331.525 62.0501C332.165 62.0501 332.72 62.1751 333.19 62.4251C333.67 62.6651 334.04 63.0351 334.3 63.5351C334.57 64.0351 334.705 64.6651 334.705 65.4251V70.0001H333.64V65.5301C333.64 64.7001 333.44 64.0751 333.04 63.6551C332.65 63.2251 332.095 63.0101 331.375 63.0101C330.835 63.0101 330.365 63.1251 329.965 63.3551C329.575 63.5751 329.27 63.9001 329.05 64.3301C328.84 64.7501 328.735 65.2601 328.735 65.8601V70.0001H327.67V65.5301C327.67 64.7001 327.47 64.0751 327.07 63.6551C326.67 63.2251 326.11 63.0101 325.39 63.0101C324.86 63.0101 324.395 63.1251 323.995 63.3551C323.595 63.5751 323.285 63.9001 323.065 64.3301C322.855 64.7501 322.75 65.2601 322.75 65.8601V70.0001H321.685ZM340.938 70.0751C340.118 70.0751 339.398 69.9051 338.778 69.5651C338.158 69.2151 337.673 68.7401 337.323 68.1401C336.973 67.5301 336.798 66.8351 336.798 66.0551C336.798 65.2751 336.963 64.5851 337.293 63.9851C337.633 63.3851 338.093 62.9151 338.673 62.5751C339.263 62.2251 339.923 62.0501 340.653 62.0501C341.393 62.0501 342.048 62.2201 342.618 62.5601C343.198 62.8901 343.653 63.3601 343.983 63.9701C344.313 64.5701 344.478 65.2651 344.478 66.0551C344.478 66.1051 344.473 66.1601 344.463 66.2201C344.463 66.2701 344.463 66.3251 344.463 66.3851H337.608V65.5901H343.893L343.473 65.9051C343.473 65.3351 343.348 64.8301 343.098 64.3901C342.858 63.9401 342.528 63.5901 342.108 63.3401C341.688 63.0901 341.203 62.9651 340.653 62.9651C340.113 62.9651 339.628 63.0901 339.198 63.3401C338.768 63.5901 338.433 63.9401 338.193 64.3901C337.953 64.8401 337.833 65.3551 337.833 65.9351V66.1001C337.833 66.7001 337.963 67.2301 338.223 67.6901C338.493 68.1401 338.863 68.4951 339.333 68.7551C339.813 69.0051 340.358 69.1301 340.968 69.1301C341.448 69.1301 341.893 69.0451 342.303 68.8751C342.723 68.7051 343.083 68.4451 343.383 68.0951L343.983 68.7851C343.633 69.2051 343.193 69.5251 342.663 69.7451C342.143 69.9651 341.568 70.0751 340.938 70.0751ZM351.361 70.0001V68.2601L351.316 67.9751V65.0651C351.316 64.3951 351.126 63.8801 350.746 63.5201C350.376 63.1601 349.821 62.9801 349.081 62.9801C348.571 62.9801 348.086 63.0651 347.626 63.2351C347.166 63.4051 346.776 63.6301 346.456 63.9101L345.976 63.1151C346.376 62.7751 346.856 62.5151 347.416 62.3351C347.976 62.1451 348.566 62.0501 349.186 62.0501C350.206 62.0501 350.991 62.3051 351.541 62.8151C352.101 63.3151 352.381 64.0801 352.381 65.1101V70.0001H351.361ZM348.646 70.0751C348.056 70.0751 347.541 69.9801 347.101 69.7901C346.671 69.5901 346.341 69.3201 346.111 68.9801C345.881 68.6301 345.766 68.2301 345.766 67.7801C345.766 67.3701 345.861 67.0001 346.051 66.6701C346.251 66.3301 346.571 66.0601 347.011 65.8601C347.461 65.6501 348.061 65.5451 348.811 65.5451H351.526V66.3401H348.841C348.081 66.3401 347.551 66.4751 347.251 66.7451C346.961 67.0151 346.816 67.3501 346.816 67.7501C346.816 68.2001 346.991 68.5601 347.341 68.8301C347.691 69.1001 348.181 69.2351 348.811 69.2351C349.411 69.2351 349.926 69.1001 350.356 68.8301C350.796 68.5501 351.116 68.1501 351.316 67.6301L351.556 68.3651C351.356 68.8851 351.006 69.3001 350.506 69.6101C350.016 69.9201 349.396 70.0751 348.646 70.0751ZM355.274 70.0001V62.1251H356.294V64.2851L356.129 63.8801C356.379 63.3101 356.779 62.8651 357.329 62.5451C357.879 62.2151 358.534 62.0501 359.294 62.0501C359.934 62.0501 360.494 62.1751 360.974 62.4251C361.464 62.6651 361.844 63.0351 362.114 63.5351C362.394 64.0351 362.534 64.6651 362.534 65.4251V70.0001H361.469V65.5301C361.469 64.7001 361.259 64.0751 360.839 63.6551C360.429 63.2251 359.849 63.0101 359.099 63.0101C358.539 63.0101 358.049 63.1251 357.629 63.3551C357.219 63.5751 356.899 63.9001 356.669 64.3301C356.449 64.7501 356.339 65.2601 356.339 65.8601V70.0001H355.274ZM367.526 70.0751C366.876 70.0751 366.261 69.9851 365.681 69.8051C365.101 69.6151 364.646 69.3801 364.316 69.1001L364.796 68.2601C365.116 68.5001 365.526 68.7101 366.026 68.8901C366.526 69.0601 367.051 69.1451 367.601 69.1451C368.351 69.1451 368.891 69.0301 369.221 68.8001C369.551 68.5601 369.716 68.2451 369.716 67.8551C369.716 67.5651 369.621 67.3401 369.431 67.1801C369.251 67.0101 369.011 66.8851 368.711 66.8051C368.411 66.7151 368.076 66.6401 367.706 66.5801C367.336 66.5201 366.966 66.4501 366.596 66.3701C366.236 66.2901 365.906 66.1751 365.606 66.0251C365.306 65.8651 365.061 65.6501 364.871 65.3801C364.691 65.1101 364.601 64.7501 364.601 64.3001C364.601 63.8701 364.721 63.4851 364.961 63.1451C365.201 62.8051 365.551 62.5401 366.011 62.3501C366.481 62.1501 367.051 62.0501 367.721 62.0501C368.231 62.0501 368.741 62.1201 369.251 62.2601C369.761 62.3901 370.181 62.5651 370.511 62.7851L370.046 63.6401C369.696 63.4001 369.321 63.2301 368.921 63.1301C368.521 63.0201 368.121 62.9651 367.721 62.9651C367.011 62.9651 366.486 63.0901 366.146 63.3401C365.816 63.5801 365.651 63.8901 365.651 64.2701C365.651 64.5701 365.741 64.8051 365.921 64.9751C366.111 65.1451 366.356 65.2801 366.656 65.3801C366.966 65.4701 367.301 65.5451 367.661 65.6051C368.031 65.6651 368.396 65.7401 368.756 65.8301C369.126 65.9101 369.461 66.0251 369.761 66.1751C370.071 66.3151 370.316 66.5201 370.496 66.7901C370.686 67.0501 370.781 67.3951 370.781 67.8251C370.781 68.2851 370.651 68.6851 370.391 69.0251C370.141 69.3551 369.771 69.6151 369.281 69.8051C368.801 69.9851 368.216 70.0751 367.526 70.0751ZM151.485 88.0001V80.1251H152.55V88.0001H151.485ZM152.025 78.3851C151.805 78.3851 151.62 78.3101 151.47 78.1601C151.32 78.0101 151.245 77.8301 151.245 77.6201C151.245 77.4101 151.32 77.2351 151.47 77.0951C151.62 76.9451 151.805 76.8701 152.025 76.8701C152.245 76.8701 152.43 76.9401 152.58 77.0801C152.73 77.2201 152.805 77.3951 152.805 77.6051C152.805 77.8251 152.73 78.0101 152.58 78.1601C152.44 78.3101 152.255 78.3851 152.025 78.3851ZM157.871 88.0751C157.131 88.0751 156.561 87.8751 156.161 87.4751C155.761 87.0751 155.561 86.5101 155.561 85.7801V78.3851H156.626V85.7201C156.626 86.1801 156.741 86.5351 156.971 86.7851C157.211 87.0351 157.551 87.1601 157.991 87.1601C158.461 87.1601 158.851 87.0251 159.161 86.7551L159.536 87.5201C159.326 87.7101 159.071 87.8501 158.771 87.9401C158.481 88.0301 158.181 88.0751 157.871 88.0751ZM154.151 81.0101V80.1251H159.026V81.0101H154.151ZM161.1 81.4601L161.025 77.5001H161.97L161.895 81.4601H161.1ZM166.622 88.0751C165.972 88.0751 165.357 87.9851 164.777 87.8051C164.197 87.6151 163.742 87.3801 163.412 87.1001L163.892 86.2601C164.212 86.5001 164.622 86.7101 165.122 86.8901C165.622 87.0601 166.147 87.1451 166.697 87.1451C167.447 87.1451 167.987 87.0301 168.317 86.8001C168.647 86.5601 168.812 86.2451 168.812 85.8551C168.812 85.5651 168.717 85.3401 168.527 85.1801C168.347 85.0101 168.107 84.8851 167.807 84.8051C167.507 84.7151 167.172 84.6401 166.802 84.5801C166.432 84.5201 166.062 84.4501 165.692 84.3701C165.332 84.2901 165.002 84.1751 164.702 84.0251C164.402 83.8651 164.157 83.6501 163.967 83.3801C163.787 83.1101 163.697 82.7501 163.697 82.3001C163.697 81.8701 163.817 81.4851 164.057 81.1451C164.297 80.8051 164.647 80.5401 165.107 80.3501C165.577 80.1501 166.147 80.0501 166.817 80.0501C167.327 80.0501 167.837 80.1201 168.347 80.2601C168.857 80.3901 169.277 80.5651 169.607 80.7851L169.142 81.6401C168.792 81.4001 168.417 81.2301 168.017 81.1301C167.617 81.0201 167.217 80.9651 166.817 80.9651C166.107 80.9651 165.582 81.0901 165.242 81.3401C164.912 81.5801 164.747 81.8901 164.747 82.2701C164.747 82.5701 164.837 82.8051 165.017 82.9751C165.207 83.1451 165.452 83.2801 165.752 83.3801C166.062 83.4701 166.397 83.5451 166.757 83.6051C167.127 83.6651 167.492 83.7401 167.852 83.8301C168.222 83.9101 168.557 84.0251 168.857 84.1751C169.167 84.3151 169.412 84.5201 169.592 84.7901C169.782 85.0501 169.877 85.3951 169.877 85.8251C169.877 86.2851 169.747 86.6851 169.487 87.0251C169.237 87.3551 168.867 87.6151 168.377 87.8051C167.897 87.9851 167.312 88.0751 166.622 88.0751ZM179.822 88.0751C179.132 88.0751 178.512 87.9201 177.962 87.6101C177.412 87.2901 176.977 86.8301 176.657 86.2301C176.337 85.6301 176.177 84.9051 176.177 84.0551C176.177 83.1951 176.337 82.4701 176.657 81.8801C176.987 81.2801 177.427 80.8251 177.977 80.5151C178.527 80.2051 179.142 80.0501 179.822 80.0501C180.572 80.0501 181.242 80.2201 181.832 80.5601C182.432 80.8901 182.902 81.3551 183.242 81.9551C183.582 82.5551 183.752 83.2551 183.752 84.0551C183.752 84.8451 183.582 85.5451 183.242 86.1551C182.902 86.7551 182.432 87.2251 181.832 87.5651C181.242 87.9051 180.572 88.0751 179.822 88.0751ZM175.757 88.0001V76.8701H176.822V82.4501L176.672 84.0401L176.777 85.6301V88.0001H175.757ZM179.747 87.1301C180.307 87.1301 180.807 87.0051 181.247 86.7551C181.687 86.4951 182.037 86.1351 182.297 85.6751C182.557 85.2051 182.687 84.6651 182.687 84.0551C182.687 83.4351 182.557 82.8951 182.297 82.4351C182.037 81.9751 181.687 81.6201 181.247 81.3701C180.807 81.1101 180.307 80.9801 179.747 80.9801C179.187 80.9801 178.682 81.1101 178.232 81.3701C177.792 81.6201 177.442 81.9751 177.182 82.4351C176.932 82.8951 176.807 83.4351 176.807 84.0551C176.807 84.6651 176.932 85.2051 177.182 85.6751C177.442 86.1351 177.792 86.4951 178.232 86.7551C178.682 87.0051 179.187 87.1301 179.747 87.1301ZM189.268 88.0751C188.448 88.0751 187.728 87.9051 187.108 87.5651C186.488 87.2151 186.003 86.7401 185.653 86.1401C185.303 85.5301 185.128 84.8351 185.128 84.0551C185.128 83.2751 185.293 82.5851 185.623 81.9851C185.963 81.3851 186.423 80.9151 187.003 80.5751C187.593 80.2251 188.253 80.0501 188.983 80.0501C189.723 80.0501 190.378 80.2201 190.948 80.5601C191.528 80.8901 191.983 81.3601 192.313 81.9701C192.643 82.5701 192.808 83.2651 192.808 84.0551C192.808 84.1051 192.803 84.1601 192.793 84.2201C192.793 84.2701 192.793 84.3251 192.793 84.3851H185.938V83.5901H192.223L191.803 83.9051C191.803 83.3351 191.678 82.8301 191.428 82.3901C191.188 81.9401 190.858 81.5901 190.438 81.3401C190.018 81.0901 189.533 80.9651 188.983 80.9651C188.443 80.9651 187.958 81.0901 187.528 81.3401C187.098 81.5901 186.763 81.9401 186.523 82.3901C186.283 82.8401 186.163 83.3551 186.163 83.9351V84.1001C186.163 84.7001 186.293 85.2301 186.553 85.6901C186.823 86.1401 187.193 86.4951 187.663 86.7551C188.143 87.0051 188.688 87.1301 189.298 87.1301C189.778 87.1301 190.223 87.0451 190.633 86.8751C191.053 86.7051 191.413 86.4451 191.713 86.0951L192.313 86.7851C191.963 87.2051 191.523 87.5251 190.993 87.7451C190.473 87.9651 189.898 88.0751 189.268 88.0751ZM198.321 88.0751C197.501 88.0751 196.781 87.9051 196.161 87.5651C195.541 87.2151 195.056 86.7401 194.706 86.1401C194.356 85.5301 194.181 84.8351 194.181 84.0551C194.181 83.2751 194.346 82.5851 194.676 81.9851C195.016 81.3851 195.476 80.9151 196.056 80.5751C196.646 80.2251 197.306 80.0501 198.036 80.0501C198.776 80.0501 199.431 80.2201 200.001 80.5601C200.581 80.8901 201.036 81.3601 201.366 81.9701C201.696 82.5701 201.861 83.2651 201.861 84.0551C201.861 84.1051 201.856 84.1601 201.846 84.2201C201.846 84.2701 201.846 84.3251 201.846 84.3851H194.991V83.5901H201.276L200.856 83.9051C200.856 83.3351 200.731 82.8301 200.481 82.3901C200.241 81.9401 199.911 81.5901 199.491 81.3401C199.071 81.0901 198.586 80.9651 198.036 80.9651C197.496 80.9651 197.011 81.0901 196.581 81.3401C196.151 81.5901 195.816 81.9401 195.576 82.3901C195.336 82.8401 195.216 83.3551 195.216 83.9351V84.1001C195.216 84.7001 195.346 85.2301 195.606 85.6901C195.876 86.1401 196.246 86.4951 196.716 86.7551C197.196 87.0051 197.741 87.1301 198.351 87.1301C198.831 87.1301 199.276 87.0451 199.686 86.8751C200.106 86.7051 200.466 86.4451 200.766 86.0951L201.366 86.7851C201.016 87.2051 200.576 87.5251 200.046 87.7451C199.526 87.9651 198.951 88.0751 198.321 88.0751ZM204.029 88.0001V80.1251H205.049V82.2851L204.884 81.8801C205.134 81.3101 205.534 80.8651 206.084 80.5451C206.634 80.2151 207.289 80.0501 208.049 80.0501C208.689 80.0501 209.249 80.1751 209.729 80.4251C210.219 80.6651 210.599 81.0351 210.869 81.5351C211.149 82.0351 211.289 82.6651 211.289 83.4251V88.0001H210.224V83.5301C210.224 82.7001 210.014 82.0751 209.594 81.6551C209.184 81.2251 208.604 81.0101 207.854 81.0101C207.294 81.0101 206.804 81.1251 206.384 81.3551C205.974 81.5751 205.654 81.9001 205.424 82.3301C205.204 82.7501 205.094 83.2601 205.094 83.8601V88.0001H204.029ZM219.216 88.0001V77.9501L219.696 78.4601H216.741V77.5001H220.296V88.0001H219.216ZM227.111 88.0901C226.181 88.0901 225.396 87.8851 224.756 87.4751C224.116 87.0551 223.631 86.4551 223.301 85.6751C222.971 84.8851 222.806 83.9401 222.806 82.8401C222.806 81.6501 223.006 80.6551 223.406 79.8551C223.816 79.0451 224.381 78.4351 225.101 78.0251C225.821 77.6151 226.656 77.4101 227.606 77.4101C228.076 77.4101 228.526 77.4551 228.956 77.5451C229.386 77.6351 229.766 77.7801 230.096 77.9801L229.661 78.8501C229.391 78.6701 229.081 78.5451 228.731 78.4751C228.381 78.3951 228.011 78.3551 227.621 78.3551C226.491 78.3551 225.586 78.7151 224.906 79.4351C224.236 80.1551 223.901 81.2301 223.901 82.6601C223.901 82.8801 223.911 83.1551 223.931 83.4851C223.961 83.8051 224.021 84.1251 224.111 84.4451L223.736 84.1601C223.846 83.6401 224.061 83.2001 224.381 82.8401C224.701 82.4701 225.101 82.1901 225.581 82.0001C226.061 81.8101 226.586 81.7151 227.156 81.7151C227.856 81.7151 228.471 81.8451 229.001 82.1051C229.531 82.3651 229.946 82.7301 230.246 83.2001C230.546 83.6701 230.696 84.2251 230.696 84.8651C230.696 85.5151 230.541 86.0851 230.231 86.5751C229.921 87.0551 229.491 87.4301 228.941 87.7001C228.401 87.9601 227.791 88.0901 227.111 88.0901ZM227.066 87.1751C227.566 87.1751 228.006 87.0851 228.386 86.9051C228.776 86.7151 229.081 86.4501 229.301 86.1101C229.521 85.7601 229.631 85.3551 229.631 84.8951C229.631 84.2051 229.391 83.6551 228.911 83.2451C228.441 82.8351 227.801 82.6301 226.991 82.6301C226.451 82.6301 225.981 82.7301 225.581 82.9301C225.181 83.1301 224.866 83.4051 224.636 83.7551C224.406 84.0951 224.291 84.4851 224.291 84.9251C224.291 85.3051 224.396 85.6701 224.606 86.0201C224.816 86.3601 225.126 86.6401 225.536 86.8601C225.956 87.0701 226.466 87.1751 227.066 87.1751ZM236.638 90.9851C236.268 90.9851 235.913 90.9251 235.573 90.8051C235.243 90.6851 234.958 90.5051 234.718 90.2651L235.213 89.4701C235.413 89.6601 235.628 89.8051 235.858 89.9051C236.098 90.0151 236.363 90.0701 236.653 90.0701C237.003 90.0701 237.303 89.9701 237.553 89.7701C237.813 89.5801 238.058 89.2401 238.288 88.7501L238.798 87.5951L238.918 87.4301L242.158 80.1251H243.208L239.263 88.9451C239.043 89.4551 238.798 89.8601 238.528 90.1601C238.268 90.4601 237.983 90.6701 237.673 90.7901C237.363 90.9201 237.018 90.9851 236.638 90.9851ZM238.738 88.2251L235.108 80.1251H236.218L239.428 87.3551L238.738 88.2251ZM247.833 88.0751C247.013 88.0751 246.293 87.9051 245.673 87.5651C245.053 87.2151 244.568 86.7401 244.218 86.1401C243.868 85.5301 243.693 84.8351 243.693 84.0551C243.693 83.2751 243.858 82.5851 244.188 81.9851C244.528 81.3851 244.988 80.9151 245.568 80.5751C246.158 80.2251 246.818 80.0501 247.548 80.0501C248.288 80.0501 248.943 80.2201 249.513 80.5601C250.093 80.8901 250.548 81.3601 250.878 81.9701C251.208 82.5701 251.373 83.2651 251.373 84.0551C251.373 84.1051 251.368 84.1601 251.358 84.2201C251.358 84.2701 251.358 84.3251 251.358 84.3851H244.503V83.5901H250.788L250.368 83.9051C250.368 83.3351 250.243 82.8301 249.993 82.3901C249.753 81.9401 249.423 81.5901 249.003 81.3401C248.583 81.0901 248.098 80.9651 247.548 80.9651C247.008 80.9651 246.523 81.0901 246.093 81.3401C245.663 81.5901 245.328 81.9401 245.088 82.3901C244.848 82.8401 244.728 83.3551 244.728 83.9351V84.1001C244.728 84.7001 244.858 85.2301 245.118 85.6901C245.388 86.1401 245.758 86.4951 246.228 86.7551C246.708 87.0051 247.253 87.1301 247.863 87.1301C248.343 87.1301 248.788 87.0451 249.198 86.8751C249.618 86.7051 249.978 86.4451 250.278 86.0951L250.878 86.7851C250.528 87.2051 250.088 87.5251 249.558 87.7451C249.038 87.9651 248.463 88.0751 247.833 88.0751ZM258.256 88.0001V86.2601L258.211 85.9751V83.0651C258.211 82.3951 258.021 81.8801 257.641 81.5201C257.271 81.1601 256.716 80.9801 255.976 80.9801C255.466 80.9801 254.981 81.0651 254.521 81.2351C254.061 81.4051 253.671 81.6301 253.351 81.9101L252.871 81.1151C253.271 80.7751 253.751 80.5151 254.311 80.3351C254.871 80.1451 255.461 80.0501 256.081 80.0501C257.101 80.0501 257.886 80.3051 258.436 80.8151C258.996 81.3151 259.276 82.0801 259.276 83.1101V88.0001H258.256ZM255.541 88.0751C254.951 88.0751 254.436 87.9801 253.996 87.7901C253.566 87.5901 253.236 87.3201 253.006 86.9801C252.776 86.6301 252.661 86.2301 252.661 85.7801C252.661 85.3701 252.756 85.0001 252.946 84.6701C253.146 84.3301 253.466 84.0601 253.906 83.8601C254.356 83.6501 254.956 83.5451 255.706 83.5451H258.421V84.3401H255.736C254.976 84.3401 254.446 84.4751 254.146 84.7451C253.856 85.0151 253.711 85.3501 253.711 85.7501C253.711 86.2001 253.886 86.5601 254.236 86.8301C254.586 87.1001 255.076 87.2351 255.706 87.2351C256.306 87.2351 256.821 87.1001 257.251 86.8301C257.691 86.5501 258.011 86.1501 258.211 85.6301L258.451 86.3651C258.251 86.8851 257.901 87.3001 257.401 87.6101C256.911 87.9201 256.291 88.0751 255.541 88.0751ZM262.169 88.0001V80.1251H263.189V82.2701L263.084 81.8951C263.304 81.2951 263.674 80.8401 264.194 80.5301C264.714 80.2101 265.359 80.0501 266.129 80.0501V81.0851C266.089 81.0851 266.049 81.0851 266.009 81.0851C265.969 81.0751 265.929 81.0701 265.889 81.0701C265.059 81.0701 264.409 81.3251 263.939 81.8351C263.469 82.3351 263.234 83.0501 263.234 83.9801V88.0001H262.169ZM270.275 88.0751C269.625 88.0751 269.01 87.9851 268.43 87.8051C267.85 87.6151 267.395 87.3801 267.065 87.1001L267.545 86.2601C267.865 86.5001 268.275 86.7101 268.775 86.8901C269.275 87.0601 269.8 87.1451 270.35 87.1451C271.1 87.1451 271.64 87.0301 271.97 86.8001C272.3 86.5601 272.465 86.2451 272.465 85.8551C272.465 85.5651 272.37 85.3401 272.18 85.1801C272 85.0101 271.76 84.8851 271.46 84.8051C271.16 84.7151 270.825 84.6401 270.455 84.5801C270.085 84.5201 269.715 84.4501 269.345 84.3701C268.985 84.2901 268.655 84.1751 268.355 84.0251C268.055 83.8651 267.81 83.6501 267.62 83.3801C267.44 83.1101 267.35 82.7501 267.35 82.3001C267.35 81.8701 267.47 81.4851 267.71 81.1451C267.95 80.8051 268.3 80.5401 268.76 80.3501C269.23 80.1501 269.8 80.0501 270.47 80.0501C270.98 80.0501 271.49 80.1201 272 80.2601C272.51 80.3901 272.93 80.5651 273.26 80.7851L272.795 81.6401C272.445 81.4001 272.07 81.2301 271.67 81.1301C271.27 81.0201 270.87 80.9651 270.47 80.9651C269.76 80.9651 269.235 81.0901 268.895 81.3401C268.565 81.5801 268.4 81.8901 268.4 82.2701C268.4 82.5701 268.49 82.8051 268.67 82.9751C268.86 83.1451 269.105 83.2801 269.405 83.3801C269.715 83.4701 270.05 83.5451 270.41 83.6051C270.78 83.6651 271.145 83.7401 271.505 83.8301C271.875 83.9101 272.21 84.0251 272.51 84.1751C272.82 84.3151 273.065 84.5201 273.245 84.7901C273.435 85.0501 273.53 85.3951 273.53 85.8251C273.53 86.2851 273.4 86.6851 273.14 87.0251C272.89 87.3551 272.52 87.6151 272.03 87.8051C271.55 87.9851 270.965 88.0751 270.275 88.0751ZM279.41 88.0001V80.1251H280.43V82.2851L280.265 81.8801C280.515 81.3101 280.915 80.8651 281.465 80.5451C282.015 80.2151 282.67 80.0501 283.43 80.0501C284.07 80.0501 284.63 80.1751 285.11 80.4251C285.6 80.6651 285.98 81.0351 286.25 81.5351C286.53 82.0351 286.67 82.6651 286.67 83.4251V88.0001H285.605V83.5301C285.605 82.7001 285.395 82.0751 284.975 81.6551C284.565 81.2251 283.985 81.0101 283.235 81.0101C282.675 81.0101 282.185 81.1251 281.765 81.3551C281.355 81.5751 281.035 81.9001 280.805 82.3301C280.585 82.7501 280.475 83.2601 280.475 83.8601V88.0001H279.41ZM292.757 88.0751C291.997 88.0751 291.312 87.9051 290.702 87.5651C290.102 87.2151 289.627 86.7401 289.277 86.1401C288.927 85.5301 288.752 84.8351 288.752 84.0551C288.752 83.2651 288.927 82.5701 289.277 81.9701C289.627 81.3701 290.102 80.9001 290.702 80.5601C291.302 80.2201 291.987 80.0501 292.757 80.0501C293.537 80.0501 294.227 80.2201 294.827 80.5601C295.437 80.9001 295.912 81.3701 296.252 81.9701C296.602 82.5701 296.777 83.2651 296.777 84.0551C296.777 84.8351 296.602 85.5301 296.252 86.1401C295.912 86.7401 295.437 87.2151 294.827 87.5651C294.217 87.9051 293.527 88.0751 292.757 88.0751ZM292.757 87.1301C293.327 87.1301 293.832 87.0051 294.272 86.7551C294.712 86.4951 295.057 86.1351 295.307 85.6751C295.567 85.2051 295.697 84.6651 295.697 84.0551C295.697 83.4351 295.567 82.8951 295.307 82.4351C295.057 81.9751 294.712 81.6201 294.272 81.3701C293.832 81.1101 293.332 80.9801 292.772 80.9801C292.212 80.9801 291.712 81.1101 291.272 81.3701C290.832 81.6201 290.482 81.9751 290.222 82.4351C289.962 82.8951 289.832 83.4351 289.832 84.0551C289.832 84.6651 289.962 85.2051 290.222 85.6751C290.482 86.1351 290.832 86.4951 291.272 86.7551C291.712 87.0051 292.207 87.1301 292.757 87.1301ZM300.336 88.0001L297.366 80.1251H298.386L301.086 87.4301H300.621L303.396 80.1251H304.311L307.056 87.4301H306.591L309.336 80.1251H310.311L307.326 88.0001H306.321L303.681 81.1301H303.996L301.341 88.0001H300.336ZM311.507 88.0751C311.287 88.0751 311.097 87.9951 310.937 87.8351C310.787 87.6751 310.712 87.4801 310.712 87.2501C310.712 87.0101 310.787 86.8151 310.937 86.6651C311.097 86.5151 311.287 86.4401 311.507 86.4401C311.727 86.4401 311.912 86.5151 312.062 86.6651C312.222 86.8151 312.302 87.0101 312.302 87.2501C312.302 87.4801 312.222 87.6751 312.062 87.8351C311.912 87.9951 311.727 88.0751 311.507 88.0751Z" fill="white" fill-opacity="0.75"/>
<defs>
<clipPath id="clip0_50_3456">
<rect width="100" height="100" fill="white" transform="translate(25 25.0001)"/>
</clipPath>
</defs>
</svg>
