<svg width="400" height="150" viewBox="0 0 400 150" fill="none" xmlns="http://www.w3.org/2000/svg">
<mask id="path-1-inside-1_50_3473" fill="white">
<path d="M0 5.00013C0 2.2387 2.23858 0.00012207 5 0.00012207H395C397.761 0.00012207 400 2.2387 400 5.00012V147C400 148.657 398.657 150 397 150H3C1.34314 150 0 148.657 0 147V5.00013Z"/>
</mask>
<path d="M0 5.00013C0 2.2387 2.23858 0.00012207 5 0.00012207H395C397.761 0.00012207 400 2.2387 400 5.00012V147C400 148.657 398.657 150 397 150H3C1.34314 150 0 148.657 0 147V5.00013Z" fill="#333333"/>
<path d="M0 0.00012207H400H0ZM400 147C400 150.314 397.314 153 394 153H6C2.68629 153 0 150.314 0 147C0 147 1.34315 147 3 147H397C398.657 147 400 147 400 147ZM0 150V0.00012207V150ZM400 0.00012207V150V0.00012207Z" fill="#FFCD42" mask="url(#path-1-inside-1_50_3473)"/>
<g clip-path="url(#clip0_50_3473)">
<path d="M25 25.0001H125V125H25V25.0001Z" fill="#F7DF1E"/>
<path d="M51.2936 108.567L58.9463 103.936C60.4227 106.554 61.7657 108.769 64.9871 108.769C68.0751 108.769 70.0219 107.561 70.0219 102.862V70.9098H79.4194V102.995C79.4194 112.728 73.714 117.159 65.39 117.159C57.8724 117.159 53.5086 113.265 51.2935 108.567" fill="black"/>
<path d="M84.5238 107.56L92.1756 103.13C94.1898 106.42 96.8078 108.836 101.439 108.836C105.333 108.836 107.816 106.889 107.816 104.204C107.816 100.982 105.265 99.8408 100.969 97.9619L98.6205 96.9543C91.8403 94.0684 87.3427 90.4437 87.3427 82.7911C87.3427 75.7429 92.7127 70.3726 101.104 70.3726C107.078 70.3726 111.374 72.4537 114.462 77.891L107.145 82.5895C105.534 79.7034 103.789 78.5624 101.104 78.5624C98.3517 78.5624 96.6063 80.3076 96.6063 82.5895C96.6063 85.4089 98.3517 86.5503 102.379 88.2957L104.728 89.3026C112.716 92.7262 117.214 96.2164 117.214 104.07C117.214 112.528 110.568 117.16 101.641 117.16C92.9144 117.16 87.2755 112.998 84.5238 107.56Z" fill="black"/>
</g>
<path d="M154.875 40.2001C153.842 40.2001 152.875 39.9835 151.975 39.5501C151.075 39.1168 150.342 38.4918 149.775 37.6751L151.225 35.9751C151.708 36.6418 152.25 37.1585 152.85 37.5251C153.467 37.8751 154.142 38.0501 154.875 38.0501C156.875 38.0501 157.875 36.8668 157.875 34.5001V24.6751H151.55V22.5001H160.35V34.3751C160.35 36.3251 159.883 37.7835 158.95 38.7501C158.033 39.7168 156.675 40.2001 154.875 40.2001ZM173.317 40.0001V37.2001L173.192 36.6751V31.9001C173.192 30.8835 172.892 30.1001 172.292 29.5501C171.709 28.9835 170.826 28.7001 169.642 28.7001C168.859 28.7001 168.092 28.8335 167.342 29.1001C166.592 29.3501 165.959 29.6918 165.442 30.1251L164.442 28.3251C165.126 27.7751 165.942 27.3585 166.892 27.0751C167.859 26.7751 168.867 26.6251 169.917 26.6251C171.734 26.6251 173.134 27.0668 174.117 27.9501C175.101 28.8335 175.592 30.1835 175.592 32.0001V40.0001H173.317ZM168.967 40.1501C167.984 40.1501 167.117 39.9835 166.367 39.6501C165.634 39.3168 165.067 38.8585 164.667 38.2751C164.267 37.6751 164.067 37.0001 164.067 36.2501C164.067 35.5335 164.234 34.8835 164.567 34.3001C164.917 33.7168 165.476 33.2501 166.242 32.9001C167.026 32.5501 168.076 32.3751 169.392 32.3751H173.592V34.1001H169.492C168.292 34.1001 167.484 34.3001 167.067 34.7001C166.651 35.1001 166.442 35.5835 166.442 36.1501C166.442 36.8001 166.701 37.3251 167.217 37.7251C167.734 38.1085 168.451 38.3001 169.367 38.3001C170.267 38.3001 171.051 38.1001 171.717 37.7001C172.401 37.3001 172.892 36.7168 173.192 35.9501L173.667 37.6001C173.351 38.3835 172.792 39.0085 171.992 39.4751C171.192 39.9251 170.184 40.1501 168.967 40.1501ZM183.265 40.0001L177.465 26.7501H179.965L185.115 38.7501H183.915L189.165 26.7501H191.515L185.715 40.0001H183.265ZM201.418 40.0001V37.2001L201.293 36.6751V31.9001C201.293 30.8835 200.993 30.1001 200.393 29.5501C199.81 28.9835 198.926 28.7001 197.743 28.7001C196.96 28.7001 196.193 28.8335 195.443 29.1001C194.693 29.3501 194.06 29.6918 193.543 30.1251L192.543 28.3251C193.226 27.7751 194.043 27.3585 194.993 27.0751C195.96 26.7751 196.968 26.6251 198.018 26.6251C199.835 26.6251 201.235 27.0668 202.218 27.9501C203.201 28.8335 203.693 30.1835 203.693 32.0001V40.0001H201.418ZM197.068 40.1501C196.085 40.1501 195.218 39.9835 194.468 39.6501C193.735 39.3168 193.168 38.8585 192.768 38.2751C192.368 37.6751 192.168 37.0001 192.168 36.2501C192.168 35.5335 192.335 34.8835 192.668 34.3001C193.018 33.7168 193.576 33.2501 194.343 32.9001C195.126 32.5501 196.176 32.3751 197.493 32.3751H201.693V34.1001H197.593C196.393 34.1001 195.585 34.3001 195.168 34.7001C194.751 35.1001 194.543 35.5835 194.543 36.1501C194.543 36.8001 194.801 37.3251 195.318 37.7251C195.835 38.1085 196.551 38.3001 197.468 38.3001C198.368 38.3001 199.151 38.1001 199.818 37.7001C200.501 37.3001 200.993 36.7168 201.293 35.9501L201.768 37.6001C201.451 38.3835 200.893 39.0085 200.093 39.4751C199.293 39.9251 198.285 40.1501 197.068 40.1501ZM211.934 40.1501C210.834 40.1501 209.784 40.0001 208.784 39.7001C207.801 39.4001 207.026 39.0335 206.459 38.6001L207.459 36.7001C208.026 37.0835 208.726 37.4085 209.559 37.6751C210.393 37.9418 211.243 38.0751 212.109 38.0751C213.226 38.0751 214.026 37.9168 214.509 37.6001C215.009 37.2835 215.259 36.8418 215.259 36.2751C215.259 35.8585 215.109 35.5335 214.809 35.3001C214.509 35.0668 214.109 34.8918 213.609 34.7751C213.126 34.6585 212.584 34.5585 211.984 34.4751C211.384 34.3751 210.784 34.2585 210.184 34.1251C209.584 33.9751 209.034 33.7751 208.534 33.5251C208.034 33.2585 207.634 32.9001 207.334 32.4501C207.034 31.9835 206.884 31.3668 206.884 30.6001C206.884 29.8001 207.109 29.1001 207.559 28.5001C208.009 27.9001 208.643 27.4418 209.459 27.1251C210.293 26.7918 211.276 26.6251 212.409 26.6251C213.276 26.6251 214.151 26.7335 215.034 26.9501C215.934 27.1501 216.668 27.4418 217.234 27.8251L216.209 29.7251C215.609 29.3251 214.984 29.0501 214.334 28.9001C213.684 28.7501 213.034 28.6751 212.384 28.6751C211.334 28.6751 210.551 28.8501 210.034 29.2001C209.518 29.5335 209.259 29.9668 209.259 30.5001C209.259 30.9501 209.409 31.3001 209.709 31.5501C210.026 31.7835 210.426 31.9668 210.909 32.1001C211.409 32.2335 211.959 32.3501 212.559 32.4501C213.159 32.5335 213.759 32.6501 214.359 32.8001C214.959 32.9335 215.501 33.1251 215.984 33.3751C216.484 33.6251 216.884 33.9751 217.184 34.4251C217.501 34.8751 217.659 35.4751 217.659 36.2251C217.659 37.0251 217.426 37.7168 216.959 38.3001C216.493 38.8835 215.834 39.3418 214.984 39.6751C214.134 39.9918 213.118 40.1501 211.934 40.1501ZM226.434 40.1501C225.084 40.1501 223.875 39.8585 222.809 39.2751C221.759 38.6918 220.934 37.8918 220.334 36.8751C219.734 35.8585 219.434 34.6918 219.434 33.3751C219.434 32.0585 219.734 30.8918 220.334 29.8751C220.934 28.8585 221.759 28.0668 222.809 27.5001C223.875 26.9168 225.084 26.6251 226.434 26.6251C227.634 26.6251 228.7 26.8668 229.634 27.3501C230.584 27.8168 231.317 28.5168 231.834 29.4501L230.009 30.6251C229.575 29.9751 229.042 29.5001 228.409 29.2001C227.792 28.8835 227.125 28.7251 226.409 28.7251C225.542 28.7251 224.767 28.9168 224.084 29.3001C223.4 29.6835 222.859 30.2251 222.459 30.9251C222.059 31.6085 221.859 32.4251 221.859 33.3751C221.859 34.3251 222.059 35.1501 222.459 35.8501C222.859 36.5501 223.4 37.0918 224.084 37.4751C224.767 37.8585 225.542 38.0501 226.409 38.0501C227.125 38.0501 227.792 37.9001 228.409 37.6001C229.042 37.2835 229.575 36.8001 230.009 36.1501L231.834 37.3001C231.317 38.2168 230.584 38.9251 229.634 39.4251C228.7 39.9085 227.634 40.1501 226.434 40.1501ZM234.941 40.0001V26.7501H237.241V30.3501L237.016 29.4501C237.383 28.5335 237.999 27.8335 238.866 27.3501C239.733 26.8668 240.799 26.6251 242.066 26.6251V28.9501C241.966 28.9335 241.866 28.9251 241.766 28.9251C241.683 28.9251 241.599 28.9251 241.516 28.9251C240.233 28.9251 239.216 29.3085 238.466 30.0751C237.716 30.8418 237.341 31.9501 237.341 33.4001V40.0001H234.941ZM245.024 40.0001V26.7501H247.424V40.0001H245.024ZM246.224 24.2001C245.757 24.2001 245.366 24.0501 245.049 23.7501C244.749 23.4501 244.599 23.0835 244.599 22.6501C244.599 22.2001 244.749 21.8251 245.049 21.5251C245.366 21.2251 245.757 21.0751 246.224 21.0751C246.691 21.0751 247.074 21.2251 247.374 21.5251C247.691 21.8085 247.849 22.1668 247.849 22.6001C247.849 23.0501 247.699 23.4335 247.399 23.7501C247.099 24.0501 246.707 24.2001 246.224 24.2001ZM259.031 40.1501C257.931 40.1501 256.923 39.9001 256.006 39.4001C255.106 38.8835 254.381 38.1251 253.831 37.1251C253.298 36.1251 253.031 34.8751 253.031 33.3751C253.031 31.8751 253.29 30.6251 253.806 29.6251C254.34 28.6251 255.056 27.8751 255.956 27.3751C256.873 26.8751 257.898 26.6251 259.031 26.6251C260.331 26.6251 261.481 26.9085 262.481 27.4751C263.481 28.0418 264.273 28.8335 264.856 29.8501C265.44 30.8501 265.731 32.0251 265.731 33.3751C265.731 34.7251 265.44 35.9085 264.856 36.9251C264.273 37.9418 263.481 38.7335 262.481 39.3001C261.481 39.8668 260.331 40.1501 259.031 40.1501ZM252.006 44.8501V26.7501H254.306V30.3251L254.156 33.4001L254.406 36.4751V44.8501H252.006ZM258.831 38.0501C259.681 38.0501 260.44 37.8585 261.106 37.4751C261.79 37.0918 262.323 36.5501 262.706 35.8501C263.106 35.1335 263.306 34.3085 263.306 33.3751C263.306 32.4251 263.106 31.6085 262.706 30.9251C262.323 30.2251 261.79 29.6835 261.106 29.3001C260.44 28.9168 259.681 28.7251 258.831 28.7251C257.998 28.7251 257.24 28.9168 256.556 29.3001C255.89 29.6835 255.356 30.2251 254.956 30.9251C254.573 31.6085 254.381 32.4251 254.381 33.3751C254.381 34.3085 254.573 35.1335 254.956 35.8501C255.356 36.5501 255.89 37.0918 256.556 37.4751C257.24 37.8585 257.998 38.0501 258.831 38.0501ZM273.597 40.1501C272.264 40.1501 271.231 39.7918 270.497 39.0751C269.764 38.3585 269.397 37.3335 269.397 36.0001V23.8501H271.797V35.9001C271.797 36.6168 271.972 37.1668 272.322 37.5501C272.689 37.9335 273.206 38.1251 273.872 38.1251C274.622 38.1251 275.247 37.9168 275.747 37.5001L276.497 39.2251C276.131 39.5418 275.689 39.7751 275.172 39.9251C274.672 40.0751 274.147 40.1501 273.597 40.1501ZM267.147 28.7251V26.7501H275.597V28.7251H267.147Z" fill="white"/>
<path d="M150.03 70.0001L154.83 59.5001H155.925L160.725 70.0001H159.555L155.145 60.1451H155.595L151.185 70.0001H150.03ZM151.92 67.1951L152.25 66.2951H158.355L158.685 67.1951H151.92ZM166.302 70.0751C165.612 70.0751 164.992 69.9201 164.442 69.6101C163.892 69.2901 163.457 68.8301 163.137 68.2301C162.817 67.6301 162.657 66.9051 162.657 66.0551C162.657 65.1951 162.817 64.4701 163.137 63.8801C163.467 63.2801 163.907 62.8251 164.457 62.5151C165.007 62.2051 165.622 62.0501 166.302 62.0501C167.052 62.0501 167.722 62.2201 168.312 62.5601C168.912 62.8901 169.382 63.3551 169.722 63.9551C170.062 64.5551 170.232 65.2551 170.232 66.0551C170.232 66.8451 170.062 67.5451 169.722 68.1551C169.382 68.7551 168.912 69.2251 168.312 69.5651C167.722 69.9051 167.052 70.0751 166.302 70.0751ZM162.237 70.0001V58.8701H163.302V64.4501L163.152 66.0401L163.257 67.6301V70.0001H162.237ZM166.227 69.1301C166.787 69.1301 167.287 69.0051 167.727 68.7551C168.167 68.4951 168.517 68.1351 168.777 67.6751C169.037 67.2051 169.167 66.6651 169.167 66.0551C169.167 65.4351 169.037 64.8951 168.777 64.4351C168.517 63.9751 168.167 63.6201 167.727 63.3701C167.287 63.1101 166.787 62.9801 166.227 62.9801C165.667 62.9801 165.162 63.1101 164.712 63.3701C164.272 63.6201 163.922 63.9751 163.662 64.4351C163.412 64.8951 163.287 65.4351 163.287 66.0551C163.287 66.6651 163.412 67.2051 163.662 67.6751C163.922 68.1351 164.272 68.4951 164.712 68.7551C165.162 69.0051 165.667 69.1301 166.227 69.1301ZM174.518 70.0751C173.868 70.0751 173.253 69.9851 172.673 69.8051C172.093 69.6151 171.638 69.3801 171.308 69.1001L171.788 68.2601C172.108 68.5001 172.518 68.7101 173.018 68.8901C173.518 69.0601 174.043 69.1451 174.593 69.1451C175.343 69.1451 175.883 69.0301 176.213 68.8001C176.543 68.5601 176.708 68.2451 176.708 67.8551C176.708 67.5651 176.613 67.3401 176.423 67.1801C176.243 67.0101 176.003 66.8851 175.703 66.8051C175.403 66.7151 175.068 66.6401 174.698 66.5801C174.328 66.5201 173.958 66.4501 173.588 66.3701C173.228 66.2901 172.898 66.1751 172.598 66.0251C172.298 65.8651 172.053 65.6501 171.863 65.3801C171.683 65.1101 171.593 64.7501 171.593 64.3001C171.593 63.8701 171.713 63.4851 171.953 63.1451C172.193 62.8051 172.543 62.5401 173.003 62.3501C173.473 62.1501 174.043 62.0501 174.713 62.0501C175.223 62.0501 175.733 62.1201 176.243 62.2601C176.753 62.3901 177.173 62.5651 177.503 62.7851L177.038 63.6401C176.688 63.4001 176.313 63.2301 175.913 63.1301C175.513 63.0201 175.113 62.9651 174.713 62.9651C174.003 62.9651 173.478 63.0901 173.138 63.3401C172.808 63.5801 172.643 63.8901 172.643 64.2701C172.643 64.5701 172.733 64.8051 172.913 64.9751C173.103 65.1451 173.348 65.2801 173.648 65.3801C173.958 65.4701 174.293 65.5451 174.653 65.6051C175.023 65.6651 175.388 65.7401 175.748 65.8301C176.118 65.9101 176.453 66.0251 176.753 66.1751C177.063 66.3151 177.308 66.5201 177.488 66.7901C177.678 67.0501 177.773 67.3951 177.773 67.8251C177.773 68.2851 177.643 68.6851 177.383 69.0251C177.133 69.3551 176.763 69.6151 176.273 69.8051C175.793 69.9851 175.208 70.0751 174.518 70.0751ZM182.937 70.0751C182.177 70.0751 181.492 69.9051 180.882 69.5651C180.282 69.2151 179.807 68.7401 179.457 68.1401C179.107 67.5301 178.932 66.8351 178.932 66.0551C178.932 65.2651 179.107 64.5701 179.457 63.9701C179.807 63.3701 180.282 62.9001 180.882 62.5601C181.482 62.2201 182.167 62.0501 182.937 62.0501C183.717 62.0501 184.407 62.2201 185.007 62.5601C185.617 62.9001 186.092 63.3701 186.432 63.9701C186.782 64.5701 186.957 65.2651 186.957 66.0551C186.957 66.8351 186.782 67.5301 186.432 68.1401C186.092 68.7401 185.617 69.2151 185.007 69.5651C184.397 69.9051 183.707 70.0751 182.937 70.0751ZM182.937 69.1301C183.507 69.1301 184.012 69.0051 184.452 68.7551C184.892 68.4951 185.237 68.1351 185.487 67.6751C185.747 67.2051 185.877 66.6651 185.877 66.0551C185.877 65.4351 185.747 64.8951 185.487 64.4351C185.237 63.9751 184.892 63.6201 184.452 63.3701C184.012 63.1101 183.512 62.9801 182.952 62.9801C182.392 62.9801 181.892 63.1101 181.452 63.3701C181.012 63.6201 180.662 63.9751 180.402 64.4351C180.142 64.8951 180.012 65.4351 180.012 66.0551C180.012 66.6651 180.142 67.2051 180.402 67.6751C180.662 68.1351 181.012 68.4951 181.452 68.7551C181.892 69.0051 182.387 69.1301 182.937 69.1301ZM189.131 70.0001V58.8701H190.196V70.0001H189.131ZM196.415 70.0751C195.745 70.0751 195.16 69.9501 194.66 69.7001C194.16 69.4501 193.77 69.0751 193.49 68.5751C193.22 68.0751 193.085 67.4501 193.085 66.7001V62.1251H194.15V66.5801C194.15 67.4201 194.355 68.0551 194.765 68.4851C195.185 68.9051 195.77 69.1151 196.52 69.1151C197.07 69.1151 197.545 69.0051 197.945 68.7851C198.355 68.5551 198.665 68.2251 198.875 67.7951C199.095 67.3651 199.205 66.8501 199.205 66.2501V62.1251H200.27V70.0001H199.25V67.8401L199.415 68.2301C199.165 68.8101 198.775 69.2651 198.245 69.5951C197.725 69.9151 197.115 70.0751 196.415 70.0751ZM205.728 70.0751C204.988 70.0751 204.418 69.8751 204.018 69.4751C203.618 69.0751 203.418 68.5101 203.418 67.7801V60.3851H204.483V67.7201C204.483 68.1801 204.598 68.5351 204.828 68.7851C205.068 69.0351 205.408 69.1601 205.848 69.1601C206.318 69.1601 206.708 69.0251 207.018 68.7551L207.393 69.5201C207.183 69.7101 206.928 69.8501 206.628 69.9401C206.338 70.0301 206.038 70.0751 205.728 70.0751ZM202.008 63.0101V62.1251H206.883V63.0101H202.008ZM212.398 70.0751C211.578 70.0751 210.858 69.9051 210.238 69.5651C209.618 69.2151 209.133 68.7401 208.783 68.1401C208.433 67.5301 208.258 66.8351 208.258 66.0551C208.258 65.2751 208.423 64.5851 208.753 63.9851C209.093 63.3851 209.553 62.9151 210.133 62.5751C210.723 62.2251 211.383 62.0501 212.113 62.0501C212.853 62.0501 213.508 62.2201 214.078 62.5601C214.658 62.8901 215.113 63.3601 215.443 63.9701C215.773 64.5701 215.938 65.2651 215.938 66.0551C215.938 66.1051 215.933 66.1601 215.923 66.2201C215.923 66.2701 215.923 66.3251 215.923 66.3851H209.068V65.5901H215.353L214.933 65.9051C214.933 65.3351 214.808 64.8301 214.558 64.3901C214.318 63.9401 213.988 63.5901 213.568 63.3401C213.148 63.0901 212.663 62.9651 212.113 62.9651C211.573 62.9651 211.088 63.0901 210.658 63.3401C210.228 63.5901 209.893 63.9401 209.653 64.3901C209.413 64.8401 209.293 65.3551 209.293 65.9351V66.1001C209.293 66.7001 209.423 67.2301 209.683 67.6901C209.953 68.1401 210.323 68.4951 210.793 68.7551C211.273 69.0051 211.818 69.1301 212.428 69.1301C212.908 69.1301 213.353 69.0451 213.763 68.8751C214.183 68.7051 214.543 68.4451 214.843 68.0951L215.443 68.7851C215.093 69.2051 214.653 69.5251 214.123 69.7451C213.603 69.9651 213.028 70.0751 212.398 70.0751ZM225.167 70.0751C224.417 70.0751 223.742 69.9051 223.142 69.5651C222.552 69.2251 222.087 68.7551 221.747 68.1551C221.407 67.5451 221.237 66.8451 221.237 66.0551C221.237 65.2551 221.407 64.5551 221.747 63.9551C222.087 63.3551 222.552 62.8901 223.142 62.5601C223.742 62.2201 224.417 62.0501 225.167 62.0501C225.857 62.0501 226.472 62.2051 227.012 62.5151C227.562 62.8251 227.997 63.2801 228.317 63.8801C228.647 64.4701 228.812 65.1951 228.812 66.0551C228.812 66.9051 228.652 67.6301 228.332 68.2301C228.012 68.8301 227.577 69.2901 227.027 69.6101C226.487 69.9201 225.867 70.0751 225.167 70.0751ZM225.242 69.1301C225.802 69.1301 226.302 69.0051 226.742 68.7551C227.192 68.4951 227.542 68.1351 227.792 67.6751C228.052 67.2051 228.182 66.6651 228.182 66.0551C228.182 65.4351 228.052 64.8951 227.792 64.4351C227.542 63.9751 227.192 63.6201 226.742 63.3701C226.302 63.1101 225.802 62.9801 225.242 62.9801C224.692 62.9801 224.197 63.1101 223.757 63.3701C223.317 63.6201 222.967 63.9751 222.707 64.4351C222.447 64.8951 222.317 65.4351 222.317 66.0551C222.317 66.6651 222.447 67.2051 222.707 67.6751C222.967 68.1351 223.317 68.4951 223.757 68.7551C224.197 69.0051 224.692 69.1301 225.242 69.1301ZM228.212 70.0001V67.6301L228.317 66.0401L228.167 64.4501V58.8701H229.232V70.0001H228.212ZM232.198 70.0001V62.1251H233.263V70.0001H232.198ZM232.738 60.3851C232.518 60.3851 232.333 60.3101 232.183 60.1601C232.033 60.0101 231.958 59.8301 231.958 59.6201C231.958 59.4101 232.033 59.2351 232.183 59.0951C232.333 58.9451 232.518 58.8701 232.738 58.8701C232.958 58.8701 233.143 58.9401 233.293 59.0801C233.443 59.2201 233.518 59.3951 233.518 59.6051C233.518 59.8251 233.443 60.0101 233.293 60.1601C233.153 60.3101 232.968 60.3851 232.738 60.3851ZM238.251 70.0001L234.756 62.1251H235.866L239.076 69.4301H238.551L241.806 62.1251H242.856L239.346 70.0001H238.251ZM247.481 70.0751C246.661 70.0751 245.941 69.9051 245.321 69.5651C244.701 69.2151 244.216 68.7401 243.866 68.1401C243.516 67.5301 243.341 66.8351 243.341 66.0551C243.341 65.2751 243.506 64.5851 243.836 63.9851C244.176 63.3851 244.636 62.9151 245.216 62.5751C245.806 62.2251 246.466 62.0501 247.196 62.0501C247.936 62.0501 248.591 62.2201 249.161 62.5601C249.741 62.8901 250.196 63.3601 250.526 63.9701C250.856 64.5701 251.021 65.2651 251.021 66.0551C251.021 66.1051 251.016 66.1601 251.006 66.2201C251.006 66.2701 251.006 66.3251 251.006 66.3851H244.151V65.5901H250.436L250.016 65.9051C250.016 65.3351 249.891 64.8301 249.641 64.3901C249.401 63.9401 249.071 63.5901 248.651 63.3401C248.231 63.0901 247.746 62.9651 247.196 62.9651C246.656 62.9651 246.171 63.0901 245.741 63.3401C245.311 63.5901 244.976 63.9401 244.736 64.3901C244.496 64.8401 244.376 65.3551 244.376 65.9351V66.1001C244.376 66.7001 244.506 67.2301 244.766 67.6901C245.036 68.1401 245.406 68.4951 245.876 68.7551C246.356 69.0051 246.901 69.1301 247.511 69.1301C247.991 69.1301 248.436 69.0451 248.846 68.8751C249.266 68.7051 249.626 68.4451 249.926 68.0951L250.526 68.7851C250.176 69.2051 249.736 69.5251 249.206 69.7451C248.686 69.9651 248.111 70.0751 247.481 70.0751ZM257.115 70.0001V62.1251H258.18V70.0001H257.115ZM257.655 60.3851C257.435 60.3851 257.25 60.3101 257.1 60.1601C256.95 60.0101 256.875 59.8301 256.875 59.6201C256.875 59.4101 256.95 59.2351 257.1 59.0951C257.25 58.9451 257.435 58.8701 257.655 58.8701C257.875 58.8701 258.06 58.9401 258.21 59.0801C258.36 59.2201 258.435 59.3951 258.435 59.6051C258.435 59.8251 258.36 60.0101 258.21 60.1601C258.07 60.3101 257.885 60.3851 257.655 60.3851ZM261.143 70.0001V62.1251H262.163V64.2851L261.998 63.8801C262.248 63.3101 262.648 62.8651 263.198 62.5451C263.748 62.2151 264.403 62.0501 265.163 62.0501C265.803 62.0501 266.363 62.1751 266.843 62.4251C267.333 62.6651 267.713 63.0351 267.983 63.5351C268.263 64.0351 268.403 64.6651 268.403 65.4251V70.0001H267.338V65.5301C267.338 64.7001 267.128 64.0751 266.708 63.6551C266.298 63.2251 265.718 63.0101 264.968 63.0101C264.408 63.0101 263.918 63.1251 263.498 63.3551C263.088 63.5751 262.768 63.9001 262.538 64.3301C262.318 64.7501 262.208 65.2601 262.208 65.8601V70.0001H261.143ZM273.77 70.0751C273.03 70.0751 272.46 69.8751 272.06 69.4751C271.66 69.0751 271.46 68.5101 271.46 67.7801V60.3851H272.525V67.7201C272.525 68.1801 272.64 68.5351 272.87 68.7851C273.11 69.0351 273.45 69.1601 273.89 69.1601C274.36 69.1601 274.75 69.0251 275.06 68.7551L275.435 69.5201C275.225 69.7101 274.97 69.8501 274.67 69.9401C274.38 70.0301 274.08 70.0751 273.77 70.0751ZM270.05 63.0101V62.1251H274.925V63.0101H270.05ZM280.305 70.0751C279.545 70.0751 278.86 69.9051 278.25 69.5651C277.65 69.2151 277.175 68.7401 276.825 68.1401C276.475 67.5301 276.3 66.8351 276.3 66.0551C276.3 65.2651 276.475 64.5701 276.825 63.9701C277.175 63.3701 277.65 62.9001 278.25 62.5601C278.85 62.2201 279.535 62.0501 280.305 62.0501C281.085 62.0501 281.775 62.2201 282.375 62.5601C282.985 62.9001 283.46 63.3701 283.8 63.9701C284.15 64.5701 284.325 65.2651 284.325 66.0551C284.325 66.8351 284.15 67.5301 283.8 68.1401C283.46 68.7401 282.985 69.2151 282.375 69.5651C281.765 69.9051 281.075 70.0751 280.305 70.0751ZM280.305 69.1301C280.875 69.1301 281.38 69.0051 281.82 68.7551C282.26 68.4951 282.605 68.1351 282.855 67.6751C283.115 67.2051 283.245 66.6651 283.245 66.0551C283.245 65.4351 283.115 64.8951 282.855 64.4351C282.605 63.9751 282.26 63.6201 281.82 63.3701C281.38 63.1101 280.88 62.9801 280.32 62.9801C279.76 62.9801 279.26 63.1101 278.82 63.3701C278.38 63.6201 278.03 63.9751 277.77 64.4351C277.51 64.8951 277.38 65.4351 277.38 66.0551C277.38 66.6651 277.51 67.2051 277.77 67.6751C278.03 68.1351 278.38 68.4951 278.82 68.7551C279.26 69.0051 279.755 69.1301 280.305 69.1301ZM292.915 70.0751C292.175 70.0751 291.605 69.8751 291.205 69.4751C290.805 69.0751 290.605 68.5101 290.605 67.7801V60.3851H291.67V67.7201C291.67 68.1801 291.785 68.5351 292.015 68.7851C292.255 69.0351 292.595 69.1601 293.035 69.1601C293.505 69.1601 293.895 69.0251 294.205 68.7551L294.58 69.5201C294.37 69.7101 294.115 69.8501 293.815 69.9401C293.525 70.0301 293.225 70.0751 292.915 70.0751ZM289.195 63.0101V62.1251H294.07V63.0101H289.195ZM296.519 70.0001V58.8701H297.584V64.2851L297.374 63.8801C297.624 63.3101 298.024 62.8651 298.574 62.5451C299.124 62.2151 299.779 62.0501 300.539 62.0501C301.179 62.0501 301.739 62.1751 302.219 62.4251C302.709 62.6651 303.089 63.0351 303.359 63.5351C303.639 64.0351 303.779 64.6651 303.779 65.4251V70.0001H302.714V65.5301C302.714 64.7001 302.504 64.0751 302.084 63.6551C301.674 63.2251 301.094 63.0101 300.344 63.0101C299.784 63.0101 299.294 63.1251 298.874 63.3551C298.464 63.5751 298.144 63.9001 297.914 64.3301C297.694 64.7501 297.584 65.2601 297.584 65.8601V70.0001H296.519ZM306.656 70.0001V62.1251H307.721V70.0001H306.656ZM307.196 60.3851C306.976 60.3851 306.791 60.3101 306.641 60.1601C306.491 60.0101 306.416 59.8301 306.416 59.6201C306.416 59.4101 306.491 59.2351 306.641 59.0951C306.791 58.9451 306.976 58.8701 307.196 58.8701C307.416 58.8701 307.601 58.9401 307.751 59.0801C307.901 59.2201 307.976 59.3951 307.976 59.6051C307.976 59.8251 307.901 60.0101 307.751 60.1601C307.611 60.3101 307.426 60.3851 307.196 60.3851ZM312.799 70.0751C312.149 70.0751 311.534 69.9851 310.954 69.8051C310.374 69.6151 309.919 69.3801 309.589 69.1001L310.069 68.2601C310.389 68.5001 310.799 68.7101 311.299 68.8901C311.799 69.0601 312.324 69.1451 312.874 69.1451C313.624 69.1451 314.164 69.0301 314.494 68.8001C314.824 68.5601 314.989 68.2451 314.989 67.8551C314.989 67.5651 314.894 67.3401 314.704 67.1801C314.524 67.0101 314.284 66.8851 313.984 66.8051C313.684 66.7151 313.349 66.6401 312.979 66.5801C312.609 66.5201 312.239 66.4501 311.869 66.3701C311.509 66.2901 311.179 66.1751 310.879 66.0251C310.579 65.8651 310.334 65.6501 310.144 65.3801C309.964 65.1101 309.874 64.7501 309.874 64.3001C309.874 63.8701 309.994 63.4851 310.234 63.1451C310.474 62.8051 310.824 62.5401 311.284 62.3501C311.754 62.1501 312.324 62.0501 312.994 62.0501C313.504 62.0501 314.014 62.1201 314.524 62.2601C315.034 62.3901 315.454 62.5651 315.784 62.7851L315.319 63.6401C314.969 63.4001 314.594 63.2301 314.194 63.1301C313.794 63.0201 313.394 62.9651 312.994 62.9651C312.284 62.9651 311.759 63.0901 311.419 63.3401C311.089 63.5801 310.924 63.8901 310.924 64.2701C310.924 64.5701 311.014 64.8051 311.194 64.9751C311.384 65.1451 311.629 65.2801 311.929 65.3801C312.239 65.4701 312.574 65.5451 312.934 65.6051C313.304 65.6651 313.669 65.7401 314.029 65.8301C314.399 65.9101 314.734 66.0251 315.034 66.1751C315.344 66.3151 315.589 66.5201 315.769 66.7901C315.959 67.0501 316.054 67.3951 316.054 67.8251C316.054 68.2851 315.924 68.6851 315.664 69.0251C315.414 69.3551 315.044 69.6151 314.554 69.8051C314.074 69.9851 313.489 70.0751 312.799 70.0751ZM325.144 70.0751C324.384 70.0751 323.699 69.9051 323.089 69.5651C322.489 69.2151 322.014 68.7401 321.664 68.1401C321.314 67.5301 321.139 66.8351 321.139 66.0551C321.139 65.2651 321.314 64.5701 321.664 63.9701C322.014 63.3701 322.489 62.9001 323.089 62.5601C323.689 62.2201 324.374 62.0501 325.144 62.0501C325.924 62.0501 326.614 62.2201 327.214 62.5601C327.824 62.9001 328.299 63.3701 328.639 63.9701C328.989 64.5701 329.164 65.2651 329.164 66.0551C329.164 66.8351 328.989 67.5301 328.639 68.1401C328.299 68.7401 327.824 69.2151 327.214 69.5651C326.604 69.9051 325.914 70.0751 325.144 70.0751ZM325.144 69.1301C325.714 69.1301 326.219 69.0051 326.659 68.7551C327.099 68.4951 327.444 68.1351 327.694 67.6751C327.954 67.2051 328.084 66.6651 328.084 66.0551C328.084 65.4351 327.954 64.8951 327.694 64.4351C327.444 63.9751 327.099 63.6201 326.659 63.3701C326.219 63.1101 325.719 62.9801 325.159 62.9801C324.599 62.9801 324.099 63.1101 323.659 63.3701C323.219 63.6201 322.869 63.9751 322.609 64.4351C322.349 64.8951 322.219 65.4351 322.219 66.0551C322.219 66.6651 322.349 67.2051 322.609 67.6751C322.869 68.1351 323.219 68.4951 323.659 68.7551C324.099 69.0051 324.594 69.1301 325.144 69.1301ZM331.339 70.0001V62.1251H332.359V64.2851L332.194 63.8801C332.444 63.3101 332.844 62.8651 333.394 62.5451C333.944 62.2151 334.599 62.0501 335.359 62.0501C335.999 62.0501 336.559 62.1751 337.039 62.4251C337.529 62.6651 337.909 63.0351 338.179 63.5351C338.459 64.0351 338.599 64.6651 338.599 65.4251V70.0001H337.534V65.5301C337.534 64.7001 337.324 64.0751 336.904 63.6551C336.494 63.2251 335.914 63.0101 335.164 63.0101C334.604 63.0101 334.114 63.1251 333.694 63.3551C333.284 63.5751 332.964 63.9001 332.734 64.3301C332.514 64.7501 332.404 65.2601 332.404 65.8601V70.0001H331.339ZM344.82 70.0751C344 70.0751 343.28 69.9051 342.66 69.5651C342.04 69.2151 341.555 68.7401 341.205 68.1401C340.855 67.5301 340.68 66.8351 340.68 66.0551C340.68 65.2751 340.845 64.5851 341.175 63.9851C341.515 63.3851 341.975 62.9151 342.555 62.5751C343.145 62.2251 343.805 62.0501 344.535 62.0501C345.275 62.0501 345.93 62.2201 346.5 62.5601C347.08 62.8901 347.535 63.3601 347.865 63.9701C348.195 64.5701 348.36 65.2651 348.36 66.0551C348.36 66.1051 348.355 66.1601 348.345 66.2201C348.345 66.2701 348.345 66.3251 348.345 66.3851H341.49V65.5901H347.775L347.355 65.9051C347.355 65.3351 347.23 64.8301 346.98 64.3901C346.74 63.9401 346.41 63.5901 345.99 63.3401C345.57 63.0901 345.085 62.9651 344.535 62.9651C343.995 62.9651 343.51 63.0901 343.08 63.3401C342.65 63.5901 342.315 63.9401 342.075 64.3901C341.835 64.8401 341.715 65.3551 341.715 65.9351V66.1001C341.715 66.7001 341.845 67.2301 342.105 67.6901C342.375 68.1401 342.745 68.4951 343.215 68.7551C343.695 69.0051 344.24 69.1301 344.85 69.1301C345.33 69.1301 345.775 69.0451 346.185 68.8751C346.605 68.7051 346.965 68.4451 347.265 68.0951L347.865 68.7851C347.515 69.2051 347.075 69.5251 346.545 69.7451C346.025 69.9651 345.45 70.0751 344.82 70.0751ZM349.883 72.1901L350.543 69.4151L350.663 70.0601C350.433 70.0601 350.238 69.9851 350.078 69.8351C349.928 69.6851 349.853 69.4901 349.853 69.2501C349.853 69.0101 349.928 68.8151 350.078 68.6651C350.238 68.5151 350.428 68.4401 350.648 68.4401C350.878 68.4401 351.063 68.5201 351.203 68.6801C351.353 68.8401 351.428 69.0301 351.428 69.2501C351.428 69.3301 351.423 69.4101 351.413 69.4901C351.403 69.5701 351.383 69.6601 351.353 69.7601C351.323 69.8601 351.283 69.9801 351.233 70.1201L350.603 72.1901H349.883ZM151.485 88.0001V80.1251H152.505V82.2551L152.34 81.8801C152.58 81.3101 152.965 80.8651 153.495 80.5451C154.035 80.2151 154.67 80.0501 155.4 80.0501C156.17 80.0501 156.825 80.2451 157.365 80.6351C157.905 81.0151 158.255 81.5901 158.415 82.3601L157.995 82.1951C158.225 81.5551 158.63 81.0401 159.21 80.6501C159.8 80.2501 160.505 80.0501 161.325 80.0501C161.965 80.0501 162.52 80.1751 162.99 80.4251C163.47 80.6651 163.84 81.0351 164.1 81.5351C164.37 82.0351 164.505 82.6651 164.505 83.4251V88.0001H163.44V83.5301C163.44 82.7001 163.24 82.0751 162.84 81.6551C162.45 81.2251 161.895 81.0101 161.175 81.0101C160.635 81.0101 160.165 81.1251 159.765 81.3551C159.375 81.5751 159.07 81.9001 158.85 82.3301C158.64 82.7501 158.535 83.2601 158.535 83.8601V88.0001H157.47V83.5301C157.47 82.7001 157.27 82.0751 156.87 81.6551C156.47 81.2251 155.91 81.0101 155.19 81.0101C154.66 81.0101 154.195 81.1251 153.795 81.3551C153.395 81.5751 153.085 81.9001 152.865 82.3301C152.655 82.7501 152.55 83.2601 152.55 83.8601V88.0001H151.485ZM172.328 88.0001V86.2601L172.283 85.9751V83.0651C172.283 82.3951 172.093 81.8801 171.713 81.5201C171.343 81.1601 170.788 80.9801 170.048 80.9801C169.538 80.9801 169.053 81.0651 168.593 81.2351C168.133 81.4051 167.743 81.6301 167.423 81.9101L166.943 81.1151C167.343 80.7751 167.823 80.5151 168.383 80.3351C168.943 80.1451 169.533 80.0501 170.153 80.0501C171.173 80.0501 171.958 80.3051 172.508 80.8151C173.068 81.3151 173.348 82.0801 173.348 83.1101V88.0001H172.328ZM169.613 88.0751C169.023 88.0751 168.508 87.9801 168.068 87.7901C167.638 87.5901 167.308 87.3201 167.078 86.9801C166.848 86.6301 166.733 86.2301 166.733 85.7801C166.733 85.3701 166.828 85.0001 167.018 84.6701C167.218 84.3301 167.538 84.0601 167.978 83.8601C168.428 83.6501 169.028 83.5451 169.778 83.5451H172.493V84.3401H169.808C169.048 84.3401 168.518 84.4751 168.218 84.7451C167.928 85.0151 167.783 85.3501 167.783 85.7501C167.783 86.2001 167.958 86.5601 168.308 86.8301C168.658 87.1001 169.148 87.2351 169.778 87.2351C170.378 87.2351 170.893 87.1001 171.323 86.8301C171.763 86.5501 172.083 86.1501 172.283 85.6301L172.523 86.3651C172.323 86.8851 171.973 87.3001 171.473 87.6101C170.983 87.9201 170.363 88.0751 169.613 88.0751ZM177.081 85.9601L177.111 84.5951L182.016 80.1251H183.321L179.856 83.4401L179.256 83.9501L177.081 85.9601ZM176.241 88.0001V76.8701H177.306V88.0001H176.241ZM182.346 88.0001L179.061 83.9051L179.751 83.0801L183.651 88.0001H182.346ZM185.206 88.0001V80.1251H186.271V88.0001H185.206ZM185.746 78.3851C185.526 78.3851 185.341 78.3101 185.191 78.1601C185.041 78.0101 184.966 77.8301 184.966 77.6201C184.966 77.4101 185.041 77.2351 185.191 77.0951C185.341 76.9451 185.526 76.8701 185.746 76.8701C185.966 76.8701 186.151 76.9401 186.301 77.0801C186.451 77.2201 186.526 77.3951 186.526 77.6051C186.526 77.8251 186.451 78.0101 186.301 78.1601C186.161 78.3101 185.976 78.3851 185.746 78.3851ZM189.234 88.0001V80.1251H190.254V82.2851L190.089 81.8801C190.339 81.3101 190.739 80.8651 191.289 80.5451C191.839 80.2151 192.494 80.0501 193.254 80.0501C193.894 80.0501 194.454 80.1751 194.934 80.4251C195.424 80.6651 195.804 81.0351 196.074 81.5351C196.354 82.0351 196.494 82.6651 196.494 83.4251V88.0001H195.429V83.5301C195.429 82.7001 195.219 82.0751 194.799 81.6551C194.389 81.2251 193.809 81.0101 193.059 81.0101C192.499 81.0101 192.009 81.1251 191.589 81.3551C191.179 81.5751 190.859 81.9001 190.629 82.3301C190.409 82.7501 190.299 83.2601 190.299 83.8601V88.0001H189.234ZM202.731 90.9851C202.011 90.9851 201.321 90.8801 200.661 90.6701C200.001 90.4601 199.466 90.1601 199.056 89.7701L199.596 88.9601C199.966 89.2901 200.421 89.5501 200.961 89.7401C201.511 89.9401 202.091 90.0401 202.701 90.0401C203.701 90.0401 204.436 89.8051 204.906 89.3351C205.376 88.8751 205.611 88.1551 205.611 87.1751V85.2101L205.761 83.8601L205.656 82.5101V80.1251H206.676V87.0401C206.676 88.4001 206.341 89.3951 205.671 90.0251C205.011 90.6651 204.031 90.9851 202.731 90.9851ZM202.536 87.7001C201.786 87.7001 201.111 87.5401 200.511 87.2201C199.911 86.8901 199.436 86.4351 199.086 85.8551C198.746 85.2751 198.576 84.6101 198.576 83.8601C198.576 83.1101 198.746 82.4501 199.086 81.8801C199.436 81.3001 199.911 80.8501 200.511 80.5301C201.111 80.2101 201.786 80.0501 202.536 80.0501C203.236 80.0501 203.866 80.1951 204.426 80.4851C204.986 80.7751 205.431 81.2051 205.761 81.7751C206.091 82.3451 206.256 83.0401 206.256 83.8601C206.256 84.6801 206.091 85.3751 205.761 85.9451C205.431 86.5151 204.986 86.9501 204.426 87.2501C203.866 87.5501 203.236 87.7001 202.536 87.7001ZM202.641 86.7551C203.221 86.7551 203.736 86.6351 204.186 86.3951C204.636 86.1451 204.991 85.8051 205.251 85.3751C205.511 84.9351 205.641 84.4301 205.641 83.8601C205.641 83.2901 205.511 82.7901 205.251 82.3601C204.991 81.9301 204.636 81.5951 204.186 81.3551C203.736 81.1051 203.221 80.9801 202.641 80.9801C202.071 80.9801 201.556 81.1051 201.096 81.3551C200.646 81.5951 200.291 81.9301 200.031 82.3601C199.781 82.7901 199.656 83.2901 199.656 83.8601C199.656 84.4301 199.781 84.9351 200.031 85.3751C200.291 85.8051 200.646 86.1451 201.096 86.3951C201.556 86.6351 202.071 86.7551 202.641 86.7551ZM216.91 88.0751C216.09 88.0751 215.37 87.9051 214.75 87.5651C214.13 87.2151 213.645 86.7401 213.295 86.1401C212.945 85.5301 212.77 84.8351 212.77 84.0551C212.77 83.2751 212.935 82.5851 213.265 81.9851C213.605 81.3851 214.065 80.9151 214.645 80.5751C215.235 80.2251 215.895 80.0501 216.625 80.0501C217.365 80.0501 218.02 80.2201 218.59 80.5601C219.17 80.8901 219.625 81.3601 219.955 81.9701C220.285 82.5701 220.45 83.2651 220.45 84.0551C220.45 84.1051 220.445 84.1601 220.435 84.2201C220.435 84.2701 220.435 84.3251 220.435 84.3851H213.58V83.5901H219.865L219.445 83.9051C219.445 83.3351 219.32 82.8301 219.07 82.3901C218.83 81.9401 218.5 81.5901 218.08 81.3401C217.66 81.0901 217.175 80.9651 216.625 80.9651C216.085 80.9651 215.6 81.0901 215.17 81.3401C214.74 81.5901 214.405 81.9401 214.165 82.3901C213.925 82.8401 213.805 83.3551 213.805 83.9351V84.1001C213.805 84.7001 213.935 85.2301 214.195 85.6901C214.465 86.1401 214.835 86.4951 215.305 86.7551C215.785 87.0051 216.33 87.1301 216.94 87.1301C217.42 87.1301 217.865 87.0451 218.275 86.8751C218.695 86.7051 219.055 86.4451 219.355 86.0951L219.955 86.7851C219.605 87.2051 219.165 87.5251 218.635 87.7451C218.115 87.9651 217.54 88.0751 216.91 88.0751ZM224.496 88.0001L221.001 80.1251H222.111L225.321 87.4301H224.796L228.051 80.1251H229.101L225.591 88.0001H224.496ZM233.726 88.0751C232.906 88.0751 232.186 87.9051 231.566 87.5651C230.946 87.2151 230.461 86.7401 230.111 86.1401C229.761 85.5301 229.586 84.8351 229.586 84.0551C229.586 83.2751 229.751 82.5851 230.081 81.9851C230.421 81.3851 230.881 80.9151 231.461 80.5751C232.051 80.2251 232.711 80.0501 233.441 80.0501C234.181 80.0501 234.836 80.2201 235.406 80.5601C235.986 80.8901 236.441 81.3601 236.771 81.9701C237.101 82.5701 237.266 83.2651 237.266 84.0551C237.266 84.1051 237.261 84.1601 237.251 84.2201C237.251 84.2701 237.251 84.3251 237.251 84.3851H230.396V83.5901H236.681L236.261 83.9051C236.261 83.3351 236.136 82.8301 235.886 82.3901C235.646 81.9401 235.316 81.5901 234.896 81.3401C234.476 81.0901 233.991 80.9651 233.441 80.9651C232.901 80.9651 232.416 81.0901 231.986 81.3401C231.556 81.5901 231.221 81.9401 230.981 82.3901C230.741 82.8401 230.621 83.3551 230.621 83.9351V84.1001C230.621 84.7001 230.751 85.2301 231.011 85.6901C231.281 86.1401 231.651 86.4951 232.121 86.7551C232.601 87.0051 233.146 87.1301 233.756 87.1301C234.236 87.1301 234.681 87.0451 235.091 86.8751C235.511 86.7051 235.871 86.4451 236.171 86.0951L236.771 86.7851C236.421 87.2051 235.981 87.5251 235.451 87.7451C234.931 87.9651 234.356 88.0751 233.726 88.0751ZM239.434 88.0001V80.1251H240.454V82.2701L240.349 81.8951C240.569 81.2951 240.939 80.8401 241.459 80.5301C241.979 80.2101 242.624 80.0501 243.394 80.0501V81.0851C243.354 81.0851 243.314 81.0851 243.274 81.0851C243.234 81.0751 243.194 81.0701 243.154 81.0701C242.324 81.0701 241.674 81.3251 241.204 81.8351C240.734 82.3351 240.499 83.0501 240.499 83.9801V88.0001H239.434ZM245.427 90.9851C245.057 90.9851 244.702 90.9251 244.362 90.8051C244.032 90.6851 243.747 90.5051 243.507 90.2651L244.002 89.4701C244.202 89.6601 244.417 89.8051 244.647 89.9051C244.887 90.0151 245.152 90.0701 245.442 90.0701C245.792 90.0701 246.092 89.9701 246.342 89.7701C246.602 89.5801 246.847 89.2401 247.077 88.7501L247.587 87.5951L247.707 87.4301L250.947 80.1251H251.997L248.052 88.9451C247.832 89.4551 247.587 89.8601 247.317 90.1601C247.057 90.4601 246.772 90.6701 246.462 90.7901C246.152 90.9201 245.807 90.9851 245.427 90.9851ZM247.527 88.2251L243.897 80.1251H245.007L248.217 87.3551L247.527 88.2251ZM256.075 88.0751C255.335 88.0751 254.765 87.8751 254.365 87.4751C253.965 87.0751 253.765 86.5101 253.765 85.7801V78.3851H254.83V85.7201C254.83 86.1801 254.945 86.5351 255.175 86.7851C255.415 87.0351 255.755 87.1601 256.195 87.1601C256.665 87.1601 257.055 87.0251 257.365 86.7551L257.74 87.5201C257.53 87.7101 257.275 87.8501 256.975 87.9401C256.685 88.0301 256.385 88.0751 256.075 88.0751ZM252.355 81.0101V80.1251H257.23V81.0101H252.355ZM259.678 88.0001V76.8701H260.743V82.2851L260.533 81.8801C260.783 81.3101 261.183 80.8651 261.733 80.5451C262.283 80.2151 262.938 80.0501 263.698 80.0501C264.338 80.0501 264.898 80.1751 265.378 80.4251C265.868 80.6651 266.248 81.0351 266.518 81.5351C266.798 82.0351 266.938 82.6651 266.938 83.4251V88.0001H265.873V83.5301C265.873 82.7001 265.663 82.0751 265.243 81.6551C264.833 81.2251 264.253 81.0101 263.503 81.0101C262.943 81.0101 262.453 81.1251 262.033 81.3551C261.623 81.5751 261.303 81.9001 261.073 82.3301C260.853 82.7501 260.743 83.2601 260.743 83.8601V88.0001H259.678ZM269.815 88.0001V80.1251H270.88V88.0001H269.815ZM270.355 78.3851C270.135 78.3851 269.95 78.3101 269.8 78.1601C269.65 78.0101 269.575 77.8301 269.575 77.6201C269.575 77.4101 269.65 77.2351 269.8 77.0951C269.95 76.9451 270.135 76.8701 270.355 76.8701C270.575 76.8701 270.76 76.9401 270.91 77.0801C271.06 77.2201 271.135 77.3951 271.135 77.6051C271.135 77.8251 271.06 78.0101 270.91 78.1601C270.77 78.3101 270.585 78.3851 270.355 78.3851ZM273.843 88.0001V80.1251H274.863V82.2851L274.698 81.8801C274.948 81.3101 275.348 80.8651 275.898 80.5451C276.448 80.2151 277.103 80.0501 277.863 80.0501C278.503 80.0501 279.063 80.1751 279.543 80.4251C280.033 80.6651 280.413 81.0351 280.683 81.5351C280.963 82.0351 281.103 82.6651 281.103 83.4251V88.0001H280.038V83.5301C280.038 82.7001 279.828 82.0751 279.408 81.6551C278.998 81.2251 278.418 81.0101 277.668 81.0101C277.108 81.0101 276.618 81.1251 276.198 81.3551C275.788 81.5751 275.468 81.9001 275.238 82.3301C275.018 82.7501 274.908 83.2601 274.908 83.8601V88.0001H273.843ZM287.34 90.9851C286.62 90.9851 285.93 90.8801 285.27 90.6701C284.61 90.4601 284.075 90.1601 283.665 89.7701L284.205 88.9601C284.575 89.2901 285.03 89.5501 285.57 89.7401C286.12 89.9401 286.7 90.0401 287.31 90.0401C288.31 90.0401 289.045 89.8051 289.515 89.3351C289.985 88.8751 290.22 88.1551 290.22 87.1751V85.2101L290.37 83.8601L290.265 82.5101V80.1251H291.285V87.0401C291.285 88.4001 290.95 89.3951 290.28 90.0251C289.62 90.6651 288.64 90.9851 287.34 90.9851ZM287.145 87.7001C286.395 87.7001 285.72 87.5401 285.12 87.2201C284.52 86.8901 284.045 86.4351 283.695 85.8551C283.355 85.2751 283.185 84.6101 283.185 83.8601C283.185 83.1101 283.355 82.4501 283.695 81.8801C284.045 81.3001 284.52 80.8501 285.12 80.5301C285.72 80.2101 286.395 80.0501 287.145 80.0501C287.845 80.0501 288.475 80.1951 289.035 80.4851C289.595 80.7751 290.04 81.2051 290.37 81.7751C290.7 82.3451 290.865 83.0401 290.865 83.8601C290.865 84.6801 290.7 85.3751 290.37 85.9451C290.04 86.5151 289.595 86.9501 289.035 87.2501C288.475 87.5501 287.845 87.7001 287.145 87.7001ZM287.25 86.7551C287.83 86.7551 288.345 86.6351 288.795 86.3951C289.245 86.1451 289.6 85.8051 289.86 85.3751C290.12 84.9351 290.25 84.4301 290.25 83.8601C290.25 83.2901 290.12 82.7901 289.86 82.3601C289.6 81.9301 289.245 81.5951 288.795 81.3551C288.345 81.1051 287.83 80.9801 287.25 80.9801C286.68 80.9801 286.165 81.1051 285.705 81.3551C285.255 81.5951 284.9 81.9301 284.64 82.3601C284.39 82.7901 284.265 83.2901 284.265 83.8601C284.265 84.4301 284.39 84.9351 284.64 85.3751C284.9 85.8051 285.255 86.1451 285.705 86.3951C286.165 86.6351 286.68 86.7551 287.25 86.7551ZM298.354 88.0001V79.1351C298.354 78.4351 298.559 77.8701 298.969 77.4401C299.379 77.0101 299.969 76.7951 300.739 76.7951C301.039 76.7951 301.329 76.8351 301.609 76.9151C301.889 76.9951 302.124 77.1201 302.314 77.2901L301.954 78.0851C301.804 77.9551 301.629 77.8601 301.429 77.8001C301.229 77.7301 301.014 77.6951 300.784 77.6951C300.334 77.6951 299.989 77.8201 299.749 78.0701C299.509 78.3201 299.389 78.6901 299.389 79.1801V80.3801L299.419 80.8751V88.0001H298.354ZM296.944 81.0101V80.1251H301.819V81.0101H296.944ZM306.512 88.0751C305.842 88.0751 305.257 87.9501 304.757 87.7001C304.257 87.4501 303.867 87.0751 303.587 86.5751C303.317 86.0751 303.182 85.4501 303.182 84.7001V80.1251H304.247V84.5801C304.247 85.4201 304.452 86.0551 304.862 86.4851C305.282 86.9051 305.867 87.1151 306.617 87.1151C307.167 87.1151 307.642 87.0051 308.042 86.7851C308.452 86.5551 308.762 86.2251 308.972 85.7951C309.192 85.3651 309.302 84.8501 309.302 84.2501V80.1251H310.367V88.0001H309.347V85.8401L309.512 86.2301C309.262 86.8101 308.872 87.2651 308.342 87.5951C307.822 87.9151 307.212 88.0751 306.512 88.0751ZM313.336 88.0001V80.1251H314.356V82.2851L314.191 81.8801C314.441 81.3101 314.841 80.8651 315.391 80.5451C315.941 80.2151 316.596 80.0501 317.356 80.0501C317.996 80.0501 318.556 80.1751 319.036 80.4251C319.526 80.6651 319.906 81.0351 320.176 81.5351C320.456 82.0351 320.596 82.6651 320.596 83.4251V88.0001H319.531V83.5301C319.531 82.7001 319.321 82.0751 318.901 81.6551C318.491 81.2251 317.911 81.0101 317.161 81.0101C316.601 81.0101 316.111 81.1251 315.691 81.3551C315.281 81.5751 314.961 81.9001 314.731 82.3301C314.511 82.7501 314.401 83.2601 314.401 83.8601V88.0001H313.336ZM326.742 88.0751C325.962 88.0751 325.262 87.9051 324.642 87.5651C324.032 87.2151 323.552 86.7401 323.202 86.1401C322.852 85.5301 322.677 84.8351 322.677 84.0551C322.677 83.2651 322.852 82.5701 323.202 81.9701C323.552 81.3701 324.032 80.9001 324.642 80.5601C325.262 80.2201 325.962 80.0501 326.742 80.0501C327.412 80.0501 328.017 80.1801 328.557 80.4401C329.097 80.7001 329.522 81.0901 329.832 81.6101L329.037 82.1501C328.767 81.7501 328.432 81.4551 328.032 81.2651C327.632 81.0751 327.197 80.9801 326.727 80.9801C326.167 80.9801 325.662 81.1101 325.212 81.3701C324.762 81.6201 324.407 81.9751 324.147 82.4351C323.887 82.8951 323.757 83.4351 323.757 84.0551C323.757 84.6751 323.887 85.2151 324.147 85.6751C324.407 86.1351 324.762 86.4951 325.212 86.7551C325.662 87.0051 326.167 87.1301 326.727 87.1301C327.197 87.1301 327.632 87.0351 328.032 86.8451C328.432 86.6551 328.767 86.3651 329.037 85.9751L329.832 86.5151C329.522 87.0251 329.097 87.4151 328.557 87.6851C328.017 87.9451 327.412 88.0751 326.742 88.0751ZM334.502 88.0751C333.762 88.0751 333.192 87.8751 332.792 87.4751C332.392 87.0751 332.192 86.5101 332.192 85.7801V78.3851H333.257V85.7201C333.257 86.1801 333.372 86.5351 333.602 86.7851C333.842 87.0351 334.182 87.1601 334.622 87.1601C335.092 87.1601 335.482 87.0251 335.792 86.7551L336.167 87.5201C335.957 87.7101 335.702 87.8501 335.402 87.9401C335.112 88.0301 334.812 88.0751 334.502 88.0751ZM330.782 81.0101V80.1251H335.657V81.0101H330.782ZM338.106 88.0001V80.1251H339.171V88.0001H338.106ZM338.646 78.3851C338.426 78.3851 338.241 78.3101 338.091 78.1601C337.941 78.0101 337.866 77.8301 337.866 77.6201C337.866 77.4101 337.941 77.2351 338.091 77.0951C338.241 76.9451 338.426 76.8701 338.646 76.8701C338.866 76.8701 339.051 76.9401 339.201 77.0801C339.351 77.2201 339.426 77.3951 339.426 77.6051C339.426 77.8251 339.351 78.0101 339.201 78.1601C339.061 78.3101 338.876 78.3851 338.646 78.3851ZM345.344 88.0751C344.584 88.0751 343.899 87.9051 343.289 87.5651C342.689 87.2151 342.214 86.7401 341.864 86.1401C341.514 85.5301 341.339 84.8351 341.339 84.0551C341.339 83.2651 341.514 82.5701 341.864 81.9701C342.214 81.3701 342.689 80.9001 343.289 80.5601C343.889 80.2201 344.574 80.0501 345.344 80.0501C346.124 80.0501 346.814 80.2201 347.414 80.5601C348.024 80.9001 348.499 81.3701 348.839 81.9701C349.189 82.5701 349.364 83.2651 349.364 84.0551C349.364 84.8351 349.189 85.5301 348.839 86.1401C348.499 86.7401 348.024 87.2151 347.414 87.5651C346.804 87.9051 346.114 88.0751 345.344 88.0751ZM345.344 87.1301C345.914 87.1301 346.419 87.0051 346.859 86.7551C347.299 86.4951 347.644 86.1351 347.894 85.6751C348.154 85.2051 348.284 84.6651 348.284 84.0551C348.284 83.4351 348.154 82.8951 347.894 82.4351C347.644 81.9751 347.299 81.6201 346.859 81.3701C346.419 81.1101 345.919 80.9801 345.359 80.9801C344.799 80.9801 344.299 81.1101 343.859 81.3701C343.419 81.6201 343.069 81.9751 342.809 82.4351C342.549 82.8951 342.419 83.4351 342.419 84.0551C342.419 84.6651 342.549 85.2051 342.809 85.6751C343.069 86.1351 343.419 86.4951 343.859 86.7551C344.299 87.0051 344.794 87.1301 345.344 87.1301ZM351.539 88.0001V80.1251H352.559V82.2851L352.394 81.8801C352.644 81.3101 353.044 80.8651 353.594 80.5451C354.144 80.2151 354.799 80.0501 355.559 80.0501C356.199 80.0501 356.759 80.1751 357.239 80.4251C357.729 80.6651 358.109 81.0351 358.379 81.5351C358.659 82.0351 358.799 82.6651 358.799 83.4251V88.0001H357.734V83.5301C357.734 82.7001 357.524 82.0751 357.104 81.6551C356.694 81.2251 356.114 81.0101 355.364 81.0101C354.804 81.0101 354.314 81.1251 353.894 81.3551C353.484 81.5751 353.164 81.9001 352.934 82.3301C352.714 82.7501 352.604 83.2601 352.604 83.8601V88.0001H351.539ZM366.61 88.0001V86.2601L366.565 85.9751V83.0651C366.565 82.3951 366.375 81.8801 365.995 81.5201C365.625 81.1601 365.07 80.9801 364.33 80.9801C363.82 80.9801 363.335 81.0651 362.875 81.2351C362.415 81.4051 362.025 81.6301 361.705 81.9101L361.225 81.1151C361.625 80.7751 362.105 80.5151 362.665 80.3351C363.225 80.1451 363.815 80.0501 364.435 80.0501C365.455 80.0501 366.24 80.3051 366.79 80.8151C367.35 81.3151 367.63 82.0801 367.63 83.1101V88.0001H366.61ZM363.895 88.0751C363.305 88.0751 362.79 87.9801 362.35 87.7901C361.92 87.5901 361.59 87.3201 361.36 86.9801C361.13 86.6301 361.015 86.2301 361.015 85.7801C361.015 85.3701 361.11 85.0001 361.3 84.6701C361.5 84.3301 361.82 84.0601 362.26 83.8601C362.71 83.6501 363.31 83.5451 364.06 83.5451H366.775V84.3401H364.09C363.33 84.3401 362.8 84.4751 362.5 84.7451C362.21 85.0151 362.065 85.3501 362.065 85.7501C362.065 86.2001 362.24 86.5601 362.59 86.8301C362.94 87.1001 363.43 87.2351 364.06 87.2351C364.66 87.2351 365.175 87.1001 365.605 86.8301C366.045 86.5501 366.365 86.1501 366.565 85.6301L366.805 86.3651C366.605 86.8851 366.255 87.3001 365.755 87.6101C365.265 87.9201 364.645 88.0751 363.895 88.0751ZM370.523 88.0001V76.8701H371.588V88.0001H370.523ZM374.656 88.0751C374.436 88.0751 374.246 87.9951 374.086 87.8351C373.936 87.6751 373.861 87.4801 373.861 87.2501C373.861 87.0101 373.936 86.8151 374.086 86.6651C374.246 86.5151 374.436 86.4401 374.656 86.4401C374.876 86.4401 375.061 86.5151 375.211 86.6651C375.371 86.8151 375.451 87.0101 375.451 87.2501C375.451 87.4801 375.371 87.6751 375.211 87.8351C375.061 87.9951 374.876 88.0751 374.656 88.0751Z" fill="white" fill-opacity="0.75"/>
<defs>
<clipPath id="clip0_50_3473">
<rect width="100" height="100" fill="white" transform="translate(25 25.0001)"/>
</clipPath>
</defs>
</svg>
