<svg width="400" height="150" viewBox="0 0 400 150" fill="none" xmlns="http://www.w3.org/2000/svg">
<mask id="path-1-inside-1_50_3426" fill="white">
<path d="M0 5.00013C0 2.2387 2.23858 0.00012207 5 0.00012207H395C397.761 0.00012207 400 2.2387 400 5.00012V147C400 148.657 398.657 150 397 150H3C1.34314 150 0 148.657 0 147V5.00013Z"/>
</mask>
<path d="M0 5.00013C0 2.2387 2.23858 0.00012207 5 0.00012207H395C397.761 0.00012207 400 2.2387 400 5.00012V147C400 148.657 398.657 150 397 150H3C1.34314 150 0 148.657 0 147V5.00013Z" fill="#333333"/>
<path d="M0 0.00012207H400H0ZM400 147C400 150.314 397.314 153 394 153H6C2.68629 153 0 150.314 0 147C0 147 1.34315 147 3 147H397C398.657 147 400 147 400 147ZM0 150V0.00012207V150ZM400 0.00012207V150V0.00012207Z" fill="#FFCD42" mask="url(#path-1-inside-1_50_3426)"/>
<g clip-path="url(#clip0_50_3426)">
<path d="M58.3334 125C67.5334 125 75 117.533 75 108.333V91.6667H58.3334C49.1334 91.6667 41.6667 99.1334 41.6667 108.333C41.6667 117.533 49.1334 125 58.3334 125Z" fill="#0ACF83"/>
<path d="M41.6667 75.0002C41.6667 65.8002 49.1334 58.3335 58.3334 58.3335H75V91.6668H58.3334C49.1334 91.6668 41.6667 84.2002 41.6667 75.0002Z" fill="#A259FF"/>
<path d="M41.6667 41.6668C41.6667 32.4668 49.1334 25.0001 58.3334 25.0001H75V58.3335H58.3334C49.1334 58.3335 41.6667 50.8668 41.6667 41.6668Z" fill="#F24E1E"/>
<path d="M75 25.0001H91.6667C100.867 25.0001 108.333 32.4668 108.333 41.6668C108.333 50.8668 100.867 58.3335 91.6667 58.3335H75V25.0001Z" fill="#FF7262"/>
<path d="M108.333 75.0002C108.333 84.2002 100.867 91.6668 91.6667 91.6668C82.4667 91.6668 75 84.2002 75 75.0002C75 65.8002 82.4667 58.3335 91.6667 58.3335C100.867 58.3335 108.333 65.8002 108.333 75.0002Z" fill="#1ABCFE"/>
</g>
<path d="M152.625 40.0001V22.5001H164.975V24.6751H155.125V40.0001H152.625ZM154.875 32.9251V30.7751H163.9V32.9251H154.875ZM168.144 40.0001V26.7501H170.544V40.0001H168.144ZM169.344 24.2001C168.877 24.2001 168.486 24.0501 168.169 23.7501C167.869 23.4501 167.719 23.0835 167.719 22.6501C167.719 22.2001 167.869 21.8251 168.169 21.5251C168.486 21.2251 168.877 21.0751 169.344 21.0751C169.811 21.0751 170.194 21.2251 170.494 21.5251C170.811 21.8085 170.969 22.1668 170.969 22.6001C170.969 23.0501 170.819 23.4335 170.519 23.7501C170.219 24.0501 169.827 24.2001 169.344 24.2001ZM180.927 45.0001C179.71 45.0001 178.527 44.8251 177.377 44.4751C176.243 44.1418 175.318 43.6585 174.602 43.0251L175.752 41.1751C176.368 41.7085 177.127 42.1251 178.027 42.4251C178.927 42.7418 179.868 42.9001 180.852 42.9001C182.418 42.9001 183.568 42.5335 184.302 41.8001C185.035 41.0668 185.402 39.9501 185.402 38.4501V35.6501L185.652 33.0251L185.527 30.3751V26.7501H187.802V38.2001C187.802 40.5335 187.218 42.2501 186.052 43.3501C184.885 44.4501 183.177 45.0001 180.927 45.0001ZM180.627 39.4501C179.343 39.4501 178.193 39.1835 177.177 38.6501C176.177 38.1001 175.377 37.3418 174.777 36.3751C174.193 35.4085 173.902 34.2918 173.902 33.0251C173.902 31.7418 174.193 30.6251 174.777 29.6751C175.377 28.7085 176.177 27.9585 177.177 27.4251C178.193 26.8918 179.343 26.6251 180.627 26.6251C181.76 26.6251 182.793 26.8585 183.727 27.3251C184.66 27.7751 185.402 28.4751 185.952 29.4251C186.518 30.3751 186.802 31.5751 186.802 33.0251C186.802 34.4585 186.518 35.6501 185.952 36.6001C185.402 37.5501 184.66 38.2668 183.727 38.7501C182.793 39.2168 181.76 39.4501 180.627 39.4501ZM180.902 37.3501C181.785 37.3501 182.568 37.1668 183.252 36.8001C183.935 36.4335 184.468 35.9251 184.852 35.2751C185.252 34.6251 185.452 33.8751 185.452 33.0251C185.452 32.1751 185.252 31.4251 184.852 30.7751C184.468 30.1251 183.935 29.6251 183.252 29.2751C182.568 28.9085 181.785 28.7251 180.902 28.7251C180.018 28.7251 179.227 28.9085 178.527 29.2751C177.843 29.6251 177.302 30.1251 176.902 30.7751C176.518 31.4251 176.327 32.1751 176.327 33.0251C176.327 33.8751 176.518 34.6251 176.902 35.2751C177.302 35.9251 177.843 36.4335 178.527 36.8001C179.227 37.1668 180.018 37.3501 180.902 37.3501ZM192.387 40.0001V26.7501H194.687V30.2751L194.312 29.3751C194.729 28.5085 195.371 27.8335 196.237 27.3501C197.104 26.8668 198.112 26.6251 199.262 26.6251C200.529 26.6251 201.621 26.9418 202.537 27.5751C203.454 28.1918 204.054 29.1335 204.337 30.4001L203.362 30.0001C203.762 28.9835 204.462 28.1668 205.462 27.5501C206.462 26.9335 207.629 26.6251 208.962 26.6251C210.029 26.6251 210.971 26.8335 211.787 27.2501C212.604 27.6668 213.237 28.3001 213.687 29.1501C214.154 30.0001 214.387 31.0751 214.387 32.3751V40.0001H211.987V32.6501C211.987 31.3668 211.687 30.4001 211.087 29.7501C210.487 29.1001 209.646 28.7751 208.562 28.7751C207.762 28.7751 207.062 28.9418 206.462 29.2751C205.862 29.6085 205.396 30.1001 205.062 30.7501C204.746 31.4001 204.587 32.2085 204.587 33.1751V40.0001H202.187V32.6501C202.187 31.3668 201.887 30.4001 201.287 29.7501C200.704 29.1001 199.862 28.7751 198.762 28.7751C197.979 28.7751 197.287 28.9418 196.687 29.2751C196.087 29.6085 195.621 30.1001 195.287 30.7501C194.954 31.4001 194.787 32.2085 194.787 33.1751V40.0001H192.387ZM227.028 40.0001V37.2001L226.903 36.6751V31.9001C226.903 30.8835 226.603 30.1001 226.003 29.5501C225.42 28.9835 224.537 28.7001 223.353 28.7001C222.57 28.7001 221.803 28.8335 221.053 29.1001C220.303 29.3501 219.67 29.6918 219.153 30.1251L218.153 28.3251C218.837 27.7751 219.653 27.3585 220.603 27.0751C221.57 26.7751 222.578 26.6251 223.628 26.6251C225.445 26.6251 226.845 27.0668 227.828 27.9501C228.812 28.8335 229.303 30.1835 229.303 32.0001V40.0001H227.028ZM222.678 40.1501C221.695 40.1501 220.828 39.9835 220.078 39.6501C219.345 39.3168 218.778 38.8585 218.378 38.2751C217.978 37.6751 217.778 37.0001 217.778 36.2501C217.778 35.5335 217.945 34.8835 218.278 34.3001C218.628 33.7168 219.187 33.2501 219.953 32.9001C220.737 32.5501 221.787 32.3751 223.103 32.3751H227.303V34.1001H223.203C222.003 34.1001 221.195 34.3001 220.778 34.7001C220.362 35.1001 220.153 35.5835 220.153 36.1501C220.153 36.8001 220.412 37.3251 220.928 37.7251C221.445 38.1085 222.162 38.3001 223.078 38.3001C223.978 38.3001 224.762 38.1001 225.428 37.7001C226.112 37.3001 226.603 36.7168 226.903 35.9501L227.378 37.6001C227.062 38.3835 226.503 39.0085 225.703 39.4751C224.903 39.9251 223.895 40.1501 222.678 40.1501Z" fill="white"/>
<path d="M156.27 70.0901C155.48 70.0901 154.75 69.9601 154.08 69.7001C153.41 69.4301 152.83 69.0551 152.34 68.5751C151.85 68.0951 151.465 67.5301 151.185 66.8801C150.915 66.2301 150.78 65.5201 150.78 64.7501C150.78 63.9801 150.915 63.2701 151.185 62.6201C151.465 61.9701 151.85 61.4051 152.34 60.9251C152.84 60.4451 153.425 60.0751 154.095 59.8151C154.765 59.5451 155.495 59.4101 156.285 59.4101C157.045 59.4101 157.76 59.5401 158.43 59.8001C159.1 60.0501 159.665 60.4301 160.125 60.9401L159.42 61.6451C158.99 61.2051 158.515 60.8901 157.995 60.7001C157.475 60.5001 156.915 60.4001 156.315 60.4001C155.685 60.4001 155.1 60.5101 154.56 60.7301C154.02 60.9401 153.55 61.2451 153.15 61.6451C152.75 62.0351 152.435 62.4951 152.205 63.0251C151.985 63.5451 151.875 64.1201 151.875 64.7501C151.875 65.3801 151.985 65.9601 152.205 66.4901C152.435 67.0101 152.75 67.4701 153.15 67.8701C153.55 68.2601 154.02 68.5651 154.56 68.7851C155.1 68.9951 155.685 69.1001 156.315 69.1001C156.915 69.1001 157.475 69.0001 157.995 68.8001C158.515 68.6001 158.99 68.2801 159.42 67.8401L160.125 68.5451C159.665 69.0551 159.1 69.4401 158.43 69.7001C157.76 69.9601 157.04 70.0901 156.27 70.0901ZM162.12 70.0001V62.1251H163.14V64.2701L163.035 63.8951C163.255 63.2951 163.625 62.8401 164.145 62.5301C164.665 62.2101 165.31 62.0501 166.08 62.0501V63.0851C166.04 63.0851 166 63.0851 165.96 63.0851C165.92 63.0751 165.88 63.0701 165.84 63.0701C165.01 63.0701 164.36 63.3251 163.89 63.8351C163.42 64.3351 163.185 65.0501 163.185 65.9801V70.0001H162.12ZM171.295 70.0751C170.475 70.0751 169.755 69.9051 169.135 69.5651C168.515 69.2151 168.03 68.7401 167.68 68.1401C167.33 67.5301 167.155 66.8351 167.155 66.0551C167.155 65.2751 167.32 64.5851 167.65 63.9851C167.99 63.3851 168.45 62.9151 169.03 62.5751C169.62 62.2251 170.28 62.0501 171.01 62.0501C171.75 62.0501 172.405 62.2201 172.975 62.5601C173.555 62.8901 174.01 63.3601 174.34 63.9701C174.67 64.5701 174.835 65.2651 174.835 66.0551C174.835 66.1051 174.83 66.1601 174.82 66.2201C174.82 66.2701 174.82 66.3251 174.82 66.3851H167.965V65.5901H174.25L173.83 65.9051C173.83 65.3351 173.705 64.8301 173.455 64.3901C173.215 63.9401 172.885 63.5901 172.465 63.3401C172.045 63.0901 171.56 62.9651 171.01 62.9651C170.47 62.9651 169.985 63.0901 169.555 63.3401C169.125 63.5901 168.79 63.9401 168.55 64.3901C168.31 64.8401 168.19 65.3551 168.19 65.9351V66.1001C168.19 66.7001 168.32 67.2301 168.58 67.6901C168.85 68.1401 169.22 68.4951 169.69 68.7551C170.17 69.0051 170.715 69.1301 171.325 69.1301C171.805 69.1301 172.25 69.0451 172.66 68.8751C173.08 68.7051 173.44 68.4451 173.74 68.0951L174.34 68.7851C173.99 69.2051 173.55 69.5251 173.02 69.7451C172.5 69.9651 171.925 70.0751 171.295 70.0751ZM181.718 70.0001V68.2601L181.673 67.9751V65.0651C181.673 64.3951 181.483 63.8801 181.103 63.5201C180.733 63.1601 180.178 62.9801 179.438 62.9801C178.928 62.9801 178.443 63.0651 177.983 63.2351C177.523 63.4051 177.133 63.6301 176.813 63.9101L176.333 63.1151C176.733 62.7751 177.213 62.5151 177.773 62.3351C178.333 62.1451 178.923 62.0501 179.543 62.0501C180.563 62.0501 181.348 62.3051 181.898 62.8151C182.458 63.3151 182.738 64.0801 182.738 65.1101V70.0001H181.718ZM179.003 70.0751C178.413 70.0751 177.898 69.9801 177.458 69.7901C177.028 69.5901 176.698 69.3201 176.468 68.9801C176.238 68.6301 176.123 68.2301 176.123 67.7801C176.123 67.3701 176.218 67.0001 176.408 66.6701C176.608 66.3301 176.928 66.0601 177.368 65.8601C177.818 65.6501 178.418 65.5451 179.168 65.5451H181.883V66.3401H179.198C178.438 66.3401 177.908 66.4751 177.608 66.7451C177.318 67.0151 177.173 67.3501 177.173 67.7501C177.173 68.2001 177.348 68.5601 177.698 68.8301C178.048 69.1001 178.538 69.2351 179.168 69.2351C179.768 69.2351 180.283 69.1001 180.713 68.8301C181.153 68.5501 181.473 68.1501 181.673 67.6301L181.913 68.3651C181.713 68.8851 181.363 69.3001 180.863 69.6101C180.373 69.9201 179.753 70.0751 179.003 70.0751ZM188.121 70.0751C187.381 70.0751 186.811 69.8751 186.411 69.4751C186.011 69.0751 185.811 68.5101 185.811 67.7801V60.3851H186.876V67.7201C186.876 68.1801 186.991 68.5351 187.221 68.7851C187.461 69.0351 187.801 69.1601 188.241 69.1601C188.711 69.1601 189.101 69.0251 189.411 68.7551L189.786 69.5201C189.576 69.7101 189.321 69.8501 189.021 69.9401C188.731 70.0301 188.431 70.0751 188.121 70.0751ZM184.401 63.0101V62.1251H189.276V63.0101H184.401ZM194.791 70.0751C193.971 70.0751 193.251 69.9051 192.631 69.5651C192.011 69.2151 191.526 68.7401 191.176 68.1401C190.826 67.5301 190.651 66.8351 190.651 66.0551C190.651 65.2751 190.816 64.5851 191.146 63.9851C191.486 63.3851 191.946 62.9151 192.526 62.5751C193.116 62.2251 193.776 62.0501 194.506 62.0501C195.246 62.0501 195.901 62.2201 196.471 62.5601C197.051 62.8901 197.506 63.3601 197.836 63.9701C198.166 64.5701 198.331 65.2651 198.331 66.0551C198.331 66.1051 198.326 66.1601 198.316 66.2201C198.316 66.2701 198.316 66.3251 198.316 66.3851H191.461V65.5901H197.746L197.326 65.9051C197.326 65.3351 197.201 64.8301 196.951 64.3901C196.711 63.9401 196.381 63.5901 195.961 63.3401C195.541 63.0901 195.056 62.9651 194.506 62.9651C193.966 62.9651 193.481 63.0901 193.051 63.3401C192.621 63.5901 192.286 63.9401 192.046 64.3901C191.806 64.8401 191.686 65.3551 191.686 65.9351V66.1001C191.686 66.7001 191.816 67.2301 192.076 67.6901C192.346 68.1401 192.716 68.4951 193.186 68.7551C193.666 69.0051 194.211 69.1301 194.821 69.1301C195.301 69.1301 195.746 69.0451 196.156 68.8751C196.576 68.7051 196.936 68.4451 197.236 68.0951L197.836 68.7851C197.486 69.2051 197.046 69.5251 196.516 69.7451C195.996 69.9651 195.421 70.0751 194.791 70.0751ZM206.029 70.0001L203.059 62.1251H204.079L206.779 69.4301H206.314L209.089 62.1251H210.004L212.749 69.4301H212.284L215.029 62.1251H216.004L213.019 70.0001H212.014L209.374 63.1301H209.689L207.034 70.0001H206.029ZM220.733 70.0751C219.913 70.0751 219.193 69.9051 218.573 69.5651C217.953 69.2151 217.468 68.7401 217.118 68.1401C216.768 67.5301 216.593 66.8351 216.593 66.0551C216.593 65.2751 216.758 64.5851 217.088 63.9851C217.428 63.3851 217.888 62.9151 218.468 62.5751C219.058 62.2251 219.718 62.0501 220.448 62.0501C221.188 62.0501 221.843 62.2201 222.413 62.5601C222.993 62.8901 223.448 63.3601 223.778 63.9701C224.108 64.5701 224.273 65.2651 224.273 66.0551C224.273 66.1051 224.268 66.1601 224.258 66.2201C224.258 66.2701 224.258 66.3251 224.258 66.3851H217.403V65.5901H223.688L223.268 65.9051C223.268 65.3351 223.143 64.8301 222.893 64.3901C222.653 63.9401 222.323 63.5901 221.903 63.3401C221.483 63.0901 220.998 62.9651 220.448 62.9651C219.908 62.9651 219.423 63.0901 218.993 63.3401C218.563 63.5901 218.228 63.9401 217.988 64.3901C217.748 64.8401 217.628 65.3551 217.628 65.9351V66.1001C217.628 66.7001 217.758 67.2301 218.018 67.6901C218.288 68.1401 218.658 68.4951 219.128 68.7551C219.608 69.0051 220.153 69.1301 220.763 69.1301C221.243 69.1301 221.688 69.0451 222.098 68.8751C222.518 68.7051 222.878 68.4451 223.178 68.0951L223.778 68.7851C223.428 69.2051 222.988 69.5251 222.458 69.7451C221.938 69.9651 221.363 70.0751 220.733 70.0751ZM230.506 70.0751C229.816 70.0751 229.196 69.9201 228.646 69.6101C228.096 69.2901 227.661 68.8301 227.341 68.2301C227.021 67.6301 226.861 66.9051 226.861 66.0551C226.861 65.1951 227.021 64.4701 227.341 63.8801C227.671 63.2801 228.111 62.8251 228.661 62.5151C229.211 62.2051 229.826 62.0501 230.506 62.0501C231.256 62.0501 231.926 62.2201 232.516 62.5601C233.116 62.8901 233.586 63.3551 233.926 63.9551C234.266 64.5551 234.436 65.2551 234.436 66.0551C234.436 66.8451 234.266 67.5451 233.926 68.1551C233.586 68.7551 233.116 69.2251 232.516 69.5651C231.926 69.9051 231.256 70.0751 230.506 70.0751ZM226.441 70.0001V58.8701H227.506V64.4501L227.356 66.0401L227.461 67.6301V70.0001H226.441ZM230.431 69.1301C230.991 69.1301 231.491 69.0051 231.931 68.7551C232.371 68.4951 232.721 68.1351 232.981 67.6751C233.241 67.2051 233.371 66.6651 233.371 66.0551C233.371 65.4351 233.241 64.8951 232.981 64.4351C232.721 63.9751 232.371 63.6201 231.931 63.3701C231.491 63.1101 230.991 62.9801 230.431 62.9801C229.871 62.9801 229.366 63.1101 228.916 63.3701C228.476 63.6201 228.126 63.9751 227.866 64.4351C227.616 64.8951 227.491 65.4351 227.491 66.0551C227.491 66.6651 227.616 67.2051 227.866 67.6751C228.126 68.1351 228.476 68.4951 228.916 68.7551C229.366 69.0051 229.871 69.1301 230.431 69.1301ZM244.598 70.0751C243.918 70.0751 243.303 69.9201 242.753 69.6101C242.203 69.2901 241.763 68.8351 241.433 68.2451C241.113 67.6451 240.953 66.9151 240.953 66.0551C240.953 65.1951 241.113 64.4701 241.433 63.8801C241.753 63.2801 242.188 62.8251 242.738 62.5151C243.288 62.2051 243.908 62.0501 244.598 62.0501C245.348 62.0501 246.018 62.2201 246.608 62.5601C247.208 62.8901 247.678 63.3601 248.018 63.9701C248.358 64.5701 248.528 65.2651 248.528 66.0551C248.528 66.8551 248.358 67.5551 248.018 68.1551C247.678 68.7551 247.208 69.2251 246.608 69.5651C246.018 69.9051 245.348 70.0751 244.598 70.0751ZM240.533 72.9101V62.1251H241.553V64.4951L241.448 66.0701L241.598 67.6601V72.9101H240.533ZM244.523 69.1301C245.083 69.1301 245.583 69.0051 246.023 68.7551C246.463 68.4951 246.813 68.1351 247.073 67.6751C247.333 67.2051 247.463 66.6651 247.463 66.0551C247.463 65.4451 247.333 64.9101 247.073 64.4501C246.813 63.9901 246.463 63.6301 246.023 63.3701C245.583 63.1101 245.083 62.9801 244.523 62.9801C243.963 62.9801 243.458 63.1101 243.008 63.3701C242.568 63.6301 242.218 63.9901 241.958 64.4501C241.708 64.9101 241.583 65.4451 241.583 66.0551C241.583 66.6651 241.708 67.2051 241.958 67.6751C242.218 68.1351 242.568 68.4951 243.008 68.7551C243.458 69.0051 243.963 69.1301 244.523 69.1301ZM255.59 70.0001V68.2601L255.545 67.9751V65.0651C255.545 64.3951 255.355 63.8801 254.975 63.5201C254.605 63.1601 254.05 62.9801 253.31 62.9801C252.8 62.9801 252.315 63.0651 251.855 63.2351C251.395 63.4051 251.005 63.6301 250.685 63.9101L250.205 63.1151C250.605 62.7751 251.085 62.5151 251.645 62.3351C252.205 62.1451 252.795 62.0501 253.415 62.0501C254.435 62.0501 255.22 62.3051 255.77 62.8151C256.33 63.3151 256.61 64.0801 256.61 65.1101V70.0001H255.59ZM252.875 70.0751C252.285 70.0751 251.77 69.9801 251.33 69.7901C250.9 69.5901 250.57 69.3201 250.34 68.9801C250.11 68.6301 249.995 68.2301 249.995 67.7801C249.995 67.3701 250.09 67.0001 250.28 66.6701C250.48 66.3301 250.8 66.0601 251.24 65.8601C251.69 65.6501 252.29 65.5451 253.04 65.5451H255.755V66.3401H253.07C252.31 66.3401 251.78 66.4751 251.48 66.7451C251.19 67.0151 251.045 67.3501 251.045 67.7501C251.045 68.2001 251.22 68.5601 251.57 68.8301C251.92 69.1001 252.41 69.2351 253.04 69.2351C253.64 69.2351 254.155 69.1001 254.585 68.8301C255.025 68.5501 255.345 68.1501 255.545 67.6301L255.785 68.3651C255.585 68.8851 255.235 69.3001 254.735 69.6101C254.245 69.9201 253.625 70.0751 252.875 70.0751ZM262.863 72.9851C262.143 72.9851 261.453 72.8801 260.793 72.6701C260.133 72.4601 259.598 72.1601 259.188 71.7701L259.728 70.9601C260.098 71.2901 260.553 71.5501 261.093 71.7401C261.643 71.9401 262.223 72.0401 262.833 72.0401C263.833 72.0401 264.568 71.8051 265.038 71.3351C265.508 70.8751 265.743 70.1551 265.743 69.1751V67.2101L265.893 65.8601L265.788 64.5101V62.1251H266.808V69.0401C266.808 70.4001 266.473 71.3951 265.803 72.0251C265.143 72.6651 264.163 72.9851 262.863 72.9851ZM262.668 69.7001C261.918 69.7001 261.243 69.5401 260.643 69.2201C260.043 68.8901 259.568 68.4351 259.218 67.8551C258.878 67.2751 258.708 66.6101 258.708 65.8601C258.708 65.1101 258.878 64.4501 259.218 63.8801C259.568 63.3001 260.043 62.8501 260.643 62.5301C261.243 62.2101 261.918 62.0501 262.668 62.0501C263.368 62.0501 263.998 62.1951 264.558 62.4851C265.118 62.7751 265.563 63.2051 265.893 63.7751C266.223 64.3451 266.388 65.0401 266.388 65.8601C266.388 66.6801 266.223 67.3751 265.893 67.9451C265.563 68.5151 265.118 68.9501 264.558 69.2501C263.998 69.5501 263.368 69.7001 262.668 69.7001ZM262.773 68.7551C263.353 68.7551 263.868 68.6351 264.318 68.3951C264.768 68.1451 265.123 67.8051 265.383 67.3751C265.643 66.9351 265.773 66.4301 265.773 65.8601C265.773 65.2901 265.643 64.7901 265.383 64.3601C265.123 63.9301 264.768 63.5951 264.318 63.3551C263.868 63.1051 263.353 62.9801 262.773 62.9801C262.203 62.9801 261.688 63.1051 261.228 63.3551C260.778 63.5951 260.423 63.9301 260.163 64.3601C259.913 64.7901 259.788 65.2901 259.788 65.8601C259.788 66.4301 259.913 66.9351 260.163 67.3751C260.423 67.8051 260.778 68.1451 261.228 68.3951C261.688 68.6351 262.203 68.7551 262.773 68.7551ZM273.116 70.0751C272.296 70.0751 271.576 69.9051 270.956 69.5651C270.336 69.2151 269.851 68.7401 269.501 68.1401C269.151 67.5301 268.976 66.8351 268.976 66.0551C268.976 65.2751 269.141 64.5851 269.471 63.9851C269.811 63.3851 270.271 62.9151 270.851 62.5751C271.441 62.2251 272.101 62.0501 272.831 62.0501C273.571 62.0501 274.226 62.2201 274.796 62.5601C275.376 62.8901 275.831 63.3601 276.161 63.9701C276.491 64.5701 276.656 65.2651 276.656 66.0551C276.656 66.1051 276.651 66.1601 276.641 66.2201C276.641 66.2701 276.641 66.3251 276.641 66.3851H269.786V65.5901H276.071L275.651 65.9051C275.651 65.3351 275.526 64.8301 275.276 64.3901C275.036 63.9401 274.706 63.5901 274.286 63.3401C273.866 63.0901 273.381 62.9651 272.831 62.9651C272.291 62.9651 271.806 63.0901 271.376 63.3401C270.946 63.5901 270.611 63.9401 270.371 64.3901C270.131 64.8401 270.011 65.3551 270.011 65.9351V66.1001C270.011 66.7001 270.141 67.2301 270.401 67.6901C270.671 68.1401 271.041 68.4951 271.511 68.7551C271.991 69.0051 272.536 69.1301 273.146 69.1301C273.626 69.1301 274.071 69.0451 274.481 68.8751C274.901 68.7051 275.261 68.4451 275.561 68.0951L276.161 68.7851C275.811 69.2051 275.371 69.5251 274.841 69.7451C274.321 69.9651 273.746 70.0751 273.116 70.0751ZM286.815 70.0751C286.135 70.0751 285.52 69.9201 284.97 69.6101C284.42 69.2901 283.98 68.8351 283.65 68.2451C283.33 67.6451 283.17 66.9151 283.17 66.0551C283.17 65.1951 283.33 64.4701 283.65 63.8801C283.97 63.2801 284.405 62.8251 284.955 62.5151C285.505 62.2051 286.125 62.0501 286.815 62.0501C287.565 62.0501 288.235 62.2201 288.825 62.5601C289.425 62.8901 289.895 63.3601 290.235 63.9701C290.575 64.5701 290.745 65.2651 290.745 66.0551C290.745 66.8551 290.575 67.5551 290.235 68.1551C289.895 68.7551 289.425 69.2251 288.825 69.5651C288.235 69.9051 287.565 70.0751 286.815 70.0751ZM282.75 72.9101V62.1251H283.77V64.4951L283.665 66.0701L283.815 67.6601V72.9101H282.75ZM286.74 69.1301C287.3 69.1301 287.8 69.0051 288.24 68.7551C288.68 68.4951 289.03 68.1351 289.29 67.6751C289.55 67.2051 289.68 66.6651 289.68 66.0551C289.68 65.4451 289.55 64.9101 289.29 64.4501C289.03 63.9901 288.68 63.6301 288.24 63.3701C287.8 63.1101 287.3 62.9801 286.74 62.9801C286.18 62.9801 285.675 63.1101 285.225 63.3701C284.785 63.6301 284.435 63.9901 284.175 64.4501C283.925 64.9101 283.8 65.4451 283.8 66.0551C283.8 66.6651 283.925 67.2051 284.175 67.6751C284.435 68.1351 284.785 68.4951 285.225 68.7551C285.675 69.0051 286.18 69.1301 286.74 69.1301ZM292.916 70.0001V62.1251H293.936V64.2701L293.831 63.8951C294.051 63.2951 294.421 62.8401 294.941 62.5301C295.461 62.2101 296.106 62.0501 296.876 62.0501V63.0851C296.836 63.0851 296.796 63.0851 296.756 63.0851C296.716 63.0751 296.676 63.0701 296.636 63.0701C295.806 63.0701 295.156 63.3251 294.686 63.8351C294.216 64.3351 293.981 65.0501 293.981 65.9801V70.0001H292.916ZM301.956 70.0751C301.196 70.0751 300.511 69.9051 299.901 69.5651C299.301 69.2151 298.826 68.7401 298.476 68.1401C298.126 67.5301 297.951 66.8351 297.951 66.0551C297.951 65.2651 298.126 64.5701 298.476 63.9701C298.826 63.3701 299.301 62.9001 299.901 62.5601C300.501 62.2201 301.186 62.0501 301.956 62.0501C302.736 62.0501 303.426 62.2201 304.026 62.5601C304.636 62.9001 305.111 63.3701 305.451 63.9701C305.801 64.5701 305.976 65.2651 305.976 66.0551C305.976 66.8351 305.801 67.5301 305.451 68.1401C305.111 68.7401 304.636 69.2151 304.026 69.5651C303.416 69.9051 302.726 70.0751 301.956 70.0751ZM301.956 69.1301C302.526 69.1301 303.031 69.0051 303.471 68.7551C303.911 68.4951 304.256 68.1351 304.506 67.6751C304.766 67.2051 304.896 66.6651 304.896 66.0551C304.896 65.4351 304.766 64.8951 304.506 64.4351C304.256 63.9751 303.911 63.6201 303.471 63.3701C303.031 63.1101 302.531 62.9801 301.971 62.9801C301.411 62.9801 300.911 63.1101 300.471 63.3701C300.031 63.6201 299.681 63.9751 299.421 64.4351C299.161 64.8951 299.031 65.4351 299.031 66.0551C299.031 66.6651 299.161 67.2051 299.421 67.6751C299.681 68.1351 300.031 68.4951 300.471 68.7551C300.911 69.0051 301.406 69.1301 301.956 69.1301ZM310.64 70.0751C309.9 70.0751 309.33 69.8751 308.93 69.4751C308.53 69.0751 308.33 68.5101 308.33 67.7801V60.3851H309.395V67.7201C309.395 68.1801 309.51 68.5351 309.74 68.7851C309.98 69.0351 310.32 69.1601 310.76 69.1601C311.23 69.1601 311.62 69.0251 311.93 68.7551L312.305 69.5201C312.095 69.7101 311.84 69.8501 311.54 69.9401C311.25 70.0301 310.95 70.0751 310.64 70.0751ZM306.92 63.0101V62.1251H311.795V63.0101H306.92ZM317.175 70.0751C316.415 70.0751 315.73 69.9051 315.12 69.5651C314.52 69.2151 314.045 68.7401 313.695 68.1401C313.345 67.5301 313.17 66.8351 313.17 66.0551C313.17 65.2651 313.345 64.5701 313.695 63.9701C314.045 63.3701 314.52 62.9001 315.12 62.5601C315.72 62.2201 316.405 62.0501 317.175 62.0501C317.955 62.0501 318.645 62.2201 319.245 62.5601C319.855 62.9001 320.33 63.3701 320.67 63.9701C321.02 64.5701 321.195 65.2651 321.195 66.0551C321.195 66.8351 321.02 67.5301 320.67 68.1401C320.33 68.7401 319.855 69.2151 319.245 69.5651C318.635 69.9051 317.945 70.0751 317.175 70.0751ZM317.175 69.1301C317.745 69.1301 318.25 69.0051 318.69 68.7551C319.13 68.4951 319.475 68.1351 319.725 67.6751C319.985 67.2051 320.115 66.6651 320.115 66.0551C320.115 65.4351 319.985 64.8951 319.725 64.4351C319.475 63.9751 319.13 63.6201 318.69 63.3701C318.25 63.1101 317.75 62.9801 317.19 62.9801C316.63 62.9801 316.13 63.1101 315.69 63.3701C315.25 63.6201 314.9 63.9751 314.64 64.4351C314.38 64.8951 314.25 65.4351 314.25 66.0551C314.25 66.6651 314.38 67.2051 314.64 67.6751C314.9 68.1351 315.25 68.4951 315.69 68.7551C316.13 69.0051 316.625 69.1301 317.175 69.1301ZM325.86 70.0751C325.12 70.0751 324.55 69.8751 324.15 69.4751C323.75 69.0751 323.55 68.5101 323.55 67.7801V60.3851H324.615V67.7201C324.615 68.1801 324.73 68.5351 324.96 68.7851C325.2 69.0351 325.54 69.1601 325.98 69.1601C326.45 69.1601 326.84 69.0251 327.15 68.7551L327.525 69.5201C327.315 69.7101 327.06 69.8501 326.76 69.9401C326.47 70.0301 326.17 70.0751 325.86 70.0751ZM322.14 63.0101V62.1251H327.015V63.0101H322.14ZM328.982 72.9851C328.612 72.9851 328.257 72.9251 327.917 72.8051C327.587 72.6851 327.302 72.5051 327.062 72.2651L327.557 71.4701C327.757 71.6601 327.972 71.8051 328.202 71.9051C328.442 72.0151 328.707 72.0701 328.997 72.0701C329.347 72.0701 329.647 71.9701 329.897 71.7701C330.157 71.5801 330.402 71.2401 330.632 70.7501L331.142 69.5951L331.262 69.4301L334.502 62.1251H335.552L331.607 70.9451C331.387 71.4551 331.142 71.8601 330.872 72.1601C330.612 72.4601 330.327 72.6701 330.017 72.7901C329.707 72.9201 329.362 72.9851 328.982 72.9851ZM331.082 70.2251L327.452 62.1251H328.562L331.772 69.3551L331.082 70.2251ZM341.116 70.0751C340.436 70.0751 339.821 69.9201 339.271 69.6101C338.721 69.2901 338.281 68.8351 337.951 68.2451C337.631 67.6451 337.471 66.9151 337.471 66.0551C337.471 65.1951 337.631 64.4701 337.951 63.8801C338.271 63.2801 338.706 62.8251 339.256 62.5151C339.806 62.2051 340.426 62.0501 341.116 62.0501C341.866 62.0501 342.536 62.2201 343.126 62.5601C343.726 62.8901 344.196 63.3601 344.536 63.9701C344.876 64.5701 345.046 65.2651 345.046 66.0551C345.046 66.8551 344.876 67.5551 344.536 68.1551C344.196 68.7551 343.726 69.2251 343.126 69.5651C342.536 69.9051 341.866 70.0751 341.116 70.0751ZM337.051 72.9101V62.1251H338.071V64.4951L337.966 66.0701L338.116 67.6601V72.9101H337.051ZM341.041 69.1301C341.601 69.1301 342.101 69.0051 342.541 68.7551C342.981 68.4951 343.331 68.1351 343.591 67.6751C343.851 67.2051 343.981 66.6651 343.981 66.0551C343.981 65.4451 343.851 64.9101 343.591 64.4501C343.331 63.9901 342.981 63.6301 342.541 63.3701C342.101 63.1101 341.601 62.9801 341.041 62.9801C340.481 62.9801 339.976 63.1101 339.526 63.3701C339.086 63.6301 338.736 63.9901 338.476 64.4501C338.226 64.9101 338.101 65.4451 338.101 66.0551C338.101 66.6651 338.226 67.2051 338.476 67.6751C338.736 68.1351 339.086 68.4951 339.526 68.7551C339.976 69.0051 340.481 69.1301 341.041 69.1301ZM350.562 70.0751C349.742 70.0751 349.022 69.9051 348.402 69.5651C347.782 69.2151 347.297 68.7401 346.947 68.1401C346.597 67.5301 346.422 66.8351 346.422 66.0551C346.422 65.2751 346.587 64.5851 346.917 63.9851C347.257 63.3851 347.717 62.9151 348.297 62.5751C348.887 62.2251 349.547 62.0501 350.277 62.0501C351.017 62.0501 351.672 62.2201 352.242 62.5601C352.822 62.8901 353.277 63.3601 353.607 63.9701C353.937 64.5701 354.102 65.2651 354.102 66.0551C354.102 66.1051 354.097 66.1601 354.087 66.2201C354.087 66.2701 354.087 66.3251 354.087 66.3851H347.232V65.5901H353.517L353.097 65.9051C353.097 65.3351 352.972 64.8301 352.722 64.3901C352.482 63.9401 352.152 63.5901 351.732 63.3401C351.312 63.0901 350.827 62.9651 350.277 62.9651C349.737 62.9651 349.252 63.0901 348.822 63.3401C348.392 63.5901 348.057 63.9401 347.817 64.3901C347.577 64.8401 347.457 65.3551 347.457 65.9351V66.1001C347.457 66.7001 347.587 67.2301 347.847 67.6901C348.117 68.1401 348.487 68.4951 348.957 68.7551C349.437 69.0051 349.982 69.1301 350.592 69.1301C351.072 69.1301 351.517 69.0451 351.927 68.8751C352.347 68.7051 352.707 68.4451 353.007 68.0951L353.607 68.7851C353.257 69.2051 352.817 69.5251 352.287 69.7451C351.767 69.9651 351.192 70.0751 350.562 70.0751ZM358.385 70.0751C357.735 70.0751 357.12 69.9851 356.54 69.8051C355.96 69.6151 355.505 69.3801 355.175 69.1001L355.655 68.2601C355.975 68.5001 356.385 68.7101 356.885 68.8901C357.385 69.0601 357.91 69.1451 358.46 69.1451C359.21 69.1451 359.75 69.0301 360.08 68.8001C360.41 68.5601 360.575 68.2451 360.575 67.8551C360.575 67.5651 360.48 67.3401 360.29 67.1801C360.11 67.0101 359.87 66.8851 359.57 66.8051C359.27 66.7151 358.935 66.6401 358.565 66.5801C358.195 66.5201 357.825 66.4501 357.455 66.3701C357.095 66.2901 356.765 66.1751 356.465 66.0251C356.165 65.8651 355.92 65.6501 355.73 65.3801C355.55 65.1101 355.46 64.7501 355.46 64.3001C355.46 63.8701 355.58 63.4851 355.82 63.1451C356.06 62.8051 356.41 62.5401 356.87 62.3501C357.34 62.1501 357.91 62.0501 358.58 62.0501C359.09 62.0501 359.6 62.1201 360.11 62.2601C360.62 62.3901 361.04 62.5651 361.37 62.7851L360.905 63.6401C360.555 63.4001 360.18 63.2301 359.78 63.1301C359.38 63.0201 358.98 62.9651 358.58 62.9651C357.87 62.9651 357.345 63.0901 357.005 63.3401C356.675 63.5801 356.51 63.8901 356.51 64.2701C356.51 64.5701 356.6 64.8051 356.78 64.9751C356.97 65.1451 357.215 65.2801 357.515 65.3801C357.825 65.4701 358.16 65.5451 358.52 65.6051C358.89 65.6651 359.255 65.7401 359.615 65.8301C359.985 65.9101 360.32 66.0251 360.62 66.1751C360.93 66.3151 361.175 66.5201 361.355 66.7901C361.545 67.0501 361.64 67.3951 361.64 67.8251C361.64 68.2851 361.51 68.6851 361.25 69.0251C361 69.3551 360.63 69.6151 360.14 69.8051C359.66 69.9851 359.075 70.0751 358.385 70.0751ZM362.949 72.1901L363.609 69.4151L363.729 70.0601C363.499 70.0601 363.304 69.9851 363.144 69.8351C362.994 69.6851 362.919 69.4901 362.919 69.2501C362.919 69.0101 362.994 68.8151 363.144 68.6651C363.304 68.5151 363.494 68.4401 363.714 68.4401C363.944 68.4401 364.129 68.5201 364.269 68.6801C364.419 68.8401 364.494 69.0301 364.494 69.2501C364.494 69.3301 364.489 69.4101 364.479 69.4901C364.469 69.5701 364.449 69.6601 364.419 69.7601C364.389 69.8601 364.349 69.9801 364.299 70.1201L363.669 72.1901H362.949ZM151.485 88.0001V80.1251H152.505V82.2551L152.34 81.8801C152.58 81.3101 152.965 80.8651 153.495 80.5451C154.035 80.2151 154.67 80.0501 155.4 80.0501C156.17 80.0501 156.825 80.2451 157.365 80.6351C157.905 81.0151 158.255 81.5901 158.415 82.3601L157.995 82.1951C158.225 81.5551 158.63 81.0401 159.21 80.6501C159.8 80.2501 160.505 80.0501 161.325 80.0501C161.965 80.0501 162.52 80.1751 162.99 80.4251C163.47 80.6651 163.84 81.0351 164.1 81.5351C164.37 82.0351 164.505 82.6651 164.505 83.4251V88.0001H163.44V83.5301C163.44 82.7001 163.24 82.0751 162.84 81.6551C162.45 81.2251 161.895 81.0101 161.175 81.0101C160.635 81.0101 160.165 81.1251 159.765 81.3551C159.375 81.5751 159.07 81.9001 158.85 82.3301C158.64 82.7501 158.535 83.2601 158.535 83.8601V88.0001H157.47V83.5301C157.47 82.7001 157.27 82.0751 156.87 81.6551C156.47 81.2251 155.91 81.0101 155.19 81.0101C154.66 81.0101 154.195 81.1251 153.795 81.3551C153.395 81.5751 153.085 81.9001 152.865 82.3301C152.655 82.7501 152.55 83.2601 152.55 83.8601V88.0001H151.485ZM170.738 88.0751C169.918 88.0751 169.198 87.9051 168.578 87.5651C167.958 87.2151 167.473 86.7401 167.123 86.1401C166.773 85.5301 166.598 84.8351 166.598 84.0551C166.598 83.2751 166.763 82.5851 167.093 81.9851C167.433 81.3851 167.893 80.9151 168.473 80.5751C169.063 80.2251 169.723 80.0501 170.453 80.0501C171.193 80.0501 171.848 80.2201 172.418 80.5601C172.998 80.8901 173.453 81.3601 173.783 81.9701C174.113 82.5701 174.278 83.2651 174.278 84.0551C174.278 84.1051 174.273 84.1601 174.263 84.2201C174.263 84.2701 174.263 84.3251 174.263 84.3851H167.408V83.5901H173.693L173.273 83.9051C173.273 83.3351 173.148 82.8301 172.898 82.3901C172.658 81.9401 172.328 81.5901 171.908 81.3401C171.488 81.0901 171.003 80.9651 170.453 80.9651C169.913 80.9651 169.428 81.0901 168.998 81.3401C168.568 81.5901 168.233 81.9401 167.993 82.3901C167.753 82.8401 167.633 83.3551 167.633 83.9351V84.1001C167.633 84.7001 167.763 85.2301 168.023 85.6901C168.293 86.1401 168.663 86.4951 169.133 86.7551C169.613 87.0051 170.158 87.1301 170.768 87.1301C171.248 87.1301 171.693 87.0451 172.103 86.8751C172.523 86.7051 172.883 86.4451 173.183 86.0951L173.783 86.7851C173.433 87.2051 172.993 87.5251 172.463 87.7451C171.943 87.9651 171.368 88.0751 170.738 88.0751ZM181.161 88.0001V86.2601L181.116 85.9751V83.0651C181.116 82.3951 180.926 81.8801 180.546 81.5201C180.176 81.1601 179.621 80.9801 178.881 80.9801C178.371 80.9801 177.886 81.0651 177.426 81.2351C176.966 81.4051 176.576 81.6301 176.256 81.9101L175.776 81.1151C176.176 80.7751 176.656 80.5151 177.216 80.3351C177.776 80.1451 178.366 80.0501 178.986 80.0501C180.006 80.0501 180.791 80.3051 181.341 80.8151C181.901 81.3151 182.181 82.0801 182.181 83.1101V88.0001H181.161ZM178.446 88.0751C177.856 88.0751 177.341 87.9801 176.901 87.7901C176.471 87.5901 176.141 87.3201 175.911 86.9801C175.681 86.6301 175.566 86.2301 175.566 85.7801C175.566 85.3701 175.661 85.0001 175.851 84.6701C176.051 84.3301 176.371 84.0601 176.811 83.8601C177.261 83.6501 177.861 83.5451 178.611 83.5451H181.326V84.3401H178.641C177.881 84.3401 177.351 84.4751 177.051 84.7451C176.761 85.0151 176.616 85.3501 176.616 85.7501C176.616 86.2001 176.791 86.5601 177.141 86.8301C177.491 87.1001 177.981 87.2351 178.611 87.2351C179.211 87.2351 179.726 87.1001 180.156 86.8301C180.596 86.5501 180.916 86.1501 181.116 85.6301L181.356 86.3651C181.156 86.8851 180.806 87.3001 180.306 87.6101C179.816 87.9201 179.196 88.0751 178.446 88.0751ZM187.189 88.0751C186.539 88.0751 185.924 87.9851 185.344 87.8051C184.764 87.6151 184.309 87.3801 183.979 87.1001L184.459 86.2601C184.779 86.5001 185.189 86.7101 185.689 86.8901C186.189 87.0601 186.714 87.1451 187.264 87.1451C188.014 87.1451 188.554 87.0301 188.884 86.8001C189.214 86.5601 189.379 86.2451 189.379 85.8551C189.379 85.5651 189.284 85.3401 189.094 85.1801C188.914 85.0101 188.674 84.8851 188.374 84.8051C188.074 84.7151 187.739 84.6401 187.369 84.5801C186.999 84.5201 186.629 84.4501 186.259 84.3701C185.899 84.2901 185.569 84.1751 185.269 84.0251C184.969 83.8651 184.724 83.6501 184.534 83.3801C184.354 83.1101 184.264 82.7501 184.264 82.3001C184.264 81.8701 184.384 81.4851 184.624 81.1451C184.864 80.8051 185.214 80.5401 185.674 80.3501C186.144 80.1501 186.714 80.0501 187.384 80.0501C187.894 80.0501 188.404 80.1201 188.914 80.2601C189.424 80.3901 189.844 80.5651 190.174 80.7851L189.709 81.6401C189.359 81.4001 188.984 81.2301 188.584 81.1301C188.184 81.0201 187.784 80.9651 187.384 80.9651C186.674 80.9651 186.149 81.0901 185.809 81.3401C185.479 81.5801 185.314 81.8901 185.314 82.2701C185.314 82.5701 185.404 82.8051 185.584 82.9751C185.774 83.1451 186.019 83.2801 186.319 83.3801C186.629 83.4701 186.964 83.5451 187.324 83.6051C187.694 83.6651 188.059 83.7401 188.419 83.8301C188.789 83.9101 189.124 84.0251 189.424 84.1751C189.734 84.3151 189.979 84.5201 190.159 84.7901C190.349 85.0501 190.444 85.3951 190.444 85.8251C190.444 86.2851 190.314 86.6851 190.054 87.0251C189.804 87.3551 189.434 87.6151 188.944 87.8051C188.464 87.9851 187.879 88.0751 187.189 88.0751ZM195.653 88.0751C194.983 88.0751 194.398 87.9501 193.898 87.7001C193.398 87.4501 193.008 87.0751 192.728 86.5751C192.458 86.0751 192.323 85.4501 192.323 84.7001V80.1251H193.388V84.5801C193.388 85.4201 193.593 86.0551 194.003 86.4851C194.423 86.9051 195.008 87.1151 195.758 87.1151C196.308 87.1151 196.783 87.0051 197.183 86.7851C197.593 86.5551 197.903 86.2251 198.113 85.7951C198.333 85.3651 198.443 84.8501 198.443 84.2501V80.1251H199.508V88.0001H198.488V85.8401L198.653 86.2301C198.403 86.8101 198.013 87.2651 197.483 87.5951C196.963 87.9151 196.353 88.0751 195.653 88.0751ZM202.476 88.0001V80.1251H203.496V82.2701L203.391 81.8951C203.611 81.2951 203.981 80.8401 204.501 80.5301C205.021 80.2101 205.666 80.0501 206.436 80.0501V81.0851C206.396 81.0851 206.356 81.0851 206.316 81.0851C206.276 81.0751 206.236 81.0701 206.196 81.0701C205.366 81.0701 204.716 81.3251 204.246 81.8351C203.776 82.3351 203.541 83.0501 203.541 83.9801V88.0001H202.476ZM208.38 88.0001V80.1251H209.445V88.0001H208.38ZM208.92 78.3851C208.7 78.3851 208.515 78.3101 208.365 78.1601C208.215 78.0101 208.14 77.8301 208.14 77.6201C208.14 77.4101 208.215 77.2351 208.365 77.0951C208.515 76.9451 208.7 76.8701 208.92 76.8701C209.14 76.8701 209.325 76.9401 209.475 77.0801C209.625 77.2201 209.7 77.3951 209.7 77.6051C209.7 77.8251 209.625 78.0101 209.475 78.1601C209.335 78.3101 209.15 78.3851 208.92 78.3851ZM212.408 88.0001V80.1251H213.428V82.2851L213.263 81.8801C213.513 81.3101 213.913 80.8651 214.463 80.5451C215.013 80.2151 215.668 80.0501 216.428 80.0501C217.068 80.0501 217.628 80.1751 218.108 80.4251C218.598 80.6651 218.978 81.0351 219.248 81.5351C219.528 82.0351 219.668 82.6651 219.668 83.4251V88.0001H218.603V83.5301C218.603 82.7001 218.393 82.0751 217.973 81.6551C217.563 81.2251 216.983 81.0101 216.233 81.0101C215.673 81.0101 215.183 81.1251 214.763 81.3551C214.353 81.5751 214.033 81.9001 213.803 82.3301C213.583 82.7501 213.473 83.2601 213.473 83.8601V88.0001H212.408ZM225.905 90.9851C225.185 90.9851 224.495 90.8801 223.835 90.6701C223.175 90.4601 222.64 90.1601 222.23 89.7701L222.77 88.9601C223.14 89.2901 223.595 89.5501 224.135 89.7401C224.685 89.9401 225.265 90.0401 225.875 90.0401C226.875 90.0401 227.61 89.8051 228.08 89.3351C228.55 88.8751 228.785 88.1551 228.785 87.1751V85.2101L228.935 83.8601L228.83 82.5101V80.1251H229.85V87.0401C229.85 88.4001 229.515 89.3951 228.845 90.0251C228.185 90.6651 227.205 90.9851 225.905 90.9851ZM225.71 87.7001C224.96 87.7001 224.285 87.5401 223.685 87.2201C223.085 86.8901 222.61 86.4351 222.26 85.8551C221.92 85.2751 221.75 84.6101 221.75 83.8601C221.75 83.1101 221.92 82.4501 222.26 81.8801C222.61 81.3001 223.085 80.8501 223.685 80.5301C224.285 80.2101 224.96 80.0501 225.71 80.0501C226.41 80.0501 227.04 80.1951 227.6 80.4851C228.16 80.7751 228.605 81.2051 228.935 81.7751C229.265 82.3451 229.43 83.0401 229.43 83.8601C229.43 84.6801 229.265 85.3751 228.935 85.9451C228.605 86.5151 228.16 86.9501 227.6 87.2501C227.04 87.5501 226.41 87.7001 225.71 87.7001ZM225.815 86.7551C226.395 86.7551 226.91 86.6351 227.36 86.3951C227.81 86.1451 228.165 85.8051 228.425 85.3751C228.685 84.9351 228.815 84.4301 228.815 83.8601C228.815 83.2901 228.685 82.7901 228.425 82.3601C228.165 81.9301 227.81 81.5951 227.36 81.3551C226.91 81.1051 226.395 80.9801 225.815 80.9801C225.245 80.9801 224.73 81.1051 224.27 81.3551C223.82 81.5951 223.465 81.9301 223.205 82.3601C222.955 82.7901 222.83 83.2901 222.83 83.8601C222.83 84.4301 222.955 84.9351 223.205 85.3751C223.465 85.8051 223.82 86.1451 224.27 86.3951C224.73 86.6351 225.245 86.7551 225.815 86.7551ZM239.229 88.0751C238.489 88.0751 237.919 87.8751 237.519 87.4751C237.119 87.0751 236.919 86.5101 236.919 85.7801V78.3851H237.984V85.7201C237.984 86.1801 238.099 86.5351 238.329 86.7851C238.569 87.0351 238.909 87.1601 239.349 87.1601C239.819 87.1601 240.209 87.0251 240.519 86.7551L240.894 87.5201C240.684 87.7101 240.429 87.8501 240.129 87.9401C239.839 88.0301 239.539 88.0751 239.229 88.0751ZM235.509 81.0101V80.1251H240.384V81.0101H235.509ZM242.833 88.0001V76.8701H243.898V82.2851L243.688 81.8801C243.938 81.3101 244.338 80.8651 244.888 80.5451C245.438 80.2151 246.093 80.0501 246.853 80.0501C247.493 80.0501 248.053 80.1751 248.533 80.4251C249.023 80.6651 249.403 81.0351 249.673 81.5351C249.953 82.0351 250.093 82.6651 250.093 83.4251V88.0001H249.028V83.5301C249.028 82.7001 248.818 82.0751 248.398 81.6551C247.988 81.2251 247.408 81.0101 246.658 81.0101C246.098 81.0101 245.608 81.1251 245.188 81.3551C244.778 81.5751 244.458 81.9001 244.228 82.3301C244.008 82.7501 243.898 83.2601 243.898 83.8601V88.0001H242.833ZM256.314 88.0751C255.494 88.0751 254.774 87.9051 254.154 87.5651C253.534 87.2151 253.049 86.7401 252.699 86.1401C252.349 85.5301 252.174 84.8351 252.174 84.0551C252.174 83.2751 252.339 82.5851 252.669 81.9851C253.009 81.3851 253.469 80.9151 254.049 80.5751C254.639 80.2251 255.299 80.0501 256.029 80.0501C256.769 80.0501 257.424 80.2201 257.994 80.5601C258.574 80.8901 259.029 81.3601 259.359 81.9701C259.689 82.5701 259.854 83.2651 259.854 84.0551C259.854 84.1051 259.849 84.1601 259.839 84.2201C259.839 84.2701 259.839 84.3251 259.839 84.3851H252.984V83.5901H259.269L258.849 83.9051C258.849 83.3351 258.724 82.8301 258.474 82.3901C258.234 81.9401 257.904 81.5901 257.484 81.3401C257.064 81.0901 256.579 80.9651 256.029 80.9651C255.489 80.9651 255.004 81.0901 254.574 81.3401C254.144 81.5901 253.809 81.9401 253.569 82.3901C253.329 82.8401 253.209 83.3551 253.209 83.9351V84.1001C253.209 84.7001 253.339 85.2301 253.599 85.6901C253.869 86.1401 254.239 86.4951 254.709 86.7551C255.189 87.0051 255.734 87.1301 256.344 87.1301C256.824 87.1301 257.269 87.0451 257.679 86.8751C258.099 86.7051 258.459 86.4451 258.759 86.0951L259.359 86.7851C259.009 87.2051 258.569 87.5251 258.039 87.7451C257.519 87.9651 256.944 88.0751 256.314 88.0751ZM270.883 88.0001V86.2601L270.838 85.9751V83.0651C270.838 82.3951 270.648 81.8801 270.268 81.5201C269.898 81.1601 269.343 80.9801 268.603 80.9801C268.093 80.9801 267.608 81.0651 267.148 81.2351C266.688 81.4051 266.298 81.6301 265.978 81.9101L265.498 81.1151C265.898 80.7751 266.378 80.5151 266.938 80.3351C267.498 80.1451 268.088 80.0501 268.708 80.0501C269.728 80.0501 270.513 80.3051 271.063 80.8151C271.623 81.3151 271.903 82.0801 271.903 83.1101V88.0001H270.883ZM268.168 88.0751C267.578 88.0751 267.063 87.9801 266.623 87.7901C266.193 87.5901 265.863 87.3201 265.633 86.9801C265.403 86.6301 265.288 86.2301 265.288 85.7801C265.288 85.3701 265.383 85.0001 265.573 84.6701C265.773 84.3301 266.093 84.0601 266.533 83.8601C266.983 83.6501 267.583 83.5451 268.333 83.5451H271.048V84.3401H268.363C267.603 84.3401 267.073 84.4751 266.773 84.7451C266.483 85.0151 266.338 85.3501 266.338 85.7501C266.338 86.2001 266.513 86.5601 266.863 86.8301C267.213 87.1001 267.703 87.2351 268.333 87.2351C268.933 87.2351 269.448 87.1001 269.878 86.8301C270.318 86.5501 270.638 86.1501 270.838 85.6301L271.078 86.3651C270.878 86.8851 270.528 87.3001 270.028 87.6101C269.538 87.9201 268.918 88.0751 268.168 88.0751ZM278.141 88.0751C277.321 88.0751 276.601 87.9051 275.981 87.5651C275.361 87.2151 274.876 86.7401 274.526 86.1401C274.176 85.5301 274.001 84.8351 274.001 84.0551C274.001 83.2751 274.166 82.5851 274.496 81.9851C274.836 81.3851 275.296 80.9151 275.876 80.5751C276.466 80.2251 277.126 80.0501 277.856 80.0501C278.596 80.0501 279.251 80.2201 279.821 80.5601C280.401 80.8901 280.856 81.3601 281.186 81.9701C281.516 82.5701 281.681 83.2651 281.681 84.0551C281.681 84.1051 281.676 84.1601 281.666 84.2201C281.666 84.2701 281.666 84.3251 281.666 84.3851H274.811V83.5901H281.096L280.676 83.9051C280.676 83.3351 280.551 82.8301 280.301 82.3901C280.061 81.9401 279.731 81.5901 279.311 81.3401C278.891 81.0901 278.406 80.9651 277.856 80.9651C277.316 80.9651 276.831 81.0901 276.401 81.3401C275.971 81.5901 275.636 81.9401 275.396 82.3901C275.156 82.8401 275.036 83.3551 275.036 83.9351V84.1001C275.036 84.7001 275.166 85.2301 275.426 85.6901C275.696 86.1401 276.066 86.4951 276.536 86.7551C277.016 87.0051 277.561 87.1301 278.171 87.1301C278.651 87.1301 279.096 87.0451 279.506 86.8751C279.926 86.7051 280.286 86.4451 280.586 86.0951L281.186 86.7851C280.836 87.2051 280.396 87.5251 279.866 87.7451C279.346 87.9651 278.771 88.0751 278.141 88.0751ZM285.963 88.0751C285.313 88.0751 284.698 87.9851 284.118 87.8051C283.538 87.6151 283.083 87.3801 282.753 87.1001L283.233 86.2601C283.553 86.5001 283.963 86.7101 284.463 86.8901C284.963 87.0601 285.488 87.1451 286.038 87.1451C286.788 87.1451 287.328 87.0301 287.658 86.8001C287.988 86.5601 288.153 86.2451 288.153 85.8551C288.153 85.5651 288.058 85.3401 287.868 85.1801C287.688 85.0101 287.448 84.8851 287.148 84.8051C286.848 84.7151 286.513 84.6401 286.143 84.5801C285.773 84.5201 285.403 84.4501 285.033 84.3701C284.673 84.2901 284.343 84.1751 284.043 84.0251C283.743 83.8651 283.498 83.6501 283.308 83.3801C283.128 83.1101 283.038 82.7501 283.038 82.3001C283.038 81.8701 283.158 81.4851 283.398 81.1451C283.638 80.8051 283.988 80.5401 284.448 80.3501C284.918 80.1501 285.488 80.0501 286.158 80.0501C286.668 80.0501 287.178 80.1201 287.688 80.2601C288.198 80.3901 288.618 80.5651 288.948 80.7851L288.483 81.6401C288.133 81.4001 287.758 81.2301 287.358 81.1301C286.958 81.0201 286.558 80.9651 286.158 80.9651C285.448 80.9651 284.923 81.0901 284.583 81.3401C284.253 81.5801 284.088 81.8901 284.088 82.2701C284.088 82.5701 284.178 82.8051 284.358 82.9751C284.548 83.1451 284.793 83.2801 285.093 83.3801C285.403 83.4701 285.738 83.5451 286.098 83.6051C286.468 83.6651 286.833 83.7401 287.193 83.8301C287.563 83.9101 287.898 84.0251 288.198 84.1751C288.508 84.3151 288.753 84.5201 288.933 84.7901C289.123 85.0501 289.218 85.3951 289.218 85.8251C289.218 86.2851 289.088 86.6851 288.828 87.0251C288.578 87.3551 288.208 87.6151 287.718 87.8051C287.238 87.9851 286.653 88.0751 285.963 88.0751ZM293.663 88.0751C292.923 88.0751 292.353 87.8751 291.953 87.4751C291.553 87.0751 291.353 86.5101 291.353 85.7801V78.3851H292.418V85.7201C292.418 86.1801 292.533 86.5351 292.763 86.7851C293.003 87.0351 293.343 87.1601 293.783 87.1601C294.253 87.1601 294.643 87.0251 294.953 86.7551L295.328 87.5201C295.118 87.7101 294.863 87.8501 294.563 87.9401C294.273 88.0301 293.973 88.0751 293.663 88.0751ZM289.943 81.0101V80.1251H294.818V81.0101H289.943ZM297.266 88.0001V76.8701H298.331V82.2851L298.121 81.8801C298.371 81.3101 298.771 80.8651 299.321 80.5451C299.871 80.2151 300.526 80.0501 301.286 80.0501C301.926 80.0501 302.486 80.1751 302.966 80.4251C303.456 80.6651 303.836 81.0351 304.106 81.5351C304.386 82.0351 304.526 82.6651 304.526 83.4251V88.0001H303.461V83.5301C303.461 82.7001 303.251 82.0751 302.831 81.6551C302.421 81.2251 301.841 81.0101 301.091 81.0101C300.531 81.0101 300.041 81.1251 299.621 81.3551C299.211 81.5751 298.891 81.9001 298.661 82.3301C298.441 82.7501 298.331 83.2601 298.331 83.8601V88.0001H297.266ZM310.748 88.0751C309.928 88.0751 309.208 87.9051 308.588 87.5651C307.968 87.2151 307.483 86.7401 307.133 86.1401C306.783 85.5301 306.608 84.8351 306.608 84.0551C306.608 83.2751 306.773 82.5851 307.103 81.9851C307.443 81.3851 307.903 80.9151 308.483 80.5751C309.073 80.2251 309.733 80.0501 310.463 80.0501C311.203 80.0501 311.858 80.2201 312.428 80.5601C313.008 80.8901 313.463 81.3601 313.793 81.9701C314.123 82.5701 314.288 83.2651 314.288 84.0551C314.288 84.1051 314.283 84.1601 314.273 84.2201C314.273 84.2701 314.273 84.3251 314.273 84.3851H307.418V83.5901H313.703L313.283 83.9051C313.283 83.3351 313.158 82.8301 312.908 82.3901C312.668 81.9401 312.338 81.5901 311.918 81.3401C311.498 81.0901 311.013 80.9651 310.463 80.9651C309.923 80.9651 309.438 81.0901 309.008 81.3401C308.578 81.5901 308.243 81.9401 308.003 82.3901C307.763 82.8401 307.643 83.3551 307.643 83.9351V84.1001C307.643 84.7001 307.773 85.2301 308.033 85.6901C308.303 86.1401 308.673 86.4951 309.143 86.7551C309.623 87.0051 310.168 87.1301 310.778 87.1301C311.258 87.1301 311.703 87.0451 312.113 86.8751C312.533 86.7051 312.893 86.4451 313.193 86.0951L313.793 86.7851C313.443 87.2051 313.003 87.5251 312.473 87.7451C311.953 87.9651 311.378 88.0751 310.748 88.0751ZM318.946 88.0751C318.206 88.0751 317.636 87.8751 317.236 87.4751C316.836 87.0751 316.636 86.5101 316.636 85.7801V78.3851H317.701V85.7201C317.701 86.1801 317.816 86.5351 318.046 86.7851C318.286 87.0351 318.626 87.1601 319.066 87.1601C319.536 87.1601 319.926 87.0251 320.236 86.7551L320.611 87.5201C320.401 87.7101 320.146 87.8501 319.846 87.9401C319.556 88.0301 319.256 88.0751 318.946 88.0751ZM315.226 81.0101V80.1251H320.101V81.0101H315.226ZM322.549 88.0001V80.1251H323.614V88.0001H322.549ZM323.089 78.3851C322.869 78.3851 322.684 78.3101 322.534 78.1601C322.384 78.0101 322.309 77.8301 322.309 77.6201C322.309 77.4101 322.384 77.2351 322.534 77.0951C322.684 76.9451 322.869 76.8701 323.089 76.8701C323.309 76.8701 323.494 76.9401 323.644 77.0801C323.794 77.2201 323.869 77.3951 323.869 77.6051C323.869 77.8251 323.794 78.0101 323.644 78.1601C323.504 78.3101 323.319 78.3851 323.089 78.3851ZM329.848 88.0751C329.068 88.0751 328.368 87.9051 327.748 87.5651C327.138 87.2151 326.658 86.7401 326.308 86.1401C325.958 85.5301 325.783 84.8351 325.783 84.0551C325.783 83.2651 325.958 82.5701 326.308 81.9701C326.658 81.3701 327.138 80.9001 327.748 80.5601C328.368 80.2201 329.068 80.0501 329.848 80.0501C330.518 80.0501 331.123 80.1801 331.663 80.4401C332.203 80.7001 332.628 81.0901 332.938 81.6101L332.143 82.1501C331.873 81.7501 331.538 81.4551 331.138 81.2651C330.738 81.0751 330.303 80.9801 329.833 80.9801C329.273 80.9801 328.768 81.1101 328.318 81.3701C327.868 81.6201 327.513 81.9751 327.253 82.4351C326.993 82.8951 326.863 83.4351 326.863 84.0551C326.863 84.6751 326.993 85.2151 327.253 85.6751C327.513 86.1351 327.868 86.4951 328.318 86.7551C328.768 87.0051 329.273 87.1301 329.833 87.1301C330.303 87.1301 330.738 87.0351 331.138 86.8451C331.538 86.6551 331.873 86.3651 332.143 85.9751L332.938 86.5151C332.628 87.0251 332.203 87.4151 331.663 87.6851C331.123 87.9451 330.518 88.0751 329.848 88.0751ZM337.145 88.0751C336.495 88.0751 335.88 87.9851 335.3 87.8051C334.72 87.6151 334.265 87.3801 333.935 87.1001L334.415 86.2601C334.735 86.5001 335.145 86.7101 335.645 86.8901C336.145 87.0601 336.67 87.1451 337.22 87.1451C337.97 87.1451 338.51 87.0301 338.84 86.8001C339.17 86.5601 339.335 86.2451 339.335 85.8551C339.335 85.5651 339.24 85.3401 339.05 85.1801C338.87 85.0101 338.63 84.8851 338.33 84.8051C338.03 84.7151 337.695 84.6401 337.325 84.5801C336.955 84.5201 336.585 84.4501 336.215 84.3701C335.855 84.2901 335.525 84.1751 335.225 84.0251C334.925 83.8651 334.68 83.6501 334.49 83.3801C334.31 83.1101 334.22 82.7501 334.22 82.3001C334.22 81.8701 334.34 81.4851 334.58 81.1451C334.82 80.8051 335.17 80.5401 335.63 80.3501C336.1 80.1501 336.67 80.0501 337.34 80.0501C337.85 80.0501 338.36 80.1201 338.87 80.2601C339.38 80.3901 339.8 80.5651 340.13 80.7851L339.665 81.6401C339.315 81.4001 338.94 81.2301 338.54 81.1301C338.14 81.0201 337.74 80.9651 337.34 80.9651C336.63 80.9651 336.105 81.0901 335.765 81.3401C335.435 81.5801 335.27 81.8901 335.27 82.2701C335.27 82.5701 335.36 82.8051 335.54 82.9751C335.73 83.1451 335.975 83.2801 336.275 83.3801C336.585 83.4701 336.92 83.5451 337.28 83.6051C337.65 83.6651 338.015 83.7401 338.375 83.8301C338.745 83.9101 339.08 84.0251 339.38 84.1751C339.69 84.3151 339.935 84.5201 340.115 84.7901C340.305 85.0501 340.4 85.3951 340.4 85.8251C340.4 86.2851 340.27 86.6851 340.01 87.0251C339.76 87.3551 339.39 87.6151 338.9 87.8051C338.42 87.9851 337.835 88.0751 337.145 88.0751ZM351.215 88.0001V86.2601L351.17 85.9751V83.0651C351.17 82.3951 350.98 81.8801 350.6 81.5201C350.23 81.1601 349.675 80.9801 348.935 80.9801C348.425 80.9801 347.94 81.0651 347.48 81.2351C347.02 81.4051 346.63 81.6301 346.31 81.9101L345.83 81.1151C346.23 80.7751 346.71 80.5151 347.27 80.3351C347.83 80.1451 348.42 80.0501 349.04 80.0501C350.06 80.0501 350.845 80.3051 351.395 80.8151C351.955 81.3151 352.235 82.0801 352.235 83.1101V88.0001H351.215ZM348.5 88.0751C347.91 88.0751 347.395 87.9801 346.955 87.7901C346.525 87.5901 346.195 87.3201 345.965 86.9801C345.735 86.6301 345.62 86.2301 345.62 85.7801C345.62 85.3701 345.715 85.0001 345.905 84.6701C346.105 84.3301 346.425 84.0601 346.865 83.8601C347.315 83.6501 347.915 83.5451 348.665 83.5451H351.38V84.3401H348.695C347.935 84.3401 347.405 84.4751 347.105 84.7451C346.815 85.0151 346.67 85.3501 346.67 85.7501C346.67 86.2001 346.845 86.5601 347.195 86.8301C347.545 87.1001 348.035 87.2351 348.665 87.2351C349.265 87.2351 349.78 87.1001 350.21 86.8301C350.65 86.5501 350.97 86.1501 351.17 85.6301L351.41 86.3651C351.21 86.8851 350.86 87.3001 350.36 87.6101C349.87 87.9201 349.25 88.0751 348.5 88.0751ZM355.128 88.0001V80.1251H356.148V82.2851L355.983 81.8801C356.233 81.3101 356.633 80.8651 357.183 80.5451C357.733 80.2151 358.388 80.0501 359.148 80.0501C359.788 80.0501 360.348 80.1751 360.828 80.4251C361.318 80.6651 361.698 81.0351 361.968 81.5351C362.248 82.0351 362.388 82.6651 362.388 83.4251V88.0001H361.323V83.5301C361.323 82.7001 361.113 82.0751 360.693 81.6551C360.283 81.2251 359.703 81.0101 358.953 81.0101C358.393 81.0101 357.903 81.1251 357.483 81.3551C357.073 81.5751 356.753 81.9001 356.523 82.3301C356.303 82.7501 356.193 83.2601 356.193 83.8601V88.0001H355.128ZM368.399 88.0751C367.649 88.0751 366.974 87.9051 366.374 87.5651C365.784 87.2251 365.319 86.7551 364.979 86.1551C364.639 85.5451 364.469 84.8451 364.469 84.0551C364.469 83.2551 364.639 82.5551 364.979 81.9551C365.319 81.3551 365.784 80.8901 366.374 80.5601C366.974 80.2201 367.649 80.0501 368.399 80.0501C369.089 80.0501 369.704 80.2051 370.244 80.5151C370.794 80.8251 371.229 81.2801 371.549 81.8801C371.879 82.4701 372.044 83.1951 372.044 84.0551C372.044 84.9051 371.884 85.6301 371.564 86.2301C371.244 86.8301 370.809 87.2901 370.259 87.6101C369.719 87.9201 369.099 88.0751 368.399 88.0751ZM368.474 87.1301C369.034 87.1301 369.534 87.0051 369.974 86.7551C370.424 86.4951 370.774 86.1351 371.024 85.6751C371.284 85.2051 371.414 84.6651 371.414 84.0551C371.414 83.4351 371.284 82.8951 371.024 82.4351C370.774 81.9751 370.424 81.6201 369.974 81.3701C369.534 81.1101 369.034 80.9801 368.474 80.9801C367.924 80.9801 367.429 81.1101 366.989 81.3701C366.549 81.6201 366.199 81.9751 365.939 82.4351C365.679 82.8951 365.549 83.4351 365.549 84.0551C365.549 84.6651 365.679 85.2051 365.939 85.6751C366.199 86.1351 366.549 86.4951 366.989 86.7551C367.429 87.0051 367.924 87.1301 368.474 87.1301ZM371.444 88.0001V85.6301L371.549 84.0401L371.399 82.4501V76.8701H372.464V88.0001H371.444ZM151.665 106V97.1351C151.665 96.4351 151.87 95.8701 152.28 95.4401C152.69 95.0101 153.28 94.7951 154.05 94.7951C154.35 94.7951 154.64 94.8351 154.92 94.9151C155.2 94.9951 155.435 95.1201 155.625 95.2901L155.265 96.0851C155.115 95.9551 154.94 95.8601 154.74 95.8001C154.54 95.7301 154.325 95.6951 154.095 95.6951C153.645 95.6951 153.3 95.8201 153.06 96.0701C152.82 96.3201 152.7 96.6901 152.7 97.1801V98.3801L152.73 98.8751V106H151.665ZM150.255 99.0101V98.1251H155.13V99.0101H150.255ZM159.823 106.075C159.153 106.075 158.568 105.95 158.068 105.7C157.568 105.45 157.178 105.075 156.898 104.575C156.628 104.075 156.493 103.45 156.493 102.7V98.1251H157.558V102.58C157.558 103.42 157.763 104.055 158.173 104.485C158.593 104.905 159.178 105.115 159.928 105.115C160.478 105.115 160.953 105.005 161.353 104.785C161.763 104.555 162.073 104.225 162.283 103.795C162.503 103.365 162.613 102.85 162.613 102.25V98.1251H163.678V106H162.658V103.84L162.823 104.23C162.573 104.81 162.183 105.265 161.653 105.595C161.133 105.915 160.523 106.075 159.823 106.075ZM166.646 106V98.1251H167.666V100.285L167.501 99.8801C167.751 99.3101 168.151 98.8651 168.701 98.5451C169.251 98.2151 169.906 98.0501 170.666 98.0501C171.306 98.0501 171.866 98.1751 172.346 98.4251C172.836 98.6651 173.216 99.0351 173.486 99.5351C173.766 100.035 173.906 100.665 173.906 101.425V106H172.841V101.53C172.841 100.7 172.631 100.075 172.211 99.6551C171.801 99.2251 171.221 99.0101 170.471 99.0101C169.911 99.0101 169.421 99.1251 169.001 99.3551C168.591 99.5751 168.271 99.9001 168.041 100.33C167.821 100.75 167.711 101.26 167.711 101.86V106H166.646ZM180.053 106.075C179.273 106.075 178.573 105.905 177.953 105.565C177.343 105.215 176.863 104.74 176.513 104.14C176.163 103.53 175.988 102.835 175.988 102.055C175.988 101.265 176.163 100.57 176.513 99.9701C176.863 99.3701 177.343 98.9001 177.953 98.5601C178.573 98.2201 179.273 98.0501 180.053 98.0501C180.723 98.0501 181.328 98.1801 181.868 98.4401C182.408 98.7001 182.833 99.0901 183.143 99.6101L182.348 100.15C182.078 99.7501 181.743 99.4551 181.343 99.2651C180.943 99.0751 180.508 98.9801 180.038 98.9801C179.478 98.9801 178.973 99.1101 178.523 99.3701C178.073 99.6201 177.718 99.9751 177.458 100.435C177.198 100.895 177.068 101.435 177.068 102.055C177.068 102.675 177.198 103.215 177.458 103.675C177.718 104.135 178.073 104.495 178.523 104.755C178.973 105.005 179.478 105.13 180.038 105.13C180.508 105.13 180.943 105.035 181.343 104.845C181.743 104.655 182.078 104.365 182.348 103.975L183.143 104.515C182.833 105.025 182.408 105.415 181.868 105.685C181.328 105.945 180.723 106.075 180.053 106.075ZM187.813 106.075C187.073 106.075 186.503 105.875 186.103 105.475C185.703 105.075 185.503 104.51 185.503 103.78V96.3851H186.568V103.72C186.568 104.18 186.683 104.535 186.913 104.785C187.153 105.035 187.493 105.16 187.933 105.16C188.403 105.16 188.793 105.025 189.103 104.755L189.478 105.52C189.268 105.71 189.013 105.85 188.713 105.94C188.423 106.03 188.123 106.075 187.813 106.075ZM184.093 99.0101V98.1251H188.968V99.0101H184.093ZM191.417 106V98.1251H192.482V106H191.417ZM191.957 96.3851C191.737 96.3851 191.552 96.3101 191.402 96.1601C191.252 96.0101 191.177 95.8301 191.177 95.6201C191.177 95.4101 191.252 95.2351 191.402 95.0951C191.552 94.9451 191.737 94.8701 191.957 94.8701C192.177 94.8701 192.362 94.9401 192.512 95.0801C192.662 95.2201 192.737 95.3951 192.737 95.6051C192.737 95.8251 192.662 96.0101 192.512 96.1601C192.372 96.3101 192.187 96.3851 191.957 96.3851ZM198.655 106.075C197.895 106.075 197.21 105.905 196.6 105.565C196 105.215 195.525 104.74 195.175 104.14C194.825 103.53 194.65 102.835 194.65 102.055C194.65 101.265 194.825 100.57 195.175 99.9701C195.525 99.3701 196 98.9001 196.6 98.5601C197.2 98.2201 197.885 98.0501 198.655 98.0501C199.435 98.0501 200.125 98.2201 200.725 98.5601C201.335 98.9001 201.81 99.3701 202.15 99.9701C202.5 100.57 202.675 101.265 202.675 102.055C202.675 102.835 202.5 103.53 202.15 104.14C201.81 104.74 201.335 105.215 200.725 105.565C200.115 105.905 199.425 106.075 198.655 106.075ZM198.655 105.13C199.225 105.13 199.73 105.005 200.17 104.755C200.61 104.495 200.955 104.135 201.205 103.675C201.465 103.205 201.595 102.665 201.595 102.055C201.595 101.435 201.465 100.895 201.205 100.435C200.955 99.9751 200.61 99.6201 200.17 99.3701C199.73 99.1101 199.23 98.9801 198.67 98.9801C198.11 98.9801 197.61 99.1101 197.17 99.3701C196.73 99.6201 196.38 99.9751 196.12 100.435C195.86 100.895 195.73 101.435 195.73 102.055C195.73 102.665 195.86 103.205 196.12 103.675C196.38 104.135 196.73 104.495 197.17 104.755C197.61 105.005 198.105 105.13 198.655 105.13ZM204.849 106V98.1251H205.869V100.285L205.704 99.8801C205.954 99.3101 206.354 98.8651 206.904 98.5451C207.454 98.2151 208.109 98.0501 208.869 98.0501C209.509 98.0501 210.069 98.1751 210.549 98.4251C211.039 98.6651 211.419 99.0351 211.689 99.5351C211.969 100.035 212.109 100.665 212.109 101.425V106H211.044V101.53C211.044 100.7 210.834 100.075 210.414 99.6551C210.004 99.2251 209.424 99.0101 208.674 99.0101C208.114 99.0101 207.624 99.1251 207.204 99.3551C206.794 99.5751 206.474 99.9001 206.244 100.33C206.024 100.75 205.914 101.26 205.914 101.86V106H204.849ZM219.921 106V104.26L219.876 103.975V101.065C219.876 100.395 219.686 99.8801 219.306 99.5201C218.936 99.1601 218.381 98.9801 217.641 98.9801C217.131 98.9801 216.646 99.0651 216.186 99.2351C215.726 99.4051 215.336 99.6301 215.016 99.9101L214.536 99.1151C214.936 98.7751 215.416 98.5151 215.976 98.3351C216.536 98.1451 217.126 98.0501 217.746 98.0501C218.766 98.0501 219.551 98.3051 220.101 98.8151C220.661 99.3151 220.941 100.08 220.941 101.11V106H219.921ZM217.206 106.075C216.616 106.075 216.101 105.98 215.661 105.79C215.231 105.59 214.901 105.32 214.671 104.98C214.441 104.63 214.326 104.23 214.326 103.78C214.326 103.37 214.421 103 214.611 102.67C214.811 102.33 215.131 102.06 215.571 101.86C216.021 101.65 216.621 101.545 217.371 101.545H220.086V102.34H217.401C216.641 102.34 216.111 102.475 215.811 102.745C215.521 103.015 215.376 103.35 215.376 103.75C215.376 104.2 215.551 104.56 215.901 104.83C216.251 105.1 216.741 105.235 217.371 105.235C217.971 105.235 218.486 105.1 218.916 104.83C219.356 104.55 219.676 104.15 219.876 103.63L220.116 104.365C219.916 104.885 219.566 105.3 219.066 105.61C218.576 105.92 217.956 106.075 217.206 106.075ZM223.834 106V94.8701H224.899V106H223.834ZM227.862 106V98.1251H228.927V106H227.862ZM228.402 96.3851C228.182 96.3851 227.997 96.3101 227.847 96.1601C227.697 96.0101 227.622 95.8301 227.622 95.6201C227.622 95.4101 227.697 95.2351 227.847 95.0951C227.997 94.9451 228.182 94.8701 228.402 94.8701C228.622 94.8701 228.807 94.9401 228.957 95.0801C229.107 95.2201 229.182 95.3951 229.182 95.6051C229.182 95.8251 229.107 96.0101 228.957 96.1601C228.817 96.3101 228.632 96.3851 228.402 96.3851ZM234.248 106.075C233.508 106.075 232.938 105.875 232.538 105.475C232.138 105.075 231.938 104.51 231.938 103.78V96.3851H233.003V103.72C233.003 104.18 233.118 104.535 233.348 104.785C233.588 105.035 233.928 105.16 234.368 105.16C234.838 105.16 235.228 105.025 235.538 104.755L235.913 105.52C235.703 105.71 235.448 105.85 235.148 105.94C234.858 106.03 234.558 106.075 234.248 106.075ZM230.528 99.0101V98.1251H235.403V99.0101H230.528ZM237.37 108.985C237 108.985 236.645 108.925 236.305 108.805C235.975 108.685 235.69 108.505 235.45 108.265L235.945 107.47C236.145 107.66 236.36 107.805 236.59 107.905C236.83 108.015 237.095 108.07 237.385 108.07C237.735 108.07 238.035 107.97 238.285 107.77C238.545 107.58 238.79 107.24 239.02 106.75L239.53 105.595L239.65 105.43L242.89 98.1251H243.94L239.995 106.945C239.775 107.455 239.53 107.86 239.26 108.16C239 108.46 238.715 108.67 238.405 108.79C238.095 108.92 237.75 108.985 237.37 108.985ZM239.47 106.225L235.84 98.1251H236.95L240.16 105.355L239.47 106.225ZM252.576 106.075C251.816 106.075 251.131 105.905 250.521 105.565C249.921 105.215 249.446 104.74 249.096 104.14C248.746 103.53 248.571 102.835 248.571 102.055C248.571 101.265 248.746 100.57 249.096 99.9701C249.446 99.3701 249.921 98.9001 250.521 98.5601C251.121 98.2201 251.806 98.0501 252.576 98.0501C253.356 98.0501 254.046 98.2201 254.646 98.5601C255.256 98.9001 255.731 99.3701 256.071 99.9701C256.421 100.57 256.596 101.265 256.596 102.055C256.596 102.835 256.421 103.53 256.071 104.14C255.731 104.74 255.256 105.215 254.646 105.565C254.036 105.905 253.346 106.075 252.576 106.075ZM252.576 105.13C253.146 105.13 253.651 105.005 254.091 104.755C254.531 104.495 254.876 104.135 255.126 103.675C255.386 103.205 255.516 102.665 255.516 102.055C255.516 101.435 255.386 100.895 255.126 100.435C254.876 99.9751 254.531 99.6201 254.091 99.3701C253.651 99.1101 253.151 98.9801 252.591 98.9801C252.031 98.9801 251.531 99.1101 251.091 99.3701C250.651 99.6201 250.301 99.9751 250.041 100.435C249.781 100.895 249.651 101.435 249.651 102.055C249.651 102.665 249.781 103.205 250.041 103.675C250.301 104.135 250.651 104.495 251.091 104.755C251.531 105.005 252.026 105.13 252.576 105.13ZM258.95 106V97.1351C258.95 96.4351 259.155 95.8701 259.565 95.4401C259.975 95.0101 260.565 94.7951 261.335 94.7951C261.635 94.7951 261.925 94.8351 262.205 94.9151C262.485 94.9951 262.72 95.1201 262.91 95.2901L262.55 96.0851C262.4 95.9551 262.225 95.8601 262.025 95.8001C261.825 95.7301 261.61 95.6951 261.38 95.6951C260.93 95.6951 260.585 95.8201 260.345 96.0701C260.105 96.3201 259.985 96.6901 259.985 97.1801V98.3801L260.015 98.8751V106H258.95ZM257.54 99.0101V98.1251H262.415V99.0101H257.54ZM270.269 106.075C269.529 106.075 268.959 105.875 268.559 105.475C268.159 105.075 267.959 104.51 267.959 103.78V96.3851H269.024V103.72C269.024 104.18 269.139 104.535 269.369 104.785C269.609 105.035 269.949 105.16 270.389 105.16C270.859 105.16 271.249 105.025 271.559 104.755L271.934 105.52C271.724 105.71 271.469 105.85 271.169 105.94C270.879 106.03 270.579 106.075 270.269 106.075ZM266.549 99.0101V98.1251H271.424V99.0101H266.549ZM273.873 106V94.8701H274.938V100.285L274.728 99.8801C274.978 99.3101 275.378 98.8651 275.928 98.5451C276.478 98.2151 277.133 98.0501 277.893 98.0501C278.533 98.0501 279.093 98.1751 279.573 98.4251C280.063 98.6651 280.443 99.0351 280.713 99.5351C280.993 100.035 281.133 100.665 281.133 101.425V106H280.068V101.53C280.068 100.7 279.858 100.075 279.438 99.6551C279.028 99.2251 278.448 99.0101 277.698 99.0101C277.138 99.0101 276.648 99.1251 276.228 99.3551C275.818 99.5751 275.498 99.9001 275.268 100.33C275.048 100.75 274.938 101.26 274.938 101.86V106H273.873ZM287.354 106.075C286.534 106.075 285.814 105.905 285.194 105.565C284.574 105.215 284.089 104.74 283.739 104.14C283.389 103.53 283.214 102.835 283.214 102.055C283.214 101.275 283.379 100.585 283.709 99.9851C284.049 99.3851 284.509 98.9151 285.089 98.5751C285.679 98.2251 286.339 98.0501 287.069 98.0501C287.809 98.0501 288.464 98.2201 289.034 98.5601C289.614 98.8901 290.069 99.3601 290.399 99.9701C290.729 100.57 290.894 101.265 290.894 102.055C290.894 102.105 290.889 102.16 290.879 102.22C290.879 102.27 290.879 102.325 290.879 102.385H284.024V101.59H290.309L289.889 101.905C289.889 101.335 289.764 100.83 289.514 100.39C289.274 99.9401 288.944 99.5901 288.524 99.3401C288.104 99.0901 287.619 98.9651 287.069 98.9651C286.529 98.9651 286.044 99.0901 285.614 99.3401C285.184 99.5901 284.849 99.9401 284.609 100.39C284.369 100.84 284.249 101.355 284.249 101.935V102.1C284.249 102.7 284.379 103.23 284.639 103.69C284.909 104.14 285.279 104.495 285.749 104.755C286.229 105.005 286.774 105.13 287.384 105.13C287.864 105.13 288.309 105.045 288.719 104.875C289.139 104.705 289.499 104.445 289.799 104.095L290.399 104.785C290.049 105.205 289.609 105.525 289.079 105.745C288.559 105.965 287.984 106.075 287.354 106.075ZM298.593 106L295.623 98.1251H296.643L299.343 105.43H298.878L301.653 98.1251H302.568L305.313 105.43H304.848L307.593 98.1251H308.568L305.583 106H304.578L301.938 99.1301H302.253L299.598 106H298.593ZM313.297 106.075C312.477 106.075 311.757 105.905 311.137 105.565C310.517 105.215 310.032 104.74 309.682 104.14C309.332 103.53 309.157 102.835 309.157 102.055C309.157 101.275 309.322 100.585 309.652 99.9851C309.992 99.3851 310.452 98.9151 311.032 98.5751C311.622 98.2251 312.282 98.0501 313.012 98.0501C313.752 98.0501 314.407 98.2201 314.977 98.5601C315.557 98.8901 316.012 99.3601 316.342 99.9701C316.672 100.57 316.837 101.265 316.837 102.055C316.837 102.105 316.832 102.16 316.822 102.22C316.822 102.27 316.822 102.325 316.822 102.385H309.967V101.59H316.252L315.832 101.905C315.832 101.335 315.707 100.83 315.457 100.39C315.217 99.9401 314.887 99.5901 314.467 99.3401C314.047 99.0901 313.562 98.9651 313.012 98.9651C312.472 98.9651 311.987 99.0901 311.557 99.3401C311.127 99.5901 310.792 99.9401 310.552 100.39C310.312 100.84 310.192 101.355 310.192 101.935V102.1C310.192 102.7 310.322 103.23 310.582 103.69C310.852 104.14 311.222 104.495 311.692 104.755C312.172 105.005 312.717 105.13 313.327 105.13C313.807 105.13 314.252 105.045 314.662 104.875C315.082 104.705 315.442 104.445 315.742 104.095L316.342 104.785C315.992 105.205 315.552 105.525 315.022 105.745C314.502 105.965 313.927 106.075 313.297 106.075ZM323.07 106.075C322.38 106.075 321.76 105.92 321.21 105.61C320.66 105.29 320.225 104.83 319.905 104.23C319.585 103.63 319.425 102.905 319.425 102.055C319.425 101.195 319.585 100.47 319.905 99.8801C320.235 99.2801 320.675 98.8251 321.225 98.5151C321.775 98.2051 322.39 98.0501 323.07 98.0501C323.82 98.0501 324.49 98.2201 325.08 98.5601C325.68 98.8901 326.15 99.3551 326.49 99.9551C326.83 100.555 327 101.255 327 102.055C327 102.845 326.83 103.545 326.49 104.155C326.15 104.755 325.68 105.225 325.08 105.565C324.49 105.905 323.82 106.075 323.07 106.075ZM319.005 106V94.8701H320.07V100.45L319.92 102.04L320.025 103.63V106H319.005ZM322.995 105.13C323.555 105.13 324.055 105.005 324.495 104.755C324.935 104.495 325.285 104.135 325.545 103.675C325.805 103.205 325.935 102.665 325.935 102.055C325.935 101.435 325.805 100.895 325.545 100.435C325.285 99.9751 324.935 99.6201 324.495 99.3701C324.055 99.1101 323.555 98.9801 322.995 98.9801C322.435 98.9801 321.93 99.1101 321.48 99.3701C321.04 99.6201 320.69 99.9751 320.43 100.435C320.18 100.895 320.055 101.435 320.055 102.055C320.055 102.665 320.18 103.205 320.43 103.675C320.69 104.135 321.04 104.495 321.48 104.755C321.93 105.005 322.435 105.13 322.995 105.13ZM337.161 106.075C336.481 106.075 335.866 105.92 335.316 105.61C334.766 105.29 334.326 104.835 333.996 104.245C333.676 103.645 333.516 102.915 333.516 102.055C333.516 101.195 333.676 100.47 333.996 99.8801C334.316 99.2801 334.751 98.8251 335.301 98.5151C335.851 98.2051 336.471 98.0501 337.161 98.0501C337.911 98.0501 338.581 98.2201 339.171 98.5601C339.771 98.8901 340.241 99.3601 340.581 99.9701C340.921 100.57 341.091 101.265 341.091 102.055C341.091 102.855 340.921 103.555 340.581 104.155C340.241 104.755 339.771 105.225 339.171 105.565C338.581 105.905 337.911 106.075 337.161 106.075ZM333.096 108.91V98.1251H334.116V100.495L334.011 102.07L334.161 103.66V108.91H333.096ZM337.086 105.13C337.646 105.13 338.146 105.005 338.586 104.755C339.026 104.495 339.376 104.135 339.636 103.675C339.896 103.205 340.026 102.665 340.026 102.055C340.026 101.445 339.896 100.91 339.636 100.45C339.376 99.9901 339.026 99.6301 338.586 99.3701C338.146 99.1101 337.646 98.9801 337.086 98.9801C336.526 98.9801 336.021 99.1101 335.571 99.3701C335.131 99.6301 334.781 99.9901 334.521 100.45C334.271 100.91 334.146 101.445 334.146 102.055C334.146 102.665 334.271 103.205 334.521 103.675C334.781 104.135 335.131 104.495 335.571 104.755C336.021 105.005 336.526 105.13 337.086 105.13ZM348.153 106V104.26L348.108 103.975V101.065C348.108 100.395 347.918 99.8801 347.538 99.5201C347.168 99.1601 346.613 98.9801 345.873 98.9801C345.363 98.9801 344.878 99.0651 344.418 99.2351C343.958 99.4051 343.568 99.6301 343.248 99.9101L342.768 99.1151C343.168 98.7751 343.648 98.5151 344.208 98.3351C344.768 98.1451 345.358 98.0501 345.978 98.0501C346.998 98.0501 347.783 98.3051 348.333 98.8151C348.893 99.3151 349.173 100.08 349.173 101.11V106H348.153ZM345.438 106.075C344.848 106.075 344.333 105.98 343.893 105.79C343.463 105.59 343.133 105.32 342.903 104.98C342.673 104.63 342.558 104.23 342.558 103.78C342.558 103.37 342.653 103 342.843 102.67C343.043 102.33 343.363 102.06 343.803 101.86C344.253 101.65 344.853 101.545 345.603 101.545H348.318V102.34H345.633C344.873 102.34 344.343 102.475 344.043 102.745C343.753 103.015 343.608 103.35 343.608 103.75C343.608 104.2 343.783 104.56 344.133 104.83C344.483 105.1 344.973 105.235 345.603 105.235C346.203 105.235 346.718 105.1 347.148 104.83C347.588 104.55 347.908 104.15 348.108 103.63L348.348 104.365C348.148 104.885 347.798 105.3 347.298 105.61C346.808 105.92 346.188 106.075 345.438 106.075ZM355.426 108.985C354.706 108.985 354.016 108.88 353.356 108.67C352.696 108.46 352.161 108.16 351.751 107.77L352.291 106.96C352.661 107.29 353.116 107.55 353.656 107.74C354.206 107.94 354.786 108.04 355.396 108.04C356.396 108.04 357.131 107.805 357.601 107.335C358.071 106.875 358.306 106.155 358.306 105.175V103.21L358.456 101.86L358.351 100.51V98.1251H359.371V105.04C359.371 106.4 359.036 107.395 358.366 108.025C357.706 108.665 356.726 108.985 355.426 108.985ZM355.231 105.7C354.481 105.7 353.806 105.54 353.206 105.22C352.606 104.89 352.131 104.435 351.781 103.855C351.441 103.275 351.271 102.61 351.271 101.86C351.271 101.11 351.441 100.45 351.781 99.8801C352.131 99.3001 352.606 98.8501 353.206 98.5301C353.806 98.2101 354.481 98.0501 355.231 98.0501C355.931 98.0501 356.561 98.1951 357.121 98.4851C357.681 98.7751 358.126 99.2051 358.456 99.7751C358.786 100.345 358.951 101.04 358.951 101.86C358.951 102.68 358.786 103.375 358.456 103.945C358.126 104.515 357.681 104.95 357.121 105.25C356.561 105.55 355.931 105.7 355.231 105.7ZM355.336 104.755C355.916 104.755 356.431 104.635 356.881 104.395C357.331 104.145 357.686 103.805 357.946 103.375C358.206 102.935 358.336 102.43 358.336 101.86C358.336 101.29 358.206 100.79 357.946 100.36C357.686 99.9301 357.331 99.5951 356.881 99.3551C356.431 99.1051 355.916 98.9801 355.336 98.9801C354.766 98.9801 354.251 99.1051 353.791 99.3551C353.341 99.5951 352.986 99.9301 352.726 100.36C352.476 100.79 352.351 101.29 352.351 101.86C352.351 102.43 352.476 102.935 352.726 103.375C352.986 103.805 353.341 104.145 353.791 104.395C354.251 104.635 354.766 104.755 355.336 104.755ZM365.68 106.075C364.86 106.075 364.14 105.905 363.52 105.565C362.9 105.215 362.415 104.74 362.065 104.14C361.715 103.53 361.54 102.835 361.54 102.055C361.54 101.275 361.705 100.585 362.035 99.9851C362.375 99.3851 362.835 98.9151 363.415 98.5751C364.005 98.2251 364.665 98.0501 365.395 98.0501C366.135 98.0501 366.79 98.2201 367.36 98.5601C367.94 98.8901 368.395 99.3601 368.725 99.9701C369.055 100.57 369.22 101.265 369.22 102.055C369.22 102.105 369.215 102.16 369.205 102.22C369.205 102.27 369.205 102.325 369.205 102.385H362.35V101.59H368.635L368.215 101.905C368.215 101.335 368.09 100.83 367.84 100.39C367.6 99.9401 367.27 99.5901 366.85 99.3401C366.43 99.0901 365.945 98.9651 365.395 98.9651C364.855 98.9651 364.37 99.0901 363.94 99.3401C363.51 99.5901 363.175 99.9401 362.935 100.39C362.695 100.84 362.575 101.355 362.575 101.935V102.1C362.575 102.7 362.705 103.23 362.965 103.69C363.235 104.14 363.605 104.495 364.075 104.755C364.555 105.005 365.1 105.13 365.71 105.13C366.19 105.13 366.635 105.045 367.045 104.875C367.465 104.705 367.825 104.445 368.125 104.095L368.725 104.785C368.375 105.205 367.935 105.525 367.405 105.745C366.885 105.965 366.31 106.075 365.68 106.075ZM371.492 106.075C371.272 106.075 371.082 105.995 370.922 105.835C370.772 105.675 370.697 105.48 370.697 105.25C370.697 105.01 370.772 104.815 370.922 104.665C371.082 104.515 371.272 104.44 371.492 104.44C371.712 104.44 371.897 104.515 372.047 104.665C372.207 104.815 372.287 105.01 372.287 105.25C372.287 105.48 372.207 105.675 372.047 105.835C371.897 105.995 371.712 106.075 371.492 106.075Z" fill="white" fill-opacity="0.75"/>
<defs>
<clipPath id="clip0_50_3426">
<rect width="100" height="100" fill="white" transform="translate(25 25.0001)"/>
</clipPath>
</defs>
</svg>
