<svg width="400" height="150" viewBox="0 0 400 150" fill="none" xmlns="http://www.w3.org/2000/svg">
<mask id="path-1-inside-1_50_3464" fill="white">
<path d="M0 5.00013C0 2.2387 2.23858 0.00012207 5 0.00012207H395C397.761 0.00012207 400 2.2387 400 5.00012V147C400 148.657 398.657 150 397 150H3C1.34314 150 0 148.657 0 147V5.00013Z"/>
</mask>
<path d="M0 5.00013C0 2.2387 2.23858 0.00012207 5 0.00012207H395C397.761 0.00012207 400 2.2387 400 5.00012V147C400 148.657 398.657 150 397 150H3C1.34314 150 0 148.657 0 147V5.00013Z" fill="#333333"/>
<path d="M0 0.00012207H400H0ZM400 147C400 150.314 397.314 153 394 153H6C2.68629 153 0 150.314 0 147C0 147 1.34315 147 3 147H397C398.657 147 400 147 400 147ZM0 150V0.00012207V150ZM400 0.00012207V150V0.00012207Z" fill="#FFCD42" mask="url(#path-1-inside-1_50_3464)"/>
<g clip-path="url(#clip0_50_3464)">
<path d="M39.0625 114.844L30.8594 25.0001H118.945L110.938 114.844L75 125" fill="#264DE4"/>
<path d="M75 32.2267V117.188L104.102 109.18L110.938 32.2267" fill="#2965F1"/>
<path d="M47.2656 43.3595H75V54.297H48.2422M49.2188 65.6251H75V76.7579H50.1953M50.7812 82.2267H61.7188L62.5 91.0157L75 94.3361V105.859L52.1484 99.6095" fill="#EBEBEB"/>
<path d="M75 65.6251V76.7579H88.4766L87.1094 91.0157L75 94.3361V105.859L97.4609 99.6095L102.539 43.3595H75V54.297H90.625L89.5508 65.6251H75Z" fill="white"/>
</g>
<path d="M160.45 40.2001C159.117 40.2001 157.883 39.9835 156.75 39.5501C155.633 39.1001 154.658 38.4751 153.825 37.6751C153.008 36.8585 152.367 35.9085 151.9 34.8251C151.433 33.7418 151.2 32.5501 151.2 31.2501C151.2 29.9501 151.433 28.7585 151.9 27.6751C152.367 26.5918 153.017 25.6501 153.85 24.8501C154.683 24.0335 155.658 23.4085 156.775 22.9751C157.908 22.5251 159.142 22.3001 160.475 22.3001C161.825 22.3001 163.067 22.5335 164.2 23.0001C165.35 23.4501 166.325 24.1251 167.125 25.0251L165.5 26.6001C164.833 25.9001 164.083 25.3835 163.25 25.0501C162.417 24.7001 161.525 24.5251 160.575 24.5251C159.592 24.5251 158.675 24.6918 157.825 25.0251C156.992 25.3585 156.267 25.8251 155.65 26.4251C155.033 27.0251 154.55 27.7418 154.2 28.5751C153.867 29.3918 153.7 30.2835 153.7 31.2501C153.7 32.2168 153.867 33.1168 154.2 33.9501C154.55 34.7668 155.033 35.4751 155.65 36.0751C156.267 36.6751 156.992 37.1418 157.825 37.4751C158.675 37.8085 159.592 37.9751 160.575 37.9751C161.525 37.9751 162.417 37.8085 163.25 37.4751C164.083 37.1251 164.833 36.5918 165.5 35.8751L167.125 37.4501C166.325 38.3501 165.35 39.0335 164.2 39.5001C163.067 39.9668 161.817 40.2001 160.45 40.2001ZM175.523 40.2001C174.19 40.2001 172.915 40.0001 171.698 39.6001C170.481 39.1835 169.523 38.6501 168.823 38.0001L169.748 36.0501C170.415 36.6335 171.265 37.1168 172.298 37.5001C173.331 37.8835 174.406 38.0751 175.523 38.0751C176.54 38.0751 177.365 37.9585 177.998 37.7251C178.631 37.4918 179.098 37.1751 179.398 36.7751C179.698 36.3585 179.848 35.8918 179.848 35.3751C179.848 34.7751 179.648 34.2918 179.248 33.9251C178.865 33.5585 178.356 33.2668 177.723 33.0501C177.106 32.8168 176.423 32.6168 175.673 32.4501C174.923 32.2835 174.165 32.0918 173.398 31.8751C172.648 31.6418 171.956 31.3501 171.323 31.0001C170.706 30.6501 170.206 30.1835 169.823 29.6001C169.44 29.0001 169.248 28.2335 169.248 27.3001C169.248 26.4001 169.481 25.5751 169.948 24.8251C170.431 24.0585 171.165 23.4501 172.148 23.0001C173.148 22.5335 174.415 22.3001 175.948 22.3001C176.965 22.3001 177.973 22.4335 178.973 22.7001C179.973 22.9668 180.84 23.3501 181.573 23.8501L180.748 25.8501C179.998 25.3501 179.206 24.9918 178.373 24.7751C177.54 24.5418 176.731 24.4251 175.948 24.4251C174.965 24.4251 174.156 24.5501 173.523 24.8001C172.89 25.0501 172.423 25.3835 172.123 25.8001C171.84 26.2168 171.698 26.6835 171.698 27.2001C171.698 27.8168 171.89 28.3085 172.273 28.6751C172.673 29.0418 173.181 29.3335 173.798 29.5501C174.431 29.7668 175.123 29.9668 175.873 30.1501C176.623 30.3168 177.373 30.5085 178.123 30.7251C178.89 30.9418 179.581 31.2251 180.198 31.5751C180.831 31.9251 181.34 32.3918 181.723 32.9751C182.106 33.5585 182.298 34.3085 182.298 35.2251C182.298 36.1085 182.056 36.9335 181.573 37.7001C181.09 38.4501 180.34 39.0585 179.323 39.5251C178.323 39.9751 177.056 40.2001 175.523 40.2001ZM191.05 40.2001C189.717 40.2001 188.442 40.0001 187.225 39.6001C186.009 39.1835 185.05 38.6501 184.35 38.0001L185.275 36.0501C185.942 36.6335 186.792 37.1168 187.825 37.5001C188.859 37.8835 189.934 38.0751 191.05 38.0751C192.067 38.0751 192.892 37.9585 193.525 37.7251C194.159 37.4918 194.625 37.1751 194.925 36.7751C195.225 36.3585 195.375 35.8918 195.375 35.3751C195.375 34.7751 195.175 34.2918 194.775 33.9251C194.392 33.5585 193.884 33.2668 193.25 33.0501C192.634 32.8168 191.95 32.6168 191.2 32.4501C190.45 32.2835 189.692 32.0918 188.925 31.8751C188.175 31.6418 187.484 31.3501 186.85 31.0001C186.234 30.6501 185.734 30.1835 185.35 29.6001C184.967 29.0001 184.775 28.2335 184.775 27.3001C184.775 26.4001 185.009 25.5751 185.475 24.8251C185.959 24.0585 186.692 23.4501 187.675 23.0001C188.675 22.5335 189.942 22.3001 191.475 22.3001C192.492 22.3001 193.5 22.4335 194.5 22.7001C195.5 22.9668 196.367 23.3501 197.1 23.8501L196.275 25.8501C195.525 25.3501 194.734 24.9918 193.9 24.7751C193.067 24.5418 192.259 24.4251 191.475 24.4251C190.492 24.4251 189.684 24.5501 189.05 24.8001C188.417 25.0501 187.95 25.3835 187.65 25.8001C187.367 26.2168 187.225 26.6835 187.225 27.2001C187.225 27.8168 187.417 28.3085 187.8 28.6751C188.2 29.0418 188.709 29.3335 189.325 29.5501C189.959 29.7668 190.65 29.9668 191.4 30.1501C192.15 30.3168 192.9 30.5085 193.65 30.7251C194.417 30.9418 195.109 31.2251 195.725 31.5751C196.359 31.9251 196.867 32.3918 197.25 32.9751C197.634 33.5585 197.825 34.3085 197.825 35.2251C197.825 36.1085 197.584 36.9335 197.1 37.7001C196.617 38.4501 195.867 39.0585 194.85 39.5251C193.85 39.9751 192.584 40.2001 191.05 40.2001Z" fill="white"/>
<path d="M152.61 70.0001V59.9501L153.09 60.4601H150.135V59.5001H153.69V70.0001H152.61ZM160.505 70.0901C159.575 70.0901 158.79 69.8851 158.15 69.4751C157.51 69.0551 157.025 68.4551 156.695 67.6751C156.365 66.8851 156.2 65.9401 156.2 64.8401C156.2 63.6501 156.4 62.6551 156.8 61.8551C157.21 61.0451 157.775 60.4351 158.495 60.0251C159.215 59.6151 160.05 59.4101 161 59.4101C161.47 59.4101 161.92 59.4551 162.35 59.5451C162.78 59.6351 163.16 59.7801 163.49 59.9801L163.055 60.8501C162.785 60.6701 162.475 60.5451 162.125 60.4751C161.775 60.3951 161.405 60.3551 161.015 60.3551C159.885 60.3551 158.98 60.7151 158.3 61.4351C157.63 62.1551 157.295 63.2301 157.295 64.6601C157.295 64.8801 157.305 65.1551 157.325 65.4851C157.355 65.8051 157.415 66.1251 157.505 66.4451L157.13 66.1601C157.24 65.6401 157.455 65.2001 157.775 64.8401C158.095 64.4701 158.495 64.1901 158.975 64.0001C159.455 63.8101 159.98 63.7151 160.55 63.7151C161.25 63.7151 161.865 63.8451 162.395 64.1051C162.925 64.3651 163.34 64.7301 163.64 65.2001C163.94 65.6701 164.09 66.2251 164.09 66.8651C164.09 67.5151 163.935 68.0851 163.625 68.5751C163.315 69.0551 162.885 69.4301 162.335 69.7001C161.795 69.9601 161.185 70.0901 160.505 70.0901ZM160.46 69.1751C160.96 69.1751 161.4 69.0851 161.78 68.9051C162.17 68.7151 162.475 68.4501 162.695 68.1101C162.915 67.7601 163.025 67.3551 163.025 66.8951C163.025 66.2051 162.785 65.6551 162.305 65.2451C161.835 64.8351 161.195 64.6301 160.385 64.6301C159.845 64.6301 159.375 64.7301 158.975 64.9301C158.575 65.1301 158.26 65.4051 158.03 65.7551C157.8 66.0951 157.685 66.4851 157.685 66.9251C157.685 67.3051 157.79 67.6701 158 68.0201C158.21 68.3601 158.52 68.6401 158.93 68.8601C159.35 69.0701 159.86 69.1751 160.46 69.1751ZM170.031 72.9851C169.661 72.9851 169.306 72.9251 168.966 72.8051C168.636 72.6851 168.351 72.5051 168.111 72.2651L168.606 71.4701C168.806 71.6601 169.021 71.8051 169.251 71.9051C169.491 72.0151 169.756 72.0701 170.046 72.0701C170.396 72.0701 170.696 71.9701 170.946 71.7701C171.206 71.5801 171.451 71.2401 171.681 70.7501L172.191 69.5951L172.311 69.4301L175.551 62.1251H176.601L172.656 70.9451C172.436 71.4551 172.191 71.8601 171.921 72.1601C171.661 72.4601 171.376 72.6701 171.066 72.7901C170.756 72.9201 170.411 72.9851 170.031 72.9851ZM172.131 70.2251L168.501 62.1251H169.611L172.821 69.3551L172.131 70.2251ZM181.226 70.0751C180.406 70.0751 179.686 69.9051 179.066 69.5651C178.446 69.2151 177.961 68.7401 177.611 68.1401C177.261 67.5301 177.086 66.8351 177.086 66.0551C177.086 65.2751 177.251 64.5851 177.581 63.9851C177.921 63.3851 178.381 62.9151 178.961 62.5751C179.551 62.2251 180.211 62.0501 180.941 62.0501C181.681 62.0501 182.336 62.2201 182.906 62.5601C183.486 62.8901 183.941 63.3601 184.271 63.9701C184.601 64.5701 184.766 65.2651 184.766 66.0551C184.766 66.1051 184.761 66.1601 184.751 66.2201C184.751 66.2701 184.751 66.3251 184.751 66.3851H177.896V65.5901H184.181L183.761 65.9051C183.761 65.3351 183.636 64.8301 183.386 64.3901C183.146 63.9401 182.816 63.5901 182.396 63.3401C181.976 63.0901 181.491 62.9651 180.941 62.9651C180.401 62.9651 179.916 63.0901 179.486 63.3401C179.056 63.5901 178.721 63.9401 178.481 64.3901C178.241 64.8401 178.121 65.3551 178.121 65.9351V66.1001C178.121 66.7001 178.251 67.2301 178.511 67.6901C178.781 68.1401 179.151 68.4951 179.621 68.7551C180.101 69.0051 180.646 69.1301 181.256 69.1301C181.736 69.1301 182.181 69.0451 182.591 68.8751C183.011 68.7051 183.371 68.4451 183.671 68.0951L184.271 68.7851C183.921 69.2051 183.481 69.5251 182.951 69.7451C182.431 69.9651 181.856 70.0751 181.226 70.0751ZM191.649 70.0001V68.2601L191.604 67.9751V65.0651C191.604 64.3951 191.414 63.8801 191.034 63.5201C190.664 63.1601 190.109 62.9801 189.369 62.9801C188.859 62.9801 188.374 63.0651 187.914 63.2351C187.454 63.4051 187.064 63.6301 186.744 63.9101L186.264 63.1151C186.664 62.7751 187.144 62.5151 187.704 62.3351C188.264 62.1451 188.854 62.0501 189.474 62.0501C190.494 62.0501 191.279 62.3051 191.829 62.8151C192.389 63.3151 192.669 64.0801 192.669 65.1101V70.0001H191.649ZM188.934 70.0751C188.344 70.0751 187.829 69.9801 187.389 69.7901C186.959 69.5901 186.629 69.3201 186.399 68.9801C186.169 68.6301 186.054 68.2301 186.054 67.7801C186.054 67.3701 186.149 67.0001 186.339 66.6701C186.539 66.3301 186.859 66.0601 187.299 65.8601C187.749 65.6501 188.349 65.5451 189.099 65.5451H191.814V66.3401H189.129C188.369 66.3401 187.839 66.4751 187.539 66.7451C187.249 67.0151 187.104 67.3501 187.104 67.7501C187.104 68.2001 187.279 68.5601 187.629 68.8301C187.979 69.1001 188.469 69.2351 189.099 69.2351C189.699 69.2351 190.214 69.1001 190.644 68.8301C191.084 68.5501 191.404 68.1501 191.604 67.6301L191.844 68.3651C191.644 68.8851 191.294 69.3001 190.794 69.6101C190.304 69.9201 189.684 70.0751 188.934 70.0751ZM195.562 70.0001V62.1251H196.582V64.2701L196.477 63.8951C196.697 63.2951 197.067 62.8401 197.587 62.5301C198.107 62.2101 198.752 62.0501 199.522 62.0501V63.0851C199.482 63.0851 199.442 63.0851 199.402 63.0851C199.362 63.0751 199.322 63.0701 199.282 63.0701C198.452 63.0701 197.802 63.3251 197.332 63.8351C196.862 64.3351 196.627 65.0501 196.627 65.9801V70.0001H195.562ZM203.668 70.0751C203.018 70.0751 202.403 69.9851 201.823 69.8051C201.243 69.6151 200.788 69.3801 200.458 69.1001L200.938 68.2601C201.258 68.5001 201.668 68.7101 202.168 68.8901C202.668 69.0601 203.193 69.1451 203.743 69.1451C204.493 69.1451 205.033 69.0301 205.363 68.8001C205.693 68.5601 205.858 68.2451 205.858 67.8551C205.858 67.5651 205.763 67.3401 205.573 67.1801C205.393 67.0101 205.153 66.8851 204.853 66.8051C204.553 66.7151 204.218 66.6401 203.848 66.5801C203.478 66.5201 203.108 66.4501 202.738 66.3701C202.378 66.2901 202.048 66.1751 201.748 66.0251C201.448 65.8651 201.203 65.6501 201.013 65.3801C200.833 65.1101 200.743 64.7501 200.743 64.3001C200.743 63.8701 200.863 63.4851 201.103 63.1451C201.343 62.8051 201.693 62.5401 202.153 62.3501C202.623 62.1501 203.193 62.0501 203.863 62.0501C204.373 62.0501 204.883 62.1201 205.393 62.2601C205.903 62.3901 206.323 62.5651 206.653 62.7851L206.188 63.6401C205.838 63.4001 205.463 63.2301 205.063 63.1301C204.663 63.0201 204.263 62.9651 203.863 62.9651C203.153 62.9651 202.628 63.0901 202.288 63.3401C201.958 63.5801 201.793 63.8901 201.793 64.2701C201.793 64.5701 201.883 64.8051 202.063 64.9751C202.253 65.1451 202.498 65.2801 202.798 65.3801C203.108 65.4701 203.443 65.5451 203.803 65.6051C204.173 65.6651 204.538 65.7401 204.898 65.8301C205.268 65.9101 205.603 66.0251 205.903 66.1751C206.213 66.3151 206.458 66.5201 206.638 66.7901C206.828 67.0501 206.923 67.3951 206.923 67.8251C206.923 68.2851 206.793 68.6851 206.533 69.0251C206.283 69.3551 205.913 69.6151 205.423 69.8051C204.943 69.9851 204.358 70.0751 203.668 70.0751ZM216.013 70.0751C215.253 70.0751 214.568 69.9051 213.958 69.5651C213.358 69.2151 212.883 68.7401 212.533 68.1401C212.183 67.5301 212.008 66.8351 212.008 66.0551C212.008 65.2651 212.183 64.5701 212.533 63.9701C212.883 63.3701 213.358 62.9001 213.958 62.5601C214.558 62.2201 215.243 62.0501 216.013 62.0501C216.793 62.0501 217.483 62.2201 218.083 62.5601C218.693 62.9001 219.168 63.3701 219.508 63.9701C219.858 64.5701 220.033 65.2651 220.033 66.0551C220.033 66.8351 219.858 67.5301 219.508 68.1401C219.168 68.7401 218.693 69.2151 218.083 69.5651C217.473 69.9051 216.783 70.0751 216.013 70.0751ZM216.013 69.1301C216.583 69.1301 217.088 69.0051 217.528 68.7551C217.968 68.4951 218.313 68.1351 218.563 67.6751C218.823 67.2051 218.953 66.6651 218.953 66.0551C218.953 65.4351 218.823 64.8951 218.563 64.4351C218.313 63.9751 217.968 63.6201 217.528 63.3701C217.088 63.1101 216.588 62.9801 216.028 62.9801C215.468 62.9801 214.968 63.1101 214.528 63.3701C214.088 63.6201 213.738 63.9751 213.478 64.4351C213.218 64.8951 213.088 65.4351 213.088 66.0551C213.088 66.6651 213.218 67.2051 213.478 67.6751C213.738 68.1351 214.088 68.4951 214.528 68.7551C214.968 69.0051 215.463 69.1301 216.013 69.1301ZM222.208 70.0001V58.8701H223.273V70.0001H222.208ZM229.371 70.0751C228.621 70.0751 227.946 69.9051 227.346 69.5651C226.756 69.2251 226.291 68.7551 225.951 68.1551C225.611 67.5451 225.441 66.8451 225.441 66.0551C225.441 65.2551 225.611 64.5551 225.951 63.9551C226.291 63.3551 226.756 62.8901 227.346 62.5601C227.946 62.2201 228.621 62.0501 229.371 62.0501C230.061 62.0501 230.676 62.2051 231.216 62.5151C231.766 62.8251 232.201 63.2801 232.521 63.8801C232.851 64.4701 233.016 65.1951 233.016 66.0551C233.016 66.9051 232.856 67.6301 232.536 68.2301C232.216 68.8301 231.781 69.2901 231.231 69.6101C230.691 69.9201 230.071 70.0751 229.371 70.0751ZM229.446 69.1301C230.006 69.1301 230.506 69.0051 230.946 68.7551C231.396 68.4951 231.746 68.1351 231.996 67.6751C232.256 67.2051 232.386 66.6651 232.386 66.0551C232.386 65.4351 232.256 64.8951 231.996 64.4351C231.746 63.9751 231.396 63.6201 230.946 63.3701C230.506 63.1101 230.006 62.9801 229.446 62.9801C228.896 62.9801 228.401 63.1101 227.961 63.3701C227.521 63.6201 227.171 63.9751 226.911 64.4351C226.651 64.8951 226.521 65.4351 226.521 66.0551C226.521 66.6651 226.651 67.2051 226.911 67.6751C227.171 68.1351 227.521 68.4951 227.961 68.7551C228.401 69.0051 228.896 69.1301 229.446 69.1301ZM232.416 70.0001V67.6301L232.521 66.0401L232.371 64.4501V58.8701H233.436V70.0001H232.416ZM242.818 70.0751C242.078 70.0751 241.508 69.8751 241.108 69.4751C240.708 69.0751 240.508 68.5101 240.508 67.7801V60.3851H241.573V67.7201C241.573 68.1801 241.688 68.5351 241.918 68.7851C242.158 69.0351 242.498 69.1601 242.938 69.1601C243.408 69.1601 243.798 69.0251 244.108 68.7551L244.483 69.5201C244.273 69.7101 244.018 69.8501 243.718 69.9401C243.428 70.0301 243.128 70.0751 242.818 70.0751ZM239.098 63.0101V62.1251H243.973V63.0101H239.098ZM249.353 70.0751C248.593 70.0751 247.908 69.9051 247.298 69.5651C246.698 69.2151 246.223 68.7401 245.873 68.1401C245.523 67.5301 245.348 66.8351 245.348 66.0551C245.348 65.2651 245.523 64.5701 245.873 63.9701C246.223 63.3701 246.698 62.9001 247.298 62.5601C247.898 62.2201 248.583 62.0501 249.353 62.0501C250.133 62.0501 250.823 62.2201 251.423 62.5601C252.033 62.9001 252.508 63.3701 252.848 63.9701C253.198 64.5701 253.373 65.2651 253.373 66.0551C253.373 66.8351 253.198 67.5301 252.848 68.1401C252.508 68.7401 252.033 69.2151 251.423 69.5651C250.813 69.9051 250.123 70.0751 249.353 70.0751ZM249.353 69.1301C249.923 69.1301 250.428 69.0051 250.868 68.7551C251.308 68.4951 251.653 68.1351 251.903 67.6751C252.163 67.2051 252.293 66.6651 252.293 66.0551C252.293 65.4351 252.163 64.8951 251.903 64.4351C251.653 63.9751 251.308 63.6201 250.868 63.3701C250.428 63.1101 249.928 62.9801 249.368 62.9801C248.808 62.9801 248.308 63.1101 247.868 63.3701C247.428 63.6201 247.078 63.9751 246.818 64.4351C246.558 64.8951 246.428 65.4351 246.428 66.0551C246.428 66.6651 246.558 67.2051 246.818 67.6751C247.078 68.1351 247.428 68.4951 247.868 68.7551C248.308 69.0051 248.803 69.1301 249.353 69.1301ZM258.758 70.0751C257.998 70.0751 257.313 69.9051 256.703 69.5651C256.103 69.2151 255.628 68.7401 255.278 68.1401C254.928 67.5301 254.753 66.8351 254.753 66.0551C254.753 65.2651 254.928 64.5701 255.278 63.9701C255.628 63.3701 256.103 62.9001 256.703 62.5601C257.303 62.2201 257.988 62.0501 258.758 62.0501C259.538 62.0501 260.228 62.2201 260.828 62.5601C261.438 62.9001 261.913 63.3701 262.253 63.9701C262.603 64.5701 262.778 65.2651 262.778 66.0551C262.778 66.8351 262.603 67.5301 262.253 68.1401C261.913 68.7401 261.438 69.2151 260.828 69.5651C260.218 69.9051 259.528 70.0751 258.758 70.0751ZM258.758 69.1301C259.328 69.1301 259.833 69.0051 260.273 68.7551C260.713 68.4951 261.058 68.1351 261.308 67.6751C261.568 67.2051 261.698 66.6651 261.698 66.0551C261.698 65.4351 261.568 64.8951 261.308 64.4351C261.058 63.9751 260.713 63.6201 260.273 63.3701C259.833 63.1101 259.333 62.9801 258.773 62.9801C258.213 62.9801 257.713 63.1101 257.273 63.3701C256.833 63.6201 256.483 63.9751 256.223 64.4351C255.963 64.8951 255.833 65.4351 255.833 66.0551C255.833 66.6651 255.963 67.2051 256.223 67.6751C256.483 68.1351 256.833 68.4951 257.273 68.7551C257.713 69.0051 258.208 69.1301 258.758 69.1301ZM264.087 72.1901L264.747 69.4151L264.867 70.0601C264.637 70.0601 264.442 69.9851 264.282 69.8351C264.132 69.6851 264.057 69.4901 264.057 69.2501C264.057 69.0101 264.132 68.8151 264.282 68.6651C264.442 68.5151 264.632 68.4401 264.852 68.4401C265.082 68.4401 265.267 68.5201 265.407 68.6801C265.557 68.8401 265.632 69.0301 265.632 69.2501C265.632 69.3301 265.627 69.4101 265.617 69.4901C265.607 69.5701 265.587 69.6601 265.557 69.7601C265.527 69.8601 265.487 69.9801 265.437 70.1201L264.807 72.1901H264.087ZM275.182 70.0751C274.362 70.0751 273.642 69.9051 273.022 69.5651C272.402 69.2151 271.917 68.7401 271.567 68.1401C271.217 67.5301 271.042 66.8351 271.042 66.0551C271.042 65.2751 271.207 64.5851 271.537 63.9851C271.877 63.3851 272.337 62.9151 272.917 62.5751C273.507 62.2251 274.167 62.0501 274.897 62.0501C275.637 62.0501 276.292 62.2201 276.862 62.5601C277.442 62.8901 277.897 63.3601 278.227 63.9701C278.557 64.5701 278.722 65.2651 278.722 66.0551C278.722 66.1051 278.717 66.1601 278.707 66.2201C278.707 66.2701 278.707 66.3251 278.707 66.3851H271.852V65.5901H278.137L277.717 65.9051C277.717 65.3351 277.592 64.8301 277.342 64.3901C277.102 63.9401 276.772 63.5901 276.352 63.3401C275.932 63.0901 275.447 62.9651 274.897 62.9651C274.357 62.9651 273.872 63.0901 273.442 63.3401C273.012 63.5901 272.677 63.9401 272.437 64.3901C272.197 64.8401 272.077 65.3551 272.077 65.9351V66.1001C272.077 66.7001 272.207 67.2301 272.467 67.6901C272.737 68.1401 273.107 68.4951 273.577 68.7551C274.057 69.0051 274.602 69.1301 275.212 69.1301C275.692 69.1301 276.137 69.0451 276.547 68.8751C276.967 68.7051 277.327 68.4451 277.627 68.0951L278.227 68.7851C277.877 69.2051 277.437 69.5251 276.907 69.7451C276.387 69.9651 275.812 70.0751 275.182 70.0751ZM280.889 70.0001V62.1251H281.909V64.2851L281.744 63.8801C281.994 63.3101 282.394 62.8651 282.944 62.5451C283.494 62.2151 284.149 62.0501 284.909 62.0501C285.549 62.0501 286.109 62.1751 286.589 62.4251C287.079 62.6651 287.459 63.0351 287.729 63.5351C288.009 64.0351 288.149 64.6651 288.149 65.4251V70.0001H287.084V65.5301C287.084 64.7001 286.874 64.0751 286.454 63.6551C286.044 63.2251 285.464 63.0101 284.714 63.0101C284.154 63.0101 283.664 63.1251 283.244 63.3551C282.834 63.5751 282.514 63.9001 282.284 64.3301C282.064 64.7501 281.954 65.2601 281.954 65.8601V70.0001H280.889ZM294.161 70.0751C293.411 70.0751 292.736 69.9051 292.136 69.5651C291.546 69.2251 291.081 68.7551 290.741 68.1551C290.401 67.5451 290.231 66.8451 290.231 66.0551C290.231 65.2551 290.401 64.5551 290.741 63.9551C291.081 63.3551 291.546 62.8901 292.136 62.5601C292.736 62.2201 293.411 62.0501 294.161 62.0501C294.851 62.0501 295.466 62.2051 296.006 62.5151C296.556 62.8251 296.991 63.2801 297.311 63.8801C297.641 64.4701 297.806 65.1951 297.806 66.0551C297.806 66.9051 297.646 67.6301 297.326 68.2301C297.006 68.8301 296.571 69.2901 296.021 69.6101C295.481 69.9201 294.861 70.0751 294.161 70.0751ZM294.236 69.1301C294.796 69.1301 295.296 69.0051 295.736 68.7551C296.186 68.4951 296.536 68.1351 296.786 67.6751C297.046 67.2051 297.176 66.6651 297.176 66.0551C297.176 65.4351 297.046 64.8951 296.786 64.4351C296.536 63.9751 296.186 63.6201 295.736 63.3701C295.296 63.1101 294.796 62.9801 294.236 62.9801C293.686 62.9801 293.191 63.1101 292.751 63.3701C292.311 63.6201 291.961 63.9751 291.701 64.4351C291.441 64.8951 291.311 65.4351 291.311 66.0551C291.311 66.6651 291.441 67.2051 291.701 67.6751C291.961 68.1351 292.311 68.4951 292.751 68.7551C293.191 69.0051 293.686 69.1301 294.236 69.1301ZM297.206 70.0001V67.6301L297.311 66.0401L297.161 64.4501V58.8701H298.226V70.0001H297.206ZM301.192 70.0001V58.8701H302.257V70.0001H301.192ZM308.565 70.0751C307.745 70.0751 307.025 69.9051 306.405 69.5651C305.785 69.2151 305.3 68.7401 304.95 68.1401C304.6 67.5301 304.425 66.8351 304.425 66.0551C304.425 65.2751 304.59 64.5851 304.92 63.9851C305.26 63.3851 305.72 62.9151 306.3 62.5751C306.89 62.2251 307.55 62.0501 308.28 62.0501C309.02 62.0501 309.675 62.2201 310.245 62.5601C310.825 62.8901 311.28 63.3601 311.61 63.9701C311.94 64.5701 312.105 65.2651 312.105 66.0551C312.105 66.1051 312.1 66.1601 312.09 66.2201C312.09 66.2701 312.09 66.3251 312.09 66.3851H305.235V65.5901H311.52L311.1 65.9051C311.1 65.3351 310.975 64.8301 310.725 64.3901C310.485 63.9401 310.155 63.5901 309.735 63.3401C309.315 63.0901 308.83 62.9651 308.28 62.9651C307.74 62.9651 307.255 63.0901 306.825 63.3401C306.395 63.5901 306.06 63.9401 305.82 64.3901C305.58 64.8401 305.46 65.3551 305.46 65.9351V66.1001C305.46 66.7001 305.59 67.2301 305.85 67.6901C306.12 68.1401 306.49 68.4951 306.96 68.7551C307.44 69.0051 307.985 69.1301 308.595 69.1301C309.075 69.1301 309.52 69.0451 309.93 68.8751C310.35 68.7051 310.71 68.4451 311.01 68.0951L311.61 68.7851C311.26 69.2051 310.82 69.5251 310.29 69.7451C309.77 69.9651 309.195 70.0751 308.565 70.0751ZM316.388 70.0751C315.738 70.0751 315.123 69.9851 314.543 69.8051C313.963 69.6151 313.508 69.3801 313.178 69.1001L313.658 68.2601C313.978 68.5001 314.388 68.7101 314.888 68.8901C315.388 69.0601 315.913 69.1451 316.463 69.1451C317.213 69.1451 317.753 69.0301 318.083 68.8001C318.413 68.5601 318.578 68.2451 318.578 67.8551C318.578 67.5651 318.483 67.3401 318.293 67.1801C318.113 67.0101 317.873 66.8851 317.573 66.8051C317.273 66.7151 316.938 66.6401 316.568 66.5801C316.198 66.5201 315.828 66.4501 315.458 66.3701C315.098 66.2901 314.768 66.1751 314.468 66.0251C314.168 65.8651 313.923 65.6501 313.733 65.3801C313.553 65.1101 313.463 64.7501 313.463 64.3001C313.463 63.8701 313.583 63.4851 313.823 63.1451C314.063 62.8051 314.413 62.5401 314.873 62.3501C315.343 62.1501 315.913 62.0501 316.583 62.0501C317.093 62.0501 317.603 62.1201 318.113 62.2601C318.623 62.3901 319.043 62.5651 319.373 62.7851L318.908 63.6401C318.558 63.4001 318.183 63.2301 317.783 63.1301C317.383 63.0201 316.983 62.9651 316.583 62.9651C315.873 62.9651 315.348 63.0901 315.008 63.3401C314.678 63.5801 314.513 63.8901 314.513 64.2701C314.513 64.5701 314.603 64.8051 314.783 64.9751C314.973 65.1451 315.218 65.2801 315.518 65.3801C315.828 65.4701 316.163 65.5451 316.523 65.6051C316.893 65.6651 317.258 65.7401 317.618 65.8301C317.988 65.9101 318.323 66.0251 318.623 66.1751C318.933 66.3151 319.178 66.5201 319.358 66.7901C319.548 67.0501 319.643 67.3951 319.643 67.8251C319.643 68.2851 319.513 68.6851 319.253 69.0251C319.003 69.3551 318.633 69.6151 318.143 69.8051C317.663 69.9851 317.078 70.0751 316.388 70.0751ZM323.712 70.0751C323.062 70.0751 322.447 69.9851 321.867 69.8051C321.287 69.6151 320.832 69.3801 320.502 69.1001L320.982 68.2601C321.302 68.5001 321.712 68.7101 322.212 68.8901C322.712 69.0601 323.237 69.1451 323.787 69.1451C324.537 69.1451 325.077 69.0301 325.407 68.8001C325.737 68.5601 325.902 68.2451 325.902 67.8551C325.902 67.5651 325.807 67.3401 325.617 67.1801C325.437 67.0101 325.197 66.8851 324.897 66.8051C324.597 66.7151 324.262 66.6401 323.892 66.5801C323.522 66.5201 323.152 66.4501 322.782 66.3701C322.422 66.2901 322.092 66.1751 321.792 66.0251C321.492 65.8651 321.247 65.6501 321.057 65.3801C320.877 65.1101 320.787 64.7501 320.787 64.3001C320.787 63.8701 320.907 63.4851 321.147 63.1451C321.387 62.8051 321.737 62.5401 322.197 62.3501C322.667 62.1501 323.237 62.0501 323.907 62.0501C324.417 62.0501 324.927 62.1201 325.437 62.2601C325.947 62.3901 326.367 62.5651 326.697 62.7851L326.232 63.6401C325.882 63.4001 325.507 63.2301 325.107 63.1301C324.707 63.0201 324.307 62.9651 323.907 62.9651C323.197 62.9651 322.672 63.0901 322.332 63.3401C322.002 63.5801 321.837 63.8901 321.837 64.2701C321.837 64.5701 321.927 64.8051 322.107 64.9751C322.297 65.1451 322.542 65.2801 322.842 65.3801C323.152 65.4701 323.487 65.5451 323.847 65.6051C324.217 65.6651 324.582 65.7401 324.942 65.8301C325.312 65.9101 325.647 66.0251 325.947 66.1751C326.257 66.3151 326.502 66.5201 326.682 66.7901C326.872 67.0501 326.967 67.3951 326.967 67.8251C326.967 68.2851 326.837 68.6851 326.577 69.0251C326.327 69.3551 325.957 69.6151 325.467 69.8051C324.987 69.9851 324.402 70.0751 323.712 70.0751ZM151.485 88.0001V76.8701H152.55V88.0001H151.485ZM158.858 88.0751C158.038 88.0751 157.318 87.9051 156.698 87.5651C156.078 87.2151 155.593 86.7401 155.243 86.1401C154.893 85.5301 154.718 84.8351 154.718 84.0551C154.718 83.2751 154.883 82.5851 155.213 81.9851C155.553 81.3851 156.013 80.9151 156.593 80.5751C157.183 80.2251 157.843 80.0501 158.573 80.0501C159.313 80.0501 159.968 80.2201 160.538 80.5601C161.118 80.8901 161.573 81.3601 161.903 81.9701C162.233 82.5701 162.398 83.2651 162.398 84.0551C162.398 84.1051 162.393 84.1601 162.383 84.2201C162.383 84.2701 162.383 84.3251 162.383 84.3851H155.528V83.5901H161.813L161.393 83.9051C161.393 83.3351 161.268 82.8301 161.018 82.3901C160.778 81.9401 160.448 81.5901 160.028 81.3401C159.608 81.0901 159.123 80.9651 158.573 80.9651C158.033 80.9651 157.548 81.0901 157.118 81.3401C156.688 81.5901 156.353 81.9401 156.113 82.3901C155.873 82.8401 155.753 83.3551 155.753 83.9351V84.1001C155.753 84.7001 155.883 85.2301 156.143 85.6901C156.413 86.1401 156.783 86.4951 157.253 86.7551C157.733 87.0051 158.278 87.1301 158.888 87.1301C159.368 87.1301 159.813 87.0451 160.223 86.8751C160.643 86.7051 161.003 86.4451 161.303 86.0951L161.903 86.7851C161.553 87.2051 161.113 87.5251 160.583 87.7451C160.063 87.9651 159.488 88.0751 158.858 88.0751ZM169.281 88.0001V86.2601L169.236 85.9751V83.0651C169.236 82.3951 169.046 81.8801 168.666 81.5201C168.296 81.1601 167.741 80.9801 167.001 80.9801C166.491 80.9801 166.006 81.0651 165.546 81.2351C165.086 81.4051 164.696 81.6301 164.376 81.9101L163.896 81.1151C164.296 80.7751 164.776 80.5151 165.336 80.3351C165.896 80.1451 166.486 80.0501 167.106 80.0501C168.126 80.0501 168.911 80.3051 169.461 80.8151C170.021 81.3151 170.301 82.0801 170.301 83.1101V88.0001H169.281ZM166.566 88.0751C165.976 88.0751 165.461 87.9801 165.021 87.7901C164.591 87.5901 164.261 87.3201 164.031 86.9801C163.801 86.6301 163.686 86.2301 163.686 85.7801C163.686 85.3701 163.781 85.0001 163.971 84.6701C164.171 84.3301 164.491 84.0601 164.931 83.8601C165.381 83.6501 165.981 83.5451 166.731 83.5451H169.446V84.3401H166.761C166.001 84.3401 165.471 84.4751 165.171 84.7451C164.881 85.0151 164.736 85.3501 164.736 85.7501C164.736 86.2001 164.911 86.5601 165.261 86.8301C165.611 87.1001 166.101 87.2351 166.731 87.2351C167.331 87.2351 167.846 87.1001 168.276 86.8301C168.716 86.5501 169.036 86.1501 169.236 85.6301L169.476 86.3651C169.276 86.8851 168.926 87.3001 168.426 87.6101C167.936 87.9201 167.316 88.0751 166.566 88.0751ZM173.194 88.0001V80.1251H174.214V82.2701L174.109 81.8951C174.329 81.2951 174.699 80.8401 175.219 80.5301C175.739 80.2101 176.384 80.0501 177.154 80.0501V81.0851C177.114 81.0851 177.074 81.0851 177.034 81.0851C176.994 81.0751 176.954 81.0701 176.914 81.0701C176.084 81.0701 175.434 81.3251 174.964 81.8351C174.494 82.3351 174.259 83.0501 174.259 83.9801V88.0001H173.194ZM179.097 88.0001V80.1251H180.117V82.2851L179.952 81.8801C180.202 81.3101 180.602 80.8651 181.152 80.5451C181.702 80.2151 182.357 80.0501 183.117 80.0501C183.757 80.0501 184.317 80.1751 184.797 80.4251C185.287 80.6651 185.667 81.0351 185.937 81.5351C186.217 82.0351 186.357 82.6651 186.357 83.4251V88.0001H185.292V83.5301C185.292 82.7001 185.082 82.0751 184.662 81.6551C184.252 81.2251 183.672 81.0101 182.922 81.0101C182.362 81.0101 181.872 81.1251 181.452 81.3551C181.042 81.5751 180.722 81.9001 180.492 82.3301C180.272 82.7501 180.162 83.2601 180.162 83.8601V88.0001H179.097ZM189.234 88.0001V80.1251H190.299V88.0001H189.234ZM189.774 78.3851C189.554 78.3851 189.369 78.3101 189.219 78.1601C189.069 78.0101 188.994 77.8301 188.994 77.6201C188.994 77.4101 189.069 77.2351 189.219 77.0951C189.369 76.9451 189.554 76.8701 189.774 76.8701C189.994 76.8701 190.179 76.9401 190.329 77.0801C190.479 77.2201 190.554 77.3951 190.554 77.6051C190.554 77.8251 190.479 78.0101 190.329 78.1601C190.189 78.3101 190.004 78.3851 189.774 78.3851ZM193.262 88.0001V80.1251H194.282V82.2851L194.117 81.8801C194.367 81.3101 194.767 80.8651 195.317 80.5451C195.867 80.2151 196.522 80.0501 197.282 80.0501C197.922 80.0501 198.482 80.1751 198.962 80.4251C199.452 80.6651 199.832 81.0351 200.102 81.5351C200.382 82.0351 200.522 82.6651 200.522 83.4251V88.0001H199.457V83.5301C199.457 82.7001 199.247 82.0751 198.827 81.6551C198.417 81.2251 197.837 81.0101 197.087 81.0101C196.527 81.0101 196.037 81.1251 195.617 81.3551C195.207 81.5751 194.887 81.9001 194.657 82.3301C194.437 82.7501 194.327 83.2601 194.327 83.8601V88.0001H193.262ZM206.759 90.9851C206.039 90.9851 205.349 90.8801 204.689 90.6701C204.029 90.4601 203.494 90.1601 203.084 89.7701L203.624 88.9601C203.994 89.2901 204.449 89.5501 204.989 89.7401C205.539 89.9401 206.119 90.0401 206.729 90.0401C207.729 90.0401 208.464 89.8051 208.934 89.3351C209.404 88.8751 209.639 88.1551 209.639 87.1751V85.2101L209.789 83.8601L209.684 82.5101V80.1251H210.704V87.0401C210.704 88.4001 210.369 89.3951 209.699 90.0251C209.039 90.6651 208.059 90.9851 206.759 90.9851ZM206.564 87.7001C205.814 87.7001 205.139 87.5401 204.539 87.2201C203.939 86.8901 203.464 86.4351 203.114 85.8551C202.774 85.2751 202.604 84.6101 202.604 83.8601C202.604 83.1101 202.774 82.4501 203.114 81.8801C203.464 81.3001 203.939 80.8501 204.539 80.5301C205.139 80.2101 205.814 80.0501 206.564 80.0501C207.264 80.0501 207.894 80.1951 208.454 80.4851C209.014 80.7751 209.459 81.2051 209.789 81.7751C210.119 82.3451 210.284 83.0401 210.284 83.8601C210.284 84.6801 210.119 85.3751 209.789 85.9451C209.459 86.5151 209.014 86.9501 208.454 87.2501C207.894 87.5501 207.264 87.7001 206.564 87.7001ZM206.669 86.7551C207.249 86.7551 207.764 86.6351 208.214 86.3951C208.664 86.1451 209.019 85.8051 209.279 85.3751C209.539 84.9351 209.669 84.4301 209.669 83.8601C209.669 83.2901 209.539 82.7901 209.279 82.3601C209.019 81.9301 208.664 81.5951 208.214 81.3551C207.764 81.1051 207.249 80.9801 206.669 80.9801C206.099 80.9801 205.584 81.1051 205.124 81.3551C204.674 81.5951 204.319 81.9301 204.059 82.3601C203.809 82.7901 203.684 83.2901 203.684 83.8601C203.684 84.4301 203.809 84.9351 204.059 85.3751C204.319 85.8051 204.674 86.1451 205.124 86.3951C205.584 86.6351 206.099 86.7551 206.669 86.7551ZM213.023 90.1901L213.683 87.4151L213.803 88.0601C213.573 88.0601 213.378 87.9851 213.218 87.8351C213.068 87.6851 212.993 87.4901 212.993 87.2501C212.993 87.0101 213.068 86.8151 213.218 86.6651C213.378 86.5151 213.568 86.4401 213.788 86.4401C214.018 86.4401 214.203 86.5201 214.343 86.6801C214.493 86.8401 214.568 87.0301 214.568 87.2501C214.568 87.3301 214.563 87.4101 214.553 87.4901C214.543 87.5701 214.523 87.6601 214.493 87.7601C214.463 87.8601 214.423 87.9801 214.373 88.1201L213.743 90.1901H213.023ZM220.997 88.0001V77.5001H222.107V88.0001H220.997ZM229.224 88.0001V76.8701H230.289V88.0001H229.224ZM236.463 88.0751C235.703 88.0751 235.018 87.9051 234.408 87.5651C233.808 87.2151 233.333 86.7401 232.983 86.1401C232.633 85.5301 232.458 84.8351 232.458 84.0551C232.458 83.2651 232.633 82.5701 232.983 81.9701C233.333 81.3701 233.808 80.9001 234.408 80.5601C235.008 80.2201 235.693 80.0501 236.463 80.0501C237.243 80.0501 237.933 80.2201 238.533 80.5601C239.143 80.9001 239.618 81.3701 239.958 81.9701C240.308 82.5701 240.483 83.2651 240.483 84.0551C240.483 84.8351 240.308 85.5301 239.958 86.1401C239.618 86.7401 239.143 87.2151 238.533 87.5651C237.923 87.9051 237.233 88.0751 236.463 88.0751ZM236.463 87.1301C237.033 87.1301 237.538 87.0051 237.978 86.7551C238.418 86.4951 238.763 86.1351 239.013 85.6751C239.273 85.2051 239.403 84.6651 239.403 84.0551C239.403 83.4351 239.273 82.8951 239.013 82.4351C238.763 81.9751 238.418 81.6201 237.978 81.3701C237.538 81.1101 237.038 80.9801 236.478 80.9801C235.918 80.9801 235.418 81.1101 234.978 81.3701C234.538 81.6201 234.188 81.9751 233.928 82.4351C233.668 82.8951 233.538 83.4351 233.538 84.0551C233.538 84.6651 233.668 85.2051 233.928 85.6751C234.188 86.1351 234.538 86.4951 234.978 86.7551C235.418 87.0051 235.913 87.1301 236.463 87.1301ZM244.462 88.0001L240.967 80.1251H242.077L245.287 87.4301H244.762L248.017 80.1251H249.067L245.557 88.0001H244.462ZM253.692 88.0751C252.872 88.0751 252.152 87.9051 251.532 87.5651C250.912 87.2151 250.427 86.7401 250.077 86.1401C249.727 85.5301 249.552 84.8351 249.552 84.0551C249.552 83.2751 249.717 82.5851 250.047 81.9851C250.387 81.3851 250.847 80.9151 251.427 80.5751C252.017 80.2251 252.677 80.0501 253.407 80.0501C254.147 80.0501 254.802 80.2201 255.372 80.5601C255.952 80.8901 256.407 81.3601 256.737 81.9701C257.067 82.5701 257.232 83.2651 257.232 84.0551C257.232 84.1051 257.227 84.1601 257.217 84.2201C257.217 84.2701 257.217 84.3251 257.217 84.3851H250.362V83.5901H256.647L256.227 83.9051C256.227 83.3351 256.102 82.8301 255.852 82.3901C255.612 81.9401 255.282 81.5901 254.862 81.3401C254.442 81.0901 253.957 80.9651 253.407 80.9651C252.867 80.9651 252.382 81.0901 251.952 81.3401C251.522 81.5901 251.187 81.9401 250.947 82.3901C250.707 82.8401 250.587 83.3551 250.587 83.9351V84.1001C250.587 84.7001 250.717 85.2301 250.977 85.6901C251.247 86.1401 251.617 86.4951 252.087 86.7551C252.567 87.0051 253.112 87.1301 253.722 87.1301C254.202 87.1301 254.647 87.0451 255.057 86.8751C255.477 86.7051 255.837 86.4451 256.137 86.0951L256.737 86.7851C256.387 87.2051 255.947 87.5251 255.417 87.7451C254.897 87.9651 254.322 88.0751 253.692 88.0751ZM265.816 88.0751C265.076 88.0751 264.506 87.8751 264.106 87.4751C263.706 87.0751 263.506 86.5101 263.506 85.7801V78.3851H264.571V85.7201C264.571 86.1801 264.686 86.5351 264.916 86.7851C265.156 87.0351 265.496 87.1601 265.936 87.1601C266.406 87.1601 266.796 87.0251 267.106 86.7551L267.481 87.5201C267.271 87.7101 267.016 87.8501 266.716 87.9401C266.426 88.0301 266.126 88.0751 265.816 88.0751ZM262.096 81.0101V80.1251H266.971V81.0101H262.096ZM269.42 88.0001V76.8701H270.485V82.2851L270.275 81.8801C270.525 81.3101 270.925 80.8651 271.475 80.5451C272.025 80.2151 272.68 80.0501 273.44 80.0501C274.08 80.0501 274.64 80.1751 275.12 80.4251C275.61 80.6651 275.99 81.0351 276.26 81.5351C276.54 82.0351 276.68 82.6651 276.68 83.4251V88.0001H275.615V83.5301C275.615 82.7001 275.405 82.0751 274.985 81.6551C274.575 81.2251 273.995 81.0101 273.245 81.0101C272.685 81.0101 272.195 81.1251 271.775 81.3551C271.365 81.5751 271.045 81.9001 270.815 82.3301C270.595 82.7501 270.485 83.2601 270.485 83.8601V88.0001H269.42ZM279.556 88.0001V80.1251H280.621V88.0001H279.556ZM280.096 78.3851C279.876 78.3851 279.691 78.3101 279.541 78.1601C279.391 78.0101 279.316 77.8301 279.316 77.6201C279.316 77.4101 279.391 77.2351 279.541 77.0951C279.691 76.9451 279.876 76.8701 280.096 76.8701C280.316 76.8701 280.501 76.9401 280.651 77.0801C280.801 77.2201 280.876 77.3951 280.876 77.6051C280.876 77.8251 280.801 78.0101 280.651 78.1601C280.511 78.3101 280.326 78.3851 280.096 78.3851ZM285.7 88.0751C285.05 88.0751 284.435 87.9851 283.855 87.8051C283.275 87.6151 282.82 87.3801 282.49 87.1001L282.97 86.2601C283.29 86.5001 283.7 86.7101 284.2 86.8901C284.7 87.0601 285.225 87.1451 285.775 87.1451C286.525 87.1451 287.065 87.0301 287.395 86.8001C287.725 86.5601 287.89 86.2451 287.89 85.8551C287.89 85.5651 287.795 85.3401 287.605 85.1801C287.425 85.0101 287.185 84.8851 286.885 84.8051C286.585 84.7151 286.25 84.6401 285.88 84.5801C285.51 84.5201 285.14 84.4501 284.77 84.3701C284.41 84.2901 284.08 84.1751 283.78 84.0251C283.48 83.8651 283.235 83.6501 283.045 83.3801C282.865 83.1101 282.775 82.7501 282.775 82.3001C282.775 81.8701 282.895 81.4851 283.135 81.1451C283.375 80.8051 283.725 80.5401 284.185 80.3501C284.655 80.1501 285.225 80.0501 285.895 80.0501C286.405 80.0501 286.915 80.1201 287.425 80.2601C287.935 80.3901 288.355 80.5651 288.685 80.7851L288.22 81.6401C287.87 81.4001 287.495 81.2301 287.095 81.1301C286.695 81.0201 286.295 80.9651 285.895 80.9651C285.185 80.9651 284.66 81.0901 284.32 81.3401C283.99 81.5801 283.825 81.8901 283.825 82.2701C283.825 82.5701 283.915 82.8051 284.095 82.9751C284.285 83.1451 284.53 83.2801 284.83 83.3801C285.14 83.4701 285.475 83.5451 285.835 83.6051C286.205 83.6651 286.57 83.7401 286.93 83.8301C287.3 83.9101 287.635 84.0251 287.935 84.1751C288.245 84.3151 288.49 84.5201 288.67 84.7901C288.86 85.0501 288.955 85.3951 288.955 85.8251C288.955 86.2851 288.825 86.6851 288.565 87.0251C288.315 87.3551 287.945 87.6151 287.455 87.8051C286.975 87.9851 286.39 88.0751 285.7 88.0751ZM291.014 88.0751C290.794 88.0751 290.604 87.9951 290.444 87.8351C290.294 87.6751 290.219 87.4801 290.219 87.2501C290.219 87.0101 290.294 86.8151 290.444 86.6651C290.604 86.5151 290.794 86.4401 291.014 86.4401C291.234 86.4401 291.419 86.5151 291.569 86.6651C291.729 86.8151 291.809 87.0101 291.809 87.2501C291.809 87.4801 291.729 87.6751 291.569 87.8351C291.419 87.9951 291.234 88.0751 291.014 88.0751ZM296.558 88.0001L301.358 77.5001H302.453L307.253 88.0001H306.083L301.673 78.1451H302.123L297.713 88.0001H296.558ZM298.448 85.1951L298.778 84.2951H304.883L305.213 85.1951H298.448ZM312.691 88.0001V76.8701H313.756V88.0001H312.691ZM319.929 88.0751C319.169 88.0751 318.484 87.9051 317.874 87.5651C317.274 87.2151 316.799 86.7401 316.449 86.1401C316.099 85.5301 315.924 84.8351 315.924 84.0551C315.924 83.2651 316.099 82.5701 316.449 81.9701C316.799 81.3701 317.274 80.9001 317.874 80.5601C318.474 80.2201 319.159 80.0501 319.929 80.0501C320.709 80.0501 321.399 80.2201 321.999 80.5601C322.609 80.9001 323.084 81.3701 323.424 81.9701C323.774 82.5701 323.949 83.2651 323.949 84.0551C323.949 84.8351 323.774 85.5301 323.424 86.1401C323.084 86.7401 322.609 87.2151 321.999 87.5651C321.389 87.9051 320.699 88.0751 319.929 88.0751ZM319.929 87.1301C320.499 87.1301 321.004 87.0051 321.444 86.7551C321.884 86.4951 322.229 86.1351 322.479 85.6751C322.739 85.2051 322.869 84.6651 322.869 84.0551C322.869 83.4351 322.739 82.8951 322.479 82.4351C322.229 81.9751 321.884 81.6201 321.444 81.3701C321.004 81.1101 320.504 80.9801 319.944 80.9801C319.384 80.9801 318.884 81.1101 318.444 81.3701C318.004 81.6201 317.654 81.9751 317.394 82.4351C317.134 82.8951 317.004 83.4351 317.004 84.0551C317.004 84.6651 317.134 85.2051 317.394 85.6751C317.654 86.1351 318.004 86.4951 318.444 86.7551C318.884 87.0051 319.379 87.1301 319.929 87.1301ZM328.614 88.0751C327.874 88.0751 327.304 87.8751 326.904 87.4751C326.504 87.0751 326.304 86.5101 326.304 85.7801V78.3851H327.369V85.7201C327.369 86.1801 327.484 86.5351 327.714 86.7851C327.954 87.0351 328.294 87.1601 328.734 87.1601C329.204 87.1601 329.594 87.0251 329.904 86.7551L330.279 87.5201C330.069 87.7101 329.814 87.8501 329.514 87.9401C329.224 88.0301 328.924 88.0751 328.614 88.0751ZM324.894 81.0101V80.1251H329.769V81.0101H324.894ZM332.469 88.0751C332.249 88.0751 332.059 87.9951 331.899 87.8351C331.749 87.6751 331.674 87.4801 331.674 87.2501C331.674 87.0101 331.749 86.8151 331.899 86.6651C332.059 86.5151 332.249 86.4401 332.469 86.4401C332.689 86.4401 332.874 86.5151 333.024 86.6651C333.184 86.8151 333.264 87.0101 333.264 87.2501C333.264 87.4801 333.184 87.6751 333.024 87.8351C332.874 87.9951 332.689 88.0751 332.469 88.0751Z" fill="white" fill-opacity="0.75"/>
<defs>
<clipPath id="clip0_50_3464">
<rect width="100" height="100" fill="white" transform="translate(25 25.0001)"/>
</clipPath>
</defs>
</svg>
