<svg width="400" height="150" viewBox="0 0 400 150" fill="none" xmlns="http://www.w3.org/2000/svg">
<mask id="path-1-inside-1_50_3445" fill="white">
<path d="M0 5.00013C0 2.2387 2.23858 0.00012207 5 0.00012207H395C397.761 0.00012207 400 2.2387 400 5.00012V147C400 148.657 398.657 150 397 150H3C1.34314 150 0 148.657 0 147V5.00013Z"/>
</mask>
<path d="M0 5.00013C0 2.2387 2.23858 0.00012207 5 0.00012207H395C397.761 0.00012207 400 2.2387 400 5.00012V147C400 148.657 398.657 150 397 150H3C1.34314 150 0 148.657 0 147V5.00013Z" fill="#333333"/>
<path d="M0 0.00012207H400H0ZM400 147C400 150.314 397.314 153 394 153H6C2.68629 153 0 150.314 0 147C0 147 1.34315 147 3 147H397C398.657 147 400 147 400 147ZM0 150V0.00012207V150ZM400 0.00012207V150V0.00012207Z" fill="#FFCD42" mask="url(#path-1-inside-1_50_3445)"/>
<g clip-path="url(#clip0_50_3445)">
<path d="M75.0021 84.2112C80.1545 84.2112 84.3314 80.0344 84.3314 74.882C84.3314 69.7296 80.1545 65.5527 75.0021 65.5527C69.8497 65.5527 65.6729 69.7296 65.6729 74.882C65.6729 80.0344 69.8497 84.2112 75.0021 84.2112Z" fill="#00D8FF"/>
<path fill-rule="evenodd" clip-rule="evenodd" d="M75.6875 55.2172C91.5939 55.3255 108.948 56.4859 120.861 67.1089C121.211 67.4214 121.548 67.7464 121.877 68.0818C124.688 70.9464 126.157 75.5715 123.888 79.3777C119.234 87.1924 108.825 90.6007 98.7481 92.6987C83.6772 95.8362 67.9187 95.8612 52.8541 93.0987C44.1852 91.507 35.3206 88.7174 29.1601 82.8819C26.7622 80.6111 24.7122 77.6236 25.033 74.2985C25.5539 68.9193 30.7143 65.4672 35.0581 63.1297C47.1228 56.638 61.8229 55.1859 75.6875 55.2172ZM74.5334 57.6609C59.4833 57.763 43.1936 58.7234 31.5727 68.3464C31.1664 68.6818 30.7747 69.0339 30.3977 69.4027C30.1539 69.6402 29.9185 69.8881 29.6914 70.1423C27.6518 72.4339 26.9497 76.1152 28.8747 78.8673C30.8122 81.6361 33.7539 83.634 36.7831 85.2632C48.1124 91.3549 61.4999 92.4362 74.5521 92.482C87.7668 92.5299 101.394 91.3257 113.067 85.2903C117.717 82.884 122.95 79.3507 122.765 74.8006C122.594 70.6256 118.523 68.0464 115.475 66.2047C114.65 65.7068 113.802 65.2464 112.942 64.8131C101.354 59.0068 87.7751 57.6318 74.5334 57.6609Z" fill="#00D8FF"/>
<path fill-rule="evenodd" clip-rule="evenodd" d="M96.0731 30.6066C101.892 30.7545 104.906 37.7504 105.304 42.9171C105.384 43.9442 105.413 44.9755 105.4 46.0067C105.388 47.1234 105.327 48.2401 105.229 49.3526C104.002 63.1277 97.7127 76.2465 90.3064 88.3612C83.0626 100.211 74.2292 112.028 62.2125 117.52C58.2395 119.336 53.5145 120.457 49.9978 118.43C45.1769 115.653 44.6498 109.157 44.7394 104.23C44.7623 103.02 44.8415 101.809 44.9665 100.603C46.8186 82.7695 55.8582 65.8756 67.1708 51.3213C73.7709 42.8296 81.623 34.4066 91.4043 31.3566C92.9439 30.8754 94.1668 30.5837 96.0731 30.6066ZM95.7939 33.0483C88.9626 33.1566 82.8293 38.2192 77.398 43.4796C63.1187 57.3068 52.5957 75.6965 48.3624 94.982C48.0353 96.4758 47.7603 97.98 47.5582 99.4946C47.4019 100.667 47.2874 101.847 47.2269 103.03C47.179 103.972 47.1624 104.915 47.1915 105.859C47.2124 106.597 47.2603 107.334 47.3415 108.068C47.4019 108.628 47.4832 109.186 47.5853 109.74C47.6624 110.151 47.7519 110.559 47.8561 110.965C47.9415 111.295 48.0374 111.622 48.1457 111.947C48.9978 114.515 51.1936 116.97 54.1416 117.051C61.0187 117.238 67.4937 112.224 73.0917 106.774C82.9188 97.2091 90.2418 85.1903 95.9627 72.5569C100.579 62.3568 104.802 51.2692 102.444 40.0421C102.354 39.6171 102.25 39.1962 102.131 38.7796C102.034 38.44 101.923 38.1046 101.802 37.7733C100.886 35.2754 98.7294 33.042 95.7939 33.0483Z" fill="#00D8FF"/>
<path fill-rule="evenodd" clip-rule="evenodd" d="M54.3936 30.6983C61.8187 30.8421 68.4875 35.8817 74.4084 41.5255C85.2126 51.8234 93.1814 64.9235 99.2273 78.7111C103.911 89.3924 108.219 101.382 104.39 112.653C103.184 116.205 100.131 119.455 96.0627 119.538C88.6022 119.688 81.6876 114.263 75.6875 108.424C60.6354 93.7696 49.4603 74.4236 45.6311 53.9068C45.3561 52.4401 45.1373 50.9609 44.9873 49.4755C44.8644 48.263 44.7873 47.0442 44.7665 45.8255C44.7498 44.8421 44.7707 43.8588 44.8394 42.8796C44.8852 42.2255 44.9519 41.5755 45.0415 40.9275C45.1269 40.3192 45.2352 39.7129 45.3707 39.1129C45.4602 38.715 45.5602 38.3213 45.6748 37.9296C46.7978 34.09 49.7186 30.6691 54.3936 30.6983ZM54.1124 33.1421C49.7644 33.2379 47.7748 38.365 47.3748 41.963C47.2936 42.7005 47.2436 43.4442 47.2207 44.188C47.1915 45.138 47.204 46.0901 47.2519 47.0401C47.9353 60.7881 54.0811 74.0798 61.4979 86.2508C68.4812 97.7092 76.9146 109.122 88.5147 114.988C91.8647 116.682 95.9356 118.013 98.8294 116.413C102.459 114.405 102.904 109.62 103.098 106.053C103.15 105.082 103.156 104.107 103.125 103.134C103.088 101.913 102.992 100.695 102.848 99.4821C101.511 88.1549 96.4939 77.4361 90.7314 67.3069C83.5605 54.7068 74.775 42.1484 62.3416 35.5879C59.7666 34.2296 56.9791 33.1192 54.1124 33.1421Z" fill="#00D8FF"/>
</g>
<path d="M152.625 40.0001V22.5001H159.45C161.717 22.5001 163.5 23.0418 164.8 24.1251C166.1 25.1918 166.75 26.6835 166.75 28.6001C166.75 29.8668 166.458 30.9585 165.875 31.8751C165.292 32.7751 164.458 33.4668 163.375 33.9501C162.292 34.4335 160.983 34.6751 159.45 34.6751H154L155.125 33.5251V40.0001H152.625ZM164.325 40.0001L159.875 33.6501H162.55L167.05 40.0001H164.325ZM155.125 33.7751L154 32.5501H159.375C160.975 32.5501 162.183 32.2085 163 31.5251C163.833 30.8251 164.25 29.8501 164.25 28.6001C164.25 27.3501 163.833 26.3835 163 25.7001C162.183 25.0168 160.975 24.6751 159.375 24.6751H154L155.125 23.4251V33.7751ZM176.339 40.1501C174.922 40.1501 173.672 39.8585 172.589 39.2751C171.522 38.6918 170.689 37.8918 170.089 36.8751C169.506 35.8585 169.214 34.6918 169.214 33.3751C169.214 32.0585 169.497 30.8918 170.064 29.8751C170.647 28.8585 171.439 28.0668 172.439 27.5001C173.456 26.9168 174.597 26.6251 175.864 26.6251C177.147 26.6251 178.281 26.9085 179.264 27.4751C180.247 28.0418 181.014 28.8418 181.564 29.8751C182.131 30.8918 182.414 32.0835 182.414 33.4501C182.414 33.5501 182.406 33.6668 182.389 33.8001C182.389 33.9335 182.381 34.0585 182.364 34.1751H171.089V32.4501H181.114L180.139 33.0501C180.156 32.2001 179.981 31.4418 179.614 30.7751C179.247 30.1085 178.739 29.5918 178.089 29.2251C177.456 28.8418 176.714 28.6501 175.864 28.6501C175.031 28.6501 174.289 28.8418 173.639 29.2251C172.989 29.5918 172.481 30.1168 172.114 30.8001C171.747 31.4668 171.564 32.2335 171.564 33.1001V33.5001C171.564 34.3835 171.764 35.1751 172.164 35.8751C172.581 36.5585 173.156 37.0918 173.889 37.4751C174.622 37.8585 175.464 38.0501 176.414 38.0501C177.197 38.0501 177.906 37.9168 178.539 37.6501C179.189 37.3835 179.756 36.9835 180.239 36.4501L181.564 38.0001C180.964 38.7001 180.214 39.2335 179.314 39.6001C178.431 39.9668 177.439 40.1501 176.339 40.1501ZM193.605 40.0001V37.2001L193.48 36.6751V31.9001C193.48 30.8835 193.18 30.1001 192.58 29.5501C191.997 28.9835 191.114 28.7001 189.93 28.7001C189.147 28.7001 188.38 28.8335 187.63 29.1001C186.88 29.3501 186.247 29.6918 185.73 30.1251L184.73 28.3251C185.414 27.7751 186.23 27.3585 187.18 27.0751C188.147 26.7751 189.155 26.6251 190.205 26.6251C192.022 26.6251 193.422 27.0668 194.405 27.9501C195.389 28.8335 195.88 30.1835 195.88 32.0001V40.0001H193.605ZM189.255 40.1501C188.272 40.1501 187.405 39.9835 186.655 39.6501C185.922 39.3168 185.355 38.8585 184.955 38.2751C184.555 37.6751 184.355 37.0001 184.355 36.2501C184.355 35.5335 184.522 34.8835 184.855 34.3001C185.205 33.7168 185.764 33.2501 186.53 32.9001C187.314 32.5501 188.364 32.3751 189.68 32.3751H193.88V34.1001H189.78C188.58 34.1001 187.772 34.3001 187.355 34.7001C186.939 35.1001 186.73 35.5835 186.73 36.1501C186.73 36.8001 186.989 37.3251 187.505 37.7251C188.022 38.1085 188.739 38.3001 189.655 38.3001C190.555 38.3001 191.339 38.1001 192.005 37.7001C192.689 37.3001 193.18 36.7168 193.48 35.9501L193.955 37.6001C193.639 38.3835 193.08 39.0085 192.28 39.4751C191.48 39.9251 190.472 40.1501 189.255 40.1501ZM206.097 40.1501C204.747 40.1501 203.539 39.8585 202.472 39.2751C201.422 38.6918 200.597 37.8918 199.997 36.8751C199.397 35.8585 199.097 34.6918 199.097 33.3751C199.097 32.0585 199.397 30.8918 199.997 29.8751C200.597 28.8585 201.422 28.0668 202.472 27.5001C203.539 26.9168 204.747 26.6251 206.097 26.6251C207.297 26.6251 208.364 26.8668 209.297 27.3501C210.247 27.8168 210.98 28.5168 211.497 29.4501L209.672 30.6251C209.239 29.9751 208.705 29.5001 208.072 29.2001C207.455 28.8835 206.789 28.7251 206.072 28.7251C205.205 28.7251 204.43 28.9168 203.747 29.3001C203.064 29.6835 202.522 30.2251 202.122 30.9251C201.722 31.6085 201.522 32.4251 201.522 33.3751C201.522 34.3251 201.722 35.1501 202.122 35.8501C202.522 36.5501 203.064 37.0918 203.747 37.4751C204.43 37.8585 205.205 38.0501 206.072 38.0501C206.789 38.0501 207.455 37.9001 208.072 37.6001C208.705 37.2835 209.239 36.8001 209.672 36.1501L211.497 37.3001C210.98 38.2168 210.247 38.9251 209.297 39.4251C208.364 39.9085 207.297 40.1501 206.097 40.1501ZM219.325 40.1501C217.992 40.1501 216.958 39.7918 216.225 39.0751C215.492 38.3585 215.125 37.3335 215.125 36.0001V23.8501H217.525V35.9001C217.525 36.6168 217.7 37.1668 218.05 37.5501C218.417 37.9335 218.933 38.1251 219.6 38.1251C220.35 38.1251 220.975 37.9168 221.475 37.5001L222.225 39.2251C221.858 39.5418 221.417 39.7751 220.9 39.9251C220.4 40.0751 219.875 40.1501 219.325 40.1501ZM212.875 28.7251V26.7501H221.325V28.7251H212.875ZM234.44 40.2001C233.407 40.2001 232.44 39.9835 231.54 39.5501C230.64 39.1168 229.907 38.4918 229.34 37.6751L230.79 35.9751C231.274 36.6418 231.815 37.1585 232.415 37.5251C233.032 37.8751 233.707 38.0501 234.44 38.0501C236.44 38.0501 237.44 36.8668 237.44 34.5001V24.6751H231.115V22.5001H239.915V34.3751C239.915 36.3251 239.449 37.7835 238.515 38.7501C237.599 39.7168 236.24 40.2001 234.44 40.2001ZM252.883 40.0001V37.2001L252.758 36.6751V31.9001C252.758 30.8835 252.458 30.1001 251.858 29.5501C251.274 28.9835 250.391 28.7001 249.208 28.7001C248.424 28.7001 247.658 28.8335 246.908 29.1001C246.158 29.3501 245.524 29.6918 245.008 30.1251L244.008 28.3251C244.691 27.7751 245.508 27.3585 246.458 27.0751C247.424 26.7751 248.433 26.6251 249.483 26.6251C251.299 26.6251 252.699 27.0668 253.683 27.9501C254.666 28.8335 255.158 30.1835 255.158 32.0001V40.0001H252.883ZM248.533 40.1501C247.549 40.1501 246.683 39.9835 245.933 39.6501C245.199 39.3168 244.633 38.8585 244.233 38.2751C243.833 37.6751 243.633 37.0001 243.633 36.2501C243.633 35.5335 243.799 34.8835 244.133 34.3001C244.483 33.7168 245.041 33.2501 245.808 32.9001C246.591 32.5501 247.641 32.3751 248.958 32.3751H253.158V34.1001H249.058C247.858 34.1001 247.049 34.3001 246.633 34.7001C246.216 35.1001 246.008 35.5835 246.008 36.1501C246.008 36.8001 246.266 37.3251 246.783 37.7251C247.299 38.1085 248.016 38.3001 248.933 38.3001C249.833 38.3001 250.616 38.1001 251.283 37.7001C251.966 37.3001 252.458 36.7168 252.758 35.9501L253.233 37.6001C252.916 38.3835 252.358 39.0085 251.558 39.4751C250.758 39.9251 249.749 40.1501 248.533 40.1501ZM262.83 40.0001L257.03 26.7501H259.53L264.68 38.7501H263.48L268.73 26.7501H271.08L265.28 40.0001H262.83ZM280.983 40.0001V37.2001L280.858 36.6751V31.9001C280.858 30.8835 280.558 30.1001 279.958 29.5501C279.375 28.9835 278.492 28.7001 277.308 28.7001C276.525 28.7001 275.758 28.8335 275.008 29.1001C274.258 29.3501 273.625 29.6918 273.108 30.1251L272.108 28.3251C272.792 27.7751 273.608 27.3585 274.558 27.0751C275.525 26.7751 276.533 26.6251 277.583 26.6251C279.4 26.6251 280.8 27.0668 281.783 27.9501C282.767 28.8335 283.258 30.1835 283.258 32.0001V40.0001H280.983ZM276.633 40.1501C275.65 40.1501 274.783 39.9835 274.033 39.6501C273.3 39.3168 272.733 38.8585 272.333 38.2751C271.933 37.6751 271.733 37.0001 271.733 36.2501C271.733 35.5335 271.9 34.8835 272.233 34.3001C272.583 33.7168 273.142 33.2501 273.908 32.9001C274.692 32.5501 275.742 32.3751 277.058 32.3751H281.258V34.1001H277.158C275.958 34.1001 275.15 34.3001 274.733 34.7001C274.317 35.1001 274.108 35.5835 274.108 36.1501C274.108 36.8001 274.367 37.3251 274.883 37.7251C275.4 38.1085 276.117 38.3001 277.033 38.3001C277.933 38.3001 278.717 38.1001 279.383 37.7001C280.067 37.3001 280.558 36.7168 280.858 35.9501L281.333 37.6001C281.017 38.3835 280.458 39.0085 279.658 39.4751C278.858 39.9251 277.85 40.1501 276.633 40.1501ZM291.5 40.1501C290.4 40.1501 289.35 40.0001 288.35 39.7001C287.366 39.4001 286.591 39.0335 286.025 38.6001L287.025 36.7001C287.591 37.0835 288.291 37.4085 289.125 37.6751C289.958 37.9418 290.808 38.0751 291.675 38.0751C292.791 38.0751 293.591 37.9168 294.075 37.6001C294.575 37.2835 294.825 36.8418 294.825 36.2751C294.825 35.8585 294.675 35.5335 294.375 35.3001C294.075 35.0668 293.675 34.8918 293.175 34.7751C292.691 34.6585 292.15 34.5585 291.55 34.4751C290.95 34.3751 290.35 34.2585 289.75 34.1251C289.15 33.9751 288.6 33.7751 288.1 33.5251C287.6 33.2585 287.2 32.9001 286.9 32.4501C286.6 31.9835 286.45 31.3668 286.45 30.6001C286.45 29.8001 286.675 29.1001 287.125 28.5001C287.575 27.9001 288.208 27.4418 289.025 27.1251C289.858 26.7918 290.841 26.6251 291.975 26.6251C292.841 26.6251 293.716 26.7335 294.6 26.9501C295.5 27.1501 296.233 27.4418 296.8 27.8251L295.775 29.7251C295.175 29.3251 294.55 29.0501 293.9 28.9001C293.25 28.7501 292.6 28.6751 291.95 28.6751C290.9 28.6751 290.116 28.8501 289.6 29.2001C289.083 29.5335 288.825 29.9668 288.825 30.5001C288.825 30.9501 288.975 31.3001 289.275 31.5501C289.591 31.7835 289.991 31.9668 290.475 32.1001C290.975 32.2335 291.525 32.3501 292.125 32.4501C292.725 32.5335 293.325 32.6501 293.925 32.8001C294.525 32.9335 295.066 33.1251 295.55 33.3751C296.05 33.6251 296.45 33.9751 296.75 34.4251C297.066 34.8751 297.225 35.4751 297.225 36.2251C297.225 37.0251 296.991 37.7168 296.525 38.3001C296.058 38.8835 295.4 39.3418 294.55 39.6751C293.7 39.9918 292.683 40.1501 291.5 40.1501ZM305.999 40.1501C304.649 40.1501 303.441 39.8585 302.374 39.2751C301.324 38.6918 300.499 37.8918 299.899 36.8751C299.299 35.8585 298.999 34.6918 298.999 33.3751C298.999 32.0585 299.299 30.8918 299.899 29.8751C300.499 28.8585 301.324 28.0668 302.374 27.5001C303.441 26.9168 304.649 26.6251 305.999 26.6251C307.199 26.6251 308.266 26.8668 309.199 27.3501C310.149 27.8168 310.883 28.5168 311.399 29.4501L309.574 30.6251C309.141 29.9751 308.608 29.5001 307.974 29.2001C307.358 28.8835 306.691 28.7251 305.974 28.7251C305.108 28.7251 304.333 28.9168 303.649 29.3001C302.966 29.6835 302.424 30.2251 302.024 30.9251C301.624 31.6085 301.424 32.4251 301.424 33.3751C301.424 34.3251 301.624 35.1501 302.024 35.8501C302.424 36.5501 302.966 37.0918 303.649 37.4751C304.333 37.8585 305.108 38.0501 305.974 38.0501C306.691 38.0501 307.358 37.9001 307.974 37.6001C308.608 37.2835 309.141 36.8001 309.574 36.1501L311.399 37.3001C310.883 38.2168 310.149 38.9251 309.199 39.4251C308.266 39.9085 307.199 40.1501 305.999 40.1501ZM314.506 40.0001V26.7501H316.806V30.3501L316.581 29.4501C316.948 28.5335 317.565 27.8335 318.431 27.3501C319.298 26.8668 320.365 26.6251 321.631 26.6251V28.9501C321.531 28.9335 321.431 28.9251 321.331 28.9251C321.248 28.9251 321.165 28.9251 321.081 28.9251C319.798 28.9251 318.781 29.3085 318.031 30.0751C317.281 30.8418 316.906 31.9501 316.906 33.4001V40.0001H314.506ZM324.589 40.0001V26.7501H326.989V40.0001H324.589ZM325.789 24.2001C325.323 24.2001 324.931 24.0501 324.614 23.7501C324.314 23.4501 324.164 23.0835 324.164 22.6501C324.164 22.2001 324.314 21.8251 324.614 21.5251C324.931 21.2251 325.323 21.0751 325.789 21.0751C326.256 21.0751 326.639 21.2251 326.939 21.5251C327.256 21.8085 327.414 22.1668 327.414 22.6001C327.414 23.0501 327.264 23.4335 326.964 23.7501C326.664 24.0501 326.273 24.2001 325.789 24.2001ZM338.597 40.1501C337.497 40.1501 336.489 39.9001 335.572 39.4001C334.672 38.8835 333.947 38.1251 333.397 37.1251C332.864 36.1251 332.597 34.8751 332.597 33.3751C332.597 31.8751 332.855 30.6251 333.372 29.6251C333.905 28.6251 334.622 27.8751 335.522 27.3751C336.439 26.8751 337.464 26.6251 338.597 26.6251C339.897 26.6251 341.047 26.9085 342.047 27.4751C343.047 28.0418 343.839 28.8335 344.422 29.8501C345.005 30.8501 345.297 32.0251 345.297 33.3751C345.297 34.7251 345.005 35.9085 344.422 36.9251C343.839 37.9418 343.047 38.7335 342.047 39.3001C341.047 39.8668 339.897 40.1501 338.597 40.1501ZM331.572 44.8501V26.7501H333.872V30.3251L333.722 33.4001L333.972 36.4751V44.8501H331.572ZM338.397 38.0501C339.247 38.0501 340.005 37.8585 340.672 37.4751C341.355 37.0918 341.889 36.5501 342.272 35.8501C342.672 35.1335 342.872 34.3085 342.872 33.3751C342.872 32.4251 342.672 31.6085 342.272 30.9251C341.889 30.2251 341.355 29.6835 340.672 29.3001C340.005 28.9168 339.247 28.7251 338.397 28.7251C337.564 28.7251 336.805 28.9168 336.122 29.3001C335.455 29.6835 334.922 30.2251 334.522 30.9251C334.139 31.6085 333.947 32.4251 333.947 33.3751C333.947 34.3085 334.139 35.1335 334.522 35.8501C334.922 36.5501 335.455 37.0918 336.122 37.4751C336.805 37.8585 337.564 38.0501 338.397 38.0501ZM353.163 40.1501C351.83 40.1501 350.796 39.7918 350.063 39.0751C349.33 38.3585 348.963 37.3335 348.963 36.0001V23.8501H351.363V35.9001C351.363 36.6168 351.538 37.1668 351.888 37.5501C352.255 37.9335 352.771 38.1251 353.438 38.1251C354.188 38.1251 354.813 37.9168 355.313 37.5001L356.063 39.2251C355.696 39.5418 355.255 39.7751 354.738 39.9251C354.238 40.0751 353.713 40.1501 353.163 40.1501ZM346.713 28.7251V26.7501H355.163V28.7251H346.713Z" fill="white"/>
<path d="M154.215 70.0001V66.1001L154.47 66.7901L150.015 59.5001H151.2L155.115 65.9051H154.485L158.4 59.5001H159.51L155.055 66.7901L155.31 66.1001V70.0001H154.215ZM163.458 70.0751C162.638 70.0751 161.918 69.9051 161.298 69.5651C160.678 69.2151 160.193 68.7401 159.843 68.1401C159.493 67.5301 159.318 66.8351 159.318 66.0551C159.318 65.2751 159.483 64.5851 159.813 63.9851C160.153 63.3851 160.613 62.9151 161.193 62.5751C161.783 62.2251 162.443 62.0501 163.173 62.0501C163.913 62.0501 164.568 62.2201 165.138 62.5601C165.718 62.8901 166.173 63.3601 166.503 63.9701C166.833 64.5701 166.998 65.2651 166.998 66.0551C166.998 66.1051 166.993 66.1601 166.983 66.2201C166.983 66.2701 166.983 66.3251 166.983 66.3851H160.128V65.5901H166.413L165.993 65.9051C165.993 65.3351 165.868 64.8301 165.618 64.3901C165.378 63.9401 165.048 63.5901 164.628 63.3401C164.208 63.0901 163.723 62.9651 163.173 62.9651C162.633 62.9651 162.148 63.0901 161.718 63.3401C161.288 63.5901 160.953 63.9401 160.713 64.3901C160.473 64.8401 160.353 65.3551 160.353 65.9351V66.1001C160.353 66.7001 160.483 67.2301 160.743 67.6901C161.013 68.1401 161.383 68.4951 161.853 68.7551C162.333 69.0051 162.878 69.1301 163.488 69.1301C163.968 69.1301 164.413 69.0451 164.823 68.8751C165.243 68.7051 165.603 68.4451 165.903 68.0951L166.503 68.7851C166.153 69.2051 165.713 69.5251 165.183 69.7451C164.663 69.9651 164.088 70.0751 163.458 70.0751ZM171.281 70.0751C170.631 70.0751 170.016 69.9851 169.436 69.8051C168.856 69.6151 168.401 69.3801 168.071 69.1001L168.551 68.2601C168.871 68.5001 169.281 68.7101 169.781 68.8901C170.281 69.0601 170.806 69.1451 171.356 69.1451C172.106 69.1451 172.646 69.0301 172.976 68.8001C173.306 68.5601 173.471 68.2451 173.471 67.8551C173.471 67.5651 173.376 67.3401 173.186 67.1801C173.006 67.0101 172.766 66.8851 172.466 66.8051C172.166 66.7151 171.831 66.6401 171.461 66.5801C171.091 66.5201 170.721 66.4501 170.351 66.3701C169.991 66.2901 169.661 66.1751 169.361 66.0251C169.061 65.8651 168.816 65.6501 168.626 65.3801C168.446 65.1101 168.356 64.7501 168.356 64.3001C168.356 63.8701 168.476 63.4851 168.716 63.1451C168.956 62.8051 169.306 62.5401 169.766 62.3501C170.236 62.1501 170.806 62.0501 171.476 62.0501C171.986 62.0501 172.496 62.1201 173.006 62.2601C173.516 62.3901 173.936 62.5651 174.266 62.7851L173.801 63.6401C173.451 63.4001 173.076 63.2301 172.676 63.1301C172.276 63.0201 171.876 62.9651 171.476 62.9651C170.766 62.9651 170.241 63.0901 169.901 63.3401C169.571 63.5801 169.406 63.8901 169.406 64.2701C169.406 64.5701 169.496 64.8051 169.676 64.9751C169.866 65.1451 170.111 65.2801 170.411 65.3801C170.721 65.4701 171.056 65.5451 171.416 65.6051C171.786 65.6651 172.151 65.7401 172.511 65.8301C172.881 65.9101 173.216 66.0251 173.516 66.1751C173.826 66.3151 174.071 66.5201 174.251 66.7901C174.441 67.0501 174.536 67.3951 174.536 67.8251C174.536 68.2851 174.406 68.6851 174.146 69.0251C173.896 69.3551 173.526 69.6151 173.036 69.8051C172.556 69.9851 171.971 70.0751 171.281 70.0751ZM175.845 72.1901L176.505 69.4151L176.625 70.0601C176.395 70.0601 176.2 69.9851 176.04 69.8351C175.89 69.6851 175.815 69.4901 175.815 69.2501C175.815 69.0101 175.89 68.8151 176.04 68.6651C176.2 68.5151 176.39 68.4401 176.61 68.4401C176.84 68.4401 177.025 68.5201 177.165 68.6801C177.315 68.8401 177.39 69.0301 177.39 69.2501C177.39 69.3301 177.385 69.4101 177.375 69.4901C177.365 69.5701 177.345 69.6601 177.315 69.7601C177.285 69.8601 177.245 69.9801 177.195 70.1201L176.565 72.1901H175.845ZM183.819 70.0001V59.5001H184.929V70.0001H183.819ZM195.317 70.0751C194.537 70.0751 193.837 69.9051 193.217 69.5651C192.607 69.2151 192.127 68.7401 191.777 68.1401C191.427 67.5301 191.252 66.8351 191.252 66.0551C191.252 65.2651 191.427 64.5701 191.777 63.9701C192.127 63.3701 192.607 62.9001 193.217 62.5601C193.837 62.2201 194.537 62.0501 195.317 62.0501C195.987 62.0501 196.592 62.1801 197.132 62.4401C197.672 62.7001 198.097 63.0901 198.407 63.6101L197.612 64.1501C197.342 63.7501 197.007 63.4551 196.607 63.2651C196.207 63.0751 195.772 62.9801 195.302 62.9801C194.742 62.9801 194.237 63.1101 193.787 63.3701C193.337 63.6201 192.982 63.9751 192.722 64.4351C192.462 64.8951 192.332 65.4351 192.332 66.0551C192.332 66.6751 192.462 67.2151 192.722 67.6751C192.982 68.1351 193.337 68.4951 193.787 68.7551C194.237 69.0051 194.742 69.1301 195.302 69.1301C195.772 69.1301 196.207 69.0351 196.607 68.8451C197.007 68.6551 197.342 68.3651 197.612 67.9751L198.407 68.5151C198.097 69.0251 197.672 69.4151 197.132 69.6851C196.592 69.9451 195.987 70.0751 195.317 70.0751ZM205.434 70.0001V68.2601L205.389 67.9751V65.0651C205.389 64.3951 205.199 63.8801 204.819 63.5201C204.449 63.1601 203.894 62.9801 203.154 62.9801C202.644 62.9801 202.159 63.0651 201.699 63.2351C201.239 63.4051 200.849 63.6301 200.529 63.9101L200.049 63.1151C200.449 62.7751 200.929 62.5151 201.489 62.3351C202.049 62.1451 202.639 62.0501 203.259 62.0501C204.279 62.0501 205.064 62.3051 205.614 62.8151C206.174 63.3151 206.454 64.0801 206.454 65.1101V70.0001H205.434ZM202.719 70.0751C202.129 70.0751 201.614 69.9801 201.174 69.7901C200.744 69.5901 200.414 69.3201 200.184 68.9801C199.954 68.6301 199.839 68.2301 199.839 67.7801C199.839 67.3701 199.934 67.0001 200.124 66.6701C200.324 66.3301 200.644 66.0601 201.084 65.8601C201.534 65.6501 202.134 65.5451 202.884 65.5451H205.599V66.3401H202.914C202.154 66.3401 201.624 66.4751 201.324 66.7451C201.034 67.0151 200.889 67.3501 200.889 67.7501C200.889 68.2001 201.064 68.5601 201.414 68.8301C201.764 69.1001 202.254 69.2351 202.884 69.2351C203.484 69.2351 203.999 69.1001 204.429 68.8301C204.869 68.5501 205.189 68.1501 205.389 67.6301L205.629 68.3651C205.429 68.8851 205.079 69.3001 204.579 69.6101C204.089 69.9201 203.469 70.0751 202.719 70.0751ZM209.346 70.0001V62.1251H210.366V64.2851L210.201 63.8801C210.451 63.3101 210.851 62.8651 211.401 62.5451C211.951 62.2151 212.606 62.0501 213.366 62.0501C214.006 62.0501 214.566 62.1751 215.046 62.4251C215.536 62.6651 215.916 63.0351 216.186 63.5351C216.466 64.0351 216.606 64.6651 216.606 65.4251V70.0001H215.541V65.5301C215.541 64.7001 215.331 64.0751 214.911 63.6551C214.501 63.2251 213.921 63.0101 213.171 63.0101C212.611 63.0101 212.121 63.1251 211.701 63.3551C211.291 63.5751 210.971 63.9001 210.741 64.3301C210.521 64.7501 210.411 65.2601 210.411 65.8601V70.0001H209.346ZM226.664 70.0751C225.994 70.0751 225.409 69.9501 224.909 69.7001C224.409 69.4501 224.019 69.0751 223.739 68.5751C223.469 68.0751 223.334 67.4501 223.334 66.7001V62.1251H224.399V66.5801C224.399 67.4201 224.604 68.0551 225.014 68.4851C225.434 68.9051 226.019 69.1151 226.769 69.1151C227.319 69.1151 227.794 69.0051 228.194 68.7851C228.604 68.5551 228.914 68.2251 229.124 67.7951C229.344 67.3651 229.454 66.8501 229.454 66.2501V62.1251H230.519V70.0001H229.499V67.8401L229.664 68.2301C229.414 68.8101 229.024 69.2651 228.494 69.5951C227.974 69.9151 227.364 70.0751 226.664 70.0751ZM235.602 70.0751C234.952 70.0751 234.337 69.9851 233.757 69.8051C233.177 69.6151 232.722 69.3801 232.392 69.1001L232.872 68.2601C233.192 68.5001 233.602 68.7101 234.102 68.8901C234.602 69.0601 235.127 69.1451 235.677 69.1451C236.427 69.1451 236.967 69.0301 237.297 68.8001C237.627 68.5601 237.792 68.2451 237.792 67.8551C237.792 67.5651 237.697 67.3401 237.507 67.1801C237.327 67.0101 237.087 66.8851 236.787 66.8051C236.487 66.7151 236.152 66.6401 235.782 66.5801C235.412 66.5201 235.042 66.4501 234.672 66.3701C234.312 66.2901 233.982 66.1751 233.682 66.0251C233.382 65.8651 233.137 65.6501 232.947 65.3801C232.767 65.1101 232.677 64.7501 232.677 64.3001C232.677 63.8701 232.797 63.4851 233.037 63.1451C233.277 62.8051 233.627 62.5401 234.087 62.3501C234.557 62.1501 235.127 62.0501 235.797 62.0501C236.307 62.0501 236.817 62.1201 237.327 62.2601C237.837 62.3901 238.257 62.5651 238.587 62.7851L238.122 63.6401C237.772 63.4001 237.397 63.2301 236.997 63.1301C236.597 63.0201 236.197 62.9651 235.797 62.9651C235.087 62.9651 234.562 63.0901 234.222 63.3401C233.892 63.5801 233.727 63.8901 233.727 64.2701C233.727 64.5701 233.817 64.8051 233.997 64.9751C234.187 65.1451 234.432 65.2801 234.732 65.3801C235.042 65.4701 235.377 65.5451 235.737 65.6051C236.107 65.6651 236.472 65.7401 236.832 65.8301C237.202 65.9101 237.537 66.0251 237.837 66.1751C238.147 66.3151 238.392 66.5201 238.572 66.7901C238.762 67.0501 238.857 67.3951 238.857 67.8251C238.857 68.2851 238.727 68.6851 238.467 69.0251C238.217 69.3551 237.847 69.6151 237.357 69.8051C236.877 69.9851 236.292 70.0751 235.602 70.0751ZM244.156 70.0751C243.336 70.0751 242.616 69.9051 241.996 69.5651C241.376 69.2151 240.891 68.7401 240.541 68.1401C240.191 67.5301 240.016 66.8351 240.016 66.0551C240.016 65.2751 240.181 64.5851 240.511 63.9851C240.851 63.3851 241.311 62.9151 241.891 62.5751C242.481 62.2251 243.141 62.0501 243.871 62.0501C244.611 62.0501 245.266 62.2201 245.836 62.5601C246.416 62.8901 246.871 63.3601 247.201 63.9701C247.531 64.5701 247.696 65.2651 247.696 66.0551C247.696 66.1051 247.691 66.1601 247.681 66.2201C247.681 66.2701 247.681 66.3251 247.681 66.3851H240.826V65.5901H247.111L246.691 65.9051C246.691 65.3351 246.566 64.8301 246.316 64.3901C246.076 63.9401 245.746 63.5901 245.326 63.3401C244.906 63.0901 244.421 62.9651 243.871 62.9651C243.331 62.9651 242.846 63.0901 242.416 63.3401C241.986 63.5901 241.651 63.9401 241.411 64.3901C241.171 64.8401 241.051 65.3551 241.051 65.9351V66.1001C241.051 66.7001 241.181 67.2301 241.441 67.6901C241.711 68.1401 242.081 68.4951 242.551 68.7551C243.031 69.0051 243.576 69.1301 244.186 69.1301C244.666 69.1301 245.111 69.0451 245.521 68.8751C245.941 68.7051 246.301 68.4451 246.601 68.0951L247.201 68.7851C246.851 69.2051 246.411 69.5251 245.881 69.7451C245.361 69.9651 244.786 70.0751 244.156 70.0751ZM256.28 70.0751C255.54 70.0751 254.97 69.8751 254.57 69.4751C254.17 69.0751 253.97 68.5101 253.97 67.7801V60.3851H255.035V67.7201C255.035 68.1801 255.15 68.5351 255.38 68.7851C255.62 69.0351 255.96 69.1601 256.4 69.1601C256.87 69.1601 257.26 69.0251 257.57 68.7551L257.945 69.5201C257.735 69.7101 257.48 69.8501 257.18 69.9401C256.89 70.0301 256.59 70.0751 256.28 70.0751ZM252.56 63.0101V62.1251H257.435V63.0101H252.56ZM259.883 70.0001V58.8701H260.948V64.2851L260.738 63.8801C260.988 63.3101 261.388 62.8651 261.938 62.5451C262.488 62.2151 263.143 62.0501 263.903 62.0501C264.543 62.0501 265.103 62.1751 265.583 62.4251C266.073 62.6651 266.453 63.0351 266.723 63.5351C267.003 64.0351 267.143 64.6651 267.143 65.4251V70.0001H266.078V65.5301C266.078 64.7001 265.868 64.0751 265.448 63.6551C265.038 63.2251 264.458 63.0101 263.708 63.0101C263.148 63.0101 262.658 63.1251 262.238 63.3551C261.828 63.5751 261.508 63.9001 261.278 64.3301C261.058 64.7501 260.948 65.2601 260.948 65.8601V70.0001H259.883ZM270.02 70.0001V62.1251H271.085V70.0001H270.02ZM270.56 60.3851C270.34 60.3851 270.155 60.3101 270.005 60.1601C269.855 60.0101 269.78 59.8301 269.78 59.6201C269.78 59.4101 269.855 59.2351 270.005 59.0951C270.155 58.9451 270.34 58.8701 270.56 58.8701C270.78 58.8701 270.965 58.9401 271.115 59.0801C271.265 59.2201 271.34 59.3951 271.34 59.6051C271.34 59.8251 271.265 60.0101 271.115 60.1601C270.975 60.3101 270.79 60.3851 270.56 60.3851ZM276.163 70.0751C275.513 70.0751 274.898 69.9851 274.318 69.8051C273.738 69.6151 273.283 69.3801 272.953 69.1001L273.433 68.2601C273.753 68.5001 274.163 68.7101 274.663 68.8901C275.163 69.0601 275.688 69.1451 276.238 69.1451C276.988 69.1451 277.528 69.0301 277.858 68.8001C278.188 68.5601 278.353 68.2451 278.353 67.8551C278.353 67.5651 278.258 67.3401 278.068 67.1801C277.888 67.0101 277.648 66.8851 277.348 66.8051C277.048 66.7151 276.713 66.6401 276.343 66.5801C275.973 66.5201 275.603 66.4501 275.233 66.3701C274.873 66.2901 274.543 66.1751 274.243 66.0251C273.943 65.8651 273.698 65.6501 273.508 65.3801C273.328 65.1101 273.238 64.7501 273.238 64.3001C273.238 63.8701 273.358 63.4851 273.598 63.1451C273.838 62.8051 274.188 62.5401 274.648 62.3501C275.118 62.1501 275.688 62.0501 276.358 62.0501C276.868 62.0501 277.378 62.1201 277.888 62.2601C278.398 62.3901 278.818 62.5651 279.148 62.7851L278.683 63.6401C278.333 63.4001 277.958 63.2301 277.558 63.1301C277.158 63.0201 276.758 62.9651 276.358 62.9651C275.648 62.9651 275.123 63.0901 274.783 63.3401C274.453 63.5801 274.288 63.8901 274.288 64.2701C274.288 64.5701 274.378 64.8051 274.558 64.9751C274.748 65.1451 274.993 65.2801 275.293 65.3801C275.603 65.4701 275.938 65.5451 276.298 65.6051C276.668 65.6651 277.033 65.7401 277.393 65.8301C277.763 65.9101 278.098 66.0251 278.398 66.1751C278.708 66.3151 278.953 66.5201 279.133 66.7901C279.323 67.0501 279.418 67.3951 279.418 67.8251C279.418 68.2851 279.288 68.6851 279.028 69.0251C278.778 69.3551 278.408 69.6151 277.918 69.8051C277.438 69.9851 276.853 70.0751 276.163 70.0751ZM285.478 70.0001V61.1351C285.478 60.4351 285.683 59.8701 286.093 59.4401C286.503 59.0101 287.093 58.7951 287.863 58.7951C288.163 58.7951 288.453 58.8351 288.733 58.9151C289.013 58.9951 289.248 59.1201 289.438 59.2901L289.078 60.0851C288.928 59.9551 288.753 59.8601 288.553 59.8001C288.353 59.7301 288.138 59.6951 287.908 59.6951C287.458 59.6951 287.113 59.8201 286.873 60.0701C286.633 60.3201 286.513 60.6901 286.513 61.1801V62.3801L286.543 62.8751V70.0001H285.478ZM284.068 63.0101V62.1251H288.943V63.0101H284.068ZM290.381 70.0001V62.1251H291.401V64.2701L291.296 63.8951C291.516 63.2951 291.886 62.8401 292.406 62.5301C292.926 62.2101 293.571 62.0501 294.341 62.0501V63.0851C294.301 63.0851 294.261 63.0851 294.221 63.0851C294.181 63.0751 294.141 63.0701 294.101 63.0701C293.271 63.0701 292.621 63.3251 292.151 63.8351C291.681 64.3351 291.446 65.0501 291.446 65.9801V70.0001H290.381ZM300.722 70.0001V68.2601L300.677 67.9751V65.0651C300.677 64.3951 300.487 63.8801 300.107 63.5201C299.737 63.1601 299.182 62.9801 298.442 62.9801C297.932 62.9801 297.447 63.0651 296.987 63.2351C296.527 63.4051 296.137 63.6301 295.817 63.9101L295.337 63.1151C295.737 62.7751 296.217 62.5151 296.777 62.3351C297.337 62.1451 297.927 62.0501 298.547 62.0501C299.567 62.0501 300.352 62.3051 300.902 62.8151C301.462 63.3151 301.742 64.0801 301.742 65.1101V70.0001H300.722ZM298.007 70.0751C297.417 70.0751 296.902 69.9801 296.462 69.7901C296.032 69.5901 295.702 69.3201 295.472 68.9801C295.242 68.6301 295.127 68.2301 295.127 67.7801C295.127 67.3701 295.222 67.0001 295.412 66.6701C295.612 66.3301 295.932 66.0601 296.372 65.8601C296.822 65.6501 297.422 65.5451 298.172 65.5451H300.887V66.3401H298.202C297.442 66.3401 296.912 66.4751 296.612 66.7451C296.322 67.0151 296.177 67.3501 296.177 67.7501C296.177 68.2001 296.352 68.5601 296.702 68.8301C297.052 69.1001 297.542 69.2351 298.172 69.2351C298.772 69.2351 299.287 69.1001 299.717 68.8301C300.157 68.5501 300.477 68.1501 300.677 67.6301L300.917 68.3651C300.717 68.8851 300.367 69.3001 299.867 69.6101C299.377 69.9201 298.757 70.0751 298.007 70.0751ZM304.634 70.0001V62.1251H305.654V64.2551L305.489 63.8801C305.729 63.3101 306.114 62.8651 306.644 62.5451C307.184 62.2151 307.819 62.0501 308.549 62.0501C309.319 62.0501 309.974 62.2451 310.514 62.6351C311.054 63.0151 311.404 63.5901 311.564 64.3601L311.144 64.1951C311.374 63.5551 311.779 63.0401 312.359 62.6501C312.949 62.2501 313.654 62.0501 314.474 62.0501C315.114 62.0501 315.669 62.1751 316.139 62.4251C316.619 62.6651 316.989 63.0351 317.249 63.5351C317.519 64.0351 317.654 64.6651 317.654 65.4251V70.0001H316.589V65.5301C316.589 64.7001 316.389 64.0751 315.989 63.6551C315.599 63.2251 315.044 63.0101 314.324 63.0101C313.784 63.0101 313.314 63.1251 312.914 63.3551C312.524 63.5751 312.219 63.9001 311.999 64.3301C311.789 64.7501 311.684 65.2601 311.684 65.8601V70.0001H310.619V65.5301C310.619 64.7001 310.419 64.0751 310.019 63.6551C309.619 63.2251 309.059 63.0101 308.339 63.0101C307.809 63.0101 307.344 63.1251 306.944 63.3551C306.544 63.5751 306.234 63.9001 306.014 64.3301C305.804 64.7501 305.699 65.2601 305.699 65.8601V70.0001H304.634ZM323.888 70.0751C323.068 70.0751 322.348 69.9051 321.728 69.5651C321.108 69.2151 320.623 68.7401 320.273 68.1401C319.923 67.5301 319.748 66.8351 319.748 66.0551C319.748 65.2751 319.913 64.5851 320.243 63.9851C320.583 63.3851 321.043 62.9151 321.623 62.5751C322.213 62.2251 322.873 62.0501 323.603 62.0501C324.343 62.0501 324.998 62.2201 325.568 62.5601C326.148 62.8901 326.603 63.3601 326.933 63.9701C327.263 64.5701 327.428 65.2651 327.428 66.0551C327.428 66.1051 327.423 66.1601 327.413 66.2201C327.413 66.2701 327.413 66.3251 327.413 66.3851H320.558V65.5901H326.843L326.423 65.9051C326.423 65.3351 326.298 64.8301 326.048 64.3901C325.808 63.9401 325.478 63.5901 325.058 63.3401C324.638 63.0901 324.153 62.9651 323.603 62.9651C323.063 62.9651 322.578 63.0901 322.148 63.3401C321.718 63.5901 321.383 63.9401 321.143 64.3901C320.903 64.8401 320.783 65.3551 320.783 65.9351V66.1001C320.783 66.7001 320.913 67.2301 321.173 67.6901C321.443 68.1401 321.813 68.4951 322.283 68.7551C322.763 69.0051 323.308 69.1301 323.918 69.1301C324.398 69.1301 324.843 69.0451 325.253 68.8751C325.673 68.7051 326.033 68.4451 326.333 68.0951L326.933 68.7851C326.583 69.2051 326.143 69.5251 325.613 69.7451C325.093 69.9651 324.518 70.0751 323.888 70.0751ZM331.054 70.0001L328.084 62.1251H329.104L331.804 69.4301H331.339L334.114 62.1251H335.029L337.774 69.4301H337.309L340.054 62.1251H341.029L338.044 70.0001H337.039L334.399 63.1301H334.714L332.059 70.0001H331.054ZM345.623 70.0751C344.863 70.0751 344.178 69.9051 343.568 69.5651C342.968 69.2151 342.493 68.7401 342.143 68.1401C341.793 67.5301 341.618 66.8351 341.618 66.0551C341.618 65.2651 341.793 64.5701 342.143 63.9701C342.493 63.3701 342.968 62.9001 343.568 62.5601C344.168 62.2201 344.853 62.0501 345.623 62.0501C346.403 62.0501 347.093 62.2201 347.693 62.5601C348.303 62.9001 348.778 63.3701 349.118 63.9701C349.468 64.5701 349.643 65.2651 349.643 66.0551C349.643 66.8351 349.468 67.5301 349.118 68.1401C348.778 68.7401 348.303 69.2151 347.693 69.5651C347.083 69.9051 346.393 70.0751 345.623 70.0751ZM345.623 69.1301C346.193 69.1301 346.698 69.0051 347.138 68.7551C347.578 68.4951 347.923 68.1351 348.173 67.6751C348.433 67.2051 348.563 66.6651 348.563 66.0551C348.563 65.4351 348.433 64.8951 348.173 64.4351C347.923 63.9751 347.578 63.6201 347.138 63.3701C346.698 63.1101 346.198 62.9801 345.638 62.9801C345.078 62.9801 344.578 63.1101 344.138 63.3701C343.698 63.6201 343.348 63.9751 343.088 64.4351C342.828 64.8951 342.698 65.4351 342.698 66.0551C342.698 66.6651 342.828 67.2051 343.088 67.6751C343.348 68.1351 343.698 68.4951 344.138 68.7551C344.578 69.0051 345.073 69.1301 345.623 69.1301ZM351.817 70.0001V62.1251H352.837V64.2701L352.732 63.8951C352.952 63.2951 353.322 62.8401 353.842 62.5301C354.362 62.2101 355.007 62.0501 355.777 62.0501V63.0851C355.737 63.0851 355.697 63.0851 355.657 63.0851C355.617 63.0751 355.577 63.0701 355.537 63.0701C354.707 63.0701 354.057 63.3251 353.587 63.8351C353.117 64.3351 352.882 65.0501 352.882 65.9801V70.0001H351.817ZM358.56 67.9601L358.59 66.5951L363.495 62.1251H364.8L361.335 65.4401L360.735 65.9501L358.56 67.9601ZM357.72 70.0001V58.8701H358.785V70.0001H357.72ZM363.825 70.0001L360.54 65.9051L361.23 65.0801L365.13 70.0001H363.825ZM366.187 72.1901L366.847 69.4151L366.967 70.0601C366.737 70.0601 366.542 69.9851 366.382 69.8351C366.232 69.6851 366.157 69.4901 366.157 69.2501C366.157 69.0101 366.232 68.8151 366.382 68.6651C366.542 68.5151 366.732 68.4401 366.952 68.4401C367.182 68.4401 367.367 68.5201 367.507 68.6801C367.657 68.8401 367.732 69.0301 367.732 69.2501C367.732 69.3301 367.727 69.4101 367.717 69.4901C367.707 69.5701 367.687 69.6601 367.657 69.7601C367.627 69.8601 367.587 69.9801 367.537 70.1201L366.907 72.1901H366.187ZM151.71 88.0001V77.5001H152.82V88.0001H151.71ZM155.636 81.4601L155.561 77.5001H156.506L156.431 81.4601H155.636ZM159.044 88.0001V80.1251H160.064V82.2551L159.899 81.8801C160.139 81.3101 160.524 80.8651 161.054 80.5451C161.594 80.2151 162.229 80.0501 162.959 80.0501C163.729 80.0501 164.384 80.2451 164.924 80.6351C165.464 81.0151 165.814 81.5901 165.974 82.3601L165.554 82.1951C165.784 81.5551 166.189 81.0401 166.769 80.6501C167.359 80.2501 168.064 80.0501 168.884 80.0501C169.524 80.0501 170.079 80.1751 170.549 80.4251C171.029 80.6651 171.399 81.0351 171.659 81.5351C171.929 82.0351 172.064 82.6651 172.064 83.4251V88.0001H170.999V83.5301C170.999 82.7001 170.799 82.0751 170.399 81.6551C170.009 81.2251 169.454 81.0101 168.734 81.0101C168.194 81.0101 167.724 81.1251 167.324 81.3551C166.934 81.5751 166.629 81.9001 166.409 82.3301C166.199 82.7501 166.094 83.2601 166.094 83.8601V88.0001H165.029V83.5301C165.029 82.7001 164.829 82.0751 164.429 81.6551C164.029 81.2251 163.469 81.0101 162.749 81.0101C162.219 81.0101 161.754 81.1251 161.354 81.3551C160.954 81.5751 160.644 81.9001 160.424 82.3301C160.214 82.7501 160.109 83.2601 160.109 83.8601V88.0001H159.044ZM182.013 88.0751C181.263 88.0751 180.588 87.9051 179.988 87.5651C179.398 87.2251 178.933 86.7551 178.593 86.1551C178.253 85.5551 178.083 84.8551 178.083 84.0551C178.083 83.2651 178.253 82.5701 178.593 81.9701C178.933 81.3601 179.398 80.8901 179.988 80.5601C180.588 80.2201 181.263 80.0501 182.013 80.0501C182.713 80.0501 183.333 80.2051 183.873 80.5151C184.423 80.8251 184.858 81.2801 185.178 81.8801C185.498 82.4701 185.658 83.1951 185.658 84.0551C185.658 84.9151 185.493 85.6451 185.163 86.2451C184.843 86.8351 184.408 87.2901 183.858 87.6101C183.318 87.9201 182.703 88.0751 182.013 88.0751ZM182.088 87.1301C182.648 87.1301 183.148 87.0051 183.588 86.7551C184.038 86.4951 184.388 86.1351 184.638 85.6751C184.898 85.2051 185.028 84.6651 185.028 84.0551C185.028 83.4451 184.898 82.9101 184.638 82.4501C184.388 81.9901 184.038 81.6301 183.588 81.3701C183.148 81.1101 182.648 80.9801 182.088 80.9801C181.538 80.9801 181.043 81.1101 180.603 81.3701C180.163 81.6301 179.813 81.9901 179.553 82.4501C179.293 82.9101 179.163 83.4451 179.163 84.0551C179.163 84.6651 179.293 85.2051 179.553 85.6751C179.813 86.1351 180.163 86.4951 180.603 86.7551C181.043 87.0051 181.538 87.1301 182.088 87.1301ZM185.013 90.9101V85.6601L185.163 84.0701L185.058 82.4951V80.1251H186.078V90.9101H185.013ZM192.299 88.0751C191.629 88.0751 191.044 87.9501 190.544 87.7001C190.044 87.4501 189.654 87.0751 189.374 86.5751C189.104 86.0751 188.969 85.4501 188.969 84.7001V80.1251H190.034V84.5801C190.034 85.4201 190.239 86.0551 190.649 86.4851C191.069 86.9051 191.654 87.1151 192.404 87.1151C192.954 87.1151 193.429 87.0051 193.829 86.7851C194.239 86.5551 194.549 86.2251 194.759 85.7951C194.979 85.3651 195.089 84.8501 195.089 84.2501V80.1251H196.154V88.0001H195.134V85.8401L195.299 86.2301C195.049 86.8101 194.659 87.2651 194.129 87.5951C193.609 87.9151 192.999 88.0751 192.299 88.0751ZM199.122 88.0001V80.1251H200.187V88.0001H199.122ZM199.662 78.3851C199.442 78.3851 199.257 78.3101 199.107 78.1601C198.957 78.0101 198.882 77.8301 198.882 77.6201C198.882 77.4101 198.957 77.2351 199.107 77.0951C199.257 76.9451 199.442 76.8701 199.662 76.8701C199.882 76.8701 200.067 76.9401 200.217 77.0801C200.367 77.2201 200.442 77.3951 200.442 77.6051C200.442 77.8251 200.367 78.0101 200.217 78.1601C200.077 78.3101 199.892 78.3851 199.662 78.3851ZM205.508 88.0751C204.768 88.0751 204.198 87.8751 203.798 87.4751C203.398 87.0751 203.198 86.5101 203.198 85.7801V78.3851H204.263V85.7201C204.263 86.1801 204.378 86.5351 204.608 86.7851C204.848 87.0351 205.188 87.1601 205.628 87.1601C206.098 87.1601 206.488 87.0251 206.798 86.7551L207.173 87.5201C206.963 87.7101 206.708 87.8501 206.408 87.9401C206.118 88.0301 205.818 88.0751 205.508 88.0751ZM201.788 81.0101V80.1251H206.663V81.0101H201.788ZM212.179 88.0751C211.359 88.0751 210.639 87.9051 210.019 87.5651C209.399 87.2151 208.914 86.7401 208.564 86.1401C208.214 85.5301 208.039 84.8351 208.039 84.0551C208.039 83.2751 208.204 82.5851 208.534 81.9851C208.874 81.3851 209.334 80.9151 209.914 80.5751C210.504 80.2251 211.164 80.0501 211.894 80.0501C212.634 80.0501 213.289 80.2201 213.859 80.5601C214.439 80.8901 214.894 81.3601 215.224 81.9701C215.554 82.5701 215.719 83.2651 215.719 84.0551C215.719 84.1051 215.714 84.1601 215.704 84.2201C215.704 84.2701 215.704 84.3251 215.704 84.3851H208.849V83.5901H215.134L214.714 83.9051C214.714 83.3351 214.589 82.8301 214.339 82.3901C214.099 81.9401 213.769 81.5901 213.349 81.3401C212.929 81.0901 212.444 80.9651 211.894 80.9651C211.354 80.9651 210.869 81.0901 210.439 81.3401C210.009 81.5901 209.674 81.9401 209.434 82.3901C209.194 82.8401 209.074 83.3551 209.074 83.9351V84.1001C209.074 84.7001 209.204 85.2301 209.464 85.6901C209.734 86.1401 210.104 86.4951 210.574 86.7551C211.054 87.0051 211.599 87.1301 212.209 87.1301C212.689 87.1301 213.134 87.0451 213.544 86.8751C213.964 86.7051 214.324 86.4451 214.624 86.0951L215.224 86.7851C214.874 87.2051 214.434 87.5251 213.904 87.7451C213.384 87.9651 212.809 88.0751 212.179 88.0751ZM221.992 88.0001V79.1351C221.992 78.4351 222.197 77.8701 222.607 77.4401C223.017 77.0101 223.607 76.7951 224.377 76.7951C224.677 76.7951 224.967 76.8351 225.247 76.9151C225.527 76.9951 225.762 77.1201 225.952 77.2901L225.592 78.0851C225.442 77.9551 225.267 77.8601 225.067 77.8001C224.867 77.7301 224.652 77.6951 224.422 77.6951C223.972 77.6951 223.627 77.8201 223.387 78.0701C223.147 78.3201 223.027 78.6901 223.027 79.1801V80.3801L223.057 80.8751V88.0001H221.992ZM220.582 81.0101V80.1251H225.457V81.0101H220.582ZM231.684 88.0001V86.2601L231.639 85.9751V83.0651C231.639 82.3951 231.449 81.8801 231.069 81.5201C230.699 81.1601 230.144 80.9801 229.404 80.9801C228.894 80.9801 228.409 81.0651 227.949 81.2351C227.489 81.4051 227.099 81.6301 226.779 81.9101L226.299 81.1151C226.699 80.7751 227.179 80.5151 227.739 80.3351C228.299 80.1451 228.889 80.0501 229.509 80.0501C230.529 80.0501 231.314 80.3051 231.864 80.8151C232.424 81.3151 232.704 82.0801 232.704 83.1101V88.0001H231.684ZM228.969 88.0751C228.379 88.0751 227.864 87.9801 227.424 87.7901C226.994 87.5901 226.664 87.3201 226.434 86.9801C226.204 86.6301 226.089 86.2301 226.089 85.7801C226.089 85.3701 226.184 85.0001 226.374 84.6701C226.574 84.3301 226.894 84.0601 227.334 83.8601C227.784 83.6501 228.384 83.5451 229.134 83.5451H231.849V84.3401H229.164C228.404 84.3401 227.874 84.4751 227.574 84.7451C227.284 85.0151 227.139 85.3501 227.139 85.7501C227.139 86.2001 227.314 86.5601 227.664 86.8301C228.014 87.1001 228.504 87.2351 229.134 87.2351C229.734 87.2351 230.249 87.1001 230.679 86.8301C231.119 86.5501 231.439 86.1501 231.639 85.6301L231.879 86.3651C231.679 86.8851 231.329 87.3001 230.829 87.6101C230.339 87.9201 229.719 88.0751 228.969 88.0751ZM235.596 88.0001V80.1251H236.616V82.2551L236.451 81.8801C236.691 81.3101 237.076 80.8651 237.606 80.5451C238.146 80.2151 238.781 80.0501 239.511 80.0501C240.281 80.0501 240.936 80.2451 241.476 80.6351C242.016 81.0151 242.366 81.5901 242.526 82.3601L242.106 82.1951C242.336 81.5551 242.741 81.0401 243.321 80.6501C243.911 80.2501 244.616 80.0501 245.436 80.0501C246.076 80.0501 246.631 80.1751 247.101 80.4251C247.581 80.6651 247.951 81.0351 248.211 81.5351C248.481 82.0351 248.616 82.6651 248.616 83.4251V88.0001H247.551V83.5301C247.551 82.7001 247.351 82.0751 246.951 81.6551C246.561 81.2251 246.006 81.0101 245.286 81.0101C244.746 81.0101 244.276 81.1251 243.876 81.3551C243.486 81.5751 243.181 81.9001 242.961 82.3301C242.751 82.7501 242.646 83.2601 242.646 83.8601V88.0001H241.581V83.5301C241.581 82.7001 241.381 82.0751 240.981 81.6551C240.581 81.2251 240.021 81.0101 239.301 81.0101C238.771 81.0101 238.306 81.1251 237.906 81.3551C237.506 81.5751 237.196 81.9001 236.976 82.3301C236.766 82.7501 236.661 83.2601 236.661 83.8601V88.0001H235.596ZM251.505 88.0001V80.1251H252.57V88.0001H251.505ZM252.045 78.3851C251.825 78.3851 251.64 78.3101 251.49 78.1601C251.34 78.0101 251.265 77.8301 251.265 77.6201C251.265 77.4101 251.34 77.2351 251.49 77.0951C251.64 76.9451 251.825 76.8701 252.045 76.8701C252.265 76.8701 252.45 76.9401 252.6 77.0801C252.75 77.2201 252.825 77.3951 252.825 77.6051C252.825 77.8251 252.75 78.0101 252.6 78.1601C252.46 78.3101 252.275 78.3851 252.045 78.3851ZM255.533 88.0001V76.8701H256.598V88.0001H255.533ZM259.561 88.0001V80.1251H260.626V88.0001H259.561ZM260.101 78.3851C259.881 78.3851 259.696 78.3101 259.546 78.1601C259.396 78.0101 259.321 77.8301 259.321 77.6201C259.321 77.4101 259.396 77.2351 259.546 77.0951C259.696 76.9451 259.881 76.8701 260.101 76.8701C260.321 76.8701 260.506 76.9401 260.656 77.0801C260.806 77.2201 260.881 77.3951 260.881 77.6051C260.881 77.8251 260.806 78.0101 260.656 78.1601C260.516 78.3101 260.331 78.3851 260.101 78.3851ZM268.524 88.0001V86.2601L268.479 85.9751V83.0651C268.479 82.3951 268.289 81.8801 267.909 81.5201C267.539 81.1601 266.984 80.9801 266.244 80.9801C265.734 80.9801 265.249 81.0651 264.789 81.2351C264.329 81.4051 263.939 81.6301 263.619 81.9101L263.139 81.1151C263.539 80.7751 264.019 80.5151 264.579 80.3351C265.139 80.1451 265.729 80.0501 266.349 80.0501C267.369 80.0501 268.154 80.3051 268.704 80.8151C269.264 81.3151 269.544 82.0801 269.544 83.1101V88.0001H268.524ZM265.809 88.0751C265.219 88.0751 264.704 87.9801 264.264 87.7901C263.834 87.5901 263.504 87.3201 263.274 86.9801C263.044 86.6301 262.929 86.2301 262.929 85.7801C262.929 85.3701 263.024 85.0001 263.214 84.6701C263.414 84.3301 263.734 84.0601 264.174 83.8601C264.624 83.6501 265.224 83.5451 265.974 83.5451H268.689V84.3401H266.004C265.244 84.3401 264.714 84.4751 264.414 84.7451C264.124 85.0151 263.979 85.3501 263.979 85.7501C263.979 86.2001 264.154 86.5601 264.504 86.8301C264.854 87.1001 265.344 87.2351 265.974 87.2351C266.574 87.2351 267.089 87.1001 267.519 86.8301C267.959 86.5501 268.279 86.1501 268.479 85.6301L268.719 86.3651C268.519 86.8851 268.169 87.3001 267.669 87.6101C267.179 87.9201 266.559 88.0751 265.809 88.0751ZM272.437 88.0001V80.1251H273.457V82.2701L273.352 81.8951C273.572 81.2951 273.942 80.8401 274.462 80.5301C274.982 80.2101 275.627 80.0501 276.397 80.0501V81.0851C276.357 81.0851 276.317 81.0851 276.277 81.0851C276.237 81.0751 276.197 81.0701 276.157 81.0701C275.327 81.0701 274.677 81.3251 274.207 81.8351C273.737 82.3351 273.502 83.0501 273.502 83.9801V88.0001H272.437ZM283.988 88.0001L281.018 80.1251H282.038L284.738 87.4301H284.273L287.048 80.1251H287.963L290.708 87.4301H290.243L292.988 80.1251H293.963L290.978 88.0001H289.973L287.333 81.1301H287.648L284.993 88.0001H283.988ZM295.567 88.0001V80.1251H296.632V88.0001H295.567ZM296.107 78.3851C295.887 78.3851 295.702 78.3101 295.552 78.1601C295.402 78.0101 295.327 77.8301 295.327 77.6201C295.327 77.4101 295.402 77.2351 295.552 77.0951C295.702 76.9451 295.887 76.8701 296.107 76.8701C296.327 76.8701 296.512 76.9401 296.662 77.0801C296.812 77.2201 296.887 77.3951 296.887 77.6051C296.887 77.8251 296.812 78.0101 296.662 78.1601C296.522 78.3101 296.337 78.3851 296.107 78.3851ZM301.954 88.0751C301.214 88.0751 300.644 87.8751 300.244 87.4751C299.844 87.0751 299.644 86.5101 299.644 85.7801V78.3851H300.709V85.7201C300.709 86.1801 300.824 86.5351 301.054 86.7851C301.294 87.0351 301.634 87.1601 302.074 87.1601C302.544 87.1601 302.934 87.0251 303.244 86.7551L303.619 87.5201C303.409 87.7101 303.154 87.8501 302.854 87.9401C302.564 88.0301 302.264 88.0751 301.954 88.0751ZM298.234 81.0101V80.1251H303.109V81.0101H298.234ZM305.557 88.0001V76.8701H306.622V82.2851L306.412 81.8801C306.662 81.3101 307.062 80.8651 307.612 80.5451C308.162 80.2151 308.817 80.0501 309.577 80.0501C310.217 80.0501 310.777 80.1751 311.257 80.4251C311.747 80.6651 312.127 81.0351 312.397 81.5351C312.677 82.0351 312.817 82.6651 312.817 83.4251V88.0001H311.752V83.5301C311.752 82.7001 311.542 82.0751 311.122 81.6551C310.712 81.2251 310.132 81.0101 309.382 81.0101C308.822 81.0101 308.332 81.1251 307.912 81.3551C307.502 81.5751 307.182 81.9001 306.952 82.3301C306.732 82.7501 306.622 83.2601 306.622 83.8601V88.0001H305.557ZM319.62 88.0001V80.1251H320.685V88.0001H319.62ZM320.16 78.3851C319.94 78.3851 319.755 78.3101 319.605 78.1601C319.455 78.0101 319.38 77.8301 319.38 77.6201C319.38 77.4101 319.455 77.2351 319.605 77.0951C319.755 76.9451 319.94 76.8701 320.16 76.8701C320.38 76.8701 320.565 76.9401 320.715 77.0801C320.865 77.2201 320.94 77.3951 320.94 77.6051C320.94 77.8251 320.865 78.0101 320.715 78.1601C320.575 78.3101 320.39 78.3851 320.16 78.3851ZM326.006 88.0751C325.266 88.0751 324.696 87.8751 324.296 87.4751C323.896 87.0751 323.696 86.5101 323.696 85.7801V78.3851H324.761V85.7201C324.761 86.1801 324.876 86.5351 325.106 86.7851C325.346 87.0351 325.686 87.1601 326.126 87.1601C326.596 87.1601 326.986 87.0251 327.296 86.7551L327.671 87.5201C327.461 87.7101 327.206 87.8501 326.906 87.9401C326.616 88.0301 326.316 88.0751 326.006 88.0751ZM322.286 81.0101V80.1251H327.161V81.0101H322.286ZM329.861 88.0751C329.641 88.0751 329.451 87.9951 329.291 87.8351C329.141 87.6751 329.066 87.4801 329.066 87.2501C329.066 87.0101 329.141 86.8151 329.291 86.6651C329.451 86.5151 329.641 86.4401 329.861 86.4401C330.081 86.4401 330.266 86.5151 330.416 86.6651C330.576 86.8151 330.656 87.0101 330.656 87.2501C330.656 87.4801 330.576 87.6751 330.416 87.8351C330.266 87.9951 330.081 88.0751 329.861 88.0751Z" fill="white" fill-opacity="0.75"/>
<defs>
<clipPath id="clip0_50_3445">
<rect width="100" height="100" fill="white" transform="translate(25 25.0001)"/>
</clipPath>
</defs>
</svg>
