<?xml version="1.0" encoding="UTF-8"?>
<svg id="Desk" xmlns="http://www.w3.org/2000/svg" width="1440" height="900" xmlns:xlink="http://www.w3.org/1999/xlink" viewBox="0 0 1440 900">
  <defs>
    <style>
      .cls-1 {
        fill: url(#linear-gradient);
      }

      .cls-1, .cls-2, .cls-3 {
        stroke-width: 0px;
      }

      .cls-4 {
        fill: #000;
        stroke-width: 2px;
      }

      .cls-4, .cls-5, .cls-6 {
        stroke-miterlimit: 10;
      }

      .cls-4, .cls-6 {
        stroke: #fff;
      }

      .cls-5 {
        fill: url(#linear-gradient-2);
        stroke: #000;
      }

      .cls-5, .cls-2 {
        fill-rule: evenodd;
      }

      .cls-2 {
        fill: #f2f2f2;
      }

      .cls-3, .cls-6 {
        fill: #fff;
      }
    </style>
    <linearGradient id="linear-gradient" x1="720" y1="891.31" x2="720" y2="810.37" gradientUnits="userSpaceOnUse">
      <stop offset="0" stop-color="#fff" stop-opacity="0"/>
      <stop offset=".09" stop-color="rgba(255, 255, 255, .03)" stop-opacity=".03"/>
      <stop offset=".22" stop-color="rgba(255, 255, 255, .11)" stop-opacity=".11"/>
      <stop offset=".37" stop-color="rgba(255, 255, 255, .23)" stop-opacity=".23"/>
      <stop offset=".54" stop-color="rgba(255, 255, 255, .41)" stop-opacity=".41"/>
      <stop offset=".74" stop-color="rgba(255, 255, 255, .64)" stop-opacity=".64"/>
      <stop offset=".94" stop-color="rgba(255, 255, 255, .91)" stop-opacity=".91"/>
      <stop offset="1" stop-color="#fff"/>
    </linearGradient>
    <linearGradient id="linear-gradient-2" x1="438.59" y1="420.04" x2="1011.83" y2="771.28" gradientUnits="userSpaceOnUse">
      <stop offset=".01" stop-color="#e6e6e6"/>
      <stop offset="1" stop-color="gray"/>
    </linearGradient>
  </defs>
  <rect id="desk-transite" class="cls-1" x="0" y="787.88" width="1440" height="112.12"/>
  <line id="desk-surface" class="cls-4" x1="0" y1="786.88" x2="1440" y2="786.88"/>
  <path id="cup" class="cls-6" d="M227.59,733.59c.37-1.97.67-3.66.9-4.99.31-1.82-1.1-3.47-2.94-3.45-56.32.44-61.33.45-107.73.2-1.79-.01-3.18,1.56-2.95,3.34,5.01,38.73,13.03,58.17,13.03,58.17h85.86c1.13-3.08,2.2-6.26,3.21-9.48,54.1,8.78,44.44-48.73,10.62-43.79ZM219.89,767.41c2.27-8.27,4.14-16.35,5.58-23.19,25.46-5.22,28.08,31.87-5.58,23.19Z"/>
  <rect id="transite" class="cls-3" x="128.23" y="779.28" width="85.17" height="10.9"/>
  <g id="laptop">
    <path id="laptop-2" data-name="laptop" class="cls-5" d="M460.26,428.34c173.29-.06,346.58-.12,519.88-.17,6.3,0,11.26,5.37,10.76,11.65l-26.04,325.36c-.93,11.56-48.62,20.47-60.22,20.47h-366.65c-11.6,0-61.54-8.91-62.46-20.47l-26.02-325.19c-.5-6.28,4.46-11.65,10.75-11.65Z"/>
    <g id="laptop-logo">
      <path class="cls-2" d="M731.22,621.81c-.91,1.62-2.65,2.59-4.51,2.52l-2.9-.11c-1.7-.06-3.25-.99-4.1-2.46l-16.46-28.21h4.78c1.78,0,3.42.95,4.3,2.49l13.18,22.91,13.41-22.85c-3.63-7.26-11.13-12.26-19.81-12.26-12.23,0-22.14,9.91-22.14,22.14s9.91,22.14,22.14,22.14,22.14-9.91,22.14-22.14c0-.6-.03-1.2-.08-1.78l-9.95,17.61Z"/>
      <path class="cls-2" d="M747.17,593.55h-3.92c-1.76,0-3.39.93-4.28,2.45l-.06.09c1.24,2.47,2.02,5.21,2.25,8.1l6.01-10.64Z"/>
    </g>
  </g>
</svg>