<?xml version="1.0" encoding="UTF-8"?><svg id="a" xmlns="http://www.w3.org/2000/svg" viewBox="0 0 54.5 44.7"><defs><style>.b{fill:#fff;stroke-width:0px;}</style></defs><path class="b" d="M53.8,5.7c-.3,0-.6,0-.8,0,.4.8.4.8-.2,1.3-.4.4-.3,0-.3-.2,0-.2-.2,0-.2,0,0,.2,0,.4,0,.6v.7c-.2,0-.5.1-.5-.2,0-.2,0-.3-.2-.2,0-.4-.2-.7-.5-1,0-.2.1-.5-.2-.5,0-.2,0-.3-.2-.2,0-.2.1-.5-.2-.5,0-.2.1-.5-.2-.5,0-.2,0-.5,0-.7,0-.2,0-.3.3-.3.2,0,.3,0,.2-.2.3,0,.4.2.5.5q.4.6,1,.2h.2c.2,0,.4.1.5-.2,0-.3.2-.7.3-1,.4-.6,0-.7-.3-.9,0-.2,0-.3,0-.5-.4-.4-.8-.8-1.4-1-.7-.4-1.5-.3-2.2-.1,0,0,0,0,0,.1h-.2c-.1-.5-.5-.2-.7-.2h-.2c-.9-.9-1-1-1.7-.1,0,0,0,0,0,.1-.2,0-.5-.1-.5.2h-.2c-.6,0-.7.2-.7.7-.4,0-.2.3-.2.5v.7c-.4,0-.6,0-.5.5-.3,0-.4.2-.5.5-.7,0-.9.3-1,.7h-.2c-.8,0-.9,0-1,.7h-1c0-.2,0-.3-.2-.2,0-.3-.2-.4-.5-.5-.1-.5-.5-.2-.7-.2-.2,0-.3.2-.5.2-.4,0-.2.3-.2.5-.2,0-.3,0-.2.2-.2,0-.3,0-.2.2-.2,0-.5-.1-.5.2-.6.2-.7.7-.7,1.2h-.2c-.7,0-1.5,0-2.2,0-.3,0-.5.2-.8.3h-.2c-.4-.1-.6.3-1,.3-.4,0-.7,0-1.1,0h-10.9c-2,0-3.9,0-5.9,0-2,0-3.9.3-5.9.3-2.1,0-4.1,0-6.2,0-.2,0-.5-.2-.6.2-.2,0-.3,0-.2.2-.6.1-.5.6-.5,1l-.2.5v1c.3.2,0,.7.5.7,0,.4,0,.6.5.5,0,.2.1.3.3.2.5,0,1,0,1.4,0h1.1c.3,0,.8.1,1,0,.4-.4.6.2.9,0,.6,0,1.1,0,1.7,0,.2,0,.3,0,.3-.2.2,0,.5.1.5-.2h1c.3.5.7.5,1.2.5.9,0,1.9,0,2.8,0,.5,0,1-.1,1.5-.5.2,0,.3,0,.2-.2.4,0,.2-.3.2-.5h22c.1.3.3.5.3.9,0,.3,0,.6,0,.9v2.2c-.2,0-.3,0-.2.2-.4.2-.8.6-1,1-.4,0-.2.3-.2.5-.2,0-.3,0-.2.2-.2,0-.3,0-.2.2-.3,0-.4.2-.5.5-.2,0-.3,0-.2.2-.2,0-.3,0-.2.2-.6,1-1.3,2-2.2,2.8-.2.1,0,.3,0,.5-.2,0-.3,0-.2.2-.2,0-.3,0-.2.2-.2,0-.3,0-.2.2-.2,0-.3,0-.2.2-.2,0-.3,0-.2.2-.4,0-.5.4-.5.7-.2,0-.3,0-.2.2-.4,0-.2.3-.2.5-.2,0-.3,0-.2.2-.4,0-.2.3-.2.5-.4,0-.2.3-.2.5-.1,0-.4,0-.4,0-.1.6-.7.8-.9,1.2-.4,0-.2.3-.2.5-.2,0-.3,0-.2.2,0,.3-.2.4-.5.5-.3,0-.6,0-.5.4,0,.1,0,.2,0,.4-.4,0-.2.3-.2.5-.5,0,0,.8-.6.8-.3,0-.6.5-.9.8-.2.2-.5.3-.5.6-.2,0-.3,0-.2.2-.4,0-.2.3-.2.5-.2,0-.3,0-.2.2-.2,0-.3,0-.2.2-.2,0-.3,0-.2.2-.2,0-.3,0-.2.2-.2,0-.3,0-.2.2-.3,0-.4.2-.5.5v.2c-.7.2-.4.8-.5,1.2-.2,0-.3,0-.2.2-.2,0-.3,0-.2.2-.2,0-.3,0-.2.2-.2,0-.3,0-.2.2-.3.6-.9,1.1-1.4,1.5-.4.3-.8.6-1.1,1-.4,0-.5.4-.5.7-.2,0-.3,0-.2.2,0,.2.1.5-.2.5-.3,0-.5,0-.6.5-.3.8-.2,1.6-.2,2.5,0,0,.1,0,.2,0,.2.8.4,1,1.1,1,.5,0,1,0,1.4,0,.2,0,.5.1.5-.2.4,0,.4-.5.6-.7s.6-.2.7-.6c.4,0,.5-.4.5-.7.2,0,.3,0,.2-.2.2,0,.3,0,.2-.2.2,0,.3,0,.2-.2.2,0,.3,0,.2-.2.2,0,.3,0,.2-.2.2,0,.3,0,.2-.2,0-.3.3-.4.6-.5.2,0,.4-.2.4-.5.2,0,.3,0,.2-.2.4,0,.2-.3.2-.5,0-.2,0-.3.2-.2.4,0,.2-.3.2-.5.2,0,.3,0,.2-.2.2,0,.3,0,.2-.2.4,0,.2-.3.2-.5.2,0,.3,0,.2-.2v-.2c.2,0,.3,0,.2-.2.2,0,.3,0,.2-.2.6-.3.9-.8,1-1.5.4,0,.2-.3.2-.5.4,0,.2-.3.2-.5.4,0,.2-.3.2-.5.2,0,.3,0,.2-.2v-.2c.4,0,.2-.3.2-.5.2,0,.3,0,.2-.2.5-.1.2-.5.2-.7.2,0,.3,0,.2-.2.2,0,.3,0,.2-.2.2,0,.3,0,.2-.2.2,0,.3,0,.2-.2.3,0,.5-.2.5-.6,0-.4.2-.8.5-1,.4-.4.7-.9,1-1.4.2,0,.3,0,.2-.2.4,0,.5-.4.5-.7,0-.3.3-.4.6-.5.2,0,.4-.2.4-.5.4,0,.5-.4.5-.7.7-.9,1.3-1.8,2-2.7.4,0,.5-.4.5-.7,0-.2.1-.2.3-.3.1,0,.2,0,.2-.2.4,0,.2-.3.2-.5.4,0,.2-.3.2-.5.2,0,.3,0,.2-.2.6-.2.6-.9,1-1.2.5-.4.9-.8,1.2-1.3h1.7c.2,0,.5.1.5-.2.2,0,.4,0,.5.1.2.2.6.3.7-.1.2,0,.3,0,.2-.2.4,0,.2-.3.2-.5.2,0,.3-.1.3-.3,0-.2,0-.5,0-.7.1,0,.3,0,.2-.2,0-.3.2-.6.3-.8.2,0,.3,0,.2-.2h1c.8,0,1.3-.6,1.7-1.2h.2c.5.2,1-.2,1.5-.2.4.5.9.7,1.5.2q.8,0,1.2-.5c.5,0,.8-.3,1-.7v-.7c0-.3-.4-.4-.2-.7.4,0,.6,0,.5-.5,0-.2.2-.3.2-.5.2,0,.3,0,.2-.2.2,0,.2-.1.2-.3,0-.6,0-1.1,0-1.7,0-.5-.1-.8-.7-.8ZM39.5,7v.7h-1.7v-.7c.2,0,.3,0,.2-.2h1.2c.2,0,.3,0,.2.2ZM43.5,14.6s0,0,0,.1c0,0,0,0,0,0,0,0,0,0,0,0,0,0,0-.1,0-.3-.4-.2.1.2-.1.2,0,.2,0,.3,0,.5,0,.2-.9.1-.9.4v-.7l.2-.5h.7v-.2c0,0,0,.2.1.4,0,0,.1,0,.1,0,0,0,0,0-.1,0,0,0,0,0,.1,0,0,0,0,.1,0,.2ZM44.2,11h-.5c-.2,0-.3-.2-.5-.2,0-.7-.6-1.1-.7-1.7,0-.2,0-.4-.1-.5-.2-.3-.2-.4.3-.5.1,0,.2,0,.4,0h1.5c.4,0,.8.4,1.2.2v1c-.2,0-.3,0-.2.2-.7.3-.8,1-1.2,1.5ZM47.7,9.7c0-.2,0-.3-.2-.2-.1-.4-.4-.6-.7-.7v-.2c0-.2.2-.6-.2-.7,0-.2.1-.5-.2-.5,0-.4-.1-.7-.5-.7v-.7h.2c.2,0,.3,0,.2.2,0,.2-.1.5.2.5,0,.2,0,.3.2.2,0,.2-.1.5.2.5,0,.2,0,.3.2.2,0,.2-.1.5.2.5,0,.4.1.7.5.7,0,.2-.1.5.2.5v1h-.2c0-.2,0-.3-.2-.2v-.2Z"/></svg>