<?xml version="1.0" encoding="UTF-8"?><svg id="a" xmlns="http://www.w3.org/2000/svg" viewBox="0 0 54.5 50.5"><defs><style>.b{fill:#fff;stroke-width:0px;}</style></defs><path class="b" d="M45.3,13.8c-.7-.3-1.2-.8-1.8-1.3-2.1-1.8-2.5-1.7-4.2.5-.3.4-.7.8-1,1.3-2.5,4.1-4.5,8.5-7.3,12.3-.2.2-.5.4-.7.7-1.7,2.9-3.5,5.7-5.2,8.7-1.1,1.9-2.1,4-3.2,5.9-1.1,1.8-2.1,3.8-3.3,5.6-.2.4-.6.8-.2,1.3.4.5,1,.4,1.6.2.5-.2.9-.5,1.2-1,.6-1,1.2-2.1,1.8-3.1.5-1.4,1.6-2.5,1.9-3.9,1.6-1.8,2.3-4.1,3.6-6,1.7-2.5,3-5.2,4.2-7.9,2.8-4.8,5.7-9.4,8.2-14.4.6.5,1.3.7,1.9,1.2.6.5,1.2.8,1.9,1.2.4.2.9.5,1.2-.1.2-.5-.1-.9-.6-1.1Z"/><path class="b" d="M50.5.2c-.6-.4-1.2.1-1.8,0-2-.3-3.4.7-4.6,2.2-.4.2-.7.5-.9.9-.4-.1-.7-.1-1,.2-2.1,2.6-4.6,4.8-6.8,7.2-.5.4-.9,1-1.4,1.5-.8.8-1.4,2.1-2.5,2.1-1.2,0-2.1.3-3,1.1-1,1-2.2,1.7-2.8,3.1h0c-1.6,1.2-2.8,2.8-4.2,4.2-.8.6-1.4,1.3-1.9,2.1-1.8,1.8-3.6,3.6-5.3,5.4-.8.7-1.6,1.4-2.2,2.4-1.8,1.8-3.6,3.6-5.3,5.4-.2.5-.4.9-.7,1.4-.6,1.1-.4,2.3.5,3.1,1,.8,2.1.7,2.9,0,1.6-1.6,3.4-2.8,4.8-4.6,3.3-3.3,6.6-6.5,9.9-9.8,1-1.2,2.6-1.8,3.2-3.3,1-.4,1.6-1.2,2.3-2,1.8-1.8,3.9-3.3,3.8-6.2,0-.2.1-.3.2-.5,1.1-1.3,2.1-2.7,3.4-3.8,1-.9,1.8-1.8,2.7-2.7,0,0,0,0,0,0h0c.1-1,.9-1.4,1.5-2.1-.6.6-1.4,1.1-1.5,2.1,1.3-1.3,2.7-2.5,3.8-4,.4-.4.7-.7,1.1-1.1,1.1-1,2-2.2,3.5-2.6.7,0,1.5.1,2.2-.3.6-.3,1-.8.3-1.4ZM29.9,17.3c.9.3.5,1.3.7,1.9,0,.3-.2.7-.7.8-.5,0-1.2.5-1.5-.3-.9-.4-.6-1-.3-1.5.4-.6,1-1.1,1.8-.8Z"/></svg>