<svg xmlns="http://www.w3.org/2000/svg" width="80" height="80" viewBox="0 0 80 80" fill="none">
  <path d="M65 15H15C12.2386 15 10 17.2386 10 20V60C10 62.7614 12.2386 65 15 65H65C67.7614 65 70 62.7614 70 60V20C70 17.2386 67.7614 15 65 15Z" stroke="#4CAF50" stroke-width="3" stroke-linecap="round" stroke-linejoin="round"/>
  <path d="M25 15V35H55V15" stroke="#4CAF50" stroke-width="3" stroke-linecap="round" stroke-linejoin="round"/>
  <rect x="30" y="20" width="20" height="10" rx="2" stroke="#4CAF50" stroke-width="3" stroke-linecap="round" stroke-linejoin="round" fill="none"/>
  <path d="M40 45V55" stroke="#4CAF50" stroke-width="3" stroke-linecap="round" stroke-linejoin="round"/>
  <path d="M35 50H45" stroke="#4CAF50" stroke-width="3" stroke-linecap="round" stroke-linejoin="round"/>
  <path d="M20 45H25" stroke="#4CAF50" stroke-width="3" stroke-linecap="round" stroke-linejoin="round"/>
  <path d="M20 55H25" stroke="#4CAF50" stroke-width="3" stroke-linecap="round" stroke-linejoin="round"/>
  <path d="M55 45H60" stroke="#4CAF50" stroke-width="3" stroke-linecap="round" stroke-linejoin="round"/>
  <path d="M55 55H60" stroke="#4CAF50" stroke-width="3" stroke-linecap="round" stroke-linejoin="round"/>
</svg>