<?xml version="1.0" encoding="UTF-8"?><svg id="a" xmlns="http://www.w3.org/2000/svg" viewBox="0 0 8000 8000"><defs><style>.b,.c{opacity:.5;}.c{fill:#000;}.c,.d{stroke-width:0px;}.d{fill:#fff;}</style></defs><path class="c" d="M0,0v8000h8000V0H0ZM3999.5,4484.9c-295.8,0-535.5-216.4-535.5-483.4s239.8-483.4,535.5-483.4,535.5,216.4,535.5,483.4-239.8,483.4-535.5,483.4Z"/><g class="b"><path class="d" d="M3999.5,3520.1c72,0,141.9,12.7,207.7,37.9,63.5,24.3,120.6,59,169.6,103.2,49,44.2,87.4,95.7,114.3,153,27.8,59.3,41.9,122.4,41.9,187.3s-14.1,128-41.9,187.3c-26.9,57.3-65.3,108.8-114.3,153-49,44.2-106.1,79-169.6,103.2-65.8,25.1-135.7,37.9-207.7,37.9s-141.9-12.7-207.7-37.9c-63.5-24.3-120.6-59-169.6-103.2-49-44.2-87.4-95.7-114.3-153-27.8-59.3-41.9-122.4-41.9-187.3s14.1-128,41.9-187.3c26.9-57.3,65.3-108.8,114.3-153,49-44.2,106.1-79,169.6-103.2,65.8-25.1,135.7-37.9,207.7-37.9M3999.5,3518.1c-295.8,0-535.5,216.4-535.5,483.4s239.8,483.4,535.5,483.4,535.5-216.4,535.5-483.4-239.8-483.4-535.5-483.4h0Z"/></g></svg>